<svg width="41" height="41" viewBox="0 0 41 41" fill="none" xmlns="http://www.w3.org/2000/svg">
<circle cx="20.5" cy="20.708" r="20" fill="#3C1606"/>
<path d="M31.3863 19.9364H30.3602C29.869 19.9364 29.2768 19.5837 29.0417 19.1527L27.3509 16.0375C27.1173 15.6065 26.5237 15.2531 26.0332 15.2531H18.096C17.6054 15.2531 16.9582 15.5709 16.6585 15.9598L14.1354 19.2311C13.835 19.6193 13.1884 19.9365 12.6986 19.9365H11.3112C9.76405 19.9365 8.812 20.6752 8.58926 22.1628L8.5 23.7287C8.5 24.2192 8.902 24.6212 9.39256 24.6212H11.5884C11.6972 25.8737 12.7509 26.8606 14.0324 26.8606C15.3124 26.8606 16.3668 25.8737 16.4756 24.6212H25.1225C25.2292 25.7286 26.1624 26.5935 27.2973 26.5935C28.4322 26.5935 29.3647 25.7286 29.4728 24.6212H31.3863C31.8761 24.6212 32.2781 24.2192 32.2781 23.7287V20.8289C32.2781 20.3384 31.8761 19.9364 31.3863 19.9364ZM14.0324 25.5C13.4286 25.5 12.9388 25.0102 12.9388 24.4064C12.9388 23.8041 13.4286 23.3136 14.0324 23.3136C14.6354 23.3136 15.1252 23.8042 15.1252 24.4064C15.1252 25.0102 14.6354 25.5 14.0324 25.5ZM22.0181 19.8972H15.5649L15.9002 19.4611L17.961 16.7899C18.1018 16.6085 18.4929 16.4155 18.723 16.4155H22.0181V19.8972ZM23.0885 19.8972V16.4155H25.5891C25.7763 16.4155 26.0803 16.5969 26.1704 16.761L27.777 19.8972H23.0885ZM27.2973 25.5C26.6935 25.5 26.2044 25.0102 26.2044 24.4064C26.2044 23.8041 26.6935 23.3136 27.2973 23.3136C27.901 23.3136 28.3901 23.8042 28.3901 24.4064C28.3901 25.0102 27.901 25.5 27.2973 25.5Z" fill="#F5ECE6"/>
</svg>
