<svg width="75" height="128" viewBox="0 0 75 128" fill="none" xmlns="http://www.w3.org/2000/svg">
<g clip-path="url(#clip0_57_341)">
<path d="M11.7098 104.932C17.0085 102.608 22.1528 99.9057 27.072 96.8426C28.0843 96.2088 28.5051 94.8691 27.9003 93.7866C27.3301 92.7584 25.9069 92.3119 24.8946 92.9457C19.9754 96.0089 14.8311 98.7109 9.53246 101.035C8.43385 101.506 8.16865 103.117 8.70417 104.091C9.34343 105.245 10.6112 105.403 11.7098 104.932Z" fill="#EDAD0B" fill-opacity="0.4"/>
<path d="M41.0234 124.357C41.3196 123.124 41.6859 121.927 42.1225 120.748C42.1951 120.57 42.2498 120.409 42.3224 120.231C42.3228 120.195 42.5034 119.821 42.431 119.981C42.3585 120.16 42.5216 119.767 42.5395 119.749C42.594 119.607 42.6659 119.482 42.7205 119.339C43.0095 118.733 43.3159 118.145 43.6398 117.575C43.9459 117.023 44.287 116.489 44.6279 115.973C44.7894 115.724 44.9507 115.492 45.1299 115.244C45.2195 115.119 45.3089 115.013 45.3985 114.888C45.3985 114.888 45.7387 114.426 45.6311 114.586C45.5237 114.728 45.7742 114.408 45.7922 114.373C45.8816 114.266 45.9712 114.142 46.0782 114.035C46.2926 113.787 46.5071 113.538 46.7215 113.29C47.168 112.793 47.6317 112.332 48.113 111.872C48.9508 111.074 49.0039 109.515 48.1491 108.699C47.2594 107.864 45.9377 107.795 45.0285 108.663C40.9817 112.543 38.0674 117.619 36.7703 123.125C36.5104 124.27 37.0771 125.603 38.2727 125.903C39.3982 126.167 40.7096 125.59 41.0056 124.375L41.0234 124.357Z" fill="#EDAD0B" fill-opacity="0.4"/>
<path d="M73.2518 124.742C71.8299 119.545 70.4081 114.33 68.9687 109.115C68.647 107.947 67.4387 107.216 66.2714 107.525C65.1217 107.835 64.3844 109.099 64.7061 110.268C66.1278 115.483 67.5498 120.68 68.9892 125.895C69.3109 127.064 70.5192 127.794 71.6865 127.485C72.8362 127.175 73.5735 125.911 73.2518 124.742Z" fill="#EDAD0B" fill-opacity="0.4"/>
<path d="M41.186 3.2851C42.3944 8.65881 43.6025 14.0504 44.8108 19.4241C45.0795 20.6103 46.3762 21.3242 47.5082 21.0145C48.6931 20.7053 49.3421 19.4578 49.0735 18.2717C47.8651 12.8979 46.657 7.5063 45.4487 2.13259C45.18 0.946396 43.8833 0.232509 42.7513 0.542285C41.5664 0.85146 40.9174 2.09891 41.186 3.2851Z" fill="#EDAD0B" fill-opacity="0.4"/>
<path d="M18.1064 15.5168L26.606 24.756C27.3898 25.6074 28.9232 25.6608 29.7266 24.7915C30.5656 23.8868 30.5986 22.5428 29.7627 21.619C26.9237 18.5392 24.1022 15.4596 21.2632 12.3798C20.4794 11.5283 18.9459 11.475 18.1426 12.3442C17.3035 13.2489 17.2706 14.593 18.1064 15.5168Z" fill="#EDAD0B" fill-opacity="0.4"/>
<path d="M5.98698 37.679C11.5023 39.5524 17.0001 41.4255 22.5157 43.281C23.6397 43.6703 24.9183 42.8781 25.2485 41.7525C25.5974 40.5375 24.8702 39.364 23.7461 38.9748C18.2307 37.1014 12.733 35.2282 7.21743 33.3728C6.09337 32.9835 4.81478 33.7756 4.48457 34.9012C4.1357 36.1162 4.86291 37.2897 5.98698 37.679Z" fill="#EDAD0B" fill-opacity="0.4"/>
<path d="M2.79947 74.4811C7.88279 74.0371 12.9483 73.6108 18.0316 73.1668C19.214 73.0727 20.2462 72.2419 20.2609 70.9514C20.2738 69.8222 19.2827 68.5919 18.0826 68.6858C12.9993 69.1298 7.93383 69.5561 2.85052 70.0001C1.66805 70.0942 0.635881 70.925 0.62118 72.2155C0.608316 73.3447 1.59937 74.575 2.79947 74.4811Z" fill="#EDAD0B" fill-opacity="0.4"/>
</g>
<defs>
<clipPath id="clip0_57_341">
<rect width="126.748" height="73.3125" fill="white" transform="translate(0 126.74) rotate(-89.3473)"/>
</clipPath>
</defs>
</svg>
