<svg width="76" height="128" viewBox="0 0 76 128" fill="none" xmlns="http://www.w3.org/2000/svg">
<g clip-path="url(#clip0_111_306)">
<path d="M63.7934 104.932C58.4947 102.608 53.3504 99.9057 48.4312 96.8426C47.4189 96.2088 46.9981 94.8691 47.6029 93.7866C48.1731 92.7584 49.5962 92.3119 50.6085 92.9457C55.5277 96.0089 60.672 98.7109 65.9707 101.035C67.0693 101.506 67.3345 103.117 66.799 104.091C66.1597 105.245 64.892 105.403 63.7934 104.932Z" fill="#EDAD0B" fill-opacity="0.4"/>
<path d="M34.4797 124.357C34.1836 123.124 33.8173 121.927 33.3807 120.748C33.3081 120.57 33.2534 120.409 33.1808 120.231C33.1804 120.195 32.9998 119.821 33.0722 119.981C33.1447 120.16 32.9816 119.767 32.9637 119.749C32.9092 119.607 32.8372 119.482 32.7827 119.339C32.4937 118.733 32.1872 118.145 31.8633 117.575C31.5573 117.023 31.2162 116.489 30.8753 115.973C30.7138 115.724 30.5524 115.492 30.3733 115.244C30.2837 115.119 30.1943 115.013 30.1047 114.888C30.1047 114.888 29.7644 114.426 29.8721 114.586C29.9795 114.728 29.729 114.408 29.7109 114.373C29.6216 114.266 29.532 114.142 29.425 114.035C29.2105 113.787 28.9961 113.538 28.7817 113.29C28.3352 112.793 27.8715 112.332 27.3902 111.872C26.5523 111.074 26.4993 109.515 27.354 108.699C28.2438 107.864 29.5655 107.795 30.4746 108.663C34.5215 112.543 37.4358 117.619 38.7328 123.125C38.9927 124.27 38.426 125.603 37.2304 125.903C36.1049 126.167 34.7935 125.59 34.4976 124.375L34.4797 124.357Z" fill="#EDAD0B" fill-opacity="0.4"/>
<path d="M2.25135 124.742C3.67331 119.545 5.09506 114.33 6.53444 109.115C6.85615 107.947 8.06449 107.216 9.23178 107.525C10.3814 107.835 11.1188 109.099 10.7971 110.268C9.37533 115.483 7.95337 120.68 6.51399 125.895C6.19228 127.064 4.98394 127.794 3.81665 127.485C2.66699 127.175 1.92964 125.911 2.25135 124.742Z" fill="#EDAD0B" fill-opacity="0.4"/>
<path d="M34.3172 3.2851C33.1088 8.65881 31.9007 14.0504 30.6923 19.4241C30.4237 20.6103 29.127 21.3242 27.995 21.0145C26.8101 20.7053 26.1611 19.4578 26.4297 18.2717C27.638 12.8979 28.8462 7.5063 30.0545 2.13259C30.3231 0.946396 31.6198 0.232509 32.7519 0.542285C33.9368 0.85146 34.5858 2.09891 34.3172 3.2851Z" fill="#EDAD0B" fill-opacity="0.4"/>
<path d="M57.3968 15.5168L48.8972 24.756C48.1134 25.6074 46.58 25.6608 45.7766 24.7915C44.9375 23.8868 44.9046 22.5428 45.7404 21.619C48.5795 18.5392 51.401 15.4596 54.24 12.3798C55.0238 11.5283 56.5572 11.475 57.3606 12.3442C58.1997 13.2489 58.2326 14.593 57.3968 15.5168Z" fill="#EDAD0B" fill-opacity="0.4"/>
<path d="M69.5162 37.679C64.0008 39.5524 58.5031 41.4255 52.9875 43.281C51.8635 43.6703 50.5849 42.8781 50.2547 41.7525C49.9058 40.5375 50.633 39.364 51.7571 38.9748C57.2724 37.1014 62.7702 35.2282 68.2857 33.3728C69.4098 32.9835 70.6884 33.7756 71.0186 34.9012C71.3675 36.1162 70.6403 37.2897 69.5162 37.679Z" fill="#EDAD0B" fill-opacity="0.4"/>
<path d="M72.7037 74.4811C67.6204 74.0371 62.5549 73.6108 57.4716 73.1668C56.2891 73.0727 55.257 72.2419 55.2423 70.9514C55.2294 69.8222 56.2204 68.5919 57.4206 68.6858C62.5039 69.1298 67.5693 69.5561 72.6527 70.0001C73.8351 70.0942 74.8673 70.925 74.882 72.2155C74.8949 73.3447 73.9038 74.575 72.7037 74.4811Z" fill="#EDAD0B" fill-opacity="0.4"/>
</g>
<defs>
<clipPath id="clip0_111_306">
<rect width="126.748" height="73.3125" fill="white" transform="matrix(-0.011391 -0.999935 -0.999935 0.011391 75.5032 126.74)"/>
</clipPath>
</defs>
</svg>
