<svg width="210" height="24" viewBox="0 0 210 24" fill="none" xmlns="http://www.w3.org/2000/svg">
<g clip-path="url(#clip0_185_358)">
<path d="M3.70358 2.84753C2.32936 3.73878 2.0594 6.52468 2.57822 8.79526C2.98229 10.5635 3.84135 12.9354 5.28995 15.1689C6.65268 17.2701 8.55389 19.1541 10.0036 20.2442C11.8652 21.6439 14.519 22.5336 15.8932 21.6423C16.5881 21.1917 17.6205 19.9604 17.6676 19.7394C17.6676 19.7394 17.0622 18.806 16.9293 18.6012L14.8992 15.4709C14.7483 15.2383 13.8022 15.4509 13.3216 15.7231C12.6733 16.0905 12.0762 17.0761 12.0762 17.0761C11.6317 17.3329 11.2593 17.077 10.4814 16.719C9.52522 16.2791 8.45022 14.9122 7.59464 13.6742C6.81319 12.3881 6.00354 10.8491 5.99182 9.79667C5.98217 8.94034 5.90038 8.49604 6.3162 8.19487C6.3162 8.19487 7.45963 8.05167 8.05944 7.60956C8.50401 7.28175 9.08397 6.50464 8.93311 6.27198L6.90295 3.14175C6.7701 2.9369 6.16471 2.00346 6.16471 2.00346C5.94373 1.95639 4.39846 2.39686 3.70358 2.84753Z" fill="#3C1606"/>
</g>
<path d="M37.125 12.5742C37.125 13.8555 37.0469 14.957 36.8906 15.8789C36.7344 16.8008 36.4453 17.6367 36.0234 18.3867C35.4922 19.3086 34.8047 20.0195 33.9609 20.5195C33.1172 21.0195 32.1797 21.2695 31.1484 21.2695C29.9609 21.2695 28.8945 20.9336 27.9492 20.2617C27.0117 19.5898 26.3047 18.6602 25.8281 17.4727C25.5859 16.8242 25.4062 16.1094 25.2891 15.3281C25.1797 14.5391 25.125 13.6875 25.125 12.7734C25.125 11.5938 25.1875 10.5312 25.3125 9.58594C25.4375 8.64062 25.6328 7.82812 25.8984 7.14844C26.3594 6.02344 27.0273 5.16797 27.9023 4.58203C28.7852 3.98828 29.8359 3.69141 31.0547 3.69141C31.8594 3.69141 32.5898 3.82422 33.2461 4.08984C33.9023 4.34766 34.4766 4.73047 34.9688 5.23828C35.4688 5.73828 35.8906 6.35938 36.2344 7.10156C36.8281 8.39062 37.125 10.2148 37.125 12.5742ZM33.9141 12.3398C33.9141 10.9102 33.8281 9.74219 33.6562 8.83594C33.4844 7.92188 33.1953 7.23437 32.7891 6.77344C32.3828 6.30469 31.8203 6.07031 31.1016 6.07031C30.0703 6.07031 29.3516 6.58984 28.9453 7.62891C28.5469 8.66797 28.3477 10.2695 28.3477 12.4336C28.3477 13.9023 28.4336 15.1055 28.6055 16.043C28.7773 16.9805 29.0664 17.6914 29.4727 18.1758C29.8789 18.6523 30.4297 18.8906 31.125 18.8906C31.8438 18.8906 32.4062 18.6406 32.8125 18.1406C33.2188 17.6406 33.5039 16.9258 33.668 15.9961C33.832 15.0664 33.9141 13.8477 33.9141 12.3398ZM47.4469 19.3945V8.73047C45.4625 10.2539 44.1266 11.0156 43.4391 11.0156C43.1109 11.0156 42.818 10.8867 42.5602 10.6289C42.3102 10.3633 42.1852 10.0586 42.1852 9.71484C42.1852 9.31641 42.3102 9.02344 42.5602 8.83594C42.8102 8.64844 43.2516 8.40625 43.8844 8.10938C44.8297 7.66406 45.5836 7.19531 46.1461 6.70312C46.7164 6.21094 47.2203 5.66016 47.6578 5.05078C48.0953 4.44141 48.3805 4.06641 48.5133 3.92578C48.6461 3.78516 48.8961 3.71484 49.2633 3.71484C49.6773 3.71484 50.0094 3.875 50.2594 4.19531C50.5094 4.51562 50.6344 4.95703 50.6344 5.51953V18.9375C50.6344 20.5078 50.0992 21.293 49.0289 21.293C48.5523 21.293 48.1695 21.1328 47.8805 20.8125C47.5914 20.4922 47.4469 20.0195 47.4469 19.3945ZM62.7023 18.2344H68.8195C69.4289 18.2344 69.8937 18.3594 70.2141 18.6094C70.5344 18.8594 70.6945 19.1992 70.6945 19.6289C70.6945 20.0117 70.5656 20.3359 70.3078 20.6016C70.0578 20.8672 69.675 21 69.1594 21H60.5344C59.9484 21 59.4914 20.8398 59.1633 20.5195C58.8352 20.1914 58.6711 19.8086 58.6711 19.3711C58.6711 19.0898 58.7766 18.7188 58.9875 18.2578C59.1984 17.7891 59.4289 17.4219 59.6789 17.1562C60.718 16.0781 61.6555 15.1562 62.4914 14.3906C63.3273 13.6172 63.925 13.1094 64.2844 12.8672C64.925 12.4141 65.4562 11.9609 65.8781 11.5078C66.3078 11.0469 66.632 10.5781 66.8508 10.1016C67.0773 9.61719 67.1906 9.14453 67.1906 8.68359C67.1906 8.18359 67.0695 7.73828 66.8273 7.34766C66.593 6.94922 66.2687 6.64063 65.8547 6.42188C65.4484 6.20312 65.0031 6.09375 64.5187 6.09375C63.4953 6.09375 62.6906 6.54297 62.1047 7.44141C62.0266 7.55859 61.8937 7.87891 61.7062 8.40234C61.5266 8.92578 61.3195 9.32812 61.0852 9.60938C60.8586 9.89062 60.5227 10.0312 60.0773 10.0312C59.6867 10.0312 59.3625 9.90234 59.1047 9.64453C58.8469 9.38672 58.718 9.03516 58.718 8.58984C58.718 8.05078 58.8391 7.48828 59.0812 6.90234C59.3234 6.31641 59.6828 5.78516 60.1594 5.30859C60.6437 4.83203 61.2531 4.44922 61.9875 4.16016C62.7297 3.86328 63.5969 3.71484 64.5891 3.71484C65.7844 3.71484 66.8039 3.90234 67.6477 4.27734C68.1945 4.52734 68.675 4.87109 69.0891 5.30859C69.5031 5.74609 69.8234 6.25391 70.05 6.83203C70.2844 7.40234 70.4016 7.99609 70.4016 8.61328C70.4016 9.58203 70.1594 10.4648 69.675 11.2617C69.1984 12.0508 68.7102 12.6719 68.2102 13.125C67.7102 13.5703 66.8703 14.2734 65.6906 15.2344C64.5187 16.1953 63.7141 16.9414 63.2766 17.4727C63.0891 17.6836 62.8977 17.9375 62.7023 18.2344ZM80.5945 10.6289C81.3133 10.6289 81.9305 10.418 82.4461 9.99609C82.9695 9.57422 83.2313 8.96875 83.2313 8.17969C83.2313 7.57813 83.0242 7.0625 82.6102 6.63281C82.1961 6.19531 81.6375 5.97656 80.9344 5.97656C80.4578 5.97656 80.0633 6.04297 79.7508 6.17578C79.4461 6.30859 79.2039 6.48437 79.0242 6.70312C78.8445 6.92188 78.6727 7.20313 78.5086 7.54688C78.3523 7.89062 78.2078 8.21484 78.075 8.51953C77.9969 8.68359 77.8563 8.8125 77.6531 8.90625C77.45 9 77.2156 9.04688 76.95 9.04688C76.6375 9.04688 76.3484 8.92188 76.0828 8.67188C75.825 8.41406 75.6961 8.07422 75.6961 7.65234C75.6961 7.24609 75.8172 6.82031 76.0594 6.375C76.3094 5.92187 76.6688 5.49219 77.1375 5.08594C77.6141 4.67969 78.2039 4.35547 78.907 4.11328C79.6102 3.86328 80.3953 3.73828 81.2625 3.73828C82.0203 3.73828 82.7117 3.84375 83.3367 4.05469C83.9617 4.25781 84.5047 4.55469 84.9656 4.94531C85.4266 5.33594 85.7742 5.78906 86.0086 6.30469C86.243 6.82031 86.3602 7.375 86.3602 7.96875C86.3602 8.75 86.1883 9.42188 85.8445 9.98438C85.5086 10.5391 85.0242 11.082 84.3914 11.6133C85.0008 11.9414 85.5125 12.3164 85.9266 12.7383C86.3484 13.1602 86.6648 13.6289 86.8758 14.1445C87.0867 14.6523 87.1922 15.2031 87.1922 15.7969C87.1922 16.5078 87.0477 17.1953 86.7586 17.8594C86.4773 18.5234 86.0594 19.1172 85.5047 19.6406C84.95 20.1562 84.2898 20.5625 83.5242 20.8594C82.7664 21.1484 81.9266 21.293 81.0047 21.293C80.0672 21.293 79.2273 21.125 78.4852 20.7891C77.743 20.4531 77.1297 20.0352 76.6453 19.5352C76.1688 19.0273 75.8055 18.5039 75.5555 17.9648C75.3133 17.4258 75.1922 16.9805 75.1922 16.6289C75.1922 16.1758 75.3367 15.8125 75.6258 15.5391C75.9227 15.2578 76.2898 15.1172 76.7273 15.1172C76.9461 15.1172 77.157 15.1836 77.3602 15.3164C77.5633 15.4414 77.6961 15.5938 77.7586 15.7734C78.1648 16.8594 78.5984 17.668 79.0594 18.1992C79.5281 18.7227 80.1844 18.9844 81.0281 18.9844C81.5125 18.9844 81.9773 18.8672 82.4227 18.6328C82.8758 18.3906 83.2469 18.0352 83.5359 17.5664C83.8328 17.0977 83.9813 16.5547 83.9813 15.9375C83.9813 15.0234 83.7313 14.3086 83.2313 13.793C82.7313 13.2695 82.0359 13.0078 81.1453 13.0078C80.9891 13.0078 80.7469 13.0234 80.4188 13.0547C80.0906 13.0859 79.8797 13.1016 79.7859 13.1016C79.3563 13.1016 79.0242 12.9961 78.7898 12.7852C78.5555 12.5664 78.4383 12.2656 78.4383 11.8828C78.4383 11.5078 78.5789 11.207 78.8602 10.9805C79.1414 10.7461 79.5594 10.6289 80.1141 10.6289H80.5945ZM96.5531 16.1719H92.85C92.2875 16.1719 91.8578 16.043 91.5609 15.7852C91.2719 15.5195 91.1273 15.1797 91.1273 14.7656C91.1273 14.3438 91.268 14.0039 91.5492 13.7461C91.8383 13.4805 92.2719 13.3477 92.85 13.3477H96.5531C97.1312 13.3477 97.5609 13.4805 97.8422 13.7461C98.1312 14.0039 98.2758 14.3438 98.2758 14.7656C98.2758 15.1797 98.1352 15.5195 97.8539 15.7852C97.5727 16.043 97.1391 16.1719 96.5531 16.1719ZM109.488 19.5117V17.332H103.605C102.863 17.332 102.305 17.1641 101.93 16.8281C101.562 16.4922 101.379 16.0352 101.379 15.457C101.379 15.3086 101.406 15.1602 101.461 15.0117C101.516 14.8555 101.598 14.6953 101.707 14.5312C101.816 14.3594 101.93 14.1953 102.047 14.0391C102.164 13.8828 102.309 13.6914 102.48 13.4648L108.691 5.15625C109.098 4.60937 109.43 4.21484 109.688 3.97266C109.953 3.72266 110.27 3.59766 110.637 3.59766C111.824 3.59766 112.418 4.27734 112.418 5.63672V14.707H112.922C113.523 14.707 114.004 14.7891 114.363 14.9531C114.73 15.1172 114.914 15.4766 114.914 16.0312C114.914 16.4844 114.766 16.8164 114.469 17.0273C114.172 17.2305 113.727 17.332 113.133 17.332H112.418V19.5117C112.418 20.1133 112.285 20.5625 112.02 20.8594C111.754 21.1484 111.398 21.293 110.953 21.293C110.516 21.293 110.16 21.1445 109.887 20.8477C109.621 20.543 109.488 20.0977 109.488 19.5117ZM104.449 14.707H109.488V7.89844L104.449 14.707ZM128.869 6.71484H123.302L122.634 10.5117C123.744 9.91797 124.767 9.62109 125.705 9.62109C126.455 9.62109 127.154 9.76172 127.802 10.043C128.459 10.3242 129.033 10.7148 129.525 11.2148C130.017 11.707 130.404 12.293 130.685 12.9727C130.966 13.6523 131.107 14.3828 131.107 15.1641C131.107 16.2969 130.853 17.3281 130.345 18.2578C129.838 19.1875 129.103 19.9258 128.142 20.4727C127.189 21.0195 126.088 21.293 124.838 21.293C123.439 21.293 122.302 21.0352 121.427 20.5195C120.56 20.0039 119.943 19.4141 119.576 18.75C119.216 18.0781 119.037 17.4922 119.037 16.9922C119.037 16.6875 119.162 16.3984 119.412 16.125C119.67 15.8516 119.99 15.7148 120.373 15.7148C121.029 15.7148 121.517 16.0938 121.838 16.8516C122.15 17.5469 122.572 18.0898 123.103 18.4805C123.634 18.8633 124.228 19.0547 124.884 19.0547C125.486 19.0547 126.013 18.8984 126.466 18.5859C126.92 18.2734 127.267 17.8438 127.509 17.2969C127.759 16.75 127.884 16.1289 127.884 15.4336C127.884 14.6836 127.752 14.043 127.486 13.5117C127.22 12.9805 126.865 12.5859 126.42 12.3281C125.974 12.0625 125.478 11.9297 124.931 11.9297C124.259 11.9297 123.779 12.0117 123.49 12.1758C123.201 12.3398 122.783 12.6289 122.236 13.043C121.697 13.4492 121.252 13.6523 120.9 13.6523C120.517 13.6523 120.177 13.5156 119.88 13.2422C119.584 12.9609 119.435 12.6445 119.435 12.293C119.435 12.2539 119.478 11.9883 119.564 11.4961L120.548 5.88281C120.658 5.21094 120.861 4.72266 121.158 4.41797C121.455 4.11328 121.939 3.96094 122.611 3.96094H128.798C130.017 3.96094 130.627 4.42578 130.627 5.35547C130.627 5.76172 130.478 6.08984 130.181 6.33984C129.884 6.58984 129.447 6.71484 128.869 6.71484ZM138.78 11.707C139.312 11.0742 139.89 10.6055 140.515 10.3008C141.14 9.99609 141.839 9.84375 142.613 9.84375C143.355 9.84375 144.038 9.98438 144.663 10.2656C145.296 10.5391 145.847 10.9336 146.316 11.4492C146.792 11.957 147.159 12.5586 147.417 13.2539C147.675 13.9492 147.804 14.6758 147.804 15.4336C147.804 16.5352 147.55 17.5352 147.042 18.4336C146.542 19.332 145.839 20.0352 144.933 20.543C144.034 21.043 143.015 21.293 141.874 21.293C140.562 21.293 139.429 20.9727 138.476 20.332C137.523 19.6914 136.792 18.7461 136.284 17.4961C135.784 16.2383 135.534 14.7031 135.534 12.8906C135.534 11.4141 135.687 10.0938 135.991 8.92969C136.296 7.76563 136.734 6.80078 137.304 6.03516C137.874 5.26953 138.566 4.69141 139.378 4.30078C140.191 3.91016 141.116 3.71484 142.155 3.71484C143.155 3.71484 144.034 3.91016 144.792 4.30078C145.558 4.69141 146.132 5.17578 146.515 5.75391C146.905 6.33203 147.101 6.88672 147.101 7.41797C147.101 7.73828 146.98 8.03125 146.738 8.29688C146.495 8.55469 146.187 8.68359 145.812 8.68359C145.484 8.68359 145.179 8.58203 144.898 8.37891C144.616 8.16797 144.409 7.87891 144.277 7.51172C144.097 7.04297 143.812 6.66797 143.421 6.38672C143.03 6.09766 142.577 5.95312 142.062 5.95312C141.648 5.95312 141.234 6.07422 140.82 6.31641C140.413 6.55078 140.07 6.87109 139.788 7.27734C139.218 8.10547 138.882 9.58203 138.78 11.707ZM141.945 18.9844C142.734 18.9844 143.386 18.6641 143.902 18.0234C144.417 17.375 144.675 16.5273 144.675 15.4805C144.675 14.7695 144.554 14.1602 144.312 13.6523C144.07 13.1367 143.738 12.7461 143.316 12.4805C142.894 12.207 142.429 12.0703 141.921 12.0703C141.437 12.0703 140.972 12.1992 140.527 12.457C140.089 12.7148 139.734 13.0898 139.46 13.582C139.195 14.0664 139.062 14.6367 139.062 15.293C139.062 16.3477 139.335 17.2266 139.882 17.9297C140.429 18.6328 141.116 18.9844 141.945 18.9844ZM156.966 16.1719H153.262C152.7 16.1719 152.27 16.043 151.973 15.7852C151.684 15.5195 151.54 15.1797 151.54 14.7656C151.54 14.3438 151.68 14.0039 151.962 13.7461C152.251 13.4805 152.684 13.3477 153.262 13.3477H156.966C157.544 13.3477 157.973 13.4805 158.255 13.7461C158.544 14.0039 158.688 14.3438 158.688 14.7656C158.688 15.1797 158.548 15.5195 158.266 15.7852C157.985 16.043 157.552 16.1719 156.966 16.1719ZM165.237 3.98438H173.041C173.791 3.98438 174.334 4.10156 174.67 4.33594C175.006 4.57031 175.174 4.95703 175.174 5.49609C175.174 5.82422 174.975 6.25781 174.577 6.79688C174.186 7.33594 173.737 7.93359 173.229 8.58984C172.729 9.23828 172.209 10.0469 171.67 11.0156C171.139 11.9844 170.651 13.168 170.205 14.5664C170.018 15.1836 169.885 15.6953 169.807 16.1016C169.729 16.5078 169.643 17.0352 169.549 17.6836C169.455 18.332 169.373 18.8281 169.303 19.1719C169.139 19.9688 168.905 20.5234 168.6 20.8359C168.303 21.1406 167.905 21.293 167.405 21.293C166.928 21.293 166.545 21.1289 166.256 20.8008C165.967 20.4648 165.823 19.9727 165.823 19.3242C165.823 18.8242 165.928 18.1445 166.139 17.2852C166.35 16.4258 166.694 15.3984 167.17 14.2031C167.647 13 168.241 11.7695 168.952 10.5117C169.67 9.24609 170.522 7.98828 171.506 6.73828H165.237C164.58 6.73828 164.088 6.62109 163.76 6.38672C163.44 6.14453 163.28 5.76953 163.28 5.26172C163.28 4.72266 163.452 4.375 163.795 4.21875C164.139 4.0625 164.62 3.98438 165.237 3.98438ZM179.777 8.17969C179.777 7.39844 179.988 6.66406 180.41 5.97656C180.84 5.28125 181.465 4.72656 182.285 4.3125C183.113 3.89844 184.078 3.69141 185.18 3.69141C186.109 3.69141 186.926 3.8125 187.629 4.05469C188.332 4.29688 188.918 4.63281 189.387 5.0625C189.855 5.48438 190.203 5.96484 190.43 6.50391C190.656 7.03516 190.77 7.60156 190.77 8.20312C190.77 8.96875 190.57 9.65234 190.172 10.2539C189.781 10.8555 189.195 11.3477 188.414 11.7305C189.078 11.9883 189.629 12.3281 190.066 12.75C190.504 13.1641 190.832 13.6484 191.051 14.2031C191.277 14.75 191.391 15.3594 191.391 16.0312C191.391 17.0156 191.152 17.9102 190.676 18.7148C190.199 19.5117 189.5 20.1367 188.578 20.5898C187.656 21.043 186.57 21.2695 185.32 21.2695C184.023 21.2695 182.914 21.043 181.992 20.5898C181.07 20.1367 180.375 19.5156 179.906 18.7266C179.438 17.9297 179.203 17.0391 179.203 16.0547C179.203 13.9531 180.195 12.5117 182.18 11.7305C180.578 10.9805 179.777 9.79688 179.777 8.17969ZM188.18 15.9375C188.18 15.3281 188.055 14.7969 187.805 14.3438C187.555 13.8906 187.203 13.543 186.75 13.3008C186.297 13.0586 185.789 12.9375 185.227 12.9375C184.43 12.9375 183.762 13.2031 183.223 13.7344C182.684 14.2656 182.414 15.0078 182.414 15.9609C182.414 16.5703 182.539 17.1094 182.789 17.5781C183.047 18.0391 183.395 18.3984 183.832 18.6562C184.27 18.9062 184.758 19.0312 185.297 19.0312C185.844 19.0312 186.336 18.9023 186.773 18.6445C187.211 18.3867 187.555 18.0234 187.805 17.5547C188.055 17.0859 188.18 16.5469 188.18 15.9375ZM185.25 5.92969C184.516 5.92969 183.922 6.16016 183.469 6.62109C183.023 7.07422 182.801 7.66016 182.801 8.37891C182.801 9.04297 183.031 9.59766 183.492 10.043C183.953 10.4805 184.547 10.6992 185.273 10.6992C185.641 10.6992 185.973 10.6406 186.27 10.5234C186.574 10.4062 186.832 10.2461 187.043 10.043C187.262 9.83203 187.43 9.58594 187.547 9.30469C187.664 9.01562 187.723 8.69922 187.723 8.35547C187.723 7.89453 187.617 7.48047 187.406 7.11328C187.203 6.74609 186.914 6.45703 186.539 6.24609C186.164 6.03516 185.734 5.92969 185.25 5.92969ZM204.619 13.3008C204.103 13.9102 203.525 14.3711 202.884 14.6836C202.252 14.9883 201.548 15.1406 200.775 15.1406C200.041 15.1406 199.353 15 198.712 14.7188C198.08 14.4297 197.529 14.0312 197.06 13.5234C196.599 13.0078 196.244 12.4102 195.994 11.7305C195.744 11.043 195.619 10.3242 195.619 9.57422C195.619 8.76953 195.759 8.00781 196.041 7.28906C196.322 6.5625 196.724 5.93359 197.248 5.40234C197.771 4.87109 198.392 4.45703 199.111 4.16016C199.837 3.86328 200.638 3.71484 201.513 3.71484C202.521 3.71484 203.42 3.89844 204.209 4.26562C204.998 4.63281 205.662 5.16797 206.201 5.87109C206.74 6.56641 207.154 7.44531 207.443 8.50781C207.732 9.57031 207.877 10.7734 207.877 12.1172C207.877 13.6172 207.724 14.9414 207.42 16.0898C207.115 17.2305 206.67 18.1914 206.084 18.9727C205.505 19.7461 204.81 20.3242 203.998 20.707C203.185 21.082 202.263 21.2695 201.232 21.2695C200.216 21.2695 199.334 21.0781 198.584 20.6953C197.834 20.3047 197.263 19.8242 196.873 19.2539C196.482 18.6758 196.287 18.1211 196.287 17.5898C196.287 17.2617 196.408 16.9688 196.65 16.7109C196.892 16.4531 197.201 16.3242 197.576 16.3242C197.92 16.3242 198.228 16.4219 198.502 16.6172C198.775 16.8047 198.982 17.0898 199.123 17.4727C199.295 17.9414 199.58 18.3203 199.978 18.6094C200.377 18.8906 200.826 19.0312 201.326 19.0312C201.771 19.0312 202.193 18.918 202.591 18.6914C202.99 18.4648 203.33 18.1445 203.611 17.7305C204.173 16.8945 204.509 15.418 204.619 13.3008ZM204.349 9.71484C204.349 9.18359 204.275 8.69531 204.127 8.25C203.986 7.79687 203.783 7.40625 203.517 7.07812C203.259 6.75 202.947 6.49219 202.58 6.30469C202.22 6.11719 201.826 6.02344 201.396 6.02344C200.654 6.02344 200.025 6.34375 199.509 6.98438C198.994 7.61719 198.736 8.45703 198.736 9.50391C198.736 10.543 198.994 11.3711 199.509 11.9883C200.025 12.6055 200.677 12.9141 201.466 12.9141C201.951 12.9141 202.412 12.7891 202.849 12.5391C203.295 12.2812 203.654 11.9102 203.927 11.4258C204.209 10.9414 204.349 10.3711 204.349 9.71484Z" fill="#3C1606"/>
<defs>
<clipPath id="clip0_185_358">
<rect width="20" height="20" fill="white" transform="translate(0 2)"/>
</clipPath>
</defs>
</svg>
