<svg width="92" height="53" viewBox="0 0 92 53" fill="none" xmlns="http://www.w3.org/2000/svg">
<path d="M13.6592 40.2953C13.6592 40.866 13.5111 41.3787 13.2151 41.8335C12.9233 42.2883 12.4943 42.6444 11.9279 42.9018C11.3616 43.1593 10.6901 43.288 9.91351 43.288C8.98246 43.288 8.21445 43.1121 7.60948 42.7602C7.18042 42.5071 6.83074 42.1703 6.56044 41.7498C6.29442 41.325 6.16142 40.9131 6.16142 40.5141C6.16142 40.2824 6.24079 40.0851 6.39954 39.922C6.56258 39.7547 6.76853 39.671 7.01738 39.671C7.21904 39.671 7.38851 39.7354 7.52581 39.8641C7.6674 39.9928 7.78754 40.1838 7.88622 40.4369C8.00635 40.7372 8.13507 40.9882 8.27237 41.1899C8.41396 41.3915 8.61132 41.5589 8.86447 41.6919C9.11761 41.8206 9.45013 41.885 9.86202 41.885C10.4284 41.885 10.8875 41.7541 11.2393 41.4924C11.5954 41.2264 11.7735 40.896 11.7735 40.5013C11.7735 40.188 11.6769 39.9349 11.4839 39.7418C11.2951 39.5445 11.0484 39.3943 10.7437 39.2913C10.4434 39.1883 10.0401 39.0789 9.53379 38.9631C8.85588 38.8043 8.28739 38.6198 7.8283 38.4096C7.3735 38.1951 7.01095 37.9055 6.74064 37.5408C6.47463 37.1718 6.34162 36.7148 6.34162 36.1699C6.34162 35.6508 6.48321 35.1895 6.76638 34.7862C7.04956 34.3829 7.45931 34.074 7.99563 33.8595C8.53195 33.6407 9.16266 33.5312 9.88776 33.5312C10.467 33.5312 10.9668 33.6042 11.3873 33.7501C11.8121 33.8917 12.1639 34.0826 12.4428 34.3229C12.7217 34.5588 12.9255 34.8077 13.0542 35.0694C13.1829 35.3311 13.2473 35.5864 13.2473 35.8353C13.2473 36.0627 13.1657 36.2686 13.0027 36.4531C12.844 36.6333 12.6444 36.7234 12.4042 36.7234C12.1854 36.7234 12.018 36.6698 11.9022 36.5625C11.7906 36.451 11.6683 36.2708 11.5353 36.0219C11.3637 35.6658 11.1578 35.3891 10.9175 35.1917C10.6772 34.99 10.2911 34.8892 9.75905 34.8892C9.26563 34.8892 8.86661 34.9986 8.56198 35.2174C8.26164 35.432 8.11147 35.6915 8.11147 35.9962C8.11147 36.185 8.16296 36.348 8.26593 36.4853C8.36891 36.6226 8.5105 36.7406 8.6907 36.8393C8.8709 36.9379 9.05325 37.0152 9.23774 37.071C9.42224 37.1267 9.72687 37.2083 10.1516 37.3155C10.6837 37.4399 11.1642 37.5772 11.5933 37.7274C12.0266 37.8776 12.3934 38.0599 12.6938 38.2745C12.9984 38.489 13.2344 38.7614 13.4017 39.0918C13.5734 39.4179 13.6592 39.8191 13.6592 40.2953ZM21.4079 35.2689H19.3227V42.1231C19.3227 42.5178 19.2347 42.8117 19.0588 43.0048C18.8829 43.1936 18.6555 43.288 18.3766 43.288C18.0935 43.288 17.8618 43.1914 17.6816 42.9984C17.5056 42.8053 17.4177 42.5135 17.4177 42.1231V35.2689H15.3325C15.0064 35.2689 14.764 35.1981 14.6052 35.0565C14.4465 34.9107 14.3671 34.7197 14.3671 34.4837C14.3671 34.2392 14.4486 34.0461 14.6117 33.9045C14.779 33.7629 15.0193 33.6921 15.3325 33.6921H21.4079C21.7383 33.6921 21.9828 33.7651 22.1416 33.911C22.3046 34.0568 22.3862 34.2478 22.3862 34.4837C22.3862 34.7197 22.3046 34.9107 22.1416 35.0565C21.9786 35.1981 21.734 35.2689 21.4079 35.2689ZM29.7359 35.1659H25.4303V37.4828H29.3948C29.6865 37.4828 29.9032 37.5494 30.0448 37.6824C30.1907 37.8111 30.2636 37.9827 30.2636 38.1972C30.2636 38.4118 30.1928 38.5877 30.0512 38.725C29.9096 38.858 29.6908 38.9245 29.3948 38.9245H25.4303V41.6082H29.8839C30.1842 41.6082 30.4095 41.679 30.5597 41.8206C30.7141 41.9579 30.7914 42.1424 30.7914 42.3741C30.7914 42.5972 30.7141 42.7795 30.5597 42.9211C30.4095 43.0584 30.1842 43.1271 29.8839 43.1271H24.6902C24.274 43.1271 23.9737 43.0348 23.7892 42.8503C23.609 42.6658 23.5189 42.3676 23.5189 41.9558V34.8635C23.5189 34.5889 23.5596 34.3658 23.6411 34.1941C23.7227 34.0182 23.8492 33.8917 24.0209 33.8144C24.1968 33.7329 24.4199 33.6921 24.6902 33.6921H29.7359C30.0405 33.6921 30.2658 33.7608 30.4116 33.8981C30.5618 34.0311 30.6369 34.207 30.6369 34.4258C30.6369 34.6489 30.5618 34.8291 30.4116 34.9664C30.2658 35.0994 30.0405 35.1659 29.7359 35.1659ZM35.9722 39.4522H34.2217V42.1231C34.2217 42.5049 34.1316 42.7946 33.9513 42.9919C33.7711 43.1893 33.5437 43.288 33.2692 43.288C32.9817 43.288 32.75 43.1914 32.5741 42.9984C32.3982 42.801 32.3102 42.5135 32.3102 42.136V34.8635C32.3102 34.443 32.4067 34.1426 32.5998 33.9624C32.7929 33.7822 33.0997 33.6921 33.5201 33.6921H35.9722C36.6973 33.6921 37.2551 33.7479 37.6455 33.8595C38.0317 33.9667 38.3642 34.1448 38.6431 34.3936C38.9262 34.6425 39.1408 34.9471 39.2867 35.3075C39.4325 35.6679 39.5055 36.0734 39.5055 36.5239C39.5055 37.485 39.2094 38.2144 38.6173 38.7121C38.0252 39.2055 37.1435 39.4522 35.9722 39.4522ZM35.5088 35.1273H34.2217V38.0106H35.5088C35.9593 38.0106 36.3348 37.9634 36.6351 37.869C36.9397 37.7746 37.1714 37.6201 37.3302 37.4056C37.4889 37.1911 37.5683 36.9101 37.5683 36.5625C37.5683 36.1463 37.446 35.8074 37.2014 35.5457C36.9268 35.2668 36.3626 35.1273 35.5088 35.1273Z" fill="#E8B83D"/>
<path d="M73.9932 2V9.06103" stroke="#E8B83D" stroke-width="2.82441" stroke-linecap="round"/>
<path d="M81.2896 3.88293L77.759 9.99797" stroke="#E8B83D" stroke-width="2.82441" stroke-linecap="round"/>
<path d="M86.449 7.01733L82.0147 12.5124" stroke="#E8B83D" stroke-width="2.82441" stroke-linecap="round"/>
<path d="M90.5 11.9271L84.8201 16.122" stroke="#E8B83D" stroke-width="2.82441" stroke-linecap="round"/>
<path d="M61.8012 29.6496C61.8012 31.7606 61.6725 33.5755 61.4151 35.0944C61.1576 36.6132 60.6814 37.9905 59.9863 39.2262C59.111 40.745 57.9783 41.9163 56.5882 42.7401C55.198 43.5639 53.6534 43.9758 51.9544 43.9758C49.9979 43.9758 48.2409 43.4223 46.6834 42.3154C45.1388 41.2084 43.9739 39.6767 43.1888 37.7202C42.7898 36.6518 42.4937 35.4741 42.3006 34.1869C42.1204 32.8869 42.0303 31.4839 42.0303 29.9779C42.0303 28.0342 42.1333 26.2837 42.3392 24.7262C42.5452 23.1688 42.867 21.8301 43.3046 20.7103C44.0641 18.8567 45.1646 17.4473 46.6062 16.4819C48.0607 15.5037 49.7919 15.0146 51.7999 15.0146C53.1257 15.0146 54.3292 15.2334 55.4104 15.671C56.4916 16.0958 57.4377 16.7265 58.2486 17.5631C59.0724 18.3869 59.7675 19.4102 60.3338 20.633C61.3121 22.7569 61.8012 25.7624 61.8012 29.6496ZM56.511 29.2635C56.511 26.908 56.3694 24.9837 56.0862 23.4905C55.803 21.9846 55.3268 20.8519 54.6574 20.0924C53.9881 19.3201 53.0613 18.934 51.8772 18.934C50.1781 18.934 48.9939 19.7899 48.3246 21.5019C47.6681 23.2138 47.3399 25.8525 47.3399 29.418C47.3399 31.8378 47.4815 33.8201 47.7647 35.3647C48.0478 36.9093 48.5241 38.0806 49.1934 38.8786C49.8627 39.6638 50.7702 40.0564 51.9158 40.0564C53.1 40.0564 54.0267 39.6445 54.6961 38.8207C55.3654 37.9969 55.8352 36.8192 56.1055 35.2874C56.3758 33.7557 56.511 31.7477 56.511 29.2635ZM71.3306 38.9752H81.4091C82.4131 38.9752 83.179 39.1811 83.7067 39.593C84.2345 40.0049 84.4983 40.5648 84.4983 41.2728C84.4983 41.9035 84.286 42.4376 83.8612 42.8753C83.4493 43.3129 82.8186 43.5317 81.9691 43.5317H67.7587C66.7934 43.5317 66.0404 43.2679 65.4998 42.7401C64.9591 42.1995 64.6888 41.5688 64.6888 40.848C64.6888 40.3846 64.8626 39.7732 65.2101 39.0138C65.5577 38.2415 65.9374 37.6365 66.3493 37.1989C68.0612 35.4226 69.6058 33.9037 70.9831 32.6423C72.3604 31.368 73.345 30.5314 73.9371 30.1323C74.9926 29.3858 75.8679 28.6392 76.563 27.8927C77.2709 27.1332 77.8051 26.3609 78.1655 25.5758C78.5388 24.7777 78.7254 23.999 78.7254 23.2396C78.7254 22.4158 78.5259 21.6821 78.1269 21.0385C77.7407 20.382 77.2065 19.8736 76.5243 19.5132C75.855 19.1528 75.1213 18.9726 74.3233 18.9726C72.6371 18.9726 71.3113 19.7127 70.3459 21.193C70.2172 21.386 69.9984 21.9138 69.6895 22.7762C69.3934 23.6386 69.0523 24.3015 68.6662 24.7648C68.2929 25.2282 67.7394 25.4599 67.0057 25.4599C66.3622 25.4599 65.828 25.2475 65.4032 24.8228C64.9785 24.398 64.7661 23.8188 64.7661 23.0851C64.7661 22.1969 64.9656 21.2702 65.3646 20.3048C65.7636 19.3394 66.3557 18.4642 67.1409 17.679C67.9389 16.8938 68.9429 16.2631 70.1529 15.7869C71.3757 15.2977 72.8044 15.0532 74.4391 15.0532C76.4085 15.0532 78.0882 15.3621 79.4784 15.9799C80.3794 16.3918 81.171 16.9582 81.8532 17.679C82.5354 18.3998 83.0631 19.2365 83.4364 20.189C83.8226 21.1286 84.0157 22.1068 84.0157 23.1237C84.0157 24.7198 83.6166 26.1743 82.8186 27.4872C82.0334 28.7872 81.2289 29.8105 80.4051 30.5571C79.5814 31.2908 78.1977 32.4492 76.254 34.0324C74.3233 35.6157 72.9975 36.8449 72.2767 37.7202C71.9678 38.0677 71.6524 38.486 71.3306 38.9752Z" fill="#E8B83D"/>
<path d="M1.5 50.9564H83.4079" stroke="#E8B83D" stroke-width="2.82441" stroke-linecap="round"/>
</svg>
