<svg width="41" height="41" viewBox="0 0 41 41" fill="none" xmlns="http://www.w3.org/2000/svg">
<circle cx="20.5" cy="20.708" r="20" fill="#3C1606"/>
<path d="M27.6458 16.478H24.9986L27.586 14.5391L24.6578 12.3444L21.7293 14.5391L24.317 16.478H16.99L19.5774 14.5391L16.6492 12.3444L13.7209 14.5391L16.3086 16.478H13.661C12.0155 16.478 10.6816 17.8119 10.6816 19.4574V26.6966C10.6816 26.9919 10.9211 27.2314 11.2164 27.2314H12.8169C12.8056 27.3017 12.7953 27.3723 12.7953 27.4454C12.7953 28.1934 13.4014 28.7995 14.1494 28.7995C14.8971 28.7995 15.5035 28.1934 15.5035 27.4454C15.5035 27.3723 15.4932 27.3017 15.4819 27.2314H16.3026C16.2912 27.3017 16.281 27.3723 16.281 27.4454C16.281 28.1934 16.8871 28.7995 17.6351 28.7995C18.3828 28.7995 18.9893 28.1934 18.9893 27.4454C18.9893 27.3723 18.979 27.3017 18.9677 27.2314H22.3394C22.3281 27.3017 22.3178 27.3723 22.3178 27.4454C22.3178 28.1934 22.9239 28.7995 23.6719 28.7995C24.4196 28.7995 25.026 28.1934 25.026 27.4454C25.026 27.3723 25.0158 27.3017 25.0045 27.2314H25.8251C25.8138 27.3017 25.8035 27.3723 25.8035 27.4454C25.8035 28.1934 26.4097 28.7995 27.1576 28.7995C27.9054 28.7995 28.5117 28.1934 28.5117 27.4454C28.5117 27.3723 28.5015 27.3017 28.4902 27.2314H30.0903C30.3856 27.2314 30.6252 26.9919 30.6252 26.6966V19.4574C30.6251 17.8119 29.2912 16.478 27.6458 16.478ZM16.5097 25.0754H14.0842V20.2243H16.5097V25.0754ZM16.6492 15.7232L15.069 14.5392L16.6492 13.3548L18.2294 14.5392L16.6492 15.7232ZM21.8998 22.6498H19.07V20.2243H21.8998V22.6498ZM23.0776 14.5392L24.6578 13.3548L26.238 14.5392L24.6578 15.7232L23.0776 14.5392ZM27.2226 22.6498H24.3928V20.2243H27.2226V22.6498Z" fill="#F5ECE6"/>
</svg>
