<svg width="72" height="135" viewBox="0 0 72 135" fill="none" xmlns="http://www.w3.org/2000/svg">
<g clip-path="url(#clip0_148_546)">
<path d="M71.9568 130.217C71.9927 130.049 71.9927 129.859 71.9425 129.698C71.5335 128.274 71.8994 126.821 71.8061 125.382C71.7703 124.864 71.7129 124.353 71.677 123.842C71.6626 123.637 71.6483 123.425 71.6411 123.221C71.6267 122.775 71.6626 122.323 71.598 121.892C71.4474 120.869 71.2321 119.847 71.0814 118.825C71.0312 118.489 71.0814 118.138 71.0958 117.802C71.1173 117.247 71.2967 116.641 71.1532 116.137C70.8159 114.925 70.493 113.734 70.7585 112.464C70.2562 111.763 70.45 110.923 70.328 110.149C70.2419 109.638 70.1845 109.126 70.1199 108.615C70.0553 108.075 69.8759 107.505 69.9692 106.987C70.1199 106.088 70.0409 105.329 69.3664 104.862C69.4238 104.299 69.5745 103.839 69.4884 103.423C69.2516 102.306 68.9861 101.225 68.9646 100.049C68.9431 98.9682 68.5556 97.8654 67.9672 96.8942C67.8165 96.6532 67.7448 96.3391 67.716 96.047C67.673 95.5577 67.7519 95.0611 67.673 94.5865C67.6084 94.1994 67.4577 93.7832 67.2138 93.4764C66.9913 93.1989 66.8119 92.9798 66.7832 92.5855C66.7545 92.2204 66.5536 91.8698 66.4029 91.5266C66.2881 91.271 66.0441 91.0519 66.0083 90.8036C65.9078 89.9711 65.4988 89.2992 65.1257 88.5835C64.7669 87.8898 64.6808 87.0426 64.0134 86.5168C63.9704 86.4803 63.9847 86.3854 63.956 86.3197C63.7192 85.6989 63.504 85.0782 63.2456 84.4648C62.9873 83.8513 62.7434 83.2379 61.9971 83.0261C61.8034 82.975 61.6383 82.7121 61.5092 82.5149C61.1504 81.9599 60.9279 81.2734 60.4687 80.8499C59.4426 79.9224 58.7896 78.6152 57.541 77.9214C57.3688 77.8265 57.1894 77.6585 57.1249 77.4759C56.9239 76.9063 56.4862 76.5996 56.0413 76.2491C55.4816 75.8109 54.8358 75.4385 54.5273 74.7155C54.4555 74.5475 54.2116 74.343 54.0537 74.3503C53.2429 74.3722 52.8841 73.715 52.3674 73.2914C52.0302 73.0139 51.6212 72.8314 51.2337 72.6196C51.0615 72.5246 50.8534 72.4662 50.6883 72.3567C49.7699 71.7505 48.9231 71.0203 47.8109 70.7574C47.6387 70.7135 47.488 70.5237 47.3517 70.3776C46.4978 69.4647 45.5147 68.8586 44.1801 69.0412C44.0868 68.7929 44.0007 68.5373 43.9002 68.2744H43.319C43.2114 67.0475 43.0966 65.8718 42.9961 64.696C42.9674 64.3309 42.9961 63.9584 42.9961 63.5495C43.9433 63.4034 44.5676 62.8849 45.3784 63.0091C45.5865 63.0383 45.9453 62.8192 46.0601 62.6074C46.3615 62.0378 46.8135 61.8917 47.3947 61.826C47.6746 61.7968 47.9186 61.5047 48.1984 61.3878C49.1528 61.0154 49.9564 59.92 51.1691 60.7525C51.2624 60.8182 51.4346 60.7525 51.5781 60.7525C52.7764 60.6649 53.9748 60.6137 55.1659 60.475C55.6323 60.4239 56.1561 60.2924 56.5221 60.0149C57.5482 59.2189 58.6676 58.5032 59.3493 57.3202C59.5 57.0573 59.7152 56.8017 59.9592 56.6264C61.2078 55.7281 61.5594 54.326 61.9684 52.9677C62.0258 52.7851 61.9397 52.5587 61.9325 52.3542C61.9325 52.1132 61.9612 51.8796 61.954 51.6386C61.9397 51.2369 61.9182 50.8279 61.8679 50.4263C61.8034 49.9151 61.6383 49.4039 61.6383 48.9C61.6383 48.3815 61.8823 47.9725 62.5209 47.9725C62.7792 47.9725 63.1093 47.8995 63.2887 47.7389C64.4655 46.6799 65.9365 45.8328 66.0298 43.956C66.0298 43.8538 66.0657 43.715 66.1374 43.6712C66.6756 43.2987 66.6971 42.6634 66.9411 42.1376C67.5367 40.845 67.9815 39.5597 67.5869 38.1064C67.551 37.9823 67.5725 37.8362 67.5941 37.7048C67.8237 36.4487 67.9528 35.1926 67.4864 33.9584C67.3788 33.6663 67.2353 33.3742 67.2138 33.0748C67.0989 31.6726 66.5608 30.4312 65.7715 29.3211C65.1257 28.4156 64.3722 27.5904 63.2672 27.2252C62.8151 27.0792 62.3559 26.9185 61.9253 26.7213C61.1073 26.3343 61.0284 25.9618 61.5522 25.1731C61.8823 24.6765 62.198 24.1799 62.076 23.5227C62.0043 23.1137 62.0186 22.6902 61.9325 22.2885C61.7746 21.5509 61.9038 20.7403 61.3656 20.0977C60.9064 19.55 60.4902 18.9584 60.031 18.4034C59.0407 17.1911 58.3375 15.6722 56.68 15.1829C56.4216 15.1025 56.1705 14.9857 55.9265 14.8688C55.7471 14.7885 55.4888 14.7374 55.4099 14.5913C55.1229 14.0655 54.7067 13.883 54.1398 13.8611C53.9245 13.8538 53.7021 13.6785 53.5155 13.5324C52.6473 12.8679 51.6929 12.5977 50.6094 12.7364C49.4183 12.8898 48.2271 12.992 47.036 13.1235C46.7059 13.16 46.3758 13.2111 46.1031 13.2476C45.6726 12.3348 45.3856 11.4292 44.8618 10.6989C44.3523 9.98326 43.3979 9.72036 42.8669 8.93896C42.623 8.58112 42.0848 8.42046 41.6758 8.17946C41.4103 8.0261 41.152 7.84353 40.8721 7.74129C40.4272 7.58063 39.9608 7.47109 39.5016 7.35424C38.8558 7.19358 38.1526 7.26661 37.5713 6.79923C37.4422 6.69699 37.1695 6.79923 36.9686 6.79193C36.5955 6.78462 36.2295 6.77732 35.8564 6.74811C35.5119 6.7262 35.1388 6.55824 34.8374 6.65317C33.7826 7.00371 32.613 6.93068 31.6299 7.54412C31.3357 7.72669 30.9913 7.81432 30.6971 7.98959C29.7571 8.5446 28.731 9.00468 27.9202 9.71305C26.7505 10.7208 25.7101 11.8893 24.9208 13.2622C24.5189 13.9633 24.0023 14.5986 23.4856 15.3435C22.847 15.0514 22.2945 14.8688 21.8065 14.5694C21.3401 14.2846 20.8952 14.1751 20.4647 14.5037C20.0413 14.825 19.6754 14.7812 19.2233 14.6206C18.7497 14.4526 18.2618 14.2627 17.7236 14.5256C16.6545 15.0368 15.5351 15.3216 14.3367 15.2413C14.1143 15.2267 13.856 15.307 13.6551 15.4166C12.7581 15.8985 11.7105 16.1907 11.2225 17.2423C11.1795 17.3299 11.1005 17.4248 11.0144 17.4687C9.92375 18.0091 9.19901 18.9 8.67519 19.9881C8.57473 20.1926 8.34511 20.3314 8.18725 20.5139C8.02939 20.6965 7.83565 20.8645 7.72801 21.0689C7.18984 22.1132 7.01763 23.3182 6.30007 24.2822C6.24266 24.3625 6.22113 24.4794 6.21396 24.5816C6.16373 25.1293 6.12068 25.677 6.0848 26.2247C6.04892 26.809 5.96999 27.3932 5.99152 27.9774C6.01304 28.5909 6.1422 29.197 6.21396 29.7812C4.49899 30.6502 3.30066 31.9428 2.27455 33.3742C1.32737 34.6887 0.982944 36.288 0.566759 37.8362C0.444774 38.2817 0.581111 38.7856 0.581111 39.2676C0.581111 39.6108 0.674393 40.049 0.509355 40.2827C-0.157976 41.232 -0.0790448 42.1668 0.351491 43.1454C0.394545 43.2403 0.401721 43.3499 0.408896 43.4521C0.480652 44.3503 0.509355 45.2632 0.638515 46.1541C0.703096 46.5777 0.968593 46.9648 1.13363 47.3737C1.44936 48.1551 1.65745 48.9949 2.41089 49.5061C2.48265 49.5573 2.42524 49.7836 2.47547 49.9078C2.56158 50.1342 2.65486 50.3679 2.80555 50.5504C3.18585 50.9959 3.59486 51.4268 4.01822 51.843C4.16174 51.9818 4.377 52.1498 4.54204 52.1352C5.38876 52.0548 5.99152 52.6171 6.55839 53.0553C6.9961 53.3912 7.42664 54.0631 7.43381 54.5889C7.44099 55.3703 7.66343 56.1298 8.00786 56.641C8.78282 57.8167 9.73 58.9268 10.7992 59.825C11.8109 60.6795 12.8514 61.5704 14.1358 62.0524C14.3511 62.1327 14.5377 62.3226 14.7027 62.4979C15.0758 62.8849 15.5135 62.936 16.023 62.9287C16.7621 62.9141 17.5012 62.9652 18.2331 63.0456C19.1157 63.1405 19.9624 63.5056 20.8737 63.2866C22.072 63.0018 23.3636 62.9433 24.2032 61.8114C24.2391 61.7676 24.3252 61.7676 24.4185 61.7384C25.667 62.6512 27.2528 62.5563 28.6377 63.0602C28.9319 64.9808 29.0611 66.8649 28.7095 68.698C28.1641 68.7637 27.6403 68.698 27.2528 68.8951C26.5711 69.2603 25.7388 69.4428 25.3585 70.2608C25.3082 70.363 25.1504 70.4579 25.0284 70.4798C23.9162 70.7208 23.0694 71.4584 22.151 72.0646C22.0362 72.1376 21.9285 72.2909 21.8137 72.2982C20.967 72.3494 20.5078 72.9847 19.9552 73.5032C19.7184 73.7223 19.3955 73.8903 19.087 73.9706C18.6493 74.0801 18.3551 74.2992 18.1326 74.6863C17.9819 74.9492 17.7523 75.1683 17.5299 75.38C16.8554 76.0081 15.9513 76.3878 15.6068 77.3591C15.5494 77.5271 15.2983 77.622 15.1476 77.7681C14.6453 78.2354 14.143 78.7101 13.6551 79.1921C13.3824 79.4623 13.1384 79.7544 12.9016 80.0538C12.5357 80.5066 12.1912 80.9813 11.8396 81.4414C11.5096 81.8795 11.2656 82.493 10.835 82.7121C10.1677 83.0407 9.88069 83.5665 9.59367 84.1653C9.13443 85.122 9.00527 86.2539 8.1729 87.028C8.08679 87.1084 8.07244 87.2836 8.02221 87.4151C7.8787 87.8021 7.73519 88.1892 7.5845 88.5762C7.36205 89.1532 7.13244 89.7301 6.90999 90.307C6.83106 90.5042 6.80953 90.7452 6.6732 90.8839C5.92693 91.6726 6.19243 92.9798 5.2596 93.6809C5.13762 93.7685 5.15197 94.0753 5.14479 94.2797C5.12327 94.7325 5.08739 95.1926 5.13044 95.6454C5.16632 96.0543 5.05151 96.3538 4.84342 96.7116C4.26219 97.6756 3.81731 98.7929 3.91059 99.8664C3.98952 100.808 3.61639 101.597 3.53028 102.466C3.45853 103.182 3.20738 103.861 3.60204 104.569C2.82707 105.051 2.71226 105.709 2.86295 106.512C2.94906 106.979 2.92753 107.483 2.8773 107.958C2.76249 108.951 2.60463 109.937 2.45394 110.93C2.41806 111.164 2.34631 111.39 2.31043 111.624C2.24585 112.091 2.18127 112.566 2.13822 113.041C2.08081 113.618 2.15257 114.246 1.95883 114.771C1.73638 115.385 1.62157 115.955 1.67898 116.604C1.75073 117.4 1.80096 118.211 1.71486 118.993C1.59287 120.051 1.32737 121.096 1.14081 122.147C1.10493 122.344 1.16233 122.564 1.15516 122.768C1.14081 123.111 1.11211 123.455 1.09058 123.79C1.06188 124.17 0.954242 124.572 1.026 124.922C1.21974 125.813 0.731798 126.733 1.19821 127.603C1.22691 127.646 1.18386 127.741 1.16233 127.807C0.609813 129.465 1.23409 131.203 0.817906 132.897C0.710271 133.328 1.30585 133.89 1.3489 134.409C1.39195 134.927 0.939891 135.519 1.0547 135.986C1.23409 136.716 1.31302 137.396 1.22691 138.141C1.13363 138.929 1.11211 139.733 1.13363 140.529C1.14081 140.901 1.25562 141.281 1.3202 141.646H3.27196C3.27196 141.04 3.45853 140.426 3.40112 139.82C3.33654 139.097 3.31501 138.367 3.28631 137.637C3.26479 137.045 3.28631 136.454 3.27196 135.855C3.27196 135.541 3.32937 135.197 3.23608 134.92C2.99929 134.219 2.97059 133.554 3.28631 132.882C3.32937 132.795 3.35807 132.663 3.32937 132.576C3.03517 131.736 3.36524 130.86 3.18585 130.005C3.12127 129.706 3.14998 129.377 3.17868 129.07C3.26479 128.077 2.7912 127.033 3.44418 126.084C3.50158 125.996 3.4657 125.791 3.4083 125.675C2.92036 124.776 3.26479 123.937 3.53028 123.075C3.58769 122.878 3.71685 122.607 3.64509 122.476C3.25761 121.804 3.63792 121.198 3.74555 120.577C3.83166 120.059 3.94647 119.562 3.63792 119.058C3.53746 118.89 3.60204 118.598 3.62357 118.364C3.71685 117.189 3.82448 116.013 3.93212 114.837C3.94647 114.662 3.98952 114.494 4.01822 114.319C4.24067 113.092 4.56357 111.872 4.64968 110.631C4.71426 109.667 4.75014 108.703 4.85777 107.732C5.03716 106.176 5.13044 104.613 5.2596 103.058C5.2596 102.992 5.2596 102.897 5.30266 102.853C5.98434 102.203 5.84083 101.334 5.91258 100.516C5.96281 99.9175 6.1422 99.3771 6.51533 98.8805C6.70907 98.6249 6.86694 98.2087 6.80953 97.9092C6.58709 96.7992 7.22572 95.9667 7.60603 95.0611C7.78542 94.6376 8.00786 94.2724 7.8787 93.7758C7.83564 93.6006 7.89305 93.345 7.98633 93.1843C8.75412 91.8625 9.19901 90.4092 9.77306 89.0071C10.1462 88.0943 10.3758 87.0719 11.1436 86.2905C11.9186 85.4944 12.507 84.4867 13.1384 83.5665C14.0641 82.2301 15.1835 81.0762 16.1306 79.769C16.3531 79.4696 16.4894 79.1045 16.6903 78.7101C17.5084 78.4983 18.2116 78.0675 18.7426 77.2277C19.4745 76.0592 20.6584 75.3873 21.9285 74.8615C22.0075 74.9054 22.1438 74.9419 22.1725 75.0149C22.4739 75.8328 23.2201 76.271 23.7009 76.9282C24.1171 77.4906 24.3395 78.1843 24.6553 78.827C24.971 79.4769 25.136 80.3241 25.6383 80.733C26.4133 81.3537 26.5783 82.3031 27.1882 82.975C27.3461 83.1429 27.4609 83.3693 27.5399 83.5884C28.2502 85.5164 29.3481 87.2179 30.4603 88.9195C30.6828 89.2554 30.733 89.7009 30.9339 90.0514C31.6443 91.2856 32.369 92.5198 33.1225 93.7247C33.4812 94.3017 33.8472 94.9297 34.3567 95.3606C34.8303 95.7622 34.902 96.2223 34.9522 96.7335C35.0025 97.252 35.1675 97.6098 35.7487 97.6171C36.3874 97.6171 36.7246 97.3542 36.8681 96.7627C36.9471 96.4341 36.9758 96.0178 37.191 95.8133C38.2961 94.769 38.5975 93.2866 39.315 92.0378C39.9178 90.9862 40.5707 89.9565 41.0587 88.8464C41.5395 87.7656 42.2498 86.8893 42.953 85.9764C43.4553 85.3265 43.7495 84.5159 44.1657 83.8002C44.7254 82.8435 45.321 81.9088 45.895 80.9521C46.4691 80.0027 46.9642 78.9949 47.6172 78.1113C48.4783 76.9428 49.0308 75.6137 49.7555 74.3722C49.8057 74.2846 49.9062 74.2335 50.0425 74.1093C50.6166 74.9711 51.449 75.4166 52.3531 75.8474C53.0563 76.1833 53.6734 76.8771 54.1111 77.5563C54.6278 78.3523 55.2592 78.8124 56.027 78.9511C56.3929 79.4988 56.6656 79.9735 57.01 80.3898C57.7276 81.2734 58.6389 82.0329 59.1914 83.0042C59.9233 84.3041 60.9638 85.3411 61.7316 86.6045C62.363 87.6342 62.7792 88.7223 63.2241 89.8177C63.6977 91.0008 64.2502 92.1546 64.7669 93.3231C64.8386 93.4837 64.9893 93.6517 64.9678 93.7905C64.774 94.937 65.5131 95.7622 65.8791 96.7116C65.9939 97.0183 65.958 97.3834 66.0226 97.7121C66.1159 98.216 66.1159 98.7929 66.3742 99.1945C66.8765 99.9686 67.0128 100.779 66.9841 101.67C66.977 101.875 66.9411 102.145 67.0415 102.284C67.9026 103.372 67.5295 104.686 67.716 105.891C67.8596 106.819 67.9672 107.746 68.0533 108.681C68.1035 109.229 68.0964 109.776 68.1179 110.324C68.1179 110.463 68.1107 110.609 68.1322 110.74C68.3188 111.836 68.5341 112.924 68.7063 114.019C68.7924 114.604 68.7996 115.195 68.857 115.787C68.9215 116.48 68.979 117.181 69.0866 117.875C69.1942 118.525 69.3019 119.117 69.0651 119.803C68.8928 120.292 69.1655 120.95 69.2516 121.527C69.2732 121.687 69.4525 121.906 69.3951 121.994C68.7852 122.929 69.6678 123.732 69.5961 124.608C69.5674 124.937 69.6463 125.302 69.5315 125.594C69.3306 126.127 69.3162 126.602 69.6319 127.091C69.8687 127.456 69.9692 127.814 69.718 128.26C69.5817 128.501 69.6606 128.866 69.6463 129.173C69.6319 129.625 69.553 130.085 69.6248 130.524C69.8041 131.612 69.2588 132.715 69.7396 133.795C69.8185 133.971 69.7898 134.212 69.7683 134.416C69.6319 136.008 69.4597 137.6 69.3664 139.192C69.3306 139.849 69.4454 140.514 69.4956 141.171C69.5099 141.354 69.5243 141.492 69.5315 141.624H71.6124C71.8061 140.835 71.7631 140.054 71.6267 139.236C71.5048 138.491 71.4115 137.651 71.6267 136.957C71.8851 136.103 71.8564 135.402 71.4832 134.832C71.6913 134.109 72.0429 133.511 71.9927 132.948C71.9066 132.043 71.7703 131.159 71.9496 130.246L71.9568 130.217ZM19.9696 61.03C19.5175 60.9497 19.0296 61.0738 18.556 61.0957C17.25 61.1614 16.0948 60.5991 14.9754 60.0514C14.3439 59.7447 13.8201 59.2189 13.2532 58.7807C12.7868 58.4229 12.3419 58.0358 11.8612 57.7072C10.792 56.9696 9.98115 55.9837 9.28512 54.8956C8.7613 54.0777 8.66084 53.2014 9.18466 52.2958C9.27794 52.1279 9.24924 51.7992 9.1416 51.6167C8.88328 51.1785 7.95763 51.0178 7.41228 51.1274C6.93152 51.2223 6.42205 51.1493 5.92693 51.1493C5.95564 51.0762 5.98434 51.0032 6.01304 50.9302C5.63273 50.565 5.18785 50.251 4.8793 49.8275C4.42723 49.214 3.65944 48.7905 3.64509 47.8703C3.64509 47.6512 3.51593 47.3445 3.34372 47.235C2.76967 46.8552 2.78402 46.2856 2.87013 45.7525C2.97059 45.1244 2.95623 44.584 2.53287 44.0801C2.43242 43.956 2.36784 43.7661 2.36066 43.5982C2.32478 42.3859 2.30326 41.1736 2.2889 39.9613C2.2889 39.6546 2.19562 39.2895 2.31761 39.0485C2.67639 38.362 2.76249 37.6683 2.66921 36.9161C2.64768 36.7627 2.70509 36.5728 2.78402 36.4341C3.06387 35.9594 3.3796 35.5139 3.65944 35.0392C4.34113 33.8854 5.02998 32.7316 5.86953 31.6799C6.12068 31.3659 6.32159 31.0811 6.78083 31.1687C7.14679 31.2418 7.36923 31.0081 7.45534 30.6649C7.57732 30.161 7.72084 29.6571 7.74954 29.1459C7.78542 28.4083 7.82847 27.7291 8.28771 27.0719C8.5245 26.7213 8.38817 26.1079 8.41687 25.6113C8.37381 25.5675 8.33076 25.531 8.28771 25.4872C8.66801 24.8664 9.0555 24.253 9.42145 23.6322C9.52191 23.457 9.63672 23.2452 9.62237 23.0553C9.58649 22.3542 10.0099 21.8723 10.3615 21.3684C10.914 20.5724 11.4809 19.7763 12.1051 19.0388C12.3778 18.7174 12.7796 18.4837 13.1671 18.3085C13.7914 18.031 14.3941 17.7827 14.9538 17.3299C15.4059 16.9648 16.1522 16.9502 16.7836 16.8552C17.1496 16.7968 17.5371 16.9136 17.9102 16.8844C18.312 16.8552 18.7856 16.8552 19.0942 16.6434C19.6826 16.2272 20.2781 16.3148 20.8665 16.4536C21.3688 16.5704 21.8281 16.7676 22.3662 16.6288C22.5528 16.585 22.8111 16.753 23.012 16.8771C23.8659 17.4102 24.7485 17.1619 24.8705 16.1834C24.9782 15.3289 25.5379 14.993 26.0114 14.4526C26.5927 13.7953 27.4609 13.4229 27.8197 12.5392C27.913 12.3129 28.2072 12.1741 28.4153 11.9988C28.7238 11.7286 29.0395 11.4657 29.3553 11.1955C29.4844 11.086 29.5777 10.9107 29.7284 10.8377C30.7115 10.3557 31.7017 9.88102 32.6991 9.42824C33.1296 9.23107 33.5889 9.10692 34.0481 8.96817C34.2419 8.90974 34.45 8.87323 34.6509 8.86593C35.6124 8.82941 36.5739 8.7929 37.5283 8.77099C37.722 8.77099 37.9588 8.75639 38.1095 8.85132C39.15 9.5597 40.334 9.90293 41.482 10.3411C41.8624 10.4872 42.2857 10.8231 42.4436 11.1809C42.6947 11.7359 42.9459 12.1595 43.5845 12.2398C44.0437 12.2983 44.137 12.7145 44.2734 13.0651C44.4671 13.5836 44.6178 14.1313 44.8546 14.6279C44.955 14.8396 45.2205 15.0879 45.4358 15.1171C45.9309 15.1756 46.4404 15.1537 46.9355 15.0879C47.4665 15.0149 48.0549 14.9711 48.507 14.7155C49.4398 14.1897 50.2937 14.7374 51.1763 14.7666C52.4464 14.8031 53.4366 15.6576 54.5847 16.0592C55.5032 17.2423 57.1679 17.5271 57.9213 18.9073C58.7752 19.2798 59.134 20.178 59.3995 20.8791C59.7942 21.9161 60.3395 23.0042 59.9951 24.2822C59.8157 24.954 59.6507 25.5675 59.3134 26.1809C59.1197 26.5461 59.3636 27.1595 59.4139 27.6634C60.074 27.7802 60.605 27.8971 61.1432 27.9628C61.8751 28.0504 62.4133 28.4667 62.8725 28.9852C63.3963 29.5767 63.8843 30.2121 64.3363 30.8547C64.5947 31.2126 64.7669 31.6361 64.9534 32.0451C65.1113 32.3883 65.2333 32.7389 65.3768 33.0894C65.4414 33.2428 65.5849 33.4034 65.5705 33.5495C65.4414 34.864 65.6064 36.1785 65.5705 37.493C65.5418 38.53 65.262 39.5597 65.097 40.5894C65.0611 40.7939 64.9678 41.0203 65.0108 41.2101C65.1759 41.9623 64.8745 42.5319 64.4942 43.1454C63.6762 44.4818 62.9873 45.9058 61.6814 46.8552C61.4159 47.0451 61.1288 47.2204 60.8275 47.3591C59.9233 47.7754 59.6722 48.177 59.9305 49.1629C60.2893 50.5723 59.9879 51.9307 59.7296 53.289C59.6722 53.6176 59.4067 53.9024 59.2488 54.2092C59.1269 54.4575 58.9188 54.7204 58.9331 54.9613C58.9977 55.9983 58.2514 56.2978 57.5554 56.6848C57.0172 56.9769 56.4575 57.269 55.9983 57.6634C54.9506 58.5543 53.0491 59.0655 51.4992 58.7442C51.6786 58.5762 51.8006 58.4448 51.9369 58.3206C52.1378 58.1381 52.4535 58.0066 52.5325 57.7802C52.7119 57.2617 53.0132 56.9842 53.5227 56.8528C53.6949 56.809 53.903 56.6118 53.9604 56.4365C54.2618 55.4506 55.0655 54.8518 55.661 54.1069C56.3858 53.216 56.7661 52.1863 57.1751 51.1566C57.254 50.9521 57.1823 50.6819 57.1966 50.4409C57.1966 50.2729 57.1679 50.01 57.254 49.9443C57.9501 49.4404 57.9285 48.586 58.2084 47.9068C58.4739 47.2642 58.3806 46.4755 58.4882 45.7598C58.6389 44.7301 58.8326 43.7077 58.9905 42.678C59.0192 42.4808 58.969 42.269 58.9762 42.0646C58.9905 41.7724 58.969 41.4584 59.0623 41.1882C59.5143 39.9467 59.0407 38.9755 57.7563 38.6468C57.2612 38.5227 56.8737 38.2963 56.5939 37.8508C56.4073 37.5587 56.192 37.2812 55.9552 37.0329C55.331 36.3757 55.3023 35.4847 55.0511 34.6814C55.0152 34.5573 55.1229 34.382 55.0798 34.2724C54.6206 33.0675 54.6277 31.7822 54.434 30.5334C54.3838 30.2267 54.1757 29.8981 54.2403 29.6279C54.5703 28.2184 53.5155 27.3713 53.0132 26.3051C52.963 26.1882 52.8195 26.086 52.7047 26.0422C51.9512 25.7866 51.4633 25.2535 50.961 24.6473C50.0354 23.5373 48.1697 23.5227 47.1005 24.4867C46.9355 24.64 46.6915 24.7204 46.4763 24.7934C46.0888 24.9248 45.6941 25.0198 45.2205 25.1585C44.5676 24.1215 43.3405 23.8805 42.3001 23.3401C41.5753 22.9677 40.7932 22.6683 40.0039 22.4711C38.7194 22.1498 37.5713 22.5879 36.5381 23.3547C36.2582 23.5592 36.0214 23.8221 35.7487 24.0266C35.2967 24.3625 34.902 24.7131 34.7872 25.3265C34.737 25.5821 34.5504 25.8377 34.3567 26.0276C33.6606 26.7213 33.3664 27.7875 32.3762 28.2111C32.1753 28.2987 32.0246 28.5397 31.9026 28.7442C31.4864 29.4234 31.0415 30.0514 30.4388 30.6064C29.7786 31.2126 29.3194 32.0524 28.7741 32.79C28.6736 32.9214 28.6018 33.1113 28.4655 33.1843C27.26 33.8927 26.0545 34.623 24.8131 35.2729C24.0023 35.7038 23.1269 36.0178 22.2801 36.383C22.1223 36.4487 21.9142 36.4633 21.8137 36.5728C21.3832 37.0402 20.9168 37.0621 20.3212 36.9234C19.9337 36.8357 19.4601 37.0256 19.0439 37.1571C18.3479 37.3834 17.6949 37.6683 17.0276 37.0329C16.8482 36.8576 16.4248 36.8211 16.1522 36.8869C15.3485 37.0767 14.5807 37.2739 13.7268 37.2082C13.203 37.1644 12.6505 37.3615 12.141 37.5441C11.9329 37.6171 11.7535 37.9166 11.6602 38.1576C11.323 39.0339 11.0288 39.9248 10.7274 40.8158C10.6844 40.9472 10.6485 41.0933 10.6557 41.2247C10.8422 43.2768 10.5767 45.3946 11.5024 47.3445C11.6028 47.5563 11.6172 47.8119 11.6602 48.0529C11.6818 48.1916 11.6315 48.3523 11.6818 48.4691C12.1123 49.5061 12.5572 50.5358 13.0093 51.5655C13.081 51.7262 13.2317 51.8576 13.2532 52.0183C13.3824 52.8654 13.9206 53.457 14.4157 54.085C14.5233 54.2238 14.7027 54.3479 14.7242 54.494C14.8534 55.4141 15.4203 55.8888 16.2239 56.1809C16.3818 56.2393 16.5971 56.327 16.6545 56.4584C17.1855 57.6561 18.3838 58.1016 19.2664 58.8976C19.6754 59.27 20.1203 59.5329 20.68 59.6936C21.2325 59.8469 21.6917 60.3216 22.3806 60.7744C21.4119 60.9643 20.7159 61.1614 19.9481 61.03H19.9696ZM26.8008 60.1902C26.607 60.1464 26.4276 60.0222 26.2411 59.9346C25.4733 59.5548 24.7414 59.0728 23.8301 59.102C23.7296 59.102 23.6148 59.0801 23.5359 59.029C22.7681 58.5178 22.0146 57.9847 21.2468 57.4735C20.845 57.2106 20.4216 56.9915 20.0055 56.7505C19.8548 56.6629 19.6897 56.6045 19.5678 56.4876C18.2259 55.2535 16.9845 53.9024 15.9943 52.3761C15.327 51.3538 14.9682 50.1196 14.4731 48.9803C14.3654 48.7247 14.3511 48.3742 14.1645 48.2135C12.9662 47.1254 13.3537 45.4823 12.7653 44.1824C12.7509 44.1532 12.7509 44.1094 12.7581 44.0801C13.1384 42.7802 12.5213 41.5607 12.4854 40.29C12.4783 39.9467 12.5141 39.6035 12.5357 39.158C12.837 39.2311 13.0595 39.2822 13.2748 39.3333C13.4757 39.3844 13.6694 39.4867 13.8703 39.4867C14.7099 39.4648 15.5566 39.3844 16.3961 39.3771C16.7908 39.3771 17.1855 39.494 17.5801 39.5743C17.7452 39.6035 17.9174 39.735 18.0681 39.7057C18.8789 39.5743 19.7256 39.5232 20.4791 39.2311C21.5052 38.8367 22.5026 38.4205 23.6076 38.3328C24.2893 38.2817 24.7916 37.88 25.3656 37.5514C26.363 36.9672 27.4394 36.5217 28.5086 36.0762C28.9893 35.8791 29.3194 35.6016 29.5275 35.1196C29.7356 34.6449 30.0298 34.2944 30.5321 34.0095C31.0344 33.7247 31.3716 33.1186 31.7519 32.6293C32.1681 32.0889 32.4336 31.4097 33.1225 31.1176C33.266 31.0592 33.4238 30.8839 33.4525 30.7306C33.5961 29.993 34.2562 29.5986 34.5361 28.9925C35.1962 27.5758 36.4519 26.6775 37.3202 25.4506C37.9373 24.5743 40.0182 24.4355 41.0372 24.7642C42.4364 25.2096 43.4123 26.3197 44.7469 26.8528C45.6869 27.2325 46.2395 27.2544 46.9786 26.6045C47.1292 26.4657 47.2512 26.2905 47.3589 26.1663C47.9616 26.1298 48.4352 26.1225 48.9088 26.0714C50.0856 25.9545 50.5018 26.2393 50.9467 27.4151C51.2337 28.1746 51.6355 28.8976 51.901 29.6644C52.0876 30.2048 52.0589 30.8328 52.2813 31.3586C52.7047 32.3664 52.4966 33.4618 52.8123 34.4623C52.9774 34.9954 53.207 35.4774 53.0706 36.0543C53.0419 36.1785 53.0635 36.3611 53.1352 36.4633C53.7093 37.2155 53.8456 38.1941 54.5058 38.9536C55.1874 39.7277 55.6754 40.5164 56.8594 40.4433C57.1607 40.4287 57.4836 40.8158 57.8424 41.0422C57.7491 41.2905 57.6917 41.4803 57.6128 41.6629C56.9383 43.2038 56.7302 44.8688 56.3427 46.4828C56.2136 47.0159 56.0126 47.5344 55.8404 48.0529C55.8045 48.1478 55.6826 48.2354 55.6969 48.3231C55.783 49.2359 55.2879 49.9297 54.9004 50.6819C54.4699 51.529 54.2187 52.4565 53.5371 53.1941C52.8984 53.8951 52.4177 54.7423 51.8651 55.531C51.8077 55.6186 51.779 55.7793 51.7145 55.8012C50.918 55.9837 50.552 56.6337 50.0497 57.1887C49.5115 57.7875 48.7438 58.1673 48.0621 58.6201C47.61 58.9195 46.9929 59.0728 46.6844 59.4745C46.0098 60.3654 45.0411 60.4969 44.1155 60.8182C43.7352 60.9497 43.3836 61.1907 43.0176 61.3805C42.8454 61.2345 42.7234 61.1103 42.5799 61.0227C41.9772 60.6356 41.561 60.8109 41.3529 61.512C40.8649 63.1405 40.9008 64.8129 40.9941 66.4852C41.0156 66.8357 40.9941 67.179 41.0372 67.5295C41.1161 68.289 40.7932 68.7856 40.1689 69.1653C39.8819 69.3406 39.6379 69.5889 39.4083 69.8372C38.7266 70.5675 38.1095 71.3708 37.3776 72.0426C36.9686 72.4224 36.3945 72.6123 35.8707 72.8971C34.8016 71.9112 33.553 71.1371 32.2542 70.436C31.6586 70.1147 31.0128 69.6984 30.6828 69.1434C30.4029 68.676 30.3742 67.9019 30.5393 67.3615C30.7258 66.7627 31.0128 66.2588 30.8047 65.5723C30.6971 65.2145 30.9411 64.7617 30.9339 64.3601C30.9196 63.8781 30.8047 63.4034 30.733 62.9068C31.5582 61.8041 31.3429 61.2126 29.9939 60.9204C28.9247 60.6868 27.8556 60.4458 26.7864 60.1902H26.8008ZM25.2795 75.0879C24.8059 74.5548 24.0669 74.2043 23.9233 73.4083C25.5522 72.2617 26.8725 70.7281 28.7095 70.29C29.4055 70.6697 30.0226 70.9472 30.5823 71.327C31.1205 71.6848 31.5869 72.1522 32.0892 72.5538C32.491 72.8752 32.8785 73.2476 33.3234 73.474C34.2634 73.9414 34.658 74.8031 35.146 75.7306C34.6222 76.1322 33.9979 76.4024 33.6822 76.8771C33.0579 77.8265 32.1251 78.0237 31.1707 78.2208C30.855 78.2866 30.5105 78.2866 30.202 78.2208C29.7715 78.1405 29.3481 77.9871 28.9247 77.8411C28.2718 77.6147 27.4753 77.6074 27.2313 76.7311C26.2698 76.5631 25.8392 75.716 25.2724 75.0806L25.2795 75.0879ZM44.4025 79.9662C44.1155 80.4409 43.893 80.9448 43.5988 81.4122C43.1253 82.1717 42.5943 82.9019 42.1278 83.6687C41.6614 84.4355 41.1878 85.2096 40.8147 86.0203C40.1617 87.4443 39.2361 88.6712 38.3391 89.92C38.2817 90.0003 38.1526 90.0587 38.131 90.1463C37.8153 91.5631 36.6959 92.4906 36.0573 93.7101C35.8923 94.0314 35.8564 94.4258 35.7344 94.9005C35.6124 94.7617 35.5191 94.7033 35.4904 94.6157C35.0168 93.3012 34.4141 92.0816 33.388 91.103C33.1153 90.8401 33.0435 90.3654 32.8713 89.993C32.3834 88.956 31.5941 88.065 31.1922 87.0207C30.8765 86.2028 30.2666 85.6989 29.8863 84.9832C29.4988 84.253 28.9319 83.6322 28.5301 82.9092C27.834 81.6897 27.2098 80.4409 26.5496 79.1994C26.5998 79.141 26.6501 79.0826 26.7003 79.0168C26.894 79.0826 27.1021 79.1264 27.2672 79.2286C28.0493 79.7106 28.7741 80.3825 29.8145 79.9735C29.9221 79.9297 30.0944 79.9589 30.2092 80.0173C31.1133 80.4993 31.9385 80.0904 32.7637 79.769C33.2373 79.5865 33.6893 79.3528 34.1486 79.1337C34.2419 79.0899 34.3495 79.0461 34.4141 78.973C34.9738 78.2866 35.5191 77.5928 36.1219 76.8406C36.2008 76.8844 36.4161 76.9355 36.4663 77.0597C36.9614 78.1916 38.0736 78.4618 39.0065 78.9949C40.0541 79.5938 41.0515 79.4477 42.1853 79.2286C43.2114 79.0314 44.0509 78.6298 44.9048 78.1186C45.0985 78.0018 45.3282 77.9579 45.7802 77.79C45.2349 78.6517 44.8115 79.2943 44.4169 79.9516L44.4025 79.9662ZM44.9981 75.9058C44.7182 76.1541 44.4025 76.3805 44.0653 76.5485C43.3692 76.8844 42.5943 77.0232 42.0704 77.7389C41.7475 78.177 41.2022 78.0748 40.6999 77.7389C40.1043 77.3372 39.48 76.9794 38.9132 76.5412C38.4252 76.1687 38.0019 75.7087 37.5283 75.2559C37.8942 74.4307 37.8225 73.4667 38.7266 72.9993C39.2074 71.8017 40.6568 71.5461 41.0443 70.363C42.1709 70.531 42.6158 70.677 42.953 71.0056C43.2472 70.8231 43.5558 70.6332 43.8859 70.4287C45.321 71.1152 46.8063 71.7505 47.9975 73.1965C46.9857 74.1166 46.0098 75.0295 45.0124 75.9131L44.9981 75.9058Z" fill="black"/>
<path d="M12.5573 139.835C12.2416 139.316 12.2846 138.79 12.3779 138.221C12.4856 137.542 12.4927 136.848 12.5358 136.161C12.543 136.023 12.5071 135.869 12.5573 135.745C12.8156 135.11 12.6075 134.584 12.3133 134.248C12.3707 133.525 12.3062 132.919 12.4784 132.401C12.8874 131.21 12.4138 130.056 12.4568 128.888C12.5143 127.252 12.543 125.609 12.5501 123.966C12.5501 123.067 12.4784 122.169 12.4353 121.278C12.4353 121.176 12.3636 121.045 12.4066 120.972C12.8946 120.132 12.3707 119.27 12.464 118.423C12.543 117.671 12.543 116.904 12.586 116.152C12.586 116.049 12.7008 115.925 12.6649 115.852C12.1339 114.757 12.7797 113.625 12.5358 112.515C12.3994 111.909 11.9259 111.69 11.5025 112.135C11.2872 112.362 11.1294 112.727 11.1078 113.041C11.0648 113.727 11.1222 114.392 10.8639 115.086C10.6558 115.662 10.7778 116.378 10.7706 117.028C10.7419 119.883 10.7347 122.739 10.6773 125.594C10.6558 126.843 10.541 128.092 10.4477 129.341C10.3831 130.202 10.1965 131.064 10.1965 131.926C10.1965 132.43 10.3616 132.977 10.6055 133.416C10.8423 133.846 10.8854 134.19 10.6271 134.577C10.3185 135.051 10.3616 135.519 10.4405 136.074C10.5912 137.06 10.95 138.038 10.6127 139.068C10.5481 139.272 10.6558 139.543 10.6773 139.784C10.706 140.163 10.8208 140.572 10.7347 140.923C10.6773 141.149 10.6558 141.376 10.6558 141.595H12.9089C12.873 141.2 12.8013 140.813 12.7439 140.426C12.708 140.222 12.6649 140.003 12.5645 139.835H12.5573Z" fill="black"/>
<path d="M61.3873 136.636C61.3873 136.322 61.4734 135.986 61.3945 135.701C61.2797 135.263 61.3801 134.913 61.4806 134.489C61.5954 134.044 61.4949 133.54 61.4447 133.058C61.4088 132.649 61.2868 132.254 61.251 131.845C61.2079 131.363 61.251 130.874 61.1864 130.392C61.0644 129.399 60.8491 128.42 60.9926 127.391C61.0787 126.755 60.9424 126.076 60.8419 125.426C60.598 123.783 60.763 122.133 60.6769 120.49C60.5693 118.408 60.641 116.32 60.6267 114.231C60.6267 113.713 60.6267 113.187 60.2248 112.785C59.3781 113.252 59.2848 113.508 59.3279 114.406C59.3566 114.947 59.2203 115.494 59.1916 116.042C59.1485 116.97 59.2777 117.941 59.0624 118.825C58.7969 119.935 59.2059 120.964 59.1413 122.001C59.0983 122.79 59.3279 123.528 59.2418 124.294C59.1557 125.047 59.048 125.806 59.0337 126.558C59.0193 127.566 59.0911 128.581 59.127 129.596C59.1413 130.042 59.127 130.494 59.17 130.94C59.2274 131.663 59.3207 132.386 59.3925 133.116C59.4929 134.066 59.6938 135.008 59.6006 135.972C59.5503 136.454 59.5647 136.95 59.5288 137.432C59.5001 137.841 59.4427 138.243 59.414 138.652C59.3853 138.966 59.3064 139.294 59.3709 139.586C59.5073 140.207 59.6077 140.777 59.414 141.427C59.3997 141.478 59.3996 141.544 59.3996 141.595H61.1433C61.0931 139.959 61.3371 138.301 61.3729 136.636H61.3873Z" fill="black"/>
<path d="M69.3665 139.163C69.4598 137.571 69.632 135.979 69.7684 134.387C69.7827 134.182 69.8186 133.941 69.7397 133.766C69.2589 132.693 69.7971 131.583 69.6248 130.494C69.5531 130.056 69.632 129.596 69.6464 129.143C69.6607 128.837 69.5818 128.472 69.7181 128.231C69.9693 127.785 69.8688 127.427 69.632 127.062C69.3163 126.58 69.3378 126.105 69.5316 125.565C69.6392 125.273 69.5674 124.908 69.5961 124.579C69.6679 123.703 68.7853 122.9 69.3952 121.965C69.4526 121.877 69.2804 121.658 69.2517 121.497C69.1656 120.92 68.8929 120.263 69.0652 119.774C69.3019 119.08 69.1943 118.496 69.0867 117.846C68.9719 117.159 68.9216 116.458 68.8571 115.757C68.7997 115.173 68.7925 114.574 68.7064 113.99C68.5413 112.895 68.3261 111.807 68.1323 110.711C68.1108 110.572 68.1252 110.434 68.118 110.295C68.1036 109.747 68.1108 109.192 68.0534 108.652C67.9601 107.717 67.8596 106.789 67.7161 105.862C67.5296 104.657 67.9027 103.343 67.0416 102.254C66.934 102.123 66.9771 101.845 66.9842 101.641C67.0129 100.757 66.8766 99.9467 66.3743 99.1653C66.116 98.7637 66.116 98.1868 66.0227 97.6829C65.9581 97.3469 65.994 96.9891 65.8792 96.6824C65.5132 95.7257 64.7741 94.9005 64.9679 93.7612C64.9894 93.6225 64.8387 93.4472 64.767 93.2939C64.2503 92.1254 63.705 90.9716 63.2242 89.7885C62.7793 88.6931 62.3703 87.605 61.7317 86.5753C60.9567 85.3119 59.9163 84.2749 59.1915 82.975C58.6462 81.9964 57.7349 81.2442 57.0101 80.3606C56.6657 79.9443 56.4002 79.4623 56.0271 78.9219C55.2665 78.7905 54.635 78.3231 54.1112 77.5271C53.6663 76.8479 53.0492 76.1541 52.3532 75.8182C51.449 75.38 50.6167 74.9419 50.0426 74.0801C49.9063 74.2043 49.8058 74.2554 49.7556 74.343C49.0309 75.5845 48.4855 76.9136 47.6173 78.0821C46.9643 78.9657 46.462 79.9735 45.8951 80.9229C45.3211 81.8722 44.7255 82.807 44.1658 83.771C43.7425 84.4867 43.4482 85.2973 42.9531 85.9472C42.2499 86.8601 41.5395 87.7437 41.0588 88.8172C40.5637 89.92 39.9179 90.957 39.3151 92.0086C38.5975 93.2574 38.289 94.7471 37.1911 95.7841C36.9759 95.9886 36.9472 96.4049 36.8682 96.7335C36.7247 97.325 36.3875 97.5879 35.7488 97.5879C35.1676 97.5879 35.0026 97.2228 34.9523 96.7043C34.9021 96.1931 34.8304 95.733 34.3568 95.3314C33.8545 94.9005 33.4885 94.2797 33.1226 93.6955C32.3691 92.4833 31.6444 91.2564 30.934 90.0222C30.7331 89.6717 30.6829 89.2262 30.4604 88.8903C29.3482 87.1887 28.2503 85.4871 27.5399 83.5592C27.461 83.3401 27.339 83.1137 27.1883 82.9458C26.5784 82.2739 26.4062 81.3245 25.6384 80.7038C25.1289 80.2948 24.9711 79.4477 24.6553 78.7978C24.3468 78.1624 24.1172 77.4613 23.701 76.899C23.2202 76.2491 22.474 75.8036 22.1726 74.9857C22.1439 74.9127 22.0075 74.8761 21.9286 74.8323C20.6657 75.3581 19.4817 76.0373 18.7427 77.1984C18.2117 78.0383 17.5156 78.4691 16.6904 78.6809C16.4823 79.0753 16.346 79.4404 16.1307 79.7398C15.1836 81.0397 14.0642 82.2009 13.1385 83.5373C12.4999 84.4574 11.9187 85.4652 11.1437 86.2612C10.3759 87.0499 10.1463 88.065 9.77315 88.9779C9.1991 90.38 8.75421 91.8333 7.98642 93.1551C7.89314 93.3231 7.82856 93.5714 7.87879 93.7466C8.00077 94.2432 7.7855 94.6084 7.60611 95.0319C7.22581 95.9375 6.58718 96.77 6.80962 97.88C6.86703 98.1795 6.70916 98.5957 6.51542 98.8513C6.14229 99.3479 5.9629 99.8956 5.91267 100.487C5.84809 101.305 5.9916 102.174 5.30275 102.824C5.25969 102.861 5.26687 102.956 5.25969 103.029C5.13053 104.591 5.03725 106.154 4.85786 107.702C4.74305 108.666 4.71435 109.63 4.64977 110.602C4.56366 111.836 4.24076 113.063 4.01831 114.289C3.98961 114.465 3.94656 114.633 3.93221 114.808C3.82457 115.984 3.72411 117.159 3.62366 118.335C3.60213 118.569 3.53755 118.861 3.63801 119.029C3.94656 119.533 3.83175 120.03 3.74564 120.548C3.63801 121.169 3.2577 121.775 3.64518 122.447C3.72411 122.578 3.59495 122.848 3.53037 123.046C3.26487 123.9 2.92045 124.747 3.40839 125.645C3.46579 125.755 3.50885 125.967 3.44427 126.054C2.78411 127.004 3.26487 128.048 3.17877 129.041C3.15007 129.355 3.12854 129.677 3.18594 129.976C3.35816 130.83 3.03526 131.699 3.32946 132.547C3.35816 132.634 3.32946 132.766 3.2864 132.853C2.97785 133.525 2.99938 134.19 3.23617 134.891C3.32946 135.176 3.27205 135.511 3.27205 135.826C3.27205 136.417 3.27205 137.009 3.2864 137.607C3.30793 138.338 3.32946 139.068 3.40121 139.791C3.45862 140.397 3.26487 141.003 3.27205 141.617H10.6701C10.6701 141.398 10.6988 141.171 10.749 140.945C10.8351 140.587 10.7203 140.185 10.6916 139.806C10.6701 139.565 10.5625 139.302 10.627 139.09C10.9643 138.06 10.6055 137.082 10.4548 136.096C10.3687 135.548 10.3257 135.073 10.6414 134.599C10.8925 134.212 10.8567 133.868 10.6199 133.437C10.3759 132.999 10.2109 132.452 10.2109 131.948C10.2109 131.086 10.3902 130.224 10.462 129.363C10.5625 128.114 10.6701 126.865 10.6916 125.616C10.749 122.761 10.7562 119.905 10.7849 117.05C10.7849 116.4 10.6629 115.684 10.8782 115.107C11.1293 114.414 11.0791 113.749 11.1222 113.063C11.1437 112.749 11.3015 112.383 11.5168 112.157C11.9402 111.712 12.4209 111.931 12.5501 112.537C12.7941 113.64 12.1483 114.779 12.6793 115.874C12.7151 115.94 12.6075 116.071 12.6003 116.174C12.5573 116.933 12.5645 117.693 12.4783 118.445C12.3851 119.292 12.9089 120.154 12.4209 120.993C12.3779 121.067 12.4496 121.198 12.4496 121.3C12.4927 122.198 12.5716 123.097 12.5645 123.988C12.5645 125.631 12.5358 127.267 12.4712 128.91C12.4281 130.078 12.9017 131.232 12.4927 132.422C12.3133 132.941 12.3779 133.547 12.3277 134.27C12.6219 134.606 12.83 135.132 12.5716 135.767C12.5214 135.884 12.5573 136.045 12.5501 136.183C12.4999 136.87 12.4999 137.571 12.3922 138.243C12.299 138.812 12.2559 139.338 12.5716 139.857C12.6721 140.025 12.7223 140.244 12.751 140.448C12.8156 140.835 12.8802 141.23 12.9161 141.617H59.4283C59.4283 141.558 59.4283 141.5 59.4427 141.449C59.6364 140.799 59.5359 140.222 59.3996 139.608C59.335 139.316 59.4211 138.988 59.4427 138.674C59.4785 138.265 59.536 137.863 59.5575 137.454C59.5934 136.965 59.579 136.475 59.6292 135.993C59.7297 135.03 59.5216 134.087 59.4211 133.138C59.3494 132.415 59.2561 131.692 59.1987 130.962C59.1628 130.516 59.1772 130.071 59.1556 129.618C59.1198 128.603 59.048 127.595 59.0624 126.58C59.0695 125.821 59.1843 125.068 59.2705 124.316C59.3566 123.549 59.1269 122.805 59.17 122.023C59.2274 120.986 58.8184 119.956 59.0911 118.846C59.3063 117.963 59.1772 116.992 59.2202 116.064C59.2489 115.516 59.3781 114.969 59.3566 114.428C59.3135 113.53 59.4068 113.274 60.2535 112.807C60.6553 113.209 60.6553 113.734 60.6553 114.253C60.6625 116.342 60.5979 118.43 60.7056 120.511C60.7917 122.155 60.6266 123.812 60.8706 125.448C60.9639 126.098 61.1074 126.777 61.0213 127.413C60.8778 128.442 61.0931 129.421 61.215 130.414C61.2724 130.896 61.2294 131.385 61.2796 131.867C61.3155 132.276 61.4375 132.671 61.4734 133.08C61.5164 133.554 61.6169 134.066 61.5092 134.511C61.4016 134.927 61.3011 135.285 61.4231 135.723C61.5021 136.015 61.4231 136.344 61.416 136.658C61.3801 138.316 61.1361 139.981 61.1863 141.617H69.5531C69.5459 141.493 69.5316 141.346 69.5172 141.164C69.4598 140.507 69.345 139.835 69.3881 139.185L69.3665 139.163Z" fill="white"/>
<path d="M19.288 58.8976C18.4054 58.1016 17.2071 57.6561 16.6761 56.4584C16.6187 56.327 16.4034 56.2394 16.2455 56.1809C15.4419 55.8888 14.875 55.4141 14.7458 54.494C14.7243 54.3479 14.5449 54.2165 14.4373 54.085C13.9422 53.457 13.404 52.8655 13.2748 52.0183C13.2533 51.8577 13.0954 51.7262 13.0309 51.5656C12.586 50.5359 12.1411 49.5062 11.7034 48.4692C11.6531 48.3523 11.7034 48.1917 11.6818 48.0529C11.646 47.8119 11.6244 47.5563 11.524 47.3445C10.5983 45.3947 10.8567 43.2768 10.6773 41.2248C10.6629 41.0933 10.706 40.9472 10.749 40.8158C11.0504 39.9249 11.3518 39.0339 11.6818 38.1576C11.7751 37.9239 11.9545 37.6172 12.1626 37.5441C12.6721 37.3616 13.2318 37.1717 13.7484 37.2082C14.5951 37.2812 15.3701 37.0768 16.1738 36.8869C16.4464 36.8212 16.8626 36.865 17.0492 37.0329C17.7165 37.6683 18.3695 37.3835 19.0655 37.1571C19.4817 37.0256 19.9481 36.8358 20.3428 36.9234C20.9455 37.0621 21.4048 37.0402 21.8353 36.5729C21.943 36.456 22.1439 36.4487 22.3017 36.383C23.1485 36.0178 24.0167 35.7038 24.8347 35.273C26.0761 34.623 27.2744 33.8927 28.4871 33.1843C28.6163 33.104 28.6952 32.9214 28.7957 32.79C29.341 32.0524 29.8002 31.2126 30.4604 30.6065C31.0703 30.0514 31.508 29.4234 31.9242 28.7442C32.0462 28.5398 32.2041 28.2988 32.3978 28.2111C33.388 27.7803 33.6822 26.714 34.3783 26.0276C34.5648 25.8377 34.7586 25.5821 34.8088 25.3265C34.9236 24.7131 35.3255 24.3625 35.7703 24.0266C36.043 23.8221 36.2798 23.5592 36.5597 23.3547C37.5929 22.5879 38.741 22.1498 40.0255 22.4711C40.8148 22.6683 41.5969 22.9677 42.3217 23.3401C43.3621 23.8805 44.5963 24.1215 45.2421 25.1585C45.7157 25.0198 46.1104 24.9249 46.4979 24.7934C46.7203 24.7204 46.9571 24.64 47.1221 24.4867C48.1913 23.5227 50.057 23.5373 50.9826 24.6473C51.4849 25.2535 51.9729 25.7866 52.7263 26.0422C52.8483 26.086 52.9846 26.1882 53.0348 26.3051C53.5371 27.3713 54.592 28.2184 54.2619 29.6279C54.1973 29.8981 54.4054 30.2267 54.4556 30.5334C54.6494 31.7822 54.6422 33.0675 55.1014 34.2725C55.1445 34.3893 55.0368 34.5646 55.0727 34.6814C55.3239 35.4847 55.3526 36.3757 55.9768 37.0329C56.2136 37.2812 56.4289 37.5587 56.6155 37.8508C56.8953 38.289 57.2828 38.5154 57.7779 38.6469C59.0623 38.9755 59.5359 39.9468 59.0839 41.1882C58.9906 41.4511 59.0121 41.7725 58.9978 42.0646C58.9906 42.2691 59.0408 42.4808 59.0121 42.678C58.8543 43.7077 58.6605 44.7301 58.5098 45.7598C58.4022 46.4755 58.4955 47.2642 58.23 47.9068C57.9501 48.586 57.9717 49.4477 57.2756 49.9443C57.1823 50.0101 57.2254 50.2657 57.2182 50.4409C57.211 50.6819 57.2828 50.9521 57.1967 51.1566C56.7877 52.1863 56.4074 53.216 55.6826 54.1069C55.0799 54.8445 54.2762 55.4507 53.982 56.4365C53.9318 56.6118 53.7165 56.809 53.5443 56.8528C53.0348 56.9916 52.7335 57.2691 52.5541 57.7803C52.4751 58.0066 52.1594 58.1381 51.9585 58.3207C51.8222 58.4448 51.693 58.5763 51.5208 58.7442C53.0635 59.0729 54.9723 58.5544 56.0199 57.6634C56.4863 57.2691 57.0388 56.9769 57.577 56.6848C58.273 56.2978 59.0193 55.9984 58.9547 54.9614C58.9404 54.7204 59.1485 54.4575 59.2704 54.2092C59.4283 53.8952 59.6866 53.6176 59.7512 53.289C60.0024 51.9234 60.3109 50.5651 59.9521 49.1629C59.701 48.177 59.9521 47.7754 60.8491 47.3591C61.1433 47.2204 61.4303 47.0524 61.703 46.8552C63.0089 45.9059 63.6906 44.4818 64.5158 43.1454C64.8961 42.532 65.1975 41.9623 65.0325 41.2102C64.9894 41.0203 65.0827 40.8012 65.1186 40.5894C65.2836 39.5597 65.5634 38.53 65.5922 37.493C65.628 36.1858 65.463 34.864 65.5922 33.5495C65.6065 33.4034 65.463 33.2428 65.3984 33.0894C65.2549 32.7389 65.1329 32.381 64.9751 32.0451C64.7885 31.6361 64.6091 31.2126 64.3579 30.8547C63.8987 30.2048 63.4108 29.5768 62.8941 28.9852C62.4349 28.4594 61.8967 28.0505 61.1648 27.9628C60.6266 27.8971 60.0956 27.7803 59.4355 27.6634C59.3853 27.1595 59.1413 26.5461 59.335 26.1809C59.6723 25.5602 59.8373 24.9541 60.0167 24.2822C60.3611 23.0042 59.8158 21.9161 59.4211 20.8791C59.1556 20.178 58.7969 19.2725 57.943 18.9073C57.1895 17.5271 55.5248 17.2423 54.6063 16.0592C53.4582 15.6503 52.468 14.8031 51.1979 14.7666C50.3153 14.7374 49.4614 14.1897 48.5286 14.7155C48.0765 14.9711 47.4881 15.0149 46.9571 15.0879C46.462 15.1537 45.9453 15.1756 45.4574 15.1172C45.2421 15.0879 44.9766 14.847 44.8762 14.6279C44.6394 14.1313 44.4887 13.5836 44.295 13.0651C44.1586 12.7072 44.0725 12.2983 43.6061 12.2398C42.9675 12.1595 42.7163 11.736 42.4652 11.1809C42.3001 10.8231 41.884 10.4872 41.5037 10.3411C40.3556 9.90294 39.1716 9.55971 38.1311 8.85134C37.9876 8.7491 37.7436 8.7637 37.5499 8.77101C36.5884 8.79292 35.6268 8.82213 34.6725 8.86594C34.4716 8.87325 34.2635 8.90976 34.0697 8.96818C33.6177 9.10694 33.1584 9.23839 32.7207 9.42826C31.7233 9.87373 30.7331 10.3557 29.75 10.8377C29.6065 10.9107 29.506 11.0787 29.3769 11.1955C29.0683 11.4657 28.7526 11.7287 28.4369 11.9989C28.2288 12.1741 27.9346 12.3202 27.8413 12.5393C27.4825 13.4229 26.6143 13.7953 26.0331 14.4526C25.5595 14.993 24.9998 15.3289 24.8921 16.1834C24.7701 17.162 23.8875 17.4102 23.0336 16.8771C22.8399 16.753 22.5744 16.585 22.3878 16.6288C21.8497 16.7676 21.3833 16.5704 20.8881 16.4536C20.2997 16.3148 19.7042 16.2272 19.1158 16.6435C18.8144 16.8552 18.3336 16.8552 17.9318 16.8844C17.5587 16.9137 17.1712 16.7968 16.8052 16.8552C16.1809 16.9575 15.4275 16.9648 14.9754 17.3299C14.4158 17.79 13.813 18.0383 13.1887 18.3085C12.8012 18.4765 12.3922 18.7175 12.1267 19.0388C11.5025 19.7764 10.9356 20.5724 10.3831 21.3684C10.0315 21.8723 9.6081 22.3543 9.64397 23.0553C9.65115 23.2452 9.54352 23.457 9.44306 23.6323C9.0771 24.2603 8.68962 24.8737 8.30931 25.4872C8.35237 25.531 8.39542 25.5675 8.43847 25.6113C8.40977 26.1079 8.54611 26.7287 8.30931 27.0719C7.85007 27.7364 7.80702 28.4083 7.77114 29.1459C7.74244 29.6571 7.59893 30.161 7.47694 30.6649C7.39801 31.0081 7.16839 31.2418 6.80243 31.1688C6.33602 31.0811 6.14228 31.3586 5.89113 31.68C5.04441 32.7316 4.36273 33.8781 3.68105 35.0393C3.4012 35.5139 3.08547 35.9594 2.80562 36.4341C2.72669 36.5729 2.66929 36.7627 2.69081 36.9161C2.77692 37.6683 2.69081 38.362 2.33921 39.0485C2.21005 39.2895 2.30333 39.6546 2.31051 39.9614C2.33203 41.1736 2.34639 42.3859 2.38226 43.5982C2.38226 43.7588 2.45402 43.956 2.55448 44.0802C2.97784 44.5768 2.99937 45.1245 2.89173 45.7525C2.80562 46.2856 2.7841 46.8552 3.36532 47.235C3.53754 47.3445 3.65952 47.6512 3.6667 47.8703C3.68822 48.7905 4.44884 49.2067 4.9009 49.8275C5.20945 50.2437 5.65434 50.5651 6.03465 50.9302C6.00594 51.0032 5.97724 51.0763 5.94854 51.1493C6.44366 51.1493 6.95312 51.2223 7.43389 51.1274C7.97923 51.0178 8.90489 51.1785 9.16321 51.6167C9.27084 51.7919 9.29954 52.1279 9.20626 52.2958C8.68962 53.2014 8.7829 54.0777 9.30672 54.8956C10.0028 55.9765 10.8136 56.9623 11.8828 57.7072C12.3635 58.0432 12.8084 58.4229 13.2748 58.7807C13.8417 59.2116 14.3655 59.7447 14.997 60.0514C16.1235 60.5991 17.2716 61.1615 18.5776 61.0957C19.0512 61.0738 19.5391 60.9497 19.9912 61.03C20.759 61.1615 21.455 60.9643 22.4237 60.7744C21.742 60.3216 21.2756 59.847 20.7231 59.6936C20.1562 59.5329 19.7185 59.27 19.3095 58.8976H19.288Z" fill="white"/>
<path d="M30.7474 62.8995C30.8191 63.3961 30.9411 63.8708 30.9483 64.3528C30.9555 64.7617 30.7115 65.2072 30.8191 65.565C31.0201 66.2515 30.733 66.7481 30.5537 67.3542C30.3886 67.8946 30.4173 68.676 30.6972 69.1361C31.0344 69.6911 31.6802 70.1074 32.2686 70.4287C33.5746 71.1371 34.816 71.9112 35.8851 72.8898C36.4161 72.5977 36.9902 72.4151 37.392 72.0353C38.1239 71.3562 38.741 70.5602 39.4227 69.8299C39.6523 69.5816 39.9035 69.326 40.1833 69.158C40.8076 68.7783 41.1377 68.2817 41.0516 67.5222C41.0157 67.179 41.03 66.8284 41.0085 66.4779C40.9152 64.8055 40.8722 63.1332 41.3673 61.5047C41.5754 60.8036 41.9916 60.6283 42.5943 61.0154C42.7378 61.103 42.8598 61.2272 43.032 61.3732C43.398 61.1833 43.7496 60.9424 44.1299 60.8109C45.0484 60.4896 46.0243 60.3581 46.6988 59.4672C47.0073 59.0655 47.6244 58.9122 48.0765 58.6128C48.7582 58.16 49.5259 57.7802 50.0641 57.1814C50.5664 56.6191 50.9324 55.9691 51.7289 55.7939C51.7934 55.7793 51.8221 55.6113 51.8795 55.5237C52.4249 54.735 52.9057 53.8805 53.5515 53.1868C54.2331 52.4492 54.4771 51.5217 54.9148 50.6746C55.3023 49.9224 55.7974 49.2286 55.7113 48.3158C55.7041 48.2354 55.8261 48.1405 55.8548 48.0456C56.027 47.5271 56.228 47.0086 56.3571 46.4755C56.7446 44.8615 56.9527 43.1892 57.6272 41.6556C57.7061 41.473 57.7635 41.2832 57.8568 41.0349C57.498 40.8085 57.1751 40.4141 56.8738 40.436C55.697 40.5091 55.2018 39.7203 54.5202 38.9462C53.8528 38.1868 53.7237 37.2155 53.1496 36.456C53.0779 36.361 53.0563 36.1712 53.085 36.047C53.2214 35.4701 52.9989 34.9881 52.8267 34.455C52.5182 33.4545 52.7263 32.3591 52.2957 31.3513C52.0733 30.8255 52.1092 30.1975 51.9154 29.6571C51.6499 28.8903 51.2481 28.1673 50.9611 27.4078C50.5162 26.232 50.1 25.9472 48.9232 26.0641C48.4568 26.1152 47.9832 26.1225 47.3733 26.159C47.2656 26.2832 47.1436 26.4584 46.993 26.5972C46.2539 27.2471 45.7013 27.2252 44.7613 26.8455C43.4339 26.3124 42.4508 25.2023 41.0516 24.7569C40.0326 24.4282 37.9517 24.5743 37.3346 25.4433C36.4663 26.6702 35.2106 27.5684 34.5505 28.9852C34.2706 29.5913 33.6033 29.9857 33.4669 30.7233C33.4382 30.8693 33.2804 31.0446 33.1369 31.1103C32.448 31.4024 32.1825 32.0816 31.7663 32.622C31.386 33.1113 31.0488 33.7174 30.5465 34.0022C30.0442 34.287 29.75 34.6376 29.5419 35.1123C29.3338 35.5943 29.0037 35.8645 28.523 36.0689C27.4538 36.5144 26.3774 36.9672 25.38 37.5441C24.8132 37.8727 24.3037 38.2744 23.622 38.3255C22.517 38.4131 21.5196 38.8367 20.4935 39.2238C19.74 39.5159 18.8933 39.567 18.0825 39.6984C17.9318 39.7203 17.7596 39.5962 17.5945 39.567C17.1999 39.4867 16.8052 39.3698 16.4105 39.3698C15.571 39.3698 14.7243 39.4574 13.8847 39.4794C13.691 39.4794 13.4901 39.3771 13.2892 39.326C13.0739 39.2749 12.8586 39.2238 12.5501 39.1507C12.5285 39.5962 12.4927 39.9394 12.4998 40.2827C12.5357 41.5461 13.1528 42.7729 12.7725 44.0728C12.7653 44.102 12.7725 44.1459 12.7797 44.1751C13.3681 45.4677 12.9806 47.1108 14.1789 48.2062C14.3583 48.3742 14.3727 48.7174 14.4875 48.973C14.9826 50.1123 15.3414 51.3464 16.0087 52.3688C16.9989 53.8951 18.2403 55.2461 19.5822 56.4803C19.7041 56.5972 19.8764 56.6556 20.0199 56.7432C20.4361 56.9842 20.8666 57.2033 21.2612 57.4662C22.029 57.9701 22.7825 58.5032 23.5503 59.0217C23.6292 59.0728 23.744 59.102 23.8445 59.0947C24.7486 59.0655 25.4877 59.5475 26.2555 59.9273C26.442 60.0149 26.6142 60.139 26.8152 60.1829C27.8843 60.4385 28.9463 60.6795 30.0227 60.9131C31.3645 61.2053 31.5869 61.7968 30.7617 62.8995H30.7474ZM44.8259 40.9472C45.7731 40.8961 46.3328 41.3343 46.6701 42.4005C46.8925 43.1016 46.5768 44.1751 45.9884 44.5329C45.6439 44.7447 45.2493 44.9127 44.8546 44.993C44.0223 45.1683 43.2186 44.5694 43.0751 43.715C43.0392 43.5105 43.0177 43.2987 43.0033 43.0943C42.8813 41.6483 43.4123 41.0203 44.8259 40.9472ZM42.1207 49.2213C42.2068 49.0387 42.4795 48.8051 42.6302 48.8343C43.6563 49.0022 44.6896 49.0534 45.4359 50.0684C45.852 50.6381 46.2539 51.1128 46.3759 51.843C46.462 52.3761 46.7633 52.8727 46.9212 53.2671C46.9356 53.9755 46.5552 54.4428 46.0314 54.5013C45.5148 54.5597 45.0555 54.2749 44.9766 53.7272C44.7972 52.493 44.0079 51.6313 43.2545 50.7622C42.9531 50.419 42.8455 49.8713 42.2858 49.7544C42.1925 49.7325 42.0633 49.3528 42.1279 49.2286L42.1207 49.2213ZM32.204 45.475C32.6202 44.993 33.1297 44.4453 33.2302 43.861C33.3521 43.1746 33.797 42.7656 34.0912 42.2471C34.2276 41.9988 34.5361 41.7724 34.8088 41.7067C35.0599 41.641 35.4689 41.7067 35.6268 41.8893C35.7775 42.0646 35.8062 42.4954 35.6986 42.7291C35.2034 43.8245 34.6509 44.8907 34.1702 45.8547C34.5935 46.4682 34.8805 46.9136 35.2106 47.3299C35.347 47.5052 35.6268 47.5563 35.7703 47.7242C35.9282 47.9141 36.1291 48.2062 36.086 48.3961C36.0502 48.5787 35.7057 48.8197 35.5048 48.8051C34.2347 48.7466 33.0077 48.586 32.1466 47.4248C31.6228 46.7165 31.6372 46.1395 32.2112 45.475H32.204ZM31.0775 51.8357C31.3214 51.1785 31.8668 51.142 32.5054 51.0762C32.8929 51.2588 33.3163 51.3903 33.6535 51.6459C34.3998 52.2082 35.0958 52.566 36.1363 52.5003C37.6216 52.4127 38.741 51.7846 39.7887 50.8645C40.1546 50.5431 40.5206 50.3094 40.9583 50.7111C41.3099 51.0324 41.3314 51.4852 40.9583 52.0256C40.5349 52.6536 40.09 53.2671 39.5877 53.8221C39.3796 54.0558 38.9993 54.158 38.6836 54.2603C38.4612 54.3333 38.167 54.2311 37.9732 54.3406C36.696 55.0636 35.4761 54.7496 34.163 54.3698C33.2517 54.1069 32.4265 53.8367 31.6946 53.2306C31.2425 52.8581 30.8335 52.493 31.0703 51.8357H31.0775ZM24.0956 43.6931C24.0813 42.1303 24.7199 41.473 26.2698 41.4657C27.3892 41.4657 28.0637 42.3494 28.035 43.8026C28.0135 44.8177 27.1381 45.5042 25.8608 45.5115C24.9495 45.5115 24.11 44.6498 24.1028 43.7004L24.0956 43.6931ZM29.1472 51.5582C29.0611 51.77 28.8459 51.9745 28.8602 52.1717C28.9176 52.9969 28.4512 53.5592 27.992 54.1142C27.7121 54.4501 27.4681 54.7569 27.5901 55.2315C27.6762 55.5821 27.7049 55.9472 27.3318 56.159C26.8654 56.4219 26.4636 56.159 26.0833 55.9326C25.7101 55.7135 25.624 55.3338 25.7245 54.9248C25.8536 54.4209 25.8967 53.8367 26.1765 53.4424C26.6645 52.7559 26.6429 51.7189 27.5686 51.3318C27.6691 51.288 27.7623 51.1347 27.7982 51.0105C28.0494 50.0465 28.8674 50.0977 29.5634 49.8348C29.8791 50.6162 29.3625 51.047 29.1472 51.5582Z" fill="white"/>
<path d="M42.1781 79.2433C41.0444 79.4623 40.047 79.6084 38.9993 79.0096C38.0665 78.4765 36.9543 78.2062 36.4592 77.0743C36.4089 76.9502 36.1937 76.9063 36.1147 76.8552C35.512 77.6074 34.9666 78.3012 34.4069 78.9876C34.3424 79.0607 34.2347 79.1045 34.1414 79.1483C33.6822 79.3674 33.2301 79.6011 32.7566 79.7837C31.9314 80.105 31.1133 80.5066 30.202 80.032C30.0944 79.9735 29.9222 79.9443 29.8074 79.9881C28.7669 80.3971 28.0494 79.7252 27.26 79.2433C27.0878 79.141 26.8797 79.0972 26.6932 79.0315C26.6429 79.0899 26.5927 79.1483 26.5425 79.214C27.2026 80.4555 27.8269 81.7043 28.5229 82.9239C28.932 83.6395 29.4988 84.2676 29.8791 84.9979C30.2594 85.7136 30.8694 86.2247 31.1851 87.0354C31.5869 88.0724 32.3834 88.9633 32.8642 90.0076C33.0364 90.3801 33.1082 90.8547 33.3808 91.1176C34.4141 92.0962 35.0097 93.3158 35.4833 94.6303C35.512 94.7179 35.6053 94.7764 35.7273 94.9151C35.8492 94.4477 35.8779 94.0461 36.0502 93.7247C36.6888 92.5052 37.8082 91.5777 38.1239 90.161C38.1454 90.0733 38.2674 90.0149 38.332 89.9346C39.2289 88.6858 40.1546 87.4589 40.8076 86.0349C41.1807 85.217 41.6543 84.4502 42.1207 83.6834C42.5871 82.9166 43.1109 82.1863 43.5917 81.4268C43.8859 80.9594 44.1084 80.4555 44.3954 79.9808C44.79 79.3236 45.2134 78.6736 45.7587 77.8192C45.3139 77.9872 45.0771 78.031 44.8833 78.1478C44.0294 78.6663 43.1899 79.0607 42.1638 79.2579L42.1781 79.2433Z" fill="#EDAD0B"/>
<path d="M28.9391 77.8484C29.3553 77.9945 29.7787 78.1478 30.2164 78.2282C30.5321 78.2866 30.8766 78.2866 31.1851 78.2282C32.1395 78.031 33.0723 77.8338 33.6966 76.8844C34.0123 76.4025 34.6294 76.1323 35.1604 75.7379C34.6653 74.8104 34.2778 73.9487 33.3378 73.4813C32.8857 73.2549 32.5054 72.8825 32.1036 72.5612C31.5941 72.1595 31.1277 71.6921 30.5967 71.3343C30.037 70.9619 29.4127 70.677 28.7239 70.2973C26.8941 70.7355 25.5666 72.2691 23.9377 73.4156C24.0813 74.2116 24.8203 74.5622 25.2939 75.0953C25.8608 75.7306 26.2985 76.5777 27.2529 76.7457C27.4968 77.6293 28.2933 77.6293 28.9463 77.8557L28.9391 77.8484Z" fill="#EDAD0B"/>
<path d="M43.8787 70.4214C43.5486 70.6259 43.2401 70.8158 42.9459 70.9984C42.6086 70.6697 42.1709 70.5237 41.0372 70.3557C40.6497 71.5388 39.2002 71.8017 38.7194 72.992C37.8225 73.4521 37.8871 74.4161 37.5211 75.2486C37.9947 75.6941 38.4181 76.1542 38.906 76.5339C39.4729 76.9721 40.0972 77.3299 40.6927 77.7316C41.195 78.0748 41.7404 78.177 42.0633 77.7316C42.5943 77.0159 43.3621 76.8771 44.0581 76.5412C44.3953 76.3805 44.7111 76.1542 44.9909 75.8986C45.9883 75.0076 46.9714 74.1021 47.976 73.1819C46.7848 71.7359 45.2995 71.1006 43.8644 70.4141L43.8787 70.4214Z" fill="#EDAD0B"/>
<path d="M31.7019 53.2306C32.4338 53.8367 33.2661 54.1069 34.1703 54.3698C35.4906 54.7496 36.7033 55.0636 37.9805 54.3406C38.1743 54.2311 38.4685 54.3406 38.6909 54.2603C39.0066 54.1581 39.3798 54.0558 39.595 53.8221C40.0973 53.2671 40.5422 52.6537 40.9656 52.0256C41.3315 51.4779 41.31 51.0325 40.9656 50.7111C40.5279 50.3095 40.1619 50.5432 39.7959 50.8645C38.7483 51.7846 37.6289 52.4127 36.1436 52.5003C35.1031 52.5587 34.4071 52.2082 33.6608 51.6459C33.3236 51.3903 32.9002 51.2661 32.5127 51.0763C31.8813 51.1493 31.3287 51.1785 31.0848 51.8358C30.8408 52.493 31.257 52.8655 31.709 53.2306H31.7019Z" fill="black"/>
<path d="M35.5049 48.7977C35.7058 48.8051 36.0431 48.5641 36.0861 48.3888C36.1292 48.1916 35.9283 47.9068 35.7704 47.7169C35.6269 47.549 35.3471 47.4905 35.2107 47.3226C34.8806 46.9136 34.5936 46.4608 34.1703 45.8474C34.651 44.8834 35.2035 43.8172 35.6987 42.7218C35.8063 42.4881 35.7776 42.0572 35.6269 41.882C35.469 41.7067 35.0672 41.641 34.8089 41.6994C34.5362 41.7651 34.2277 41.9915 34.0913 42.2398C33.7971 42.7656 33.3522 43.1673 33.2303 43.8537C33.1298 44.438 32.6203 44.9857 32.2041 45.4677C31.6373 46.1249 31.6157 46.7091 32.1396 47.4175C33.0006 48.5714 34.2348 48.732 35.4977 48.7977H35.5049Z" fill="black"/>
<path d="M28.0351 43.7881C28.0638 42.3348 27.3893 41.4439 26.2699 41.4512C24.7271 41.4585 24.0813 42.123 24.0957 43.6785C24.1029 44.6352 24.9424 45.4969 25.8537 45.4896C27.1381 45.4896 28.0136 44.7958 28.0279 43.7808L28.0351 43.7881Z" fill="black"/>
<path d="M42.2786 49.7545C42.8383 49.8786 42.946 50.419 43.2473 50.7623C44.008 51.6313 44.7901 52.493 44.9695 53.7272C45.0484 54.2749 45.5077 54.5597 46.0243 54.5013C46.5553 54.4429 46.9356 53.9755 46.9141 53.2671C46.7562 52.8728 46.462 52.3762 46.3687 51.8431C46.2467 51.1128 45.8449 50.6381 45.4287 50.0685C44.6896 49.0534 43.6492 49.0023 42.6231 48.8343C42.4652 48.8124 42.1997 49.0461 42.1136 49.2214C42.049 49.3455 42.1782 49.7326 42.2715 49.7472L42.2786 49.7545Z" fill="black"/>
<path d="M43.0823 43.715C43.2258 44.5694 44.0295 45.1756 44.8619 44.993C45.2565 44.9054 45.6512 44.7374 45.9956 44.5329C46.584 44.1751 46.8926 43.1016 46.6773 42.4005C46.34 41.3416 45.7875 40.8961 44.8332 40.9472C43.4196 41.0203 42.8886 41.6483 43.0106 43.0943C43.0249 43.2987 43.0464 43.5105 43.0823 43.715Z" fill="black"/>
<path d="M27.7983 50.9959C27.7696 51.1201 27.6763 51.2735 27.5687 51.3173C26.6431 51.7043 26.6646 52.7413 26.1766 53.4278C25.8896 53.8221 25.8537 54.4064 25.7246 54.9103C25.6169 55.3192 25.7102 55.699 26.0834 55.918C26.4637 56.1371 26.8727 56.4073 27.3319 56.1444C27.705 55.9327 27.6763 55.5675 27.5902 55.217C27.4754 54.7423 27.7122 54.4356 27.9921 54.0996C28.4585 53.5446 28.9177 52.9823 28.8603 52.1571C28.846 51.9599 29.0612 51.7554 29.1473 51.5437C29.3626 51.0325 29.8721 50.6016 29.5635 49.8202C28.8603 50.0904 28.0423 50.032 27.7983 50.9959Z" fill="black"/>
</g>
<defs>
<clipPath id="clip0_148_546">
<rect width="72" height="135" fill="white"/>
</clipPath>
</defs>
</svg>
