<svg width="66" height="135" viewBox="0 0 66 135" fill="none" xmlns="http://www.w3.org/2000/svg">
<g clip-path="url(#clip0_42_480)">
<path d="M24.1164 3.24989C24.4725 3.10662 24.9044 2.94828 25.3287 2.76731C25.412 2.72961 25.5105 2.64667 25.5484 2.56373C25.95 1.66644 26.7986 1.36483 27.6093 1.0029C27.829 0.904881 28.0336 0.784238 28.2381 0.671134C28.2987 0.640974 28.3518 0.588192 28.4124 0.550491C28.7003 0.377066 30.5187 0.218722 30.8521 0.309204C31.0263 0.354445 31.2309 0.384606 31.4127 0.354445C31.9355 0.263963 32.4583 0.135779 32.9811 0.022676C33.0341 0.0151358 33.0947 -0.0150251 33.1326 0.00759557C34.0191 0.437388 34.9434 0.143319 35.8526 0.1584C36.0572 0.1584 36.2693 0.1584 36.4739 0.1584C36.7164 0.16594 37.0346 0.105618 37.1785 0.233802C37.618 0.625893 38.0574 0.50525 38.5348 0.392146C38.6484 0.361986 38.8151 0.339365 38.8909 0.399687C39.5046 0.86718 40.2168 0.580652 40.8759 0.693755C41.3154 0.769157 41.7397 0.935042 42.1791 1.03306C42.3534 1.07077 42.5504 1.05569 42.7322 1.03306C43.2929 0.957663 43.8384 0.889801 44.3082 1.34221C44.3915 1.42516 44.6339 1.40254 44.7779 1.34975C45.3234 1.14617 45.7553 1.24419 46.1341 1.6966C46.2553 1.83987 46.4599 1.93789 46.6418 2.01329C47.0433 2.17918 47.4525 2.32244 47.854 2.47325C47.9525 2.51095 48.0434 2.59389 48.1343 2.60143C49.4754 2.68437 50.1043 3.73246 50.8771 4.58451C51.0362 4.75793 51.2408 4.90119 51.4529 5.00676C51.8469 5.19526 52.1045 5.45163 52.15 5.90404C52.1803 6.18303 52.2485 6.44694 52.6576 6.42432C52.7485 6.42432 52.9304 6.71085 52.9379 6.86919C52.9531 7.29144 53.1501 7.54781 53.438 7.84188C53.6729 8.08317 53.8396 8.49788 53.8396 8.83719C53.8396 9.2896 53.9987 9.55351 54.3548 9.77217C54.3851 9.78725 54.4305 9.79479 54.4457 9.82495C54.87 10.677 56.0065 11.0917 55.9686 12.2454C55.9686 12.3962 56.0898 12.5621 56.1959 12.6902C56.7262 13.399 57.2263 14.0927 57.4233 14.9975C57.59 15.7742 57.9688 16.5056 58.2795 17.2521C58.3704 17.4632 58.5522 17.6366 58.7037 17.8176C58.7871 17.9231 58.931 18.0061 58.9765 18.1267C59.272 18.8958 59.5448 19.68 59.8175 20.4567C59.8781 20.615 59.9539 20.7733 59.9918 20.9392C60.0448 21.173 60.1736 21.4444 60.1054 21.6405C59.6963 22.7112 60.4843 23.5029 60.7191 24.4153C60.8934 25.0939 61.1737 25.7499 61.2798 26.4436C61.3253 26.7377 61.0373 27.0845 60.901 27.4238C61.0146 27.7103 61.1283 28.0798 61.3101 28.404C61.6586 29.045 62.0147 29.6783 62.4239 30.274C62.5754 30.5002 62.9088 30.5982 63.1436 30.7792C63.4013 30.9828 63.6437 31.2015 63.8862 31.4201C63.9771 31.5031 64.0377 31.6313 64.1438 31.6765C65.6591 32.3928 65.6591 33.7576 65.6742 35.1299C65.6742 35.6049 65.8712 36.0724 65.9015 36.5475C65.947 37.2412 65.7879 37.8896 65.2348 38.3797C65.1515 38.4552 65.0681 38.5833 65.0757 38.6814C65.106 39.6691 64.5681 40.3704 63.9013 41.0113C63.7801 41.1244 63.7346 41.328 63.6664 41.4939C63.4467 42.0292 63.2043 42.557 63.0073 43.0999C62.7194 43.8916 61.9162 44.5175 62.1966 45.5052C62.2193 45.5957 62.2117 45.7315 62.1587 45.8069C61.7268 46.4327 61.939 47.1113 62.0526 47.7372C62.1435 48.2197 62.3557 48.7928 62.7118 49.0868C63.2952 49.5619 63.3482 50.2179 63.6361 50.7909C63.7195 50.9568 63.8104 51.1302 63.9316 51.2584C64.3104 51.6731 64.6817 52.0803 64.5226 52.7288C64.4999 52.8268 64.5908 53.0002 64.6817 53.0681C65.2878 53.5205 65.4242 54.1463 65.4318 54.8476C65.4318 55.0361 65.4621 55.2246 65.5076 55.4131C65.75 56.3104 65.75 57.1549 65.0075 57.8486C64.9469 57.9089 64.9242 57.9994 64.8787 58.0672C64.6438 58.3915 64.3938 58.7082 64.1589 59.0324C63.9316 59.3491 63.7195 59.6733 63.5149 59.9975C63.4619 60.0805 63.4619 60.2388 63.3937 60.2765C62.7118 60.6837 62.7194 61.4226 62.5375 62.056C62.439 62.3878 62.5678 62.7723 62.5148 63.1192C62.4314 63.6244 62.8254 63.7073 63.1058 63.9184C63.28 64.0466 63.4922 64.2201 63.5452 64.4161C63.7043 65.0269 63.7801 65.6527 63.924 66.2635C63.9847 66.5274 64.0756 66.8214 64.2498 67.0099C64.5302 67.3115 64.712 67.5981 64.659 68.0203C64.5908 68.5708 64.5226 69.1212 64.4999 69.6716C64.4999 69.8451 64.6438 70.026 64.7196 70.207C64.8711 70.5614 65.0378 70.9082 65.1818 71.2626C65.2575 71.4511 65.3181 71.6472 65.356 71.8508C65.4394 72.3032 65.5151 72.7631 65.5833 73.2231C65.6212 73.4644 65.5909 73.7433 65.697 73.9545C66.0455 74.6708 66.2198 75.3494 65.6742 76.0507C65.5909 76.1562 65.5454 76.307 65.5454 76.4427C65.5379 77.1666 65.5454 77.8905 65.5454 78.6068C65.5454 78.8933 65.5 79.1798 65.4621 79.4664C65.4545 79.5493 65.3712 79.6549 65.3939 79.7077C65.7349 80.4541 65.2878 81.1177 65.1742 81.8114C65.159 81.9094 65.1515 82.0376 65.0908 82.1054C64.5681 82.7162 64.765 83.4401 64.7196 84.1413C64.6665 84.9406 64.7954 85.7474 64.462 86.5391C64.2195 87.1197 64.2195 87.7983 64.1059 88.4392C64.0832 88.575 64.068 88.7182 64.015 88.8464C63.7498 89.5401 63.674 90.279 63.5149 90.9954C63.3406 91.7645 63.1361 92.526 62.9845 93.3102C62.8254 94.1472 62.7572 95.0897 62.1435 95.8211C62.0299 95.9568 62.0829 96.2509 62.0981 96.4771C62.1284 97.1406 61.9768 97.7212 61.5601 98.2717C61.1434 98.8221 60.9995 99.463 61.1283 100.179C61.204 100.579 61.0904 101.016 61.0449 101.431C61.0298 101.544 60.9313 101.65 60.9161 101.77C60.757 102.728 60.5979 103.686 60.4464 104.651C60.3479 105.246 60.2721 105.842 60.1585 106.43C60.1282 106.596 60.0297 106.747 59.9463 106.898C59.7342 107.29 59.4387 107.652 59.3023 108.066C59.1053 108.647 59.0447 109.273 58.8856 109.869C58.7113 110.517 58.5977 111.226 58.2491 111.776C57.8476 112.402 57.5142 113.186 56.6126 113.352C56.4686 113.382 56.3701 113.601 56.2262 113.691C55.961 113.857 55.6807 114.001 55.4003 114.144C55.37 114.159 55.3246 114.144 55.3018 114.174C54.3396 115.049 53.1273 114.679 52.0212 114.792C51.4302 114.853 51.559 114.807 51.5817 115.388C51.6196 116.368 52.3545 117.054 52.4454 118.027C52.5515 119.158 52.9834 120.259 53.241 121.375C53.3243 121.737 53.3168 122.129 53.3016 122.498C53.2789 123.102 53.3168 123.66 53.8471 124.089C54.3093 124.466 54.4608 124.994 54.2638 125.545C54.0896 126.035 54.1653 126.412 54.5214 126.774C54.6351 126.894 54.7184 127.06 54.7715 127.226C54.9609 127.867 55.2109 128.508 55.2943 129.171C55.3852 129.933 55.37 130.717 55.2943 131.486C55.2715 131.69 54.8775 131.871 54.6351 132.022C54.4002 132.172 54.135 132.278 53.885 132.414C53.5819 132.572 53.2713 132.715 52.991 132.904C52.2788 133.394 51.4908 133.356 50.6725 133.364C50.0361 133.371 49.4072 133.726 48.7632 133.794C48.1571 133.854 47.5661 133.839 47.0812 134.299C46.9751 134.397 46.6948 134.472 46.5963 134.412C45.975 134.012 45.3765 134.344 44.7703 134.397C44.043 134.45 43.3156 134.472 42.5883 134.51C42.4367 134.517 42.2852 134.578 42.1261 134.593C41.7851 134.615 41.4063 134.714 41.1032 134.615C40.6032 134.45 40.1865 134.472 39.6637 134.6C39.1636 134.721 38.5726 134.548 38.0423 134.427C37.7089 134.352 37.4437 134.299 37.1028 134.465C36.633 134.691 36.1102 134.812 35.6178 134.45C35.542 134.397 35.3829 134.329 35.3374 134.359C34.7995 134.812 34.1479 134.495 33.5645 134.608C33.2387 134.668 32.8523 134.525 32.5189 134.404C32.1552 134.269 31.8219 134.171 31.5037 134.48C31.4658 134.517 31.4127 134.555 31.3673 134.555C30.5187 134.593 29.708 135.06 28.8291 134.774C28.6776 134.721 28.4578 134.774 28.2987 134.849C27.7987 135.083 27.3441 135.083 26.8668 134.766C26.7228 134.668 26.4349 134.661 26.2758 134.736C25.9045 134.91 25.556 134.977 25.1772 134.781C25.1014 134.744 25.0181 134.683 24.9347 134.691C24.268 134.691 23.6012 134.744 22.9345 134.714C22.495 134.698 22.0632 134.563 21.6313 134.502C21.404 134.472 21.154 134.419 20.9343 134.48C20.1917 134.668 19.472 134.744 18.7295 134.465C18.3658 134.329 17.9491 134.216 17.5702 134.254C16.6838 134.337 15.9867 133.846 15.2063 133.62C15.0396 133.575 14.8426 133.62 14.6608 133.643C14.5623 133.658 14.4411 133.756 14.3653 133.733C13.4031 133.386 12.2969 133.439 11.4407 132.806C11.0468 132.512 10.721 132.21 10.1679 132.188C9.66781 132.165 9.16018 132.022 8.69042 131.841C8.49343 131.765 8.29644 131.471 8.2434 131.245C8.07672 130.551 8.10702 129.873 8.66012 129.3C8.75861 129.194 8.8268 128.938 8.76619 128.817C8.3419 127.995 8.8268 127.309 9.06168 126.578C9.19048 126.178 9.22079 125.741 9.35717 125.349C9.52385 124.858 9.75115 124.398 9.94057 123.916C10.0466 123.652 10.1376 123.381 10.1982 123.102C10.4861 121.775 10.1754 120.432 10.2285 119.105C10.2436 118.789 10.3724 118.479 10.4255 118.238C9.97845 118.087 9.55416 117.944 9.12229 117.808C9.06168 117.786 8.97076 117.771 8.91772 117.801C8.36463 118.102 7.87215 117.839 7.36451 117.658C6.82657 117.462 6.2356 117.356 5.75827 117.069C5.11426 116.685 4.53086 116.18 3.95503 115.69C3.69743 115.471 3.49286 115.177 3.29587 114.898C2.90946 114.332 2.50032 113.805 2.52305 113.02C2.5382 112.628 2.23514 112.146 1.93965 111.837C1.3714 111.233 1.09107 110.623 1.09864 109.763C1.10622 108.798 0.848615 107.833 0.742542 106.868C0.659199 106.098 0.666776 105.314 0.591009 104.545C0.553126 104.138 0.47736 103.723 0.325827 103.354C0.0303389 102.615 0.181871 101.891 0.272791 101.152C0.303097 100.903 0.272791 100.647 0.280368 100.39C0.303097 99.6515 0.295521 98.9126 0.371287 98.1812C0.40917 97.7816 0.537973 97.397 0.265214 97.0351C0.242484 97.0049 0.219755 96.9747 0.227331 96.937C0.265214 96.1076 0.0606454 95.2707 0.38644 94.4563C0.469783 94.2527 0.492513 94.0039 0.484937 93.7852C0.462207 92.5109 -0.0681573 91.214 0.712235 89.9699C0.841038 89.7663 0.742542 89.344 0.621316 89.0877C0.40917 88.6353 0.401594 88.2281 0.591009 87.7908C0.818308 87.2705 1.03803 86.7502 1.25775 86.2299C1.28048 86.1696 1.28806 86.0942 1.28048 86.0339C1.09864 85.1064 0.901651 84.179 0.742542 83.244C0.704659 83.0027 0.825885 82.7313 0.825885 82.4749C0.818308 81.9546 0.772848 81.4344 0.734965 80.9141C0.712235 80.6577 0.636469 80.4089 0.644046 80.1525C0.659199 79.7755 0.765272 79.3985 0.757695 79.0215C0.742542 78.3881 0.901651 77.7397 0.894074 77.1591C0.871345 76.2316 0.984994 75.3645 1.08349 74.4597C1.1441 73.8866 1.03045 73.306 1.36383 72.7631C1.42444 72.6576 1.30321 72.3333 1.17441 72.2504C0.416747 71.7603 0.50009 70.8404 0.0757986 70.1844C0.0379155 70.1165 0.0303389 70.0034 0.0530688 69.928C0.424324 68.6989 0.613739 67.4246 1.43201 66.3162C1.83358 65.7658 2.07603 65.1249 2.62155 64.6197C2.95492 64.3105 3.13676 63.8129 3.55347 63.4887C3.74289 63.3378 3.73531 62.8854 3.72016 62.5763C3.705 62.1993 3.62166 61.8223 3.52316 61.4528C3.37163 60.8647 3.20495 60.2765 2.51547 60.0503C2.37152 60.0051 2.19725 59.8317 2.15937 59.6884C1.99269 59.0701 1.54566 58.6705 1.15926 58.203C0.962264 57.9617 0.947111 57.5696 0.871345 57.2454C0.848615 57.1473 0.924381 57.0267 0.886498 56.9362C0.378864 55.7373 1.20472 54.8099 1.57597 53.8146C1.70477 53.4753 2.24271 53.2566 2.62912 53.0605C2.94734 52.9022 3.15949 52.8042 3.03826 52.3744C2.90188 51.8918 3.12918 51.4997 3.53074 51.2057C3.91715 50.9267 4.33386 50.6703 4.68997 50.3536C5.1976 49.8937 5.83404 49.5317 5.98557 48.7852C6.01587 48.6344 6.11437 48.4535 6.06891 48.3328C5.78858 47.609 5.79615 46.8172 5.40217 46.0934C5.06122 45.4751 4.85665 44.8342 4.22021 44.4044C4.00049 44.2611 3.96261 43.8539 3.81865 43.5825C3.52316 43.0094 3.21252 42.4364 2.90188 41.8709C2.8943 41.8558 2.87915 41.8482 2.864 41.8332C2.31848 41.4185 2.61397 40.7398 2.37909 40.2648C2.13664 39.7671 1.71993 39.3675 2.00784 38.7492C2.0533 38.6512 2.01542 38.5155 2.00784 38.3948C2.00784 38.3647 1.97753 38.327 1.97753 38.2968C2.07603 37.6031 2.15179 36.9094 2.27302 36.2232C2.40182 35.4692 2.90188 34.9791 3.53074 34.587C3.68985 34.489 3.76562 34.2628 3.88684 34.112C4.09141 33.8481 4.26567 33.5088 4.53843 33.3504C4.86423 33.1619 5.0991 32.9734 5.30367 32.6492C5.56885 32.242 6.00072 31.9555 6.31894 31.5785C6.47805 31.39 6.63716 31.1261 6.65231 30.8923C6.67504 30.4776 6.56897 30.0553 6.53109 29.6331C6.50078 29.2259 6.45532 28.8188 6.47047 28.4116C6.4932 27.7254 6.50836 27.0242 6.61443 26.3456C6.68262 25.8856 6.92507 25.4483 7.05387 24.9959C7.16752 24.6189 7.10691 24.1137 7.34178 23.8573C8.07672 23.0505 7.93276 21.9798 8.32675 21.0825C8.64496 20.3662 8.9253 19.6348 9.24352 18.926C9.6375 18.0513 10.1754 17.2294 10.4406 16.3171C10.7967 15.088 11.6302 14.1153 12.0241 12.9164C12.1681 12.4716 12.3651 12.0569 12.4712 11.5818C12.5697 11.1219 12.8879 10.6619 13.2288 10.3151C13.9941 9.55351 14.2971 8.50542 14.9487 7.69107C15.7367 6.71085 16.5853 5.77586 17.4187 4.83333C17.646 4.57696 17.8884 4.32814 18.1536 4.10193C18.7067 3.6269 19.2219 3.09154 19.8432 2.73715C20.3963 2.42046 21.0706 2.29982 21.6995 2.13394C21.8889 2.08869 22.1389 2.11886 22.3056 2.20934C22.9345 2.54111 23.533 2.91058 24.1392 3.26497L24.1164 3.24989Z" fill="black"/>
<path d="M63.3254 53.2867C63.4543 53.7995 63.6361 54.2142 63.6361 54.6289C63.6361 55.1944 63.5906 55.7901 63.4164 56.3179C63.2194 56.9136 62.8481 57.4489 62.5829 58.0295C62.4238 58.3839 62.3026 58.7157 61.8783 58.8665C61.6662 58.9419 61.454 59.1455 61.3555 59.3491C61.0449 59.9523 60.7342 60.5706 60.5069 61.219C60.1963 62.1163 60.5448 62.9834 60.7342 63.8506C60.7645 64.0014 60.8327 64.1446 60.8934 64.2804C61.0525 64.6272 61.2116 64.9741 61.3858 65.3134C61.5601 65.6376 61.7419 65.9543 61.9389 66.2634C62.0753 66.4746 62.2193 66.6932 62.4011 66.8667C62.6284 67.0778 62.7724 68.058 62.5451 68.2541C62.4617 68.3295 62.2647 68.3144 62.1283 68.2767C61.3555 68.0957 60.5372 67.9902 59.8175 67.681C58.9462 67.304 58.0976 67.1833 57.1505 67.2437C56.4838 67.2889 55.7943 67.025 55.12 66.9119C54.9684 66.8893 54.8017 66.8742 54.6502 66.9119C54.0895 67.0552 53.5743 66.9345 53.0137 66.8365C51.9075 66.6329 50.771 66.5575 49.6496 66.4595C49.1193 66.4142 48.051 65.6828 47.8464 65.2078C47.7403 64.9665 47.5888 64.7026 47.3766 64.5518C46.6341 63.9938 45.8537 63.4811 45.1037 62.9307C44.8839 62.7723 44.7021 62.5537 44.5051 62.3576C44.4293 62.2822 44.3763 62.1616 44.2854 62.1389C43.2474 61.8298 42.9443 60.842 42.3609 60.1106C42.1867 59.892 41.8987 59.7638 41.6411 59.6205C41.4669 59.5225 41.2547 59.4773 41.0729 59.4169C41.2623 57.9767 41.2168 57.8938 39.9515 57.3434C40.3304 56.6723 40.0728 56.0465 39.8303 55.3829C39.7015 55.0361 39.8152 54.5987 39.8455 54.1991C39.8834 53.6864 39.9137 53.1661 39.997 52.6609C40.0273 52.4648 40.1789 52.2462 40.338 52.1255C40.7623 51.8013 41.1865 51.4318 41.6714 51.2358C42.3685 50.9643 42.8004 50.429 43.3459 49.9917C44.3005 49.2452 45.1946 48.5062 45.8083 47.4581C45.8916 47.3073 46.0886 47.1867 46.2553 47.1339C47.0963 46.8549 47.3463 46.116 47.4979 45.4072C47.6039 44.902 47.8388 44.5401 48.1949 44.246C48.5662 43.9293 48.8238 43.6051 48.7632 43.0924C48.7556 43.0094 48.7632 42.9039 48.8011 42.8435C49.2784 42.1121 49.7102 41.343 50.2709 40.672C50.7407 40.1064 50.8846 39.556 50.5816 38.9075C50.4452 38.6135 50.4831 38.4476 50.7786 38.2817C51.5135 37.8896 51.4983 37.0677 51.809 36.4268C51.8847 36.276 52.0514 36.0649 52.1954 36.0573C53.1273 35.997 53.6349 35.3184 54.2411 34.768C54.4002 34.6172 54.5441 34.4362 54.7336 34.3457C55.62 33.9385 56.3701 32.702 56.2868 31.7293C56.2868 31.6614 56.2337 31.5709 56.2565 31.5257C56.6959 30.7943 56.4307 30.0327 56.3549 29.2787C56.3322 29.0449 56.3171 28.781 56.211 28.585C56.0519 28.2909 55.7564 28.0572 55.9761 27.6575C55.9913 27.6274 55.8322 27.4766 55.7337 27.4087C55.4912 27.2353 55.1957 27.1071 54.9987 26.896C54.6654 26.5341 54.2411 26.5114 53.9304 26.9111C53.7334 27.1674 53.5364 27.2504 53.1728 27.1524C52.5212 26.9714 51.8847 27.0317 51.4453 27.6651C51.3923 27.748 51.3013 27.8536 51.218 27.8611C50.3846 27.9742 49.5511 28.0496 48.7253 28.1778C48.4298 28.2231 48.1495 28.3739 47.8691 28.5096C47.6418 28.6227 47.4297 28.7735 47.21 28.9168C46.9675 29.0751 46.8008 28.962 46.5659 28.8338C46.2174 28.6529 45.7856 28.4945 45.4143 28.5322C44.4293 28.6302 43.5429 28.2834 43.0125 27.4389C42.217 26.1646 41.5957 24.8149 41.2547 23.337C41.2169 23.1862 41.1865 23.0052 41.0805 22.9147C40.3607 22.2965 40.6183 21.4218 40.444 20.6602C40.391 20.4189 40.2698 20.1852 40.1788 19.9514C39.9061 20.0796 39.5803 20.1475 39.3833 20.3511C39.2393 20.4943 39.1484 20.8864 39.2393 21.0222C39.4666 21.3539 39.3606 21.5801 39.2015 21.8667C38.8757 22.4623 39.0196 24.6113 39.353 25.2296C39.6485 25.78 39.8909 26.3531 40.1258 26.9337C40.1713 27.0468 40.1031 27.273 40.0046 27.3635C39.6561 27.6952 39.3 27.9365 38.7241 27.8461C37.8528 27.7028 36.9512 27.7028 36.0647 27.65C35.9056 27.6425 35.7465 27.6123 35.595 27.65C34.5646 27.9064 33.7008 27.5143 32.8523 27.0091C32.3219 26.6924 31.7309 26.4587 31.2005 26.1344C30.8672 25.9308 30.5793 25.6518 30.3065 25.3729C29.8671 24.9355 29.4731 24.4605 29.0336 24.0307C28.6851 23.6914 28.5866 23.3295 28.5942 22.8318C28.5942 21.927 28.473 20.9995 27.6926 20.3586C27.4653 20.1701 27.435 20.0419 27.5941 19.8006C27.9123 19.3256 27.8441 18.8657 27.5107 18.4057C27.3819 18.2247 27.3365 17.9684 27.3062 17.7422C27.2152 17.1163 27.1471 16.4905 27.291 15.8496C27.3668 15.5178 27.1849 15.1332 27.1167 14.7713C27.1016 14.6733 27.0258 14.5753 27.0334 14.4923C27.1016 14.0022 27.2152 13.5196 27.2607 13.0295C27.344 12.1549 26.897 11.9287 26.056 12.1624C25.2756 12.3811 24.6847 12.743 24.2452 13.4141C24.177 13.5196 23.927 13.497 23.7755 13.5724C23.48 13.7308 23.086 13.8514 22.9496 14.1002C22.6541 14.6582 22.2904 15.1182 21.6843 15.3142C20.8206 15.5857 20.4796 16.3246 20.1008 17.0108C19.8432 17.4783 19.5553 17.9005 19.1689 18.2926C18.7673 18.7073 18.6082 19.3482 18.3203 19.876C17.7142 20.9995 17.0853 22.1004 16.4943 23.2314C16.3125 23.5783 16.214 23.9628 16.0625 24.37C15.4715 24.2871 14.8199 24.189 14.1683 24.1136C14.0243 24.0986 13.8501 24.1513 13.7288 24.2267C12.6605 24.9054 11.7968 25.78 11.1983 26.896C11.1755 26.9412 11.1301 26.994 11.1376 27.0392C11.2664 27.7631 10.9331 28.4417 10.9255 29.1354C10.9255 29.6255 11.3649 30.093 11.5013 30.6058C11.6983 31.3523 12.259 31.6991 12.8575 32.0233C12.9863 32.0912 13.1606 32.0761 13.3121 32.1138C13.5622 32.1817 13.8349 32.2118 14.0395 32.34C14.4714 32.5964 14.926 32.5738 15.2669 32.1968C15.3957 32.0535 15.5397 31.9102 15.7367 31.7066C15.873 32.2571 16.1761 32.6115 15.7897 33.1619C15.5169 33.554 15.5548 34.1874 15.5548 34.7152C15.5548 35.4466 15.6079 36.1855 15.6836 36.9169C15.7367 37.4221 15.8655 37.9273 15.9488 38.4325C15.9867 38.6663 16.0094 38.9075 16.0549 39.1413C16.0928 39.3449 16.07 39.6163 16.1913 39.737C16.6383 40.1668 16.6458 40.687 16.5928 41.2149C16.5095 42.1197 17.0626 42.8058 17.5399 43.394C18.0096 43.9821 18.146 44.5853 18.2142 45.2338C18.3733 46.6966 19.3507 47.5788 20.3963 48.4233C20.8736 48.8154 21.3585 49.2075 21.8358 49.5996C21.851 49.6071 21.8586 49.6297 21.8737 49.6373C22.5935 50.0294 23.2981 50.429 24.0255 50.7985C24.6998 51.1453 25.3969 51.4469 26.0636 51.7938C26.3515 51.9446 26.3894 52.1557 26.2227 52.4799C26.1091 52.7061 26.0788 53.1133 26.2076 53.2943C26.5258 53.7316 26.4727 54.2217 26.2985 54.5761C25.9803 55.2019 26.0333 55.8504 25.9348 56.4913C25.9121 56.6647 25.7833 56.8683 25.6393 56.9664C25.1468 57.3132 24.518 57.5394 24.1391 57.9767C23.6694 58.5272 23.1239 58.957 22.5935 59.4245C22.4117 59.5828 22.245 59.7487 22.0707 59.9146C21.9192 60.0578 21.6919 60.1634 21.6237 60.3368C21.2373 61.3095 20.4114 61.7921 19.578 62.2897C19.3962 62.3953 19.2143 62.5914 19.1461 62.7874C19.0022 63.2097 18.7294 63.4132 18.3203 63.564C17.9566 63.6998 17.6308 63.9486 17.3126 64.1823C16.5019 64.7629 15.7139 65.3737 14.8881 65.9392C14.6759 66.0825 14.3729 66.0825 14.1077 66.1579C13.547 66.3162 12.9712 66.4444 12.4408 66.6631C11.8498 66.9119 11.3271 67.3869 10.6073 67.025C10.4633 66.9571 10.2436 66.9421 10.0921 66.9948C9.28137 67.2814 8.48582 67.5905 7.6827 67.9072C7.40994 68.0128 7.15234 68.1636 6.88715 68.2918C6.1598 68.6386 5.41729 68.9628 4.70509 69.3474C4.4096 69.5057 4.19745 69.7998 3.93985 70.0335C3.66709 70.2824 3.40948 70.5387 3.12157 70.765C2.76547 71.0439 2.56848 70.8554 2.42452 70.501C2.13661 69.7847 1.96992 69.0835 2.54575 68.4199C2.55332 68.4049 2.56848 68.3898 2.57605 68.3747C2.70486 67.6508 2.99277 67.1004 3.73528 66.746C4.06107 66.5877 4.19745 66.0523 4.44748 65.7055C4.79601 65.2229 5.2506 64.7931 5.51579 64.2728C5.72035 63.8807 5.76581 63.3755 5.75824 62.9156C5.75066 62.2596 5.64459 61.6111 5.55367 60.9627C5.46275 60.3595 5.0233 60.0277 4.50052 59.8392C4.14442 59.711 4.03077 59.5376 4.06865 59.1907C4.11411 58.7308 3.89439 58.399 3.52313 58.1351C3.39433 58.0446 3.2731 57.9089 3.19734 57.7656C3.00792 57.4037 2.82608 57.0342 2.67455 56.6572C2.62151 56.529 2.60636 56.2877 2.67455 56.235C3.40948 55.6845 3.53071 54.8325 3.73528 54.0408C3.8262 53.6939 3.97015 53.4828 4.25806 53.2717C5.00815 52.7288 5.72035 52.1331 6.43256 51.5449C6.55378 51.4394 6.62197 51.2584 6.69016 51.1001C7.06142 50.2706 7.44782 49.4488 7.76604 48.5967C7.87969 48.3027 7.94031 47.8804 7.8115 47.624C7.5842 47.1792 7.50086 46.7569 7.43267 46.2668C7.36448 45.739 6.97807 45.2489 6.73562 44.7361C6.6447 44.5401 6.54621 44.3516 6.46286 44.1555C6.40983 44.0274 6.42498 43.869 6.34921 43.7559C5.8037 42.9039 5.2506 42.0518 4.68236 41.2149C4.36414 40.7474 4.06107 40.31 4.25806 39.6842C4.31868 39.4957 4.25806 39.1941 4.12926 39.0508C3.81862 38.6964 3.87923 38.3571 4.06107 38.0027C4.57628 36.9773 4.92481 35.8613 5.92492 35.1299C6.18253 34.9414 6.30375 34.5719 6.48559 34.2779C6.52348 34.2175 6.5159 34.1044 6.56136 34.0893C7.25841 33.8556 7.39479 33.1544 7.75089 32.6492C8.02365 32.2646 8.16003 31.7443 8.23579 31.2618C8.35702 30.5605 8.3646 29.8367 8.42521 29.1203C8.44036 28.9318 8.53128 28.7132 8.47067 28.5624C8.1676 27.7933 8.38733 27.0166 8.44036 26.2626C8.47825 25.6669 8.81162 25.1014 9.00103 24.5133C9.10711 24.1815 9.18287 23.8422 9.25864 23.5104C9.41017 22.8544 9.5314 22.1984 9.70566 21.55C9.81931 21.1428 10.0466 20.8035 10.3269 20.4566C10.7058 19.9967 10.9103 19.3935 11.1907 18.843C11.3801 18.4736 11.5695 18.1041 11.7513 17.7346C11.8195 17.5989 11.9029 17.4481 11.918 17.3048C12.0317 16.1059 12.6757 15.1634 13.3803 14.2435C13.4712 14.1229 13.5394 13.9721 13.5925 13.8288C13.7061 13.5347 13.8501 13.2407 13.8955 12.9315C13.994 12.283 14.3426 11.7854 14.7744 11.3254C14.9638 11.1219 15.1684 10.9258 15.3578 10.7147C15.5169 10.5337 15.767 10.3528 15.7897 10.1567C15.873 9.32728 16.4564 8.78439 16.9186 8.20379C17.4187 7.58549 17.8505 6.85409 18.6915 6.57511C18.8658 6.51478 19.0173 6.25842 19.1007 6.06237C19.4265 5.33097 19.9644 4.93888 20.7751 4.87102C21.1161 4.84086 21.4343 4.63727 21.7676 4.61465C22.1541 4.59203 22.548 4.69005 22.9345 4.72775C22.8966 4.78807 22.8587 4.84086 22.8208 4.90118C22.9345 5.16509 23.0481 5.64012 23.1693 5.64012C23.5785 5.64012 24.0709 5.59488 24.3892 5.36113C25.0559 4.87856 25.6393 4.27534 26.253 3.7249C26.3136 3.66458 26.3818 3.55148 26.4424 3.55902C27.1925 3.59672 27.5638 3.00858 28.0562 2.62403C28.1472 2.54863 28.2911 2.43553 28.3669 2.46569C28.9351 2.66173 29.4049 2.43553 29.9125 2.23194C30.1398 2.14146 30.458 2.21686 30.7232 2.26964C31.4733 2.42045 32.2082 2.57125 32.9583 2.19424C33.8296 1.75691 34.701 2.14146 35.5344 2.40537C35.989 2.54863 36.3678 2.54863 36.7769 2.2998C36.9285 2.20932 37.2315 2.15654 37.3225 2.23948C37.921 2.78238 38.6181 2.65419 39.3075 2.59387C39.406 2.58633 39.5424 2.54109 39.6106 2.58633C40.3001 3.06137 41.0577 2.7673 41.7927 2.82762C42.2776 2.87286 42.7549 3.06137 43.2398 3.16693C43.9823 3.34035 44.7248 3.4987 45.4673 3.66458C45.5355 3.67966 45.6113 3.70982 45.6719 3.6872C46.4144 3.43084 46.8917 3.83047 47.4297 4.2678C48.1192 4.83332 48.945 5.24049 49.6193 5.82108C50.1421 6.26596 50.521 6.86917 50.9604 7.38945C50.5588 7.89464 50.6043 8.18871 51.0816 8.70899C51.4756 9.13878 51.9454 9.52333 52.2333 10.021C52.5742 10.6016 52.8091 11.2576 52.9909 11.9136C53.1197 12.3886 53.3395 12.7053 53.7637 12.9541C53.9532 13.0597 54.0744 13.3161 54.1805 13.5347C54.3017 13.776 54.3017 14.1078 54.4684 14.2963C54.9533 14.8241 54.9912 15.5103 55.2336 16.1286C55.4609 16.7092 55.8094 17.252 56.1731 17.7723C56.4383 18.1493 56.8171 18.4283 56.6959 18.9863C56.6429 19.22 56.7338 19.5066 56.8171 19.7479C57.0293 20.3888 57.499 20.9543 57.4157 21.6932C57.4157 21.7385 57.4536 21.7837 57.4763 21.8365C57.7415 22.3266 58.0673 23.2842 57.9536 23.797C57.7339 24.7847 58.3021 25.4407 58.7567 26.1721C58.8628 26.3455 58.8477 26.6019 58.878 26.8206C58.9083 27.0392 58.8628 27.2805 58.9462 27.469C59.2038 28.0723 59.5068 28.6529 59.7947 29.2485C59.8099 29.2787 59.8402 29.3089 59.8402 29.339C59.9463 30.2288 60.4236 30.8018 61.257 31.1562C61.4767 31.2542 61.5222 31.7066 61.7192 31.9253C62.1662 32.4003 62.689 32.8151 63.136 33.2901C63.3406 33.5163 63.4543 33.833 63.583 34.1195C63.6437 34.2402 63.6058 34.4287 63.6816 34.5191C64.3559 35.2882 63.8558 36.0272 63.6664 36.7812C63.5906 37.0904 63.6285 37.4523 63.4921 37.7237C63.3103 38.0857 63.0678 38.4853 62.7345 38.6964C62.2571 38.998 61.992 39.36 61.9465 39.8953C61.848 40.9509 61.2419 41.7879 60.7797 42.6927C60.6964 42.8586 60.5979 43.0245 60.5373 43.2055C60.363 43.7408 60.1736 44.2686 60.0523 44.8115C59.7796 46.0783 59.7872 47.3375 60.2418 48.5741C60.3024 48.7324 60.3175 48.9059 60.3781 49.0567C60.5145 49.3734 60.6661 49.6901 60.8327 49.9992C60.8782 50.0821 61.007 50.1274 61.0525 50.2103C61.4995 50.9643 61.901 51.7485 62.3859 52.4724C62.6284 52.8343 63.0224 53.0907 63.2345 53.2867H63.3254Z" fill="white"/>
<path d="M32.193 84.8199C32.39 85.5739 32.6022 86.3279 32.7764 87.0895C32.8825 87.5494 32.9659 87.9792 33.3371 88.3412C33.6932 88.6805 34.0114 89.0877 34.2236 89.525C34.3372 89.7587 34.1402 90.1207 34.1402 90.4223C34.1402 90.7013 34.1781 90.9953 34.2463 91.2668C34.3978 91.8474 34.5797 92.4129 34.7539 92.9859C34.7994 93.1518 34.7994 93.3931 34.9131 93.4685C35.4737 93.8531 35.398 94.5468 35.7086 95.0369C36.1708 95.7607 36.3375 96.5826 36.5572 97.397C36.6254 97.6458 36.8224 97.8946 37.0269 98.068C37.6028 98.5657 37.8907 99.1312 37.8907 99.9154C37.8907 100.262 38.1862 100.624 38.3756 100.963C38.7468 101.642 39.1332 102.313 39.5045 102.984C39.5651 103.09 39.5803 103.218 39.6409 103.324C39.9515 103.829 40.2925 104.319 40.5804 104.839C41.0122 105.608 41.5047 106.34 41.7472 107.222C41.9063 107.795 42.3533 108.3 42.7321 108.79C43.0807 109.25 43.5277 109.642 43.9065 110.08C44.255 110.487 44.7172 110.803 44.7248 111.452C44.7248 111.671 45.0582 111.912 45.2779 112.085C45.5582 112.304 45.8992 112.447 46.1947 112.651C46.6493 112.975 47.0584 113.375 47.5357 113.661C48.0585 113.978 48.6268 114.234 49.2026 114.445C49.4753 114.543 49.6496 114.641 49.6117 114.935C49.5738 115.237 49.4526 115.539 49.4374 115.84C49.4223 116.217 49.4374 116.609 49.5056 116.979C49.6041 117.439 49.786 117.884 49.9224 118.344C50.0208 118.668 50.1042 119 50.1875 119.331C50.233 119.512 50.286 119.693 50.3163 119.874C50.4451 120.757 50.5285 121.639 50.7103 122.506C50.7861 122.875 51.0816 123.2 51.2558 123.546C51.3619 123.758 51.4831 123.984 51.4983 124.21C51.521 124.798 51.468 125.386 51.4983 125.974C51.5059 126.261 51.5437 126.608 51.7104 126.804C52.256 127.452 52.309 128.199 52.3696 128.983C52.3999 129.367 52.5439 129.752 52.6954 130.114C52.8242 130.423 52.7863 130.604 52.4681 130.725C52.4226 130.74 52.3772 130.777 52.3241 130.785C51.4907 130.966 50.6724 131.162 50.233 132.029C50.2027 132.089 49.9072 132.105 49.8087 132.029C49.4299 131.765 49.0813 131.818 48.6722 131.954C47.763 132.248 46.8841 132.595 45.8537 132.489C44.8612 132.384 43.8383 132.595 42.8231 132.655C42.4973 132.678 42.1639 132.693 41.8381 132.655C40.7016 132.519 39.603 132.512 38.512 132.964C38.1407 133.115 37.6634 133.13 37.2921 132.776C36.9209 132.421 36.4966 132.406 36.0344 132.617C35.6177 132.813 35.1934 132.874 34.7312 132.67C34.5266 132.58 34.2084 132.549 34.0266 132.647C33.3826 132.994 32.7764 132.979 32.1097 132.723C31.8218 132.61 31.4657 132.67 31.1323 132.663C30.3671 132.64 29.5564 132.768 28.8366 132.572C28.0032 132.346 27.2682 132.466 26.4651 132.602C26.0029 132.678 25.5029 132.444 24.9953 132.7C24.821 132.791 24.4497 132.617 24.23 132.466C23.5027 131.961 22.7374 132.127 21.957 132.263C21.3054 132.376 20.6766 132.421 20.0326 132.097C19.7219 131.939 19.2976 131.999 18.9188 131.984C18.6991 131.969 18.449 132.059 18.2521 131.984C17.6232 131.765 17.0095 131.795 16.3579 131.81C15.8124 131.818 15.2517 131.501 14.6986 131.343C14.388 131.253 14.0394 131.064 13.7515 131.132C12.9484 131.313 12.2892 130.974 11.6074 130.687C11.2134 130.521 10.827 130.325 10.4406 130.144C10.6375 129.639 10.8876 129.134 11.0391 128.598C11.2285 127.942 11.4104 127.317 11.7134 126.683C12.0771 125.922 12.6378 125.047 12.1756 124.074C12.1453 124.006 12.1453 123.893 12.1756 123.825C12.4938 123.215 12.2665 122.574 12.2968 121.94C12.3271 121.307 12.5014 120.681 12.509 120.055C12.509 119.512 12.4105 118.97 12.2892 118.434C12.1983 118.027 12.1983 117.733 12.6302 117.544C12.8045 117.469 12.956 117.356 13.0999 117.235C13.4939 116.919 13.8576 116.64 14.441 116.685C15.085 116.738 15.5017 116.323 15.6381 115.682C15.6987 115.411 15.8048 115.32 16.0927 115.335C16.7822 115.365 16.9868 115.064 17.161 114.408C17.2822 113.963 17.6762 113.593 17.9566 113.194C18.4794 112.455 19.2219 111.867 19.3658 110.886C19.3885 110.705 19.6462 110.562 19.7901 110.396C20.0401 110.117 20.3129 109.861 20.5326 109.559C20.9872 108.956 21.4039 108.338 21.8434 107.72C21.9116 107.621 22.0176 107.546 22.0707 107.441C22.5177 106.641 22.9496 105.834 23.3966 105.043C23.5557 104.756 23.7603 104.5 23.9345 104.228C24.0254 104.085 24.1542 103.927 24.1542 103.768C24.1618 103.263 24.3134 102.864 24.7604 102.585C24.8134 102.554 24.8665 102.479 24.874 102.419C25.1089 100.963 26.306 100.134 27.0788 99.0257C27.3819 98.5959 27.5637 98.1887 27.3667 97.6759C27.2455 97.3593 27.397 97.1783 27.6925 97.0878C28.2835 96.9068 28.5638 96.5148 28.5714 95.8889C28.5714 95.708 28.7684 95.527 28.8745 95.3385C29.0639 95.0218 29.2988 94.7202 29.42 94.3733C29.6473 93.7098 29.7079 92.9935 30.3595 92.5335C30.5338 92.4129 30.6171 92.1641 30.7383 91.9831C30.9732 91.6438 31.2081 91.3045 31.4354 90.9727C31.443 90.9576 31.4581 90.9501 31.4657 90.935C31.693 90.3092 31.9885 89.6909 32.1097 89.0499C32.1627 88.7634 31.9127 88.3713 31.7006 88.1074C31.4202 87.753 31.2687 87.5042 31.4884 87.0141C31.7233 86.4787 31.7157 85.8454 31.8294 85.2497C31.8597 85.0989 31.9127 84.9556 31.9582 84.8048C32.0188 84.8048 32.0794 84.8199 32.14 84.8199H32.193Z" fill="#EDAD0B"/>
<path d="M2.61402 93.4308C2.84132 93.3403 3.03074 93.3026 3.17469 93.1971C3.22015 93.1669 3.13681 92.8502 3.11408 92.8502C2.93224 92.8502 2.74282 92.8955 2.43218 92.9482C2.44734 92.6316 2.48522 92.2847 2.47007 91.9454C2.45491 91.5759 2.37915 91.2065 2.36399 90.837C2.35642 90.656 2.40188 90.4675 2.46249 90.2865C2.50037 90.1584 2.67463 90.0377 2.65948 89.9322C2.50037 89.0349 3.12923 88.1527 2.60644 87.2026C2.38672 86.803 1.99274 86.2525 2.31853 85.6644C2.35642 85.589 2.31853 85.4533 2.28823 85.3628C2.0685 84.8576 2.15942 84.473 2.59129 84.0734C2.82617 83.8547 2.96255 83.4174 2.96255 83.0856C2.96255 82.3316 2.84132 81.5776 2.78071 80.816C2.75798 80.5069 2.72009 80.1902 2.78071 79.8886C2.93982 79.0215 3.04589 78.177 2.82617 77.2797C2.71252 76.8122 2.90193 76.2618 2.9777 75.7566C3.06862 75.1081 3.13681 74.4521 3.30349 73.8187C3.39441 73.4568 3.6596 73.1401 3.85659 72.8083C4.0157 72.5444 4.20511 72.3031 4.35665 72.0317C4.5006 71.7678 4.66729 71.6622 4.98551 71.6019C5.34161 71.5416 5.72802 71.3078 5.95531 71.0288C6.17504 70.7574 6.33415 70.5161 6.69782 70.4784C6.79632 70.4709 6.88724 70.3955 6.97816 70.3427C7.56914 69.9958 8.0995 69.5283 8.87989 69.6565C9.05415 69.6867 9.25872 69.5057 9.45572 69.4454C9.79666 69.3398 10.1452 69.2644 10.4861 69.1589C10.8422 69.0458 11.2893 69.0156 11.509 68.7743C11.9257 68.3219 12.4485 68.337 12.9561 68.2163C12.9864 68.2088 13.0319 68.2239 13.0622 68.2163C13.5698 68.0128 14.0623 67.7187 14.5927 67.6207C15.1079 67.5226 15.6685 67.6734 16.1989 67.6056C16.4792 67.5679 16.7444 67.3191 16.9869 67.123C17.7749 66.5047 18.5552 65.8713 19.3659 65.2153C19.4114 65.3209 19.4569 65.4415 19.5251 65.5546C19.6311 65.7281 19.7524 66.0297 19.8812 66.0372C20.9798 66.1277 21.495 67.3266 22.639 67.3869C23.1694 67.4171 23.6846 67.877 24.1923 68.1636C24.2529 68.1937 24.2453 68.3747 24.2377 68.4802C24.215 68.9251 24.1316 69.3625 24.1619 69.7998C24.2226 70.7348 24.3362 71.6698 24.4196 72.6123C24.4347 72.7631 24.3286 72.9139 24.3362 73.0647C24.3514 73.3663 24.3211 73.7207 24.465 73.9544C24.7529 74.4069 24.7075 74.7989 24.465 75.2212C24.0938 75.8772 23.9346 76.5332 24.3741 77.2344C24.4802 77.4003 24.5408 77.6416 24.5029 77.8301C24.3968 78.3579 24.3741 78.8405 24.7075 79.3231C24.7832 79.4286 24.6393 79.8283 24.4877 79.9338C23.8362 80.3636 23.7452 81.0724 23.4801 81.7058C23.4119 81.8717 23.3437 82.0979 23.2073 82.1808C22.2829 82.7765 22.0935 83.7492 21.8283 84.6917C21.8056 84.7747 21.8208 84.8802 21.7677 84.9405C21.2525 85.5136 20.6994 86.0565 20.2145 86.6597C19.7751 87.2026 19.2296 87.655 18.9947 88.3789C18.8735 88.7559 18.5098 89.1103 18.1764 89.3591C17.7673 89.6607 17.5854 90.0453 17.396 90.4901C17.2521 90.837 17.002 91.1838 16.7065 91.41C16.2898 91.7343 16.0171 92.149 15.6989 92.5486C15.2215 93.1518 15.0776 93.9209 14.4563 94.4714C13.9638 94.9087 13.7365 95.6627 13.2365 96.1905C12.8652 96.5826 12.5773 97.0577 12.297 97.5252C12.1151 97.8268 11.9333 98.1661 11.8802 98.5054C11.8348 98.8296 11.706 98.9804 11.4408 99.1312C11.2059 99.2669 11.0089 99.4781 10.8271 99.6741C10.5619 99.9682 10.3346 100.292 10.0618 100.579C9.64513 101.031 9.5921 101.657 9.95577 102.155C10.3119 102.637 10.9786 102.811 11.4938 102.487C11.9408 102.2 12.3727 101.861 12.7515 101.484C13.138 101.107 13.3198 100.602 13.2289 100.051C13.1758 99.7344 13.2819 99.5836 13.5698 99.463C14.0775 99.2519 14.3578 98.8824 14.4108 98.3093C14.426 98.1284 14.5927 97.9097 14.7594 97.8117C15.2291 97.5176 15.5776 97.1783 15.6231 96.5902C15.6382 96.4394 15.7595 96.2886 15.858 96.1604C15.9489 96.0397 16.1156 95.9568 16.1762 95.8211C16.3732 95.3837 16.7899 95.1198 17.0323 94.7654C17.4415 94.1622 18.04 93.657 18.3204 93.0538C19.0629 91.4402 20.2979 90.1885 21.2146 88.7106C21.7147 87.9114 22.3284 87.18 22.9118 86.4335C23.1618 86.1093 23.4649 85.8303 23.7074 85.5664C24.2529 85.8981 24.8287 86.245 25.4045 86.5918C25.4954 86.6446 25.5864 86.6974 25.6849 86.7351C26.4046 87.0292 27.1547 87.2554 27.829 87.6324C28.5337 88.0245 29.1701 88.5523 29.8065 89.0575C29.8823 89.1178 29.8368 89.5099 29.7308 89.6004C29.2989 89.9472 29.1625 90.3846 29.0564 90.8973C28.958 91.3346 28.7231 91.7569 28.4731 92.149C27.9124 93.0463 27.3062 93.9134 26.7153 94.7881C26.685 94.8333 26.6547 94.8785 26.6471 94.9313C26.6168 95.8889 26.0485 96.5525 25.4651 97.2613C24.9802 97.8494 24.6847 98.6034 24.3059 99.282C24.268 99.3574 24.2301 99.4479 24.2377 99.5309C24.2983 100.654 23.4573 101.28 22.8663 102.049C22.5557 102.449 22.2829 102.894 22.0102 103.324C21.7905 103.67 21.5935 104.04 21.3737 104.387C20.9646 105.043 20.5479 105.684 20.1312 106.332C20.0554 106.445 19.9721 106.558 19.9115 106.687C19.4796 107.659 19.0856 108.655 18.6234 109.612C18.4795 109.914 18.1764 110.2 17.8733 110.351C17.3884 110.585 17.1157 110.901 16.9717 111.414C16.8884 111.708 16.6611 111.965 16.4944 112.236C16.1004 112.892 15.6534 113.533 15.3352 114.227C15.1685 114.589 14.9791 114.762 14.6078 114.739C14.032 114.702 13.6759 114.951 13.5319 115.501C13.4183 115.938 13.0773 115.946 12.7061 115.938C12.4409 115.938 12.1681 115.984 11.903 116.014C11.7363 116.029 11.562 116.074 11.4029 116.067C10.5619 116.021 9.7209 115.961 8.87989 115.908C8.74351 115.901 8.5844 115.923 8.47075 115.863C7.36457 115.282 6.25838 114.694 5.17492 114.076C5.0537 114.008 5.00066 113.752 4.97035 113.571C4.90974 113.126 4.7279 112.771 4.31876 112.568C4.07631 112.447 4.00054 112.319 4.09146 112.04C4.25815 111.535 4.07631 111.128 3.62171 110.834C3.52322 110.773 3.37168 110.69 3.35653 110.607C3.205 109.695 3.0762 108.783 2.95497 107.87C2.89436 107.395 3.00043 106.837 2.78071 106.453C2.43976 105.857 2.60644 105.284 2.56856 104.703C2.53068 104.085 2.50037 103.474 2.47764 102.856C2.46249 102.479 2.4928 102.102 2.47764 101.733C2.47764 101.491 2.41703 101.258 2.40188 101.016C2.38672 100.835 2.33369 100.624 2.40188 100.466C2.76555 99.6213 2.36399 98.8447 2.23519 98.0379C2.20488 97.8343 2.20488 97.5629 2.31853 97.4121C2.62917 96.9823 2.72767 96.5525 2.57614 96.0397C2.51553 95.8286 2.5231 95.6024 2.50795 95.3837C2.50037 95.248 2.55341 95.0746 2.4928 94.9766C2.15942 94.4186 2.31853 93.9134 2.59887 93.4459L2.61402 93.4308Z" fill="#EDAD0B"/>
<path d="M38.9741 84.9858C38.8302 84.179 38.6483 83.5004 38.6029 82.8142C38.5422 81.751 38.5195 80.6879 38.1483 79.6624C38.0725 79.4513 38.0952 79.1346 38.1937 78.931C38.5347 78.2448 38.5195 77.5964 38.1255 76.9479C37.9285 76.6237 38.0573 76.405 38.2468 76.0808C38.6407 75.3871 38.8756 74.6029 39.1711 73.8564C39.3378 73.4417 39.5045 73.0346 39.6636 72.6198C39.7394 72.4238 39.8454 72.2277 39.8454 72.0317C39.853 71.2023 40.3531 70.5387 40.5728 69.7923C40.6789 69.4379 40.6258 69.0232 40.5955 68.6386C40.5804 68.4124 40.4591 68.1862 40.4061 68.0128C41.1638 67.7036 41.8457 67.4171 42.5351 67.1306C42.6336 67.0929 42.7473 67.0476 42.8003 66.9647C43.3383 66.1428 44.2626 66.3011 45.096 66.0297C45.2854 66.8516 45.8385 67.221 46.6341 67.2889C46.7705 67.304 46.8993 67.4397 47.0281 67.5302C47.3993 67.7866 47.7706 68.0429 48.2782 67.9449C48.3843 67.9223 48.5282 68.0203 48.6343 68.0957C48.7631 68.1862 48.8465 68.3672 48.9828 68.3973C49.7708 68.6009 50.5664 68.7743 51.3543 68.9553C51.5059 68.9855 51.6953 68.9327 51.8089 69.0081C52.3166 69.3474 52.8545 69.4605 53.4531 69.3474C53.5061 69.3398 53.5591 69.3323 53.6046 69.3474C54.9153 69.8677 56.2943 69.8073 57.6657 69.8526C58.8855 69.8903 60.1053 70.0637 61.3327 70.1542C61.9919 70.207 62.4465 70.6217 62.7647 71.0816C63.2799 71.8055 63.6739 72.6274 64.0831 73.4191C64.1512 73.5473 64.1058 73.8037 64.0073 73.9243C63.5451 74.4898 63.5906 75.0402 63.8785 75.6661C63.9997 75.9451 63.9997 76.3447 63.9012 76.6388C63.6285 77.4079 63.4239 78.1619 63.6663 78.9687C63.6891 79.0366 63.7118 79.112 63.6966 79.1723C63.5148 79.9489 63.3027 80.7256 63.136 81.5022C63.0299 81.9923 62.992 82.49 62.9238 82.9801C62.9163 83.063 62.9617 83.1761 62.9238 83.2365C62.5147 83.8171 62.5223 84.4957 62.4541 85.1592C62.3783 85.868 62.2495 86.5768 62.1283 87.278C62.0525 87.6777 61.9161 88.0697 61.8479 88.4769C61.6661 89.4722 61.454 90.4675 61.3555 91.4704C61.3024 91.9756 61.1433 92.3677 60.8403 92.7522C60.7039 92.9256 60.7266 93.2423 60.7039 93.4987C60.6736 93.8003 60.6433 94.1095 60.6508 94.4186C60.6584 95.0143 60.2038 95.4139 60.0371 95.9191C59.7113 96.8692 59.3552 97.8192 59.4992 98.8824C59.5447 99.2368 59.2795 99.6289 59.1507 100.006C59.1355 100.051 59.0825 100.096 59.0749 100.142C59.0294 100.677 59.1279 101.273 58.9082 101.718C58.6733 102.215 58.4612 102.63 58.4991 103.218C58.5294 103.67 58.3021 104.138 58.196 104.598C58.1127 104.96 58.0369 105.329 57.9611 105.691C57.9308 105.857 57.9233 106.031 57.8854 106.196C57.7869 106.634 57.6884 107.071 57.5823 107.508C57.5444 107.674 57.5293 107.863 57.4459 108.006C57.0974 108.602 56.855 109.213 56.9686 109.921C56.9686 109.936 56.9686 109.959 56.9686 109.974C56.6277 110.683 56.3928 111.475 55.9079 112.063C55.5063 112.545 54.8093 112.779 54.2334 113.111C54.1653 113.148 54.0592 113.133 53.9758 113.111C53.4303 113.02 52.8924 112.907 52.3469 112.847C51.9377 112.794 51.5134 112.756 51.1043 112.794C50.3845 112.854 49.839 112.515 49.2935 112.123C49.0434 111.942 48.7555 111.829 48.4979 111.663C48.3388 111.558 48.2024 111.422 48.0661 111.279C47.8388 111.052 47.6645 110.751 47.3993 110.592C46.6568 110.14 46.0431 109.65 45.7249 108.775C45.4067 107.908 44.8915 107.109 44.4444 106.287C44.3762 106.151 44.2626 106.023 44.1338 105.94C43.4671 105.518 43.3004 104.801 43.02 104.138C42.8761 103.799 42.6639 103.482 42.4518 103.18C42.1942 102.818 41.8381 102.517 41.6259 102.125C41.2168 101.348 40.9516 100.488 40.4819 99.7571C40.0651 99.1162 39.6939 98.4903 39.4136 97.7665C39.0423 96.8013 38.2695 95.9945 37.8982 95.0369C37.527 94.0567 36.8148 93.2725 36.489 92.2847C36.3678 91.9153 36.2768 91.5232 36.095 91.1763C35.8829 90.7691 35.5949 90.4072 35.3222 90.0377C35.1252 89.7663 35.0115 89.5175 35.4055 89.329C36.1935 88.9519 36.989 88.5825 37.7846 88.2055C37.9437 88.1301 38.1786 88.115 38.2468 87.9943C38.7241 87.1725 39.8151 87.2931 40.3379 86.5089C40.6486 86.984 40.9062 87.3836 41.1789 87.7757C41.2926 87.9491 41.3986 88.1602 41.5653 88.2507C42.1108 88.5523 42.2775 89.0349 42.4291 89.5929C42.6109 90.2564 43.0125 90.7993 43.6034 91.1989C43.7777 91.3196 43.8686 91.5609 43.9671 91.7644C44.0505 91.9454 44.0505 92.1867 44.1565 92.345C44.7475 93.2348 45.3461 94.1245 45.9901 94.9841C46.2174 95.2933 46.6265 95.4592 46.8917 95.7457C47.4448 96.3263 47.7175 97.1105 48.3919 97.6458C48.8086 97.9776 48.9222 98.6637 49.2026 99.1765C49.3844 99.5158 49.6117 99.8325 49.839 100.149C50.2784 100.767 50.733 101.378 51.1876 101.981C51.6347 102.57 52.0968 103.143 52.5363 103.731C52.7636 104.032 52.9909 104.342 53.1651 104.673C53.4303 105.171 53.8395 105.45 54.3698 105.42C54.8699 105.39 55.2942 105.05 55.4381 104.56C55.5897 104.07 55.3245 103.633 54.9759 103.218C54.4759 102.622 54.1122 101.914 53.6955 101.25C53.6122 101.122 53.597 100.911 53.4834 100.843C52.8015 100.428 52.4454 99.7646 52.0665 99.1162C51.9453 98.9201 51.8695 98.7014 51.7635 98.4903C51.6271 98.2038 51.5513 97.8419 51.3316 97.6383C50.7558 97.0878 50.2557 96.5299 49.892 95.7834C49.5738 95.1349 48.8995 94.6674 48.407 94.1019C48.157 93.8229 47.9448 93.5062 47.7251 93.2046C47.119 92.3601 46.5204 91.5156 45.9143 90.6711C45.8916 90.641 45.8613 90.6108 45.8613 90.5806C45.7325 89.1782 44.3611 88.8011 43.6413 87.8888C43.558 87.7832 43.4367 87.7003 43.3761 87.5796C42.9518 86.7125 42.4442 85.9283 41.5426 85.4759C41.3911 85.4005 41.2698 85.1969 41.2168 85.031C40.9516 84.2318 39.9136 83.9528 39.3454 84.6993C39.2999 84.7596 39.209 84.7973 38.9817 84.9632L38.9741 84.9858Z" fill="#EDAD0B"/>
<path d="M25.4272 13.9494C25.7833 14.5375 25.8136 15.0427 25.556 15.5932C25.4651 15.7968 25.556 16.0908 25.5863 16.3396C25.6242 16.6563 25.7757 16.9881 25.7227 17.2897C25.5333 18.3076 25.7227 19.303 25.7681 20.3058C25.7909 20.7733 26.0106 21.2333 26.1091 21.7083C26.1849 22.0627 26.1849 22.4321 26.2909 22.779C26.3894 23.1032 26.4879 23.5179 26.7304 23.6763C27.2683 24.0307 27.2607 24.5434 27.3668 25.0561C27.5941 26.1344 28.2306 26.9487 29.0943 27.6123C29.3367 27.8008 29.6247 27.9365 29.8444 28.1476C30.2838 28.5699 30.7536 28.879 31.39 28.9243C31.6476 28.9469 31.9052 29.1052 32.1325 29.256C32.7083 29.6406 33.2842 29.9724 34.0267 29.7462C34.1858 29.7009 34.4131 29.7311 34.5722 29.814C35.2389 30.1533 35.9208 30.1684 36.6482 30.0402C37.2392 29.9422 37.8604 29.9648 38.4666 29.9724C38.9212 29.9724 39.3 29.897 39.6788 29.6104C40.0198 29.3541 40.4365 29.1882 40.8381 29.06C41.232 28.9393 41.5654 29.1203 41.7397 29.4973C42.0276 30.1232 42.5049 30.3494 43.1792 30.2664C43.3687 30.2438 43.6111 30.2664 43.7702 30.372C44.8764 31.0883 46.028 31.1637 47.263 30.7565C47.5585 30.6585 47.9222 30.7113 48.2328 30.7716C49.2633 30.9601 50.4149 30.3494 50.7634 29.3616C50.8922 28.9997 50.9832 28.9243 51.4453 28.9921C52.0818 29.0902 52.7864 28.9243 53.4153 28.7358C53.7562 28.6302 53.9077 28.6377 53.9911 28.9469C54.1957 29.6934 54.4457 30.4399 54.5442 31.209C54.5745 31.4653 54.2411 31.7895 54.0365 32.0459C53.8092 32.34 53.5592 32.6341 53.2637 32.8603C52.794 33.2297 52.4455 33.7651 51.6575 33.6821C51.1877 33.6294 50.6649 33.9762 50.1876 34.1949C50.0588 34.2552 49.9224 34.5643 49.9755 34.685C50.3088 35.4918 49.6421 35.9065 49.3012 36.4343C48.9754 36.9471 48.7556 37.4296 49.036 38.0328C49.089 38.1384 48.9829 38.3948 48.8769 38.4853C48.4601 38.8321 48.2556 39.2393 48.2707 39.7973C48.2859 40.2949 48.2101 40.8001 48.1419 41.2978C48.0889 41.6597 47.8919 41.8934 47.5509 42.1272C47.0812 42.4439 46.6493 42.9114 46.3917 43.4166C46.028 44.1253 45.6719 44.7813 44.9673 45.2036C44.7855 45.3092 44.6036 45.5203 44.5506 45.7163C44.2778 46.6664 43.4823 47.1339 42.7625 47.6692C42.2473 48.0538 41.6639 48.3328 41.376 48.9662C41.3002 49.1245 41.0654 49.2753 40.8835 49.3055C40.0349 49.4563 39.2924 49.7805 38.7469 50.4817C38.709 50.5345 38.6333 50.6024 38.5878 50.5948C37.9135 50.4893 38.0802 50.9643 38.0574 51.3187C38.0423 51.5223 38.012 51.7259 37.9741 51.9295C37.9514 52.0501 37.8529 52.2085 37.8908 52.2688C38.2999 52.8418 38.0574 53.4827 38.0726 54.0784C38.0877 54.659 38.0726 55.2698 37.9135 55.8202C37.6786 56.6119 38.1029 57.1699 38.5348 57.6299C38.8909 58.0144 39.0197 58.4216 39.0954 58.8589C39.1864 59.4094 39.3833 59.7939 39.9667 59.9598C40.1031 59.9975 40.2471 60.2916 40.2547 60.4801C40.285 60.94 40.4365 61.2944 40.7547 61.6413C40.9896 61.8976 41.0881 62.2822 41.2851 62.5838C41.573 63.0287 41.8836 63.4585 42.217 63.8656C42.3534 64.0315 42.5731 64.1295 42.7549 64.2577C42.8989 64.3633 43.0504 64.4688 43.2474 64.6121C43.0807 64.7177 42.9898 64.8006 42.8913 64.8383C41.8685 65.2304 40.8759 65.7205 39.7546 65.7808C39.6258 65.7808 39.3758 65.5773 39.3758 65.4641C39.3606 64.9514 39.1409 64.597 38.7772 64.2502C38.5802 64.0617 38.5575 63.6847 38.4514 63.3981C37.9362 62.0107 37.4134 60.6233 36.9058 59.2359C36.8528 59.0927 36.83 58.9419 36.8149 58.7911C36.7694 58.399 36.5421 58.1577 36.1709 58.0597C35.7541 57.9541 34.8677 58.4517 34.6025 58.8137C34.307 59.2058 33.9509 59.5677 33.5569 59.8618C33.4281 59.9598 33.019 59.8844 32.8978 59.7487C32.7083 59.53 32.6629 59.1982 32.5492 58.9117C32.428 58.6101 32.3825 58.2331 32.1628 58.037C31.7613 57.6676 31.2309 57.464 30.8824 56.9739C30.6626 56.6647 30.2914 56.8758 30.0414 57.1548C29.3443 57.9164 28.6473 58.678 27.9351 59.4244C27.7608 59.6129 27.5032 59.7185 27.3289 59.907C27.0789 60.1709 26.8592 60.465 26.6622 60.7741C26.4652 61.0757 26.3516 61.4301 26.1318 61.7167C25.6166 62.3877 25.0938 63.0437 24.518 63.662C24.2074 63.9938 24.0255 64.318 24.0483 64.7629C24.0558 64.9967 24.0483 65.2304 24.0483 65.5546C23.0103 65.1098 21.8586 65.0494 21.3131 63.8355C21.8207 63.3529 22.1996 62.6969 22.8587 62.1917C23.7452 61.5206 24.4271 60.5856 25.2075 59.7788C25.4424 59.5375 25.7227 59.3415 25.9803 59.1228C25.9954 59.1153 26.0106 59.1077 26.0258 59.1002C26.7152 58.5271 27.4047 57.9616 28.079 57.381C28.2002 57.2755 28.2836 57.087 28.2987 56.9286C28.3594 56.348 28.4654 55.7599 28.4048 55.1868C28.3518 54.7043 28.026 54.2594 27.9351 53.7768C27.8441 53.3018 27.8745 52.8041 27.8972 52.314C27.9275 51.6128 28.0184 50.9115 28.0411 50.2178C28.0411 50.0896 27.8441 49.9011 27.6926 49.8333C27.1092 49.5694 26.5334 49.3281 26.0561 48.8531C25.8439 48.6419 25.3817 48.6118 25.0332 48.6344C24.518 48.6646 24.1619 48.5364 23.8058 48.1443C23.3739 47.6843 22.8284 47.3299 22.3284 46.9303C22.245 46.8624 22.1011 46.8398 22.0708 46.7644C21.7828 46.1084 21.2525 45.6862 20.7448 45.2036C20.2675 44.7436 19.9114 44.148 19.5402 43.59C19.4038 43.3939 19.3129 43.13 19.3053 42.8887C19.2826 42.3157 19.3356 41.7502 18.8583 41.2902C18.7598 41.1922 18.7673 40.9283 18.8128 40.7624C18.9265 40.3251 18.7598 39.9858 18.6158 39.5786C18.3734 38.9075 17.9642 38.3043 17.987 37.505C18.0097 36.8113 17.6536 36.1101 17.4717 35.4089C17.4111 35.1676 17.3278 34.9112 17.3657 34.6775C17.4642 34.0215 17.5096 33.4032 17.0247 32.8603C16.9565 32.7849 16.8959 32.6114 16.9338 32.5285C17.2141 31.9328 16.7898 31.5483 16.5322 31.1109C16.4716 31.0054 16.3201 30.9073 16.2064 30.8923C15.6382 30.8319 15.07 30.8018 14.5017 30.7565C14.3881 30.749 14.2441 30.7565 14.1608 30.6962C13.4031 30.191 12.9409 28.8187 13.2061 27.9365C13.244 27.8083 13.2743 27.6651 13.2819 27.5293C13.3046 27.2654 13.3955 27.1071 13.7062 27.1448C14.1305 27.1976 14.3805 26.9864 14.4259 26.5717C14.4638 26.2173 14.6381 26.1495 14.9563 26.2098C15.4791 26.3078 15.964 26.3455 15.9716 27.0995C15.9716 27.5369 16.7974 27.9365 17.2217 27.7631C17.4111 27.6877 17.6536 27.4464 17.6687 27.2654C17.7142 26.338 18.0476 25.5463 18.5931 24.8073C18.7977 24.5283 18.8658 24.1438 18.9795 23.7969C19.2447 22.975 19.4871 22.1456 19.7447 21.3237C19.7675 21.2408 19.8129 21.1503 19.8811 21.1051C20.6009 20.6677 20.707 19.8609 21.0631 19.2049C21.1616 19.024 21.2525 18.8279 21.3737 18.6696C22.1238 17.7044 22.8815 16.7468 23.6391 15.7892C23.7149 15.6987 23.8134 15.5932 23.9195 15.563C24.6013 15.3368 25.0787 14.9447 25.1469 14.1756C25.1469 14.1002 25.306 14.0399 25.4045 13.9494H25.4272Z" fill="white"/>
<path d="M29.1548 86.2375C28.0713 85.6418 27.0485 85.0913 26.0332 84.5183C25.5862 84.2619 25.1543 83.9754 24.73 83.6738C24.6391 83.6059 24.5633 83.3722 24.6088 83.2968C24.8134 82.9725 25.0634 82.6709 25.2907 82.3693C25.5559 82.0225 25.8665 81.6982 26.0787 81.3212C26.4499 80.6652 26.7378 79.9565 27.1091 79.3005C27.6319 78.3655 27.5788 78.1166 26.6242 77.6341C26.7984 76.8876 26.4575 76.2467 26.1999 75.5605C26.0105 75.0704 25.7908 74.5124 26.2832 73.9695C26.6166 73.6076 26.5257 73.1401 26.2908 72.7028C25.9499 72.0619 25.9953 71.6094 26.412 71.1721C26.503 71.2249 26.609 71.2928 26.7151 71.338C27.2303 71.5793 27.7001 71.2777 27.7455 70.7122C27.7683 70.4482 27.8895 70.1919 27.9046 69.9355C27.9274 69.566 27.8971 69.1966 27.8668 68.8271C27.8592 68.6914 27.738 68.5481 27.7683 68.435C27.9728 67.6433 28.2001 66.8666 28.4198 66.0825C28.4274 66.0523 28.4577 66.0146 28.4502 65.9844C28.2153 65.253 28.5486 64.5292 28.4653 63.7978C28.3895 63.1342 28.3441 62.433 28.4577 61.7845C28.5335 61.3548 28.9048 60.9777 29.2609 60.6234C29.2305 61.0305 29.1927 61.4302 29.1851 61.8373C29.1699 62.5687 29.1851 63.3077 29.1775 64.0391C29.1775 64.122 29.1775 64.2125 29.1699 64.2954C29.1245 64.6197 29.0336 64.9439 29.0411 65.2681C29.0639 66.2408 28.9502 67.1833 28.7002 68.1183C28.6471 68.3219 28.7305 68.5632 28.7229 68.7819C28.7078 69.1513 28.7229 69.5359 28.6168 69.8752C28.435 70.4181 28.5259 70.8403 28.9805 70.9987C29.4124 71.157 29.8139 70.878 29.9579 70.3201C29.9958 70.1693 30.0034 70.0109 30.0109 69.8601C30.0564 69.272 30.2004 68.7366 30.8747 68.2917C30.7004 69.2871 30.564 70.1768 30.3898 71.0515C30.2913 71.534 30.1852 71.994 30.5489 72.4313C30.6474 72.5444 30.5868 72.7857 30.5943 72.9742C30.6171 73.3135 30.7004 73.6151 31.1399 73.5624C31.5263 73.5171 31.7839 73.2608 31.6702 72.8837C31.5717 72.5671 31.7081 72.4389 31.9051 72.2881C32.4733 71.8432 32.6931 71.3531 32.3824 70.6066C32.2536 70.305 32.4885 69.8526 32.5415 69.4756C32.5946 69.091 32.6476 68.714 32.6855 68.3295C32.7082 68.0806 32.6703 67.8167 32.7158 67.5679C32.8825 66.7686 32.9734 65.9694 32.784 65.155C32.7688 65.1022 32.8143 65.0344 32.8294 64.9665C33.625 65.3586 33.9129 66.188 33.625 67.1909C33.5038 67.6056 33.3598 68.0278 33.3219 68.4501C33.2916 68.7668 33.4128 69.0986 33.4583 69.4303C33.4735 69.566 33.5189 69.7395 33.4583 69.8526C33.231 70.2597 33.3068 70.6443 33.4128 71.059C33.481 71.3229 33.4204 71.617 33.4053 71.896C33.3977 72.0468 33.3447 72.1976 33.3068 72.3484C33.231 72.6877 33.1325 73.027 33.087 73.3739C33.034 73.7659 33.0189 74.1656 33.0037 74.5652C32.9961 74.8367 33.0795 75.1232 33.0113 75.372C32.837 76.0431 32.8522 76.6765 33.2083 77.2797C33.4507 77.6793 33.3219 77.996 32.9734 78.275C32.7613 78.4484 32.5643 78.652 32.3824 78.8556C32.0263 79.2401 31.7687 79.6549 31.1399 79.7604C30.4731 79.866 30.2004 80.7482 30.5716 81.374C30.8065 81.7661 30.6928 82.0225 30.4958 82.3618C30.3292 82.6559 30.2913 83.0329 30.2079 83.3722C30.1852 83.4702 30.2307 83.5908 30.2004 83.6813C29.8594 84.5409 29.5033 85.393 29.1624 86.2299L29.1548 86.2375Z" fill="white"/>
<path d="M35.4207 60.7138C35.504 61.0607 35.557 61.3849 35.6555 61.6941C35.7313 61.9203 35.8677 62.1239 35.9662 62.3425C36.0798 62.5989 36.1707 62.8628 36.2692 63.1267C36.4056 63.4736 36.5268 63.8204 36.6708 64.1597C36.7617 64.3633 36.9436 64.5367 36.989 64.7479C37.2163 65.9166 37.9134 66.844 38.4513 67.862C38.7998 68.518 38.9892 69.2795 38.8453 70.0939C38.7695 70.5463 38.6028 70.8931 38.3452 71.2475C38.1785 71.4813 38.1028 71.7829 37.9891 72.0468C37.6254 72.8837 37.2997 73.7433 36.8754 74.5426C36.6253 75.0025 36.4283 75.3871 36.6935 75.8923C36.739 75.9828 36.6556 76.2165 36.5571 76.2919C36.0647 76.7066 35.898 77.2194 36.0419 77.8301C36.201 78.5163 36.3526 79.1874 36.1253 79.9112C36.0344 80.1902 36.2086 80.5521 36.2389 80.8764C36.3147 81.6681 36.3223 82.4674 36.4662 83.244C36.5875 83.9377 36.8147 84.6239 37.0648 85.2949C37.2542 85.8077 37.2618 85.9509 36.739 86.1847C36.2314 86.4109 35.7161 86.6069 35.1858 86.7728C35.0797 86.803 34.8373 86.6597 34.7842 86.5391C34.4433 85.8001 34.1629 85.0386 33.822 84.2996C33.4886 83.5758 33.1022 82.867 32.7385 82.1507C32.5188 81.7133 32.6476 81.3363 33.1098 81.2308C34.1705 80.997 34.5569 80.1978 34.8676 79.3005C34.9585 79.0441 35.0949 78.7953 35.1555 78.5314C35.2312 78.1921 35.2161 77.8301 35.2843 77.4908C35.4585 76.6011 35.0115 75.7264 35.36 74.8065C35.5343 74.339 35.4358 73.6981 35.2767 73.1929C35.1479 72.7631 35.1252 72.3936 35.2237 71.9865C35.3979 71.2626 35.6101 70.5312 35.0418 69.8601C34.9585 69.7696 34.9054 69.566 34.9509 69.468C35.2009 68.9478 35.4055 68.3747 35.7768 67.9449C36.3602 67.2814 36.3905 66.7385 35.8222 66.0825C35.2312 65.3963 34.716 64.6649 34.6478 63.6847C34.61 63.1569 34.3372 62.6366 34.1705 62.1163C33.9811 61.5357 34.0872 61.3321 34.6554 61.0833C34.8903 60.9853 35.1176 60.8571 35.4207 60.7063V60.7138Z" fill="white"/>
<path d="M26.7378 64.6272C26.5711 65.5546 26.4196 66.4218 26.2605 67.3266C25.4725 66.7158 25.7377 65.1852 26.7378 64.6272Z" fill="white"/>
<path d="M30.9506 64.1295C30.8748 63.7073 30.7308 63.2398 30.7157 62.7723C30.7081 62.433 30.8824 62.0937 30.9809 61.7167C31.5719 62.4481 31.5112 63.4132 30.9506 64.1295Z" fill="white"/>
<path d="M30.89 67.7111C30.3218 67.2436 30.3142 66.7837 30.6703 66.2257C30.837 65.9618 30.7915 65.5546 30.8142 65.2153C30.8294 65.0117 30.7764 64.8081 30.8521 64.6046C31.1931 65.6376 30.7839 66.6781 30.8976 67.7111H30.89Z" fill="white"/>
<path d="M12.2136 46.6589C11.6605 46.3648 11.3801 45.9124 11.4635 45.2639C11.4711 45.181 11.4635 45.083 11.418 45.0151C10.9558 44.3365 10.4709 43.6654 10.0088 42.9868C9.68297 42.5042 9.32687 42.0292 9.07684 41.5089C8.94046 41.2224 8.97076 40.8378 8.97076 40.4985C8.97076 40.1517 8.98592 39.7973 9.03895 39.4504C9.09957 39.0508 9.19806 38.6587 9.29656 38.2741C9.32687 38.146 9.44052 38.0253 9.46325 37.8971C9.53901 37.4221 9.8345 37.1959 10.2664 37.0451C10.5164 36.9621 10.7437 36.7887 10.9483 36.6153C11.2589 36.3438 11.5771 36.2609 11.865 36.5776C12.1151 36.849 12.3348 37.1808 11.9256 37.5126C11.6908 37.7086 11.4029 37.867 11.2134 38.1007C10.9861 38.3872 10.6679 38.7492 10.6907 39.0583C10.7588 40.0461 10.7285 41.0414 11.3801 41.9613C11.7135 42.4363 12.0848 42.8661 12.4484 43.3035C12.6075 43.492 12.8197 43.7559 12.8045 43.9595C12.7667 44.4194 12.903 44.6909 13.3046 44.9095C13.4637 45 13.6834 45.279 13.6455 45.3921C13.3728 46.1989 14.3956 46.6589 14.1835 47.3601C14.0471 47.8201 14.1153 48.2498 14.0698 48.6796C13.9941 49.3658 13.6834 50.0218 13.4789 50.7004C13.4182 50.9115 13.3576 51.1302 13.3273 51.3413C13.2288 52.0878 12.9712 52.3291 12.2439 52.5553C11.3726 52.8267 10.5997 53.2339 10.524 54.2971C10.524 54.3499 10.4937 54.4027 10.5012 54.4479C10.6907 55.119 10.8877 55.7825 11.0695 56.4536C11.1301 56.6798 11.2513 56.9512 11.1831 57.1398C11.0316 57.5469 11.1831 57.8259 11.4483 58.0672C11.9635 58.5347 12.062 59.0399 11.7362 59.6506C11.615 59.8769 11.5771 60.1483 11.4559 60.3745C11.2286 60.7892 10.7588 60.8269 10.5694 60.3971C10.3649 59.9221 10.2815 59.3867 10.1603 58.874C10.0542 58.4065 10.0163 57.9164 9.53901 57.6148C9.42536 57.5469 9.3496 57.3584 9.32687 57.2076C9.21322 56.529 9.06926 55.8428 9.05411 55.1642C9.04653 54.6289 9.21322 54.0935 9.30414 53.5582C9.3496 53.2867 9.30414 52.9248 9.46325 52.7664C9.91784 52.3291 10.1679 51.7937 10.4103 51.2433C10.4331 51.1981 10.4785 51.1604 10.524 51.1377C11.115 50.9191 11.3271 50.3837 11.6908 49.9313C12.3121 49.132 12.1151 48.3102 12.1529 47.4807C12.1681 47.2244 12.1908 46.9755 12.2211 46.6589H12.2136Z" fill="black"/>
<path d="M53.15 49.6523C53.6501 49.969 54.1198 50.2631 54.5896 50.5572C54.6653 50.6024 54.7335 50.6552 54.7866 50.7231C55.2033 51.1981 55.6048 51.6882 56.0443 52.1482C56.8095 52.955 57.2111 53.8899 57.1353 55.0134C57.105 55.4131 57.1505 55.8278 57.1353 56.2274C57.0974 56.9814 56.7262 57.5243 56.0594 57.8863C55.9382 57.9541 55.8852 58.1652 55.8246 58.316C55.6503 58.7986 55.6048 59.4018 55.2791 59.7336C54.8396 60.186 54.3699 60.563 54.0516 61.1361C53.8622 61.4829 53.3773 61.4754 53.0136 61.2492C52.65 61.023 52.5212 60.6686 52.6272 60.2539C52.6803 60.0578 52.7788 59.8618 52.9076 59.7034C53.3016 59.2133 53.6804 58.7308 53.7789 58.0823C53.794 57.9767 53.8774 57.8184 53.9683 57.7882C54.9684 57.4037 54.6957 56.4235 54.9836 55.6996C55.2487 55.0285 54.9684 54.5158 54.7335 53.9201C54.4835 53.2867 54.2562 52.7438 53.5895 52.4045C53.1273 52.1708 52.7409 51.7561 52.3696 51.3866C52.1954 51.2132 52.0363 50.9417 52.0363 50.7155C52.0363 50.2631 51.7862 49.9841 51.4983 49.7051C50.8846 49.1094 50.877 48.4082 51.5438 47.8804C51.9529 47.5562 52.2181 47.2018 52.2787 46.689C52.3848 45.7993 52.9682 45.2564 53.6728 44.7814C53.9001 44.6306 54.0971 44.3893 54.2411 44.1555C54.5062 43.7257 54.9002 43.2809 54.9229 42.8209C54.9684 42.0669 54.7942 41.2978 54.6426 40.5438C54.5138 39.8953 54.582 39.5862 55.0214 39.4881C55.5139 39.375 55.8549 39.7068 55.9609 40.3326C56.0216 40.7021 56.1201 41.0791 56.2943 41.4109C56.7186 42.2252 56.5444 42.9491 56.264 43.7861C55.9079 44.8341 55.2791 45.7013 54.726 46.6212C54.6729 46.7117 54.6123 46.7946 54.5517 46.8775C54.2335 47.2847 53.8395 47.6542 53.6046 48.1066C53.3773 48.5364 53.3167 49.0491 53.15 49.6448V49.6523Z" fill="black"/>
<path d="M47.6721 55.1266C47.4752 55.481 47.3464 55.7599 47.1721 56.0088C46.869 56.4461 46.5811 56.8985 46.2099 57.2755C45.8689 57.6224 45.437 57.9014 45.0128 58.1577C44.9143 58.2181 44.596 58.12 44.543 58.0069C44.4672 57.8637 44.4748 57.5621 44.5733 57.4565C45.3385 56.6874 45.0355 55.7072 45.1264 54.8099C45.1416 54.6591 44.937 54.4102 44.7779 54.3424C44.3233 54.1463 44.1793 53.7467 43.9293 53.3772C43.4595 52.6835 43.5277 51.9672 43.5505 51.2358C43.5808 50.0972 43.9672 49.675 45.0582 49.5016C45.4219 49.4412 45.5355 49.6524 45.4749 49.9691C45.3992 50.3234 45.3385 50.6778 45.2022 51.0096C44.9294 51.6731 45.3158 52.2311 45.581 52.7062C45.9068 53.2792 46.5357 53.6788 47.0054 54.184C47.263 54.463 47.4524 54.8023 47.6873 55.1341L47.6721 55.1266Z" fill="black"/>
<path d="M31.9961 47.8804C31.7385 47.707 31.3976 47.6014 31.2536 47.3677C30.3065 45.8295 29.314 44.2988 29.0867 42.4364C28.9806 41.5768 29.6474 40.9434 30.4656 41.2525C30.9733 41.441 31.4203 41.3883 31.9279 41.2827C32.6326 41.1319 33.3675 41.0942 34.0948 41.049C34.307 41.0339 34.5267 41.1696 34.7464 41.2148C34.9813 41.2601 35.2389 41.3204 35.4662 41.2827C36.0042 41.1771 36.5421 41.3656 36.83 41.8256C37.1255 42.2931 36.9967 42.7078 36.6709 43.115C36.5042 43.311 36.4133 43.5749 36.2314 43.7559C35.9738 44.0123 35.648 44.2008 35.3753 44.4345C35.2238 44.5627 35.004 44.721 34.9965 44.8718C34.9813 45.5052 34.6858 45.9049 34.2539 46.3799C33.7918 46.8851 33.2766 47.2395 32.7159 47.5712C32.5113 47.6919 32.284 47.7673 31.9961 47.8955V47.8804Z" fill="black"/>
<path d="M31.6173 37.6182C32.0643 37.784 32.5189 37.8745 32.8674 38.1158C33.2084 38.3496 33.4129 38.7643 33.7312 39.0433C34.254 39.5107 34.2843 40.0687 33.7463 40.3628C33.6478 40.4156 33.4963 40.4834 33.4054 40.4533C32.1628 40.0009 30.7687 39.8576 29.814 38.7793C29.4352 38.3496 29.3746 37.9047 29.6701 37.3995C29.7989 37.1808 29.8671 36.9245 29.9353 36.6756C30.2156 35.6351 30.9354 34.8434 31.4733 33.9461C31.7461 33.4937 32.2007 33.1242 32.6326 32.7849C32.7689 32.6793 33.1099 32.7246 33.2841 32.8301C33.3826 32.8904 33.3448 33.1996 33.3372 33.3956C33.3296 33.5389 33.2084 33.6897 33.2235 33.8254C33.2841 34.406 33.0947 34.9037 32.8068 35.3938C32.6326 35.6954 32.6022 36.0799 32.4356 36.3891C32.2537 36.7284 31.9961 37.0225 31.7764 37.3467C31.7234 37.4296 31.6779 37.5126 31.6173 37.6182Z" fill="black"/>
<path d="M38.4969 33.6897C38.5045 32.9432 39.2773 31.8951 40.2699 31.8951C41.217 31.9856 42.1413 32.5587 42.0428 33.6445C41.9746 34.3457 41.1715 35.3033 40.4063 35.3486C39.4592 35.3486 38.6712 34.5795 38.5424 34.0215C38.5121 33.8858 38.5045 33.75 38.4969 33.6822V33.6897Z" fill="black"/>
<path d="M23.6619 33.4032C23.6619 32.6642 23.7149 31.9932 24.4953 31.5634C25.2757 31.1336 26.1394 31.4126 26.5864 32.1138C26.9729 32.7246 26.9804 33.2448 26.8289 33.8707C26.6016 34.783 25.8591 34.9565 24.912 34.768C24.7984 34.7453 23.6846 34.3457 23.6619 33.4107V33.4032Z" fill="black"/>
<path d="M32.7234 44.9774C32.1854 44.4798 31.7611 43.967 32.2612 43.213C32.8673 43.3035 33.4886 43.4015 34.1023 43.492C33.6401 43.9897 33.1931 44.4722 32.7309 44.9774H32.7234Z" fill="white"/>
</g>
<defs>
<clipPath id="clip0_42_480">
<rect width="66" height="135" fill="white"/>
</clipPath>
</defs>
</svg>
