<svg width="88" height="137" viewBox="0 0 88 137" fill="none" xmlns="http://www.w3.org/2000/svg">
<g clip-path="url(#clip0_148_530)">
<path d="M74.6107 133.432C74.5535 132.022 74.3531 130.612 74.2171 129.188C74.3817 128.902 74.5749 128.559 74.7825 128.222C74.8684 128.086 74.9542 127.864 75.0687 127.836C75.7414 127.693 75.8416 127.013 76.2638 126.641C76.6932 126.261 77.2084 125.975 77.6378 125.603C77.8596 125.41 77.9885 125.102 78.1674 124.852C78.3606 124.58 78.5753 124.322 78.7613 124.043C79.0046 123.685 79.2336 123.313 79.4555 122.941C79.7131 122.512 79.8849 121.996 80.2355 121.66C81.13 120.794 81.8528 119.842 82.3824 118.704C82.6829 118.068 83.0622 117.445 83.5345 116.93C83.9067 116.515 84.1929 116.085 84.4648 115.606C84.9515 114.74 85.5454 113.938 86.0249 113.073C86.2467 112.672 86.3183 112.178 86.4614 111.727C86.533 111.512 86.5473 111.219 86.7047 111.097C87.2915 110.639 87.3345 110.053 87.1341 109.43C86.9981 108.993 87.1413 108.664 87.3059 108.271C87.5993 107.548 87.8927 106.789 87.9714 106.031C88.1002 104.757 87.7209 103.476 87.8855 102.181C87.9213 101.887 87.7352 101.551 87.8211 101.286C88.1145 100.32 87.7424 99.397 87.7209 98.4595C87.6994 97.6867 87.5993 96.9138 87.4919 96.1409C87.406 95.5398 87.2486 94.9458 87.1413 94.3519C87.0554 93.8581 86.9695 93.3643 86.9194 92.8634C86.8765 92.4268 87.0053 91.9259 86.8264 91.5609C86.3684 90.6163 86.5187 89.5787 86.304 88.6054C86.1251 87.7825 85.8531 86.8665 86.3255 86.0077C86.3827 85.9075 86.3255 85.7358 86.304 85.607C86.1036 84.6051 85.8889 83.6032 85.6886 82.6014C85.3665 80.9984 84.9872 79.4025 84.7439 77.7852C84.6437 77.1125 84.2215 76.7118 83.9424 76.1822C83.6705 75.6598 83.6705 75.0015 83.5345 74.4075C83.5131 74.3216 83.4057 74.2501 83.3413 74.1713C82.7974 73.4128 82.4396 72.5826 82.3609 71.638C82.3394 71.3661 82.3323 71.0369 82.182 70.8508C81.6167 70.1281 81.4879 69.2264 81.0871 68.4464C80.3858 67.0938 79.7847 65.6841 78.7184 64.5319C78.06 63.8163 77.602 62.9146 77.0796 62.0773C76.7218 61.512 76.2495 61.1756 75.5554 61.1756C75.3693 60.4529 74.9328 60.0092 74.2386 59.8374C74.1384 59.816 74.0024 59.773 73.9667 59.7015C73.3655 58.4992 72.0846 58.213 71.1042 57.526C71.0183 57.4687 70.9611 57.3757 70.8752 57.3184C70.7321 57.2254 70.5818 57.1109 70.4243 57.0823C69.0432 56.8461 67.9483 55.88 66.5671 55.6153C65.966 55.5008 65.4722 54.9211 64.7495 55.0785C64.635 55.1 64.4775 54.8996 64.3344 54.8209C64.0696 54.6706 63.812 54.4989 63.5257 54.4059C62.7457 54.1554 62.0945 53.3897 61.1427 53.7618C61.1213 53.769 61.0712 53.7475 61.0497 53.726C60.3627 53.0176 59.3966 52.9388 58.5379 52.6168C57.6505 52.2876 56.7059 52.1016 55.7827 51.8654C55.5895 51.8153 55.3677 51.8654 55.1744 51.8153C53.9937 51.4647 52.82 51.0925 51.6178 50.7276C51.7037 50.6202 51.7323 50.5343 51.7896 50.52C53.0705 50.1622 54.3658 49.8974 55.5466 49.2176C56.0618 48.9242 56.7202 48.8956 57.307 48.7095C57.5861 48.6236 57.858 48.4734 58.1085 48.3159C58.5379 48.044 58.9458 47.7434 59.368 47.4572C59.5898 47.3069 59.8832 47.2139 60.0407 47.0135C60.7563 46.1261 61.5864 45.3175 61.9872 44.2011C62.3307 43.2493 62.9604 42.3977 62.9819 41.3314C62.9819 41.1025 63.1536 40.8878 63.2037 40.6588C63.2681 40.394 63.3325 40.122 63.3182 39.8573C63.2824 39.0844 63.1966 38.3115 63.1679 37.5387C63.1608 37.3526 63.2681 37.1522 63.3254 36.9662C63.3898 36.7729 63.5472 36.5583 63.5043 36.3937C63.261 35.3632 63.5186 34.3756 63.6546 33.3737C63.7691 32.5007 63.8335 31.6205 63.9122 30.8333C64.3988 30.6401 64.8997 30.5757 65.1788 30.2894C65.5152 29.9459 65.601 29.3663 65.9016 28.9727C66.2165 28.5576 66.8462 28.5361 67.1468 27.9851C67.4975 27.3339 67.3829 26.654 67.5547 26.01C67.8338 24.958 67.4974 24.0707 67.1396 23.1403C66.9178 22.5535 66.5671 22.1528 66.0018 22.0025C65.8444 21.2726 65.8587 20.6428 66.195 20.0417C66.288 19.87 66.3596 19.641 66.3238 19.4549C66.1807 18.6892 66.5815 18.0737 66.8176 17.4082C67.0538 16.7427 67.2756 16.0628 67.4617 15.3758C67.6978 14.5028 67.4474 13.5653 67.8338 12.6923C68.0342 12.2414 68.1344 11.7333 68.1988 11.2396C68.3061 10.4667 68.7784 9.68666 68.256 8.89232C68.2274 8.84938 68.2703 8.75635 68.2989 8.6991C68.6568 7.94054 68.3133 7.23923 68.12 6.53076C68.0771 6.35901 67.9125 6.15148 67.7551 6.09423C67.0466 5.85092 66.3381 5.53605 65.6082 5.4788C63.7333 5.32852 61.8512 5.28558 59.826 5.66486C60.3341 4.29087 59.7759 3.16019 59.4682 1.98657C59.2893 1.31388 58.91 0.999008 58.2588 0.941758C56.8347 0.812946 55.4106 0.576791 53.965 0.791478C53.3425 0.884508 52.7055 0.855883 52.0686 0.855883C51.3172 0.855883 50.573 0.798634 49.8216 0.812946C49.0129 0.820102 48.1971 0.956071 47.3885 0.898821C46.4081 0.820102 45.4706 0.898821 44.5618 1.24948C43.8533 1.52141 43.0876 1.47132 42.4578 1.24948C41.5919 0.948914 40.7976 1.18507 40.0677 1.38544C39.1803 1.62875 38.343 1.90069 37.4056 1.77904C37.1479 1.74325 36.8331 1.79335 36.6184 1.92932C36.2248 2.17263 35.8527 2.15116 35.4376 2.0295C35.1442 1.94363 34.7506 1.74325 34.5502 1.85775C33.577 2.39447 32.5465 2.32291 31.5088 2.33006C31.1152 2.33006 30.7216 2.50181 30.3209 2.57338C29.7198 2.67356 29.09 2.68788 28.5104 2.85962C26.4923 3.45359 24.3455 3.58956 22.3632 4.64868C21.805 3.89728 21.2253 3.18881 20.7316 2.43025C20.4239 1.9651 20.0589 1.65738 19.5293 1.55004C18.921 1.42122 18.6062 1.64307 18.5203 2.24419C18.3557 3.39634 18.4201 4.54134 18.6348 5.68633C18.6634 5.85808 18.6348 6.03699 18.6348 6.4592C18.0337 5.7078 17.2536 5.69349 16.81 5.03511C16.4808 4.54849 15.665 4.87052 15.5863 5.48596C15.5505 5.80799 15.6077 6.17295 15.7294 6.48067C16.3949 8.16238 17.0891 9.83694 17.7689 11.5115C17.819 11.6331 17.8405 11.7763 17.8333 11.9122C17.7975 12.3273 17.9621 12.6279 18.2555 12.9141C18.5847 13.2433 18.7922 13.6226 18.4774 14.102C18.413 14.2022 18.3986 14.3811 18.4273 14.4956C18.6706 15.3472 18.5489 16.2274 18.6062 17.0933C18.6634 17.9736 18.7421 18.8466 18.7779 19.7268C18.8137 20.607 18.8495 21.4873 18.8209 22.3675C18.8137 22.6394 18.6491 22.9686 18.4487 23.1618C17.3252 24.2424 16.7312 25.5806 16.6096 27.1049C16.5738 27.5414 16.8314 28.0137 17.0103 28.4359C17.1964 28.8653 17.4898 29.2446 17.6687 29.6811C17.8619 30.1606 18.141 30.5041 18.6634 30.6186C18.8638 30.6615 19.1572 30.683 19.2288 30.8118C19.6009 31.4773 20.2664 31.3628 20.9606 31.4773C20.9606 32.1429 20.9391 32.7154 20.9606 33.2879C20.9964 34.0679 21.0608 34.8479 21.1323 35.6279C21.1681 35.9929 21.2039 36.365 21.2898 36.7228C21.576 37.8893 21.8408 39.0271 21.6833 40.2652C21.5903 40.9951 21.8694 41.7751 22.0054 42.5337C22.0268 42.6553 22.1628 42.7555 22.2344 42.87C22.4133 43.1563 22.6351 43.4354 22.7496 43.7503C23.1146 44.7163 23.7014 45.4677 24.6603 45.9114C24.8035 45.9758 24.9036 46.1333 25.0181 46.2621C25.4332 46.7416 25.9127 47.1638 26.063 47.8365C26.1059 48.0368 26.342 48.2444 26.5424 48.3374C27.7661 48.9385 29.0042 49.511 30.235 50.0907C31.4086 50.6417 32.5894 51.1712 33.9419 50.9351C33.9777 50.9351 34.0207 50.9279 34.0421 50.9422C34.1638 51.0424 34.3212 51.1283 34.3785 51.2643C34.4143 51.343 34.3212 51.5505 34.2354 51.5935C33.2979 52.0658 32.3962 52.6812 31.4015 52.9245C30.5499 53.132 29.7913 53.3253 29.1187 53.9264C28.8467 54.1697 28.2671 54.0409 27.8806 54.1983C27.4942 54.3558 27.2008 54.7422 26.8144 54.8782C25.4761 55.3648 24.1165 55.7799 22.7711 56.245C22.585 56.3094 22.4347 56.474 22.263 56.5813C21.5688 56.9964 20.889 57.4473 20.1662 57.8051C19.3003 58.2273 18.4273 58.5851 17.8834 59.451C17.726 59.7015 17.4755 59.909 17.2393 60.1094C16.3591 60.8465 15.4718 61.5764 14.5772 62.2992C13.6899 63.0076 12.9599 63.8234 12.595 64.9255C12.5234 65.1402 12.3946 65.3906 12.2228 65.498C11.5573 65.8987 11.1422 66.4212 11.0993 67.2298C11.085 67.4087 10.8918 67.5733 10.8059 67.7522C10.2262 68.9473 9.482 70.0923 9.13134 71.3518C8.93097 72.0746 8.77353 72.7329 8.31553 73.3269C8.19388 73.4843 8.11516 73.699 8.07938 73.8922C7.97204 74.6222 7.53551 75.2448 7.52835 76.0391C7.52835 76.6044 7.38523 77.3129 6.76979 77.7494C6.54795 77.9069 6.36904 78.2647 6.36189 78.5366C6.33326 79.6101 5.98261 80.5833 5.5747 81.5565C5.28845 82.2435 5.08092 82.9663 4.85908 83.6819C4.49411 84.877 4.74458 86.2582 3.69977 87.2529C3.53518 87.4103 3.57096 87.7682 3.51371 88.0329C3.27756 89.0992 3.16306 90.2156 2.76231 91.2174C2.29716 92.3982 1.69603 93.5289 1.43841 94.7956C1.31675 95.3967 1.0305 95.9477 1.2595 96.5989C1.32391 96.7707 1.16647 97.0355 1.06629 97.243C0.7371 97.9228 0.364977 98.6027 0.47232 99.3898C0.67985 100.907 0.41507 102.374 0.0644156 103.841C-0.00714662 104.134 -0.0715526 104.449 -0.0643964 104.75C-0.0429277 105.795 -0.0143028 106.847 0.0429469 107.891C0.107353 108.986 -0.200365 110.167 0.758569 111.062C0.844443 111.14 0.851599 111.312 0.865912 111.448C1.01619 112.679 1.25235 113.867 2.26137 114.733C2.44028 114.883 2.62634 115.098 2.67643 115.312C2.9269 116.5 3.30618 117.61 4.29374 118.404C4.42255 119.485 5.37433 120.021 5.9182 120.823C6.11858 121.116 6.47639 121.345 6.80557 121.488C7.34944 121.724 7.74304 121.996 7.77882 122.662C7.79313 122.905 7.97204 123.191 8.16525 123.356C8.84509 123.957 9.05262 124.995 10.0116 125.353C10.169 125.417 10.2692 125.753 10.3193 125.975C10.4696 126.691 10.7844 127.242 11.5072 127.535C11.729 127.628 11.8865 127.9 12.0511 128.108C12.6164 128.831 13.1818 129.568 13.7399 130.298C15.0495 130.591 15.0138 131.55 14.9422 132.595C14.8563 133.818 14.9708 135.049 14.4985 136.237C14.4842 136.28 14.477 136.33 14.4627 136.373H16.9102C16.9316 135.908 17.0032 135.436 17.1463 134.956C17.3181 134.384 17.0604 133.611 16.8243 132.995C16.4808 132.101 16.8171 131.485 17.3753 130.87C17.9263 130.269 17.9192 130.262 17.3467 129.639C16.9388 129.203 16.7527 128.738 17.0819 128.165C17.3681 127.671 17.3467 127.199 17.0318 126.712C16.9316 126.562 16.8529 126.304 16.9102 126.154C17.2966 125.124 16.8887 124.208 16.5595 123.299C17.2322 122.275 17.225 121.181 17.0962 120.05C17.0175 119.356 16.6096 118.683 16.9531 117.953C16.9889 117.867 16.996 117.731 16.9531 117.653C16.5166 116.844 16.8958 116.064 17.0032 115.269C17.0461 114.969 17.0819 114.661 17.0461 114.368C16.9889 113.86 17.0604 113.423 17.4898 113.087C17.9263 112.751 17.9192 112.343 17.6115 111.913C17.0747 111.169 16.9746 110.403 17.225 109.502C17.5041 108.514 17.5828 107.498 17.1964 106.482C17.0891 106.188 17.2465 105.809 17.2322 105.473C17.1964 104.728 17.1105 103.991 17.0676 103.247C17.0604 103.09 17.1535 102.925 17.1821 102.76C17.225 102.56 17.3324 102.324 17.268 102.159C16.7742 100.864 17.3896 99.5831 17.3109 98.2949C17.2966 98.0946 17.3181 97.887 17.2894 97.6867C17.1391 96.7421 17.0819 95.7616 17.3467 94.86C17.5471 94.1801 17.3968 93.5718 17.3324 92.9421C17.2823 92.4841 17.0604 92.069 17.2179 91.5681C17.268 91.3963 17.0533 91.0028 16.8672 90.924C16.6883 90.8525 16.352 91.0099 16.1731 91.1674C16.0156 91.3105 15.9297 91.5753 15.894 91.8043C15.8367 92.2336 15.8152 92.6773 15.8224 93.1138C15.8439 94.5165 15.5719 95.8833 15.2356 97.2358C15.2213 97.3002 15.1998 97.3718 15.1998 97.4362C15.2428 98.3737 15.3 99.3111 15.3358 100.249C15.3429 100.485 15.2928 100.721 15.2785 100.957C15.2499 101.601 15.2284 102.252 15.1998 102.896C15.1998 103.068 15.2141 103.247 15.1712 103.404C14.7275 105.136 14.7561 106.911 14.7561 108.679C14.7561 109.659 14.8778 110.647 14.9493 111.627C14.9493 111.663 14.9565 111.699 14.9493 111.727C14.5558 113.259 15.1139 114.754 15.1354 116.271C15.1354 116.579 14.9279 116.88 14.8277 117.187C14.7203 117.502 14.4699 117.889 14.5629 118.132C14.978 119.177 14.613 120.243 14.7561 121.281C14.7991 121.581 14.7991 121.896 14.8706 122.19C15.0066 122.726 14.9851 123.199 14.8205 123.764C14.6273 124.415 14.7203 125.195 14.8706 125.882C15.0281 126.569 14.9994 127.142 14.5486 127.771C13.7113 127.457 13.2605 126.798 12.9098 126.047C12.7953 125.803 12.8025 125.424 12.6164 125.303C11.772 124.709 11.4929 123.721 10.9061 122.955C10.763 122.769 10.5912 122.576 10.5196 122.361C10.3264 121.789 9.93284 121.424 9.37465 121.274C8.74491 121.109 8.42288 120.694 8.17957 120.121C7.9935 119.692 7.74304 119.213 7.37807 118.941C6.65529 118.404 6.41914 117.631 6.16151 116.865C6.00408 116.386 5.78223 116.021 5.38864 115.699C4.81614 115.234 4.43686 114.654 4.4154 113.86C4.40824 113.581 4.26512 113.201 4.05758 113.051C3.55665 112.693 3.52087 112.157 3.29187 111.684C2.79093 110.654 2.70506 109.523 2.29 108.485C2.08247 107.977 2.061 107.505 2.39019 107.026C2.66212 106.618 2.65497 106.181 2.41165 105.759C2.11825 105.258 2.07531 104.736 2.19697 104.17C2.37587 103.311 2.44028 102.431 2.90543 101.637C3.02709 101.429 3.01278 101.107 2.99131 100.843C2.90543 99.8765 2.91259 98.9247 3.42068 98.0516C3.74987 97.4791 3.47078 96.9997 3.22746 96.4916C3.67831 95.5613 4.20071 94.6739 4.07905 93.5718C4.04327 93.2641 4.17924 92.8348 4.39393 92.6201C5.13817 91.883 5.10239 90.8883 5.3958 90.0009C5.61764 89.3282 5.88958 88.6627 6.07564 87.9757C6.17582 87.5892 6.1472 87.1742 6.19014 86.6518C6.6696 86.3154 7.12045 85.8217 6.98448 85.0345C6.97016 84.9701 6.98448 84.8913 7.02026 84.8341C7.89332 83.2812 7.82891 81.4707 8.37278 79.8319C8.64472 79.0018 8.98106 78.1931 9.27447 77.363C9.35318 77.1412 9.36034 76.8979 9.41759 76.6689C9.51778 76.2824 9.63228 75.896 9.75393 75.5239C9.96862 74.887 10.2048 74.2501 10.4195 73.6131C10.4624 73.4843 10.4338 73.2983 10.5125 73.2196C11.5358 72.2821 11.865 70.9725 12.4232 69.7774C12.5234 69.5699 12.7452 69.4196 12.8526 69.2121C13.0172 68.89 13.239 68.5394 13.2462 68.1959C13.2605 67.7307 13.3678 67.3443 13.561 66.9292C13.7686 66.4784 13.9403 66.0777 14.4985 65.9775C14.6488 65.9488 14.8134 65.8129 14.9064 65.6841C15.3573 65.0543 15.7437 64.3745 16.2375 63.7805C16.8457 63.0363 17.6258 62.4495 18.1696 61.6122C18.4273 61.2186 19.0642 61.0182 19.5723 60.8536C20.8819 60.4314 21.805 59.4438 22.8927 58.6853C23.3078 58.399 23.773 58.1486 24.2453 57.984C24.9681 57.7335 25.7195 57.5689 26.5782 57.3399C26.9646 57.7263 27.5658 58.0412 27.8019 58.8141C27.945 59.2792 28.4388 59.7372 28.8968 59.9949C30.1205 60.6962 30.922 61.8054 31.8523 62.8001C32.2674 63.2438 32.7898 63.5873 33.2693 63.9594C33.9634 64.5033 34.8937 64.7537 35.273 65.7055C35.3875 65.9846 35.8383 66.1922 36.1747 66.3066C36.5397 66.4355 36.7186 66.6215 36.8545 66.9793C37.1694 67.8095 37.4986 67.9526 38.3573 67.8166C39.2948 67.6735 40.0319 67.2584 40.5042 66.3997C40.7189 66.0132 40.998 65.6626 41.2914 65.3262C41.4488 65.1402 41.6993 65.0328 42.0786 64.7752C42.0786 65.5767 42.0786 66.1707 42.0786 66.7646C42.0786 66.965 41.9712 67.2513 42.0643 67.3658C42.8085 68.2245 42.2646 69.1334 42.1716 69.9921C42.0499 71.1156 42.1287 72.1748 42.7083 73.1838C41.9569 74.3145 42.4364 75.3378 43.016 76.4255C42.2432 77.27 43.0232 78.1001 43.1592 78.9517C43.2307 79.3954 43.7746 79.4956 44.1968 79.3095C44.8552 79.0232 45.4563 79.1377 46.1505 79.2093C47.2525 79.3167 48.419 79.1449 49.3922 78.4937C49.6284 78.3363 49.8717 77.8711 49.8001 77.6493C49.4924 76.7261 49.7572 75.8173 49.8287 74.937C49.9146 73.8851 49.5854 72.9977 49.1847 72.1175C48.9772 71.6595 48.8841 71.2945 49.1918 70.8866C49.4566 70.5288 49.4638 70.1782 49.3779 69.7345C49.2276 68.9759 49.2419 68.1887 49.1561 67.4159C49.0487 66.4426 48.8913 65.4694 49.2563 64.4818C49.7858 64.7609 50.3583 65.0257 50.6517 65.6697C50.7304 65.8343 50.9308 65.9989 51.1097 66.0562C51.4389 66.1564 51.5749 66.3496 51.718 66.6501C51.9685 67.1725 52.3263 67.2441 52.8129 66.9006C53.5357 66.3925 54.1654 65.82 54.6664 65.0328C55.1601 64.2528 55.9044 63.6016 56.6272 63.0076C57.1996 62.5353 57.6576 62.063 57.9081 61.3402C58.0656 60.8822 58.4162 60.4529 58.7669 60.1022C59.6685 59.2148 60.6132 58.399 61.2286 57.2469C61.751 56.2736 61.8083 56.4669 62.8101 56.7674C63.6474 57.0179 64.3702 57.4544 65.1717 57.7335C66.0304 58.0341 66.9321 58.213 67.8123 58.4634C68.0699 58.535 68.3133 58.6567 68.5494 58.7783C69.3652 59.2077 70.2168 59.587 70.9611 60.1165C71.6838 60.6246 72.7072 60.7391 73.1079 61.698C73.1795 61.8626 73.4085 62.0415 73.5802 62.063C74.7324 62.1775 75.0258 63.1579 75.541 63.9236C75.7343 64.2027 75.8845 64.5677 76.1493 64.7323C76.8792 65.1688 77.2728 65.7771 77.373 66.6001C77.4661 67.3944 78.0028 67.9597 78.4679 68.5394C79.1263 69.3552 79.5414 70.2068 79.7274 71.2659C79.8491 71.9815 80.4502 72.6256 80.9297 73.4557C80.9297 73.4772 80.7794 73.6919 80.7794 73.9065C80.7794 74.2644 80.7436 74.7581 80.9511 74.9514C81.402 75.3736 81.5523 75.9318 81.8027 76.4398C81.9387 76.7189 81.9315 77.0696 81.9959 77.3845C82.0675 77.7423 82.1248 78.1001 82.2249 78.4436C82.3681 78.9302 82.547 79.4025 82.6973 79.882C82.7473 80.0466 82.7116 80.2327 82.7688 80.3901C82.9978 81.027 83.4487 81.671 83.4272 82.2936C83.3986 82.952 83.4129 83.5674 83.556 84.1972C83.7922 85.2563 84.014 86.3226 84.2788 87.5535C84.2788 87.5535 84.1643 87.7252 84.0498 87.897C83.692 88.4194 83.7063 88.9561 84.1428 89.3998C84.5865 89.8506 84.6366 90.3086 84.4648 90.8954C84.3646 91.2318 84.4219 91.6254 84.4434 91.9903C84.4505 92.1907 84.565 92.3911 84.5507 92.5914C84.4648 93.8724 84.9729 95.0532 85.1161 96.2912C85.1733 96.7921 85.1161 97.3074 85.1661 97.8155C85.3093 99.1251 85.4953 100.435 85.6599 101.751C85.6742 101.887 85.6599 102.023 85.6528 102.159C85.5955 103.512 85.5383 104.864 85.481 106.217C85.481 106.253 85.5025 106.296 85.481 106.317C84.7654 107.526 85.2019 108.893 84.9443 110.167C84.9443 110.203 84.9443 110.246 84.9157 110.267C84.2287 110.919 84.0426 111.87 83.5202 112.6C83.098 113.194 82.7259 113.774 82.4897 114.461C82.4182 114.683 82.3323 114.983 82.1605 115.076C81.5379 115.405 81.2445 115.956 80.9297 116.536C80.5146 117.302 80.0065 118.025 79.5557 118.776C79.2265 119.327 78.7685 119.871 78.6397 120.472C78.3749 121.746 77.2442 122.24 76.5358 123.106C75.9919 123.764 75.3908 124.344 75.0759 125.181C74.9184 125.603 74.5105 125.925 74.0955 126.226C74.1527 126.068 74.21 125.904 74.2744 125.746C74.3102 125.653 74.4175 125.56 74.4104 125.474C74.3603 124.515 74.4819 123.528 74.3459 122.597C74.2028 121.624 73.8879 120.694 74.117 119.685C74.1957 119.334 74.0955 118.941 74.1026 118.569C74.1241 117.788 74.1599 117.016 74.1957 116.236C74.2028 116.035 74.2815 115.792 74.1957 115.634C73.616 114.439 74.1527 113.259 74.21 112.078C74.2314 111.606 74.0525 111.119 74.1241 110.668C74.2959 109.509 74.1885 108.392 73.845 107.283C73.48 106.095 73.5516 104.879 73.6947 103.662C73.709 103.562 73.752 103.44 73.7162 103.354C73.2367 102.174 73.7949 101.021 73.7806 99.8622C73.7663 99.2253 73.5301 98.5955 73.5015 97.9586C73.4657 97.1786 73.4657 96.3914 73.5874 95.6257C73.709 94.8671 73.7019 94.2016 73.1652 93.6076C73.0578 93.486 72.9075 93.2927 72.9362 93.1711C73.1008 92.4125 72.8646 91.7041 72.7931 90.9741C72.7286 90.3301 72.4567 89.9937 71.9916 89.6431C71.4763 90.0438 71.3618 90.4732 71.3117 91.1316C71.1901 92.5557 71.6266 93.9797 71.2187 95.3967C71.1256 95.7115 71.14 96.1051 71.2545 96.4129C71.6767 97.5292 71.4477 98.6385 71.3189 99.762C71.2831 100.091 71.2974 100.456 71.3904 100.778C71.598 101.501 71.8771 102.181 71.4763 102.939C71.369 103.147 71.5049 103.469 71.5121 103.741C71.5264 104.177 71.5264 104.614 71.5336 105.058C71.5479 105.659 71.4334 106.303 71.598 106.861C71.9057 107.899 71.1471 108.965 71.784 109.967C71.8413 110.06 71.7983 110.232 71.7769 110.367C71.6671 111.05 71.8079 111.67 72.1991 112.228C71.6409 112.908 71.462 113.609 71.7268 114.454C71.8771 114.926 71.8198 115.477 71.8055 115.985C71.784 116.701 71.6838 117.409 71.9916 118.096C72.0273 118.182 72.0345 118.311 71.9916 118.397C71.6266 119.284 71.9916 120.143 72.0488 121.016C72.1347 122.24 72.1132 123.471 72.1275 124.701C72.1275 124.802 72.0631 124.93 72.1061 125.002C72.5784 125.925 72.1347 126.87 72.1705 127.8C72.1705 127.972 72.2206 128.165 72.1561 128.308C71.7482 129.238 72.0416 130.197 72.056 131.128C72.0774 132.523 72.2706 133.911 72.378 135.3C72.3923 135.457 72.3279 135.636 72.2706 135.786C72.1848 135.987 72.1561 136.18 72.1561 136.373H74.5463C74.5463 135.407 74.5463 134.441 74.5177 133.482L74.6107 133.432ZM18.7207 9.32885C18.5275 8.89947 18.3986 8.44147 18.1482 7.74732C18.5775 7.99779 18.8065 8.14807 19.0427 8.26257C19.6725 8.57744 20.2449 8.24826 20.2521 7.54695C20.2521 7.18198 20.1448 6.8027 20.0303 6.44489C19.8084 5.7722 19.7941 5.77936 20.2521 4.94924C20.567 5.21402 20.889 5.45018 21.1538 5.72927C21.483 6.07992 21.8766 6.30892 22.3346 6.22305C23.0573 6.09423 23.773 5.90102 24.4814 5.70064C25.5191 5.40008 26.4637 4.85621 27.6159 4.87052C28.4102 4.87052 29.2045 4.52702 30.006 4.37674C30.4354 4.29087 30.9006 4.19068 31.3156 4.2694C31.8523 4.37674 32.3103 4.19784 32.8113 4.11912C34.2354 3.91159 35.6165 3.31047 37.1336 3.64681C37.6775 3.76131 38.3144 3.45359 38.9012 3.33193C39.0586 3.29615 39.2662 3.14587 39.3664 3.20312C39.9889 3.53947 40.5829 3.28184 41.1697 3.15303C42.0571 2.95981 42.9946 3.26037 43.8676 2.80237C44.1467 2.65925 44.5832 2.85247 44.9554 2.85962C45.9429 2.87394 46.9162 2.95266 47.8894 2.59484C48.2186 2.47319 48.6766 2.75228 49.0773 2.79522C49.4781 2.84531 49.9146 2.93834 50.2796 2.82384C51.4246 2.47319 52.5481 2.53044 53.7146 2.68788C54.4445 2.78806 55.2031 2.63778 55.9473 2.63063C57.5503 2.60916 57.7793 2.74513 58.2731 4.29802C58.4735 4.92777 58.8026 5.52889 58.588 6.28745C58.4448 6.78839 58.9672 7.09611 59.5254 6.99592C59.8546 6.93867 60.1909 6.93151 60.5201 6.92436C60.6561 6.92436 60.8064 7.02454 60.9209 6.98161C62.3378 6.47351 63.719 7.17482 65.1287 7.10326C65.8014 7.06748 66.4741 7.19629 67.1969 7.25354C67.1039 8.1266 67.1897 8.94241 66.7174 9.6795C66.5958 9.87272 66.5886 10.1375 66.5528 10.3737C66.4598 11.1107 66.3668 11.855 66.2952 12.5992C66.2594 12.9642 66.2952 13.3435 66.238 13.7013C66.1664 14.1307 66.0662 14.5672 65.9088 14.9751C65.5438 15.934 65.0786 16.8572 64.7781 17.8304C64.592 18.4316 64.6564 19.1042 64.5706 19.7411C64.4704 20.4425 64.4203 21.1724 64.1698 21.8236C63.948 22.4104 63.5043 22.9185 63.1322 23.4409C62.9676 23.6771 62.7529 23.8846 62.5024 24.1637C62.2591 23.4409 62.0587 22.7468 61.7939 22.0741C61.1499 20.4353 60.7563 18.6963 59.8904 17.1434C59.3251 16.1344 58.6953 15.154 58.0656 14.1808C57.9511 14.0019 57.6576 13.7585 57.5074 13.7943C56.2479 14.0949 55.0098 13.458 53.736 13.7729C53.0419 13.9446 52.2619 13.7514 51.5248 13.7442C50.7877 13.7442 50.0506 13.7729 49.3135 13.7585C48.5192 13.7442 47.732 13.7085 46.9376 13.6798C46.8017 13.6798 46.6371 13.6083 46.5297 13.6655C45.5994 14.1593 44.5976 13.8015 43.6315 13.916C42.3648 14.0663 41.0767 13.9947 39.7957 14.0519C39.1946 14.0806 38.6006 14.2165 37.9995 14.2666C37.0191 14.3525 36.0316 14.4026 35.044 14.467C34.1065 14.5314 33.1261 14.8034 32.2388 14.6173C30.8576 14.331 29.5337 14.9179 28.1669 14.6316C27.6015 14.5171 26.9646 14.7032 26.3707 14.8248C26.1274 14.8749 25.8268 15.0395 25.7123 15.2399C25.4332 15.7337 25.0897 16.2704 25.0468 16.8142C24.9537 17.9091 24.4456 18.8108 23.959 19.734C23.8803 19.8771 23.8732 20.0632 23.8374 20.2278C23.637 21.1867 23.4867 22.1599 23.2148 23.0974C23.0502 23.6556 22.6995 24.1637 22.399 24.7648C22.2702 24.6575 21.9123 24.4929 21.9052 24.3211C21.8623 23.4624 21.3398 23.0473 20.567 22.8469C20.6815 21.752 20.6242 20.7645 20.3308 19.7626C20.1591 19.1686 20.2449 18.5103 20.1949 17.8805C20.1734 17.6157 20.0947 17.351 20.0374 17.0933C20.0016 16.9359 19.8657 16.7212 19.9229 16.621C20.3308 15.9698 20.0517 15.3758 19.8728 14.7533C19.7512 14.331 19.7082 13.8945 20.0804 13.5081C20.4024 13.1717 20.3165 12.7853 20.109 12.3702C19.608 11.3684 19.15 10.345 18.6992 9.32169L18.7207 9.32885ZM39.8172 64.4389C39.4093 64.9112 39.073 65.4193 38.3001 65.5481C38.1355 65.4121 37.7848 65.2762 37.6918 65.0328C37.427 64.3673 36.8832 64.0524 36.3321 63.6946C35.6809 63.2724 35.1084 62.7786 34.6003 62.1632C33.7344 61.1327 32.7325 60.2096 31.7521 59.2721C30.7145 58.2702 29.6411 57.297 28.5318 56.2665C28.9612 55.787 29.3333 55.5509 29.9273 55.4364C30.7073 55.2861 31.4516 54.8853 32.1744 54.5132C33.076 54.048 33.9419 53.497 34.7792 53.0104C34.9724 53.1321 35.1227 53.1678 35.137 53.2322C35.3875 54.4703 36.4753 54.9784 37.3125 55.7011C37.6632 56.0089 38.0568 56.2665 38.4289 56.5456C38.4575 56.567 38.4718 56.6028 38.5005 56.6171C39.7242 57.1324 40.633 58.0627 41.6349 58.8857C42.1573 59.315 42.7012 59.7301 43.245 60.1595C42.4292 61.9414 40.9908 63.0792 39.81 64.4317L39.8172 64.4389ZM42.7441 57.0966C42.7441 57.0966 42.6725 57.068 42.6582 57.0393C42.0643 56.0089 40.9049 55.8371 40.0104 55.2575C38.9513 54.5776 37.9423 53.7761 37.012 52.9031C36.5754 52.4951 36.3607 52.0658 36.4395 51.479C36.5039 50.9422 36.5468 50.4055 36.5897 49.9905C35.7811 49.5611 35.0154 49.146 34.2282 48.7596C33.992 48.6379 33.7201 48.5735 33.4553 48.5163C32.2602 48.273 31.0938 48.0654 30.006 47.3785C29.2475 46.899 28.3887 46.5412 27.6445 45.9973C27.3654 45.7898 26.9503 45.7612 26.4995 45.618C26.4422 44.7951 26.3564 43.9005 25.2686 43.8576C25.011 43.0704 24.8106 42.3476 24.5458 41.6606C24.0234 40.3081 23.7515 38.9126 23.5869 37.4742C23.5153 36.8373 23.272 36.2219 23.1217 35.5993C23.0502 35.3059 23.0001 34.9982 22.9643 34.6976C22.9071 34.1967 22.9071 33.6886 22.8069 33.1948C22.6637 32.5007 22.4562 31.8351 22.6065 31.0909C22.7425 30.4039 22.5278 30.1964 21.8479 29.996C21.3613 29.8529 20.8675 29.7241 20.4095 29.5953C20.1304 29.2374 19.9014 28.8582 19.5937 28.5504C18.7064 27.6631 18.6634 26.4179 19.5937 25.6021C19.8728 25.3588 20.3094 25.2944 20.6028 25.1799C21.2325 25.8597 21.7621 26.5252 22.399 27.0691C22.6637 27.2981 23.1575 27.384 23.5297 27.341C24.0091 27.2838 24.1236 26.8401 24.1236 26.3893C24.1236 26.1173 24.1236 25.8454 24.1451 25.5806C24.1737 25.3301 24.2238 25.0797 24.2954 24.8364C24.5172 24.0206 24.7391 23.2119 24.9752 22.4033C25.0897 22.0168 25.2185 21.6304 25.3688 21.2511C25.5549 20.7716 25.7338 20.328 25.6479 19.7698C25.5978 19.412 25.8411 19.0112 25.9556 18.6319C26.1631 17.9521 26.3492 17.2651 26.6068 16.5996C26.843 15.9984 27.0934 15.9269 27.7304 16.0557C29.319 16.3777 30.9006 16.2418 32.4678 15.9126C32.6037 15.8839 32.7755 15.7766 32.8542 15.8195C33.4195 16.1702 33.9777 15.8625 34.5359 15.8482C35.8527 15.8052 37.1766 15.6549 38.4861 15.748C39.1875 15.7981 39.7957 15.6979 40.4613 15.5476C41.1339 15.3973 41.8782 15.5834 42.5867 15.5261C43.5241 15.4474 44.4687 15.6693 45.4134 15.3902C45.764 15.29 46.1934 15.5333 46.587 15.5261C47.0164 15.5118 47.4457 15.3902 47.8751 15.3043C49.1918 15.0395 50.5014 15.4403 51.811 15.3973C53.3067 15.3472 54.7952 15.2184 56.2837 15.1039C56.5055 15.0896 56.713 14.9322 57.0565 14.789C57.5002 15.612 57.9582 16.3992 58.359 17.215C58.6738 17.8519 58.9529 18.5103 59.1891 19.1758C59.4324 19.8413 59.597 20.5069 59.9763 21.1438C60.2983 21.6876 60.284 22.4533 60.3484 23.126C60.3985 23.6484 60.4486 24.1351 60.7849 24.5644C60.9495 24.772 61.0855 25.0511 61.1141 25.3087C61.2286 26.1531 61.9013 26.3034 62.5239 26.3893C63.5043 26.5252 63.8549 26.2605 64.2628 25.5162C64.5276 25.0296 64.8926 24.5931 65.2289 24.1064C65.7728 24.6861 65.8945 25.4375 65.6011 26.0458C65.322 26.6326 64.9641 27.1836 64.7137 27.7776C64.4632 28.3715 63.9981 28.5361 63.4399 28.5576C62.7743 28.5791 62.2806 28.987 62.2233 29.631C62.1518 30.3681 62.0873 31.1052 62.0301 31.8495C61.9514 32.8871 62.0301 33.9534 61.4147 34.8909C61.3431 34.991 61.3431 35.1556 61.3503 35.2916C61.4147 36.2863 61.4004 37.2524 61.2214 38.2614C61.0139 39.4494 60.7491 40.6874 61.0139 41.9254C61.0425 42.0685 60.9495 42.2546 60.8708 42.3977C60.148 43.5857 59.4825 44.8452 58.316 45.6681C57.6004 46.1762 56.7989 46.5626 56.0332 46.9992C55.9473 47.0493 55.8042 47.0636 55.7612 47.1351C55.2961 47.9653 54.5662 47.7363 53.8076 47.7577C53.0991 47.7792 52.3477 48.1513 51.718 48.5378C51.2027 48.8526 50.7233 49.0315 50.1293 49.0888C49.8216 49.1174 49.4495 49.4108 49.2777 49.6899C49.0559 50.0477 49.2777 50.4127 49.6355 50.6417C49.7142 50.6918 49.7858 50.7705 49.6856 50.6846C49.8001 51.3287 49.9003 51.7724 49.9647 52.2304C49.9933 52.4594 50.0649 52.8315 49.9504 52.9102C49.3564 53.3467 49.0917 54.1125 48.3975 54.4416C48.1828 54.5418 47.9324 54.6492 47.8035 54.8209C46.8661 56.0518 45.4992 56.839 44.4974 57.9983C44.4401 58.0698 44.3185 58.0913 44.3542 58.0698C43.7674 57.712 43.2593 57.4043 42.7513 57.0894L42.7441 57.0966ZM47.1666 77.1483C46.5369 77.0338 46.036 77.1841 45.5279 77.5276C45.3346 77.6564 45.0198 77.6206 44.7335 77.6636C44.4759 76.9265 44.204 76.3468 44.5689 75.5668C44.7908 75.0873 44.5403 74.3789 44.4759 73.7706C44.4473 73.47 44.2254 73.1337 44.3113 72.8832C44.7478 71.6309 44.1324 70.4501 44.1324 69.2335C44.1324 68.9401 44.1753 68.6539 44.1753 68.3605C44.161 67.7522 44.1467 67.1511 44.0895 66.5428C44.0107 65.727 43.8247 64.9183 43.8175 64.1097C43.8175 63.5658 43.9535 62.979 44.1682 62.4781C44.4258 61.8841 44.7979 61.3474 44.6834 60.6461C44.6763 60.5888 44.7979 60.503 44.8623 60.4314C45.7855 61.3832 46.6442 62.2705 47.4958 63.1436C47.4958 64.3101 47.4958 65.5266 47.4958 66.736C47.4958 67.0724 47.5316 67.4087 47.5602 67.745C47.6246 68.4535 47.6747 69.1405 47.5244 69.8704C47.4171 70.4215 47.6461 71.0441 47.7248 71.6309C47.7463 71.8169 47.8393 72.0602 47.7534 72.1747C47.4028 72.6471 47.5173 73.0979 47.6246 73.6275C47.7964 74.5291 47.8465 75.4523 47.8966 76.3755C47.9252 76.8835 47.6175 77.2199 47.1595 77.134L47.1666 77.1483ZM56.2837 59.8517C55.6038 61.8125 53.4856 62.6641 52.8487 64.6536C51.9541 63.9809 51.2314 63.4442 50.5157 62.886C50.3869 62.7858 50.3225 62.614 50.2295 62.4709C50.1365 62.3278 50.0792 62.0988 49.9576 62.0487C49.0129 61.6909 48.648 60.7033 47.8823 60.1595C47.6103 59.9662 47.2883 59.8446 46.9877 59.6871C46.3651 59.358 46.3079 58.6495 46.9376 58.3275C47.5817 58.0054 48.0397 57.5546 48.3904 56.9392C48.4762 56.7889 48.6766 56.6744 48.8555 56.6028C49.2562 56.4382 49.5497 56.1949 49.6856 55.7584C49.7429 55.5866 49.886 55.3934 50.0506 55.3075C50.5014 55.0642 50.7161 54.6921 50.9237 54.2341C51.1383 53.7618 51.5677 53.3968 51.9112 52.9675C52.6268 52.8458 53.2995 52.946 53.9579 53.3253C54.6664 53.7332 55.4106 54.0337 56.2837 53.9908C56.8061 53.9622 57.3142 54.1554 57.7149 54.6349C57.9439 54.914 58.4162 55.0285 58.8026 55.1286C59.2821 55.2431 59.7902 55.2646 60.3627 55.3362C58.9744 56.8676 57.629 58.3561 56.2837 59.8374V59.8517Z" fill="black"/>
<path d="M72.378 135.743C72.4424 135.593 72.4997 135.414 72.4853 135.257C72.378 133.868 72.1848 132.473 72.1633 131.085C72.149 130.154 71.8556 129.195 72.2635 128.265C72.3279 128.122 72.285 127.929 72.2778 127.757C72.2492 126.827 72.6857 125.882 72.2134 124.959C72.1705 124.88 72.2349 124.759 72.2349 124.658C72.2134 123.428 72.2349 122.197 72.1562 120.973C72.0918 120.1 71.7268 119.241 72.0989 118.354C72.1347 118.268 72.1347 118.132 72.0989 118.053C71.784 117.373 71.8914 116.658 71.9128 115.942C71.9272 115.427 71.9844 114.883 71.8341 114.411C71.5622 113.559 71.7483 112.865 72.3064 112.185C71.9105 111.627 71.7697 111.007 71.8842 110.325C71.9057 110.196 71.9486 110.017 71.8914 109.924C71.2473 108.929 72.013 107.856 71.7053 106.818C71.5407 106.26 71.6552 105.623 71.6409 105.015C71.6338 104.578 71.6338 104.142 71.6194 103.698C71.6123 103.426 71.4763 103.097 71.5837 102.896C71.9844 102.138 71.7053 101.451 71.4978 100.735C71.4048 100.413 71.3904 100.055 71.4262 99.719C71.555 98.5955 71.784 97.4863 71.3618 96.3699C71.2473 96.0693 71.233 95.6686 71.326 95.3537C71.7339 93.9368 71.3046 92.5127 71.4191 91.0886C71.4763 90.4302 71.5837 90.008 72.0989 89.6001C72.5641 89.9508 72.836 90.2871 72.9004 90.9312C72.972 91.6683 73.2081 92.3767 73.0435 93.1281C73.0149 93.2498 73.1652 93.443 73.2725 93.5647C73.8092 94.1658 73.8092 94.8313 73.6947 95.5827C73.5731 96.3484 73.5731 97.1428 73.6089 97.9156C73.6375 98.5526 73.8736 99.1823 73.888 99.8192C73.9094 100.979 73.3512 102.131 73.8236 103.311C73.8593 103.397 73.8164 103.512 73.8021 103.619C73.659 104.836 73.5874 106.052 73.9524 107.24C74.2887 108.357 74.4032 109.466 74.2315 110.625C74.1599 111.083 74.346 111.57 74.3173 112.035C74.2529 113.223 73.7234 114.396 74.303 115.592C74.3817 115.756 74.303 115.992 74.303 116.193C74.2744 116.973 74.2315 117.746 74.21 118.526C74.2028 118.898 74.303 119.291 74.2243 119.642C73.9953 120.651 74.3102 121.581 74.4533 122.555C74.5893 123.485 74.4676 124.472 74.5177 125.431C74.5177 125.517 74.4175 125.61 74.3817 125.703C74.3173 125.861 74.2601 126.018 74.2028 126.183C74.6179 125.882 75.0258 125.553 75.1832 125.138C75.4981 124.308 76.0992 123.728 76.6431 123.063C77.3516 122.204 78.4823 121.703 78.747 120.429C78.8687 119.828 79.3267 119.284 79.663 118.733C80.1139 117.982 80.6148 117.266 81.037 116.493C81.3519 115.914 81.6453 115.363 82.2679 115.033C82.4396 114.94 82.5255 114.64 82.5971 114.418C82.8261 113.731 83.2054 113.151 83.6276 112.557C84.1428 111.827 84.336 110.876 85.023 110.224C85.0445 110.203 85.0445 110.16 85.0517 110.124C85.3164 108.85 84.8799 107.484 85.5884 106.274C85.6027 106.253 85.5884 106.21 85.5884 106.174C85.6456 104.821 85.7029 103.469 85.7601 102.116C85.7601 101.98 85.7887 101.844 85.7673 101.708C85.6027 100.399 85.4238 99.0893 85.2735 97.7725C85.2163 97.2716 85.2807 96.7492 85.2234 96.2482C85.0803 95.0102 84.5722 93.8223 84.6581 92.5485C84.6724 92.3553 84.5579 92.1477 84.5507 91.9474C84.5364 91.5824 84.4792 91.1888 84.5722 90.8525C84.7439 90.2657 84.6939 89.8077 84.2502 89.3568C83.8136 88.9131 83.7993 88.3836 84.1571 87.854C84.2716 87.6894 84.379 87.5177 84.3861 87.5105C84.1214 86.2868 83.9067 85.2205 83.6634 84.1542C83.5202 83.5245 83.5059 82.9091 83.5345 82.2507C83.5632 81.6281 83.1052 80.984 82.8762 80.3471C82.8189 80.1897 82.8547 80.0036 82.8046 79.839C82.6615 79.3596 82.4754 78.8873 82.3323 78.4006C82.2321 78.05 82.1749 77.6922 82.1033 77.3415C82.0389 77.0267 82.0461 76.676 81.9101 76.3969C81.6596 75.8888 81.5093 75.3378 81.0585 74.9084C80.851 74.7152 80.8867 74.2214 80.8867 73.8636C80.8867 73.6489 81.0299 73.4271 81.037 73.4128C80.5576 72.5755 79.9564 71.9386 79.8348 71.223C79.6559 70.1567 79.2337 69.3051 78.5753 68.4964C78.1101 67.9168 77.5806 67.3586 77.4804 66.5571C77.3802 65.7341 76.9866 65.1259 76.2567 64.6893C75.9847 64.5247 75.8344 64.1669 75.6484 63.8807C75.1331 63.115 74.8397 62.1346 73.6876 62.0201C73.5158 62.0058 73.2868 61.8197 73.2153 61.6551C72.8145 60.6962 71.7912 60.5817 71.0684 60.0736C70.3242 59.544 69.4654 59.1719 68.6568 58.7354C68.4206 58.6065 68.1773 58.492 67.9197 58.4205C67.0395 58.17 66.1378 57.9911 65.279 57.6906C64.4775 57.4115 63.7548 56.9749 62.9175 56.7245C61.9156 56.4239 61.8512 56.2307 61.336 57.2039C60.7205 58.3561 59.7759 59.1719 58.8742 60.0593C58.5164 60.4099 58.1729 60.8393 58.0155 61.2973C57.765 62.0201 57.307 62.4924 56.7345 62.9647C56.0117 63.5587 55.2603 64.2099 54.7737 64.9899C54.2799 65.7771 53.643 66.3496 52.9202 66.8577C52.4336 67.2012 52.0758 67.1368 51.8253 66.6072C51.6751 66.2995 51.5391 66.1134 51.2171 66.0132C51.0382 65.956 50.8306 65.7985 50.7591 65.6268C50.4657 64.9827 49.886 64.718 49.3636 64.4389C48.9986 65.4264 49.1561 66.3997 49.2634 67.3729C49.3493 68.1458 49.335 68.933 49.4853 69.6915C49.5711 70.1352 49.564 70.4859 49.2992 70.8437C48.9915 71.2516 49.0845 71.6237 49.292 72.0745C49.6928 72.9548 50.022 73.8421 49.9361 74.8941C49.8645 75.7743 49.5998 76.6832 49.9075 77.6063C49.979 77.821 49.7286 78.2933 49.4996 78.4507C48.5263 79.102 47.3599 79.2737 46.2578 79.1664C45.5708 79.102 44.9625 78.9875 44.3042 79.2666C43.8891 79.4455 43.3381 79.3453 43.2665 78.9087C43.1305 78.0571 42.3505 77.227 43.1234 76.3826C42.5366 75.2948 42.0643 74.2715 42.8157 73.1408C42.2289 72.1246 42.1501 71.0727 42.279 69.9492C42.372 69.0904 42.9159 68.1744 42.1716 67.3228C42.0714 67.2083 42.1788 66.9292 42.1859 66.7217C42.1859 66.1277 42.1859 65.5338 42.1859 64.7323C41.8066 64.9899 41.5633 65.1044 41.3987 65.2833C41.1053 65.6196 40.8262 65.9703 40.6116 66.3567C40.1392 67.2155 39.4022 67.6305 38.4647 67.7737C37.6059 67.9096 37.2768 67.7593 36.9619 66.9364C36.8259 66.5786 36.6542 66.3925 36.282 66.2637C35.9457 66.1492 35.4877 65.9417 35.3804 65.6626C35.0011 64.7036 34.0708 64.4603 33.3766 63.9165C32.8972 63.5372 32.3676 63.2008 31.9597 62.7572C31.0294 61.7624 30.2279 60.6532 29.0042 59.9519C28.5533 59.6943 28.0524 59.2363 27.9093 58.7711C27.6731 57.9983 27.072 57.6834 26.6856 57.297C25.8268 57.526 25.0754 57.6906 24.3526 57.941C23.8732 58.1056 23.4152 58.3561 23.0001 58.6423C21.9124 59.4009 20.9964 60.3884 19.6796 60.8107C19.1715 60.9753 18.5346 61.1756 18.277 61.5692C17.7331 62.4065 16.9531 62.9933 16.3448 63.7376C15.8582 64.3387 15.4646 65.0114 15.0138 65.6411C14.9207 65.7699 14.7561 65.9059 14.6059 65.9345C14.0477 66.0275 13.8759 66.4354 13.6684 66.8863C13.4752 67.3014 13.3678 67.6878 13.3535 68.1529C13.3464 68.4964 13.1245 68.8471 12.9599 69.1691C12.8526 69.3767 12.6236 69.5269 12.5306 69.7345C11.9724 70.9224 11.6432 72.2391 10.6198 73.1766C10.5411 73.2553 10.5698 73.4414 10.5268 73.5702C10.305 74.2071 10.076 74.844 9.86129 75.4809C9.73248 75.8602 9.62513 76.2466 9.52495 76.6259C9.46054 76.8549 9.46054 77.0982 9.38182 77.3201C9.08842 78.143 8.75208 78.9588 8.48014 79.7889C7.93627 81.4349 8.00067 83.2383 7.12761 84.7911C7.09899 84.8484 7.08468 84.9271 7.09183 84.9915C7.2278 85.7787 6.77696 86.2725 6.29749 86.6088C6.26171 87.1312 6.29034 87.5534 6.18299 87.9327C5.99693 88.6197 5.73215 89.2852 5.50315 89.9579C5.20975 90.8453 5.24553 91.84 4.50128 92.5771C4.2866 92.7918 4.15778 93.2212 4.18641 93.5289C4.30091 94.6309 3.78566 95.5183 3.33482 96.4486C3.57813 96.9496 3.86438 97.4362 3.52804 98.0087C3.01994 98.8817 3.01279 99.8264 3.09866 100.8C3.12013 101.064 3.13444 101.386 3.01279 101.594C2.54763 102.381 2.48323 103.261 2.30432 104.127C2.18982 104.693 2.23276 105.215 2.51901 105.716C2.76232 106.138 2.77663 106.575 2.49754 106.983C2.17551 107.462 2.18982 107.934 2.39735 108.442C2.81957 109.48 2.90545 110.611 3.39922 111.641C3.62822 112.121 3.664 112.657 4.16494 113.008C4.37247 113.158 4.51559 113.538 4.52275 113.817C4.54422 114.604 4.91634 115.191 5.496 115.656C5.88959 115.971 6.11143 116.343 6.26887 116.822C6.52649 117.588 6.76265 118.361 7.48542 118.898C7.85039 119.17 8.0937 119.642 8.28692 120.078C8.53739 120.651 8.85226 121.059 9.48201 121.231C10.0402 121.381 10.4338 121.746 10.627 122.318C10.6986 122.533 10.8703 122.726 11.0134 122.912C11.6003 123.678 11.8793 124.666 12.7238 125.26C12.9027 125.388 12.9027 125.76 13.0172 126.004C13.3678 126.755 13.8187 127.414 14.656 127.728C15.1068 127.099 15.1354 126.526 14.978 125.839C14.8205 125.152 14.7347 124.372 14.9279 123.721C15.0996 123.156 15.1211 122.683 14.978 122.147C14.8993 121.853 14.8993 121.538 14.8635 121.238C14.7204 120.193 15.0853 119.134 14.6703 118.089C14.5772 117.846 14.8277 117.459 14.935 117.144C15.0352 116.837 15.2499 116.529 15.2428 116.228C15.2285 114.711 14.6631 113.223 15.0567 111.684C15.0639 111.656 15.0567 111.613 15.0567 111.584C14.9923 110.604 14.8635 109.616 14.8635 108.636C14.8635 106.868 14.8349 105.093 15.2785 103.362C15.3215 103.197 15.3 103.018 15.3072 102.853C15.3358 102.209 15.3501 101.558 15.3859 100.914C15.393 100.678 15.4503 100.442 15.4431 100.206C15.4074 99.2682 15.3501 98.3307 15.3072 97.3932C15.3072 97.3288 15.3286 97.2573 15.343 97.1929C15.6793 95.8404 15.9512 94.4807 15.9298 93.0709C15.9298 92.6344 15.9441 92.1978 16.0013 91.7613C16.0299 91.5395 16.1158 91.2675 16.2804 91.1244C16.4593 90.967 16.7957 90.8095 16.9746 90.8811C17.1606 90.9526 17.3753 91.3462 17.3252 91.5251C17.1749 92.0261 17.3968 92.4411 17.4397 92.8991C17.5041 93.5217 17.6544 94.13 17.454 94.817C17.1893 95.7187 17.2465 96.6919 17.3968 97.6437C17.4254 97.8441 17.4111 98.0445 17.4183 98.252C17.4898 99.5401 16.8815 100.814 17.3753 102.116C17.4397 102.281 17.3324 102.517 17.2894 102.717C17.2537 102.882 17.1606 103.047 17.1749 103.204C17.2179 103.948 17.2966 104.685 17.3395 105.43C17.3538 105.766 17.1964 106.145 17.3038 106.439C17.683 107.455 17.6043 108.478 17.3324 109.459C17.0819 110.36 17.1821 111.133 17.7188 111.87C18.0265 112.292 18.0337 112.7 17.5972 113.044C17.1606 113.38 17.0891 113.817 17.1535 114.325C17.1893 114.618 17.1535 114.933 17.1105 115.227C17.0032 116.021 16.6239 116.801 17.0604 117.61C17.1034 117.688 17.1034 117.824 17.0604 117.91C16.7169 118.64 17.1249 119.313 17.2036 120.007C17.3324 121.138 17.3395 122.232 16.6669 123.256C17.0032 124.165 17.4039 125.088 17.0175 126.111C16.9603 126.261 17.039 126.519 17.1392 126.669C17.4612 127.156 17.4755 127.628 17.1893 128.122C16.8601 128.695 17.0461 129.16 17.454 129.596C18.0337 130.212 18.0337 130.226 17.4827 130.827C16.9173 131.443 16.5881 132.058 16.9316 132.952C17.1678 133.568 17.4254 134.341 17.2537 134.913C17.1105 135.393 17.039 135.865 17.0175 136.33H72.2921C72.2921 136.144 72.3279 135.951 72.4066 135.743H72.378Z" fill="white"/>
<path d="M44.4901 58.0054C45.4992 56.8461 46.8589 56.059 47.7963 54.8281C47.9323 54.6492 48.1828 54.549 48.3903 54.4488C49.0773 54.1125 49.3421 53.3539 49.9432 52.9174C50.0577 52.8315 49.9933 52.4665 49.9575 52.2375C49.8931 51.7867 49.8001 51.3358 49.6784 50.6918C49.7786 50.7777 49.707 50.6989 49.6283 50.6488C49.2633 50.4127 49.0487 50.0549 49.2705 49.6971C49.4423 49.418 49.8144 49.1246 50.1221 49.096C50.7161 49.0387 51.1955 48.8598 51.7108 48.5449C52.3405 48.1585 53.0848 47.7864 53.8004 47.7649C54.5589 47.7363 55.2817 47.9724 55.754 47.1423C55.797 47.0707 55.9329 47.0564 56.026 47.0063C56.7917 46.5698 57.586 46.1762 58.3088 45.6753C59.4824 44.8523 60.1408 43.5928 60.8636 42.4049C60.9495 42.2689 61.0425 42.0757 61.0067 41.9326C60.7419 40.6946 61.0067 39.4565 61.2142 38.2686C61.386 37.2596 61.4003 36.2935 61.343 35.2988C61.3359 35.1628 61.343 34.9982 61.4074 34.898C62.03 33.9677 61.9442 32.8943 62.0229 31.8566C62.0801 31.1195 62.1445 30.3753 62.2161 29.6382C62.2805 28.9941 62.7743 28.5862 63.4327 28.5648C63.9908 28.5433 64.456 28.3787 64.7065 27.7847C64.9569 27.1908 65.3076 26.6397 65.5938 26.0529C65.8872 25.4375 65.7656 24.6861 65.2217 24.1136C64.8854 24.6002 64.5204 25.0367 64.2556 25.5234C63.8477 26.2676 63.4971 26.5252 62.5167 26.3964C61.8941 26.3106 61.2214 26.1674 61.1069 25.3158C61.0711 25.0582 60.9423 24.7791 60.7777 24.5716C60.4342 24.1422 60.3841 23.6556 60.3412 23.1332C60.2839 22.4605 60.2982 21.6948 59.9691 21.1509C59.5898 20.514 59.4252 19.8485 59.1819 19.183C58.9385 18.5174 58.6595 17.8591 58.3517 17.2222C57.951 16.4064 57.5002 15.6192 57.0493 14.7962C56.7058 14.9393 56.4983 15.0968 56.2764 15.1111C54.7879 15.2256 53.2923 15.3544 51.8038 15.4045C50.4942 15.4474 49.1918 15.0467 47.8679 15.3115C47.4385 15.3973 47.0091 15.519 46.5798 15.5333C46.1862 15.5476 45.7496 15.2971 45.4061 15.3973C44.4615 15.6764 43.5241 15.4546 42.5794 15.5333C41.871 15.5905 41.1339 15.4045 40.454 15.5548C39.7885 15.705 39.1802 15.8052 38.4789 15.7551C37.1693 15.6693 35.8454 15.8124 34.5287 15.8553C33.9705 15.8768 33.4123 16.1774 32.847 15.8267C32.7683 15.7766 32.5894 15.8911 32.4605 15.9197C30.8862 16.2418 29.3118 16.3849 27.7231 16.0629C27.0791 15.934 26.8286 16.0056 26.5996 16.6067C26.342 17.2651 26.1631 17.9593 25.9484 18.6391C25.8339 19.0184 25.5834 19.4191 25.6407 19.7769C25.7265 20.3351 25.5476 20.7788 25.3616 21.2583C25.2113 21.6375 25.0825 22.0168 24.968 22.4104C24.7318 23.2191 24.51 24.0349 24.2881 24.8435C24.2237 25.0868 24.1665 25.3373 24.1379 25.5878C24.1092 25.8526 24.1164 26.1245 24.1164 26.3964C24.1164 26.8401 24.0019 27.291 23.5224 27.3482C23.1503 27.3911 22.6565 27.3053 22.3918 27.0763C21.7548 26.5324 21.2253 25.8669 20.5955 25.187C20.3093 25.3015 19.8656 25.3659 19.5865 25.6092C18.6634 26.4251 18.7063 27.6774 19.5865 28.5576C19.8942 28.8653 20.1232 29.2446 20.4023 29.6024C20.8603 29.7312 21.3541 29.86 21.8407 30.0032C22.5206 30.2035 22.7352 30.4111 22.5993 31.0981C22.449 31.8423 22.6565 32.5078 22.7997 33.202C22.8998 33.6958 22.8998 34.2039 22.9571 34.7048C22.9929 35.0054 23.043 35.3131 23.1145 35.6065C23.2648 36.2362 23.5081 36.8517 23.5797 37.4814C23.7371 38.9198 24.0162 40.3153 24.5386 41.6678C24.8034 42.362 25.0038 43.0776 25.2614 43.8648C26.3491 43.9077 26.435 44.8094 26.4923 45.6252C26.9431 45.7683 27.351 45.7969 27.6373 46.0045C28.3815 46.5483 29.2331 46.9062 29.9988 47.3856C31.0866 48.0726 32.253 48.2873 33.4481 48.5235C33.7129 48.5736 33.9848 48.6451 34.221 48.7668C35.001 49.1604 35.7739 49.5754 36.5825 49.9976C36.5396 50.4127 36.5038 50.9494 36.4322 51.4861C36.3607 52.0729 36.5754 52.5023 37.0047 52.9102C37.9351 53.7833 38.9441 54.5776 40.0032 55.2646C40.8977 55.8371 42.057 56.0089 42.651 57.0465C42.6653 57.0751 42.7083 57.0823 42.7369 57.1038C43.245 57.4115 43.7531 57.7264 44.3399 58.0842C44.3041 58.0985 44.4257 58.0842 44.483 58.0126L44.4901 58.0054ZM48.9556 29.6382C49.1131 29.3376 49.2633 29.0299 49.3993 28.715C49.9002 27.5056 51.0309 27.384 52.0829 27.2766C52.8629 27.1979 54.287 28.7294 54.3657 29.5309C54.4373 30.2393 53.8004 30.7689 53.0848 30.5256C52.6697 30.3896 52.2976 30.1248 51.9255 29.8887C51.6392 29.7098 51.3744 29.4951 51.1096 29.3019C50.6588 29.6811 50.2724 30.0604 49.8287 30.3538C49.6426 30.4755 49.292 30.5256 49.0988 30.4325C48.7767 30.2751 48.7982 29.9459 48.9556 29.631V29.6382ZM49.0988 37.4313C49.4136 37.3168 49.7643 37.3097 50.0362 37.2596C50.6087 37.2381 50.9522 37.4599 51.1383 37.9323C51.2385 38.1827 51.2742 38.5334 51.4675 38.6622C52.2546 39.1774 52.5624 39.9932 52.8987 40.7947C52.9774 40.9808 53.0991 41.1525 53.1492 41.3458C53.3925 42.2832 53.1492 42.8128 52.4264 42.9631C51.6249 43.1277 50.8663 42.591 50.6874 41.768C50.6087 41.4173 50.4871 41.0667 50.3368 40.7446C49.9503 39.9288 49.614 39.0916 48.8626 38.4904C48.4618 38.1684 48.605 37.6102 49.1059 37.4313H49.0988ZM40.6687 34.9696C41.1482 34.0751 41.3557 33.0374 42.0928 32.2645C42.2288 32.1214 42.193 31.8137 42.2503 31.5847C42.4005 31.0193 42.7154 30.59 43.3308 30.4826C44.0393 30.3538 44.5474 30.8691 44.4186 31.5632C44.3971 31.6992 44.347 31.828 44.2898 31.9497C43.8962 32.7583 43.4525 33.5526 43.109 34.3828C42.9301 34.805 42.9229 35.2988 42.8299 35.8069C43.3666 35.9929 43.8246 36.0716 44.1896 36.3078C44.5045 36.5153 44.848 36.8731 44.8909 37.2095C44.9195 37.4242 44.483 37.7891 44.1896 37.9537C43.5455 38.3044 42.88 38.2686 42.2646 37.8178C42.1071 37.7033 41.9211 37.6031 41.735 37.5387C40.5256 37.1308 40.0819 36.0859 40.6759 34.9696H40.6687ZM31.9596 30.9621C31.6018 30.6759 31.5374 30.0318 31.8236 29.5523C32.3317 28.7007 33.0187 28.1712 34.0635 28.2213C34.2997 28.2284 34.543 28.1783 34.7792 28.164C36.0315 28.0853 37.0978 29.2017 36.9475 30.4325C36.9046 30.819 36.6541 30.9907 36.3106 30.9263C35.9814 30.8691 35.6594 30.7331 35.3517 30.59C34.9509 30.3968 34.5788 30.1606 33.9204 29.7956C33.6843 30.1248 33.491 30.454 33.2334 30.7259C32.8255 31.1625 32.3031 31.234 31.9525 30.9621H31.9596ZM37.7347 39.1918C37.4198 39.4852 37.0047 39.6927 36.7113 40.0076C36.4967 40.2366 36.3321 40.5586 36.282 40.8663C36.1818 41.4316 36.0172 41.904 35.4805 42.2188C35.3159 42.319 35.2658 42.6053 35.1584 42.8056C34.8436 43.4068 34.221 43.4926 33.8632 42.9273C33.6127 42.5337 33.4839 42.0614 33.2549 41.539C33.5268 41.1096 33.7344 40.6373 34.0635 40.2652C34.8006 39.4351 35.595 38.6479 36.375 37.8607C36.8473 37.3884 37.5629 37.3598 37.9351 37.7677C38.3215 38.1827 38.2571 38.6837 37.7204 39.1846L37.7347 39.1918ZM43.7674 43.1348C43.2664 42.7985 42.6438 43.1062 42.0213 43.1634C41.7565 43.1849 41.4344 43.1563 41.2269 43.0203C40.3753 42.4836 39.5166 41.9326 38.7294 41.3028C38.2213 40.8949 38.1998 40.4441 38.4646 40.0362C38.7795 39.5567 39.2303 39.5066 39.7313 39.6497C40.0247 39.7356 40.3252 39.8286 40.59 39.9646C41.3772 40.3582 42.1358 40.8091 42.9373 41.174C43.1806 41.2885 43.5527 41.3028 43.7817 41.1955C44.3256 40.9307 44.8265 40.5657 45.3274 40.2222C45.4634 40.1292 45.5564 39.9718 45.6924 39.8716C46.1719 39.5138 46.7086 39.478 47.0091 39.7642C47.3312 40.072 47.4671 40.8019 47.1952 41.1955C46.8445 41.6893 46.4223 42.1473 46.0144 42.5981C45.9071 42.7198 45.7353 42.8199 45.5779 42.8557C45.0126 42.9631 44.4472 43.0346 43.7602 43.142L43.7674 43.1348Z" fill="white"/>
<path d="M20.1019 13.5152C19.7297 13.9017 19.7727 14.3382 19.8943 14.7604C20.0732 15.3902 20.3523 15.9841 19.9444 16.6282C19.8872 16.7212 20.0231 16.9359 20.0589 17.1005C20.1162 17.3653 20.1949 17.6229 20.2164 17.8877C20.2664 18.5174 20.1806 19.183 20.3523 19.7698C20.6457 20.7645 20.703 21.7592 20.5885 22.8541C21.3614 23.0545 21.8766 23.4695 21.9267 24.3283C21.9338 24.5072 22.2917 24.6646 22.4205 24.772C22.721 24.1708 23.0717 23.6628 23.2363 23.1046C23.5082 22.1671 23.6585 21.1939 23.8589 20.2349C23.8947 20.0703 23.9018 19.8843 23.9805 19.7411C24.4671 18.818 24.9752 17.9163 25.0683 16.8214C25.1112 16.2775 25.4547 15.7408 25.7338 15.247C25.8483 15.0467 26.1489 14.8821 26.3922 14.832C26.9861 14.7175 27.623 14.5243 28.1884 14.6388C29.5552 14.925 30.8791 14.3382 32.2603 14.6245C33.1476 14.8034 34.128 14.5386 35.0655 14.4742C36.0531 14.4098 37.0335 14.3597 38.021 14.2738C38.6221 14.2237 39.2161 14.0877 39.8172 14.0591C41.0982 14.0019 42.3863 14.0663 43.653 13.9231C44.6191 13.8086 45.6209 14.1665 46.5512 13.6727C46.6514 13.6154 46.8232 13.687 46.9591 13.687C47.7535 13.7156 48.5407 13.7586 49.335 13.7657C50.0721 13.7729 50.8092 13.7442 51.5463 13.7514C52.2905 13.7514 53.0634 13.9446 53.7575 13.78C55.0385 13.4651 56.2694 14.0949 57.5289 13.8015C57.6791 13.7657 57.9654 14.009 58.0871 14.1879C58.7168 15.1612 59.3465 16.1344 59.9119 17.1506C60.7849 18.6963 61.1714 20.4353 61.8154 22.0812C62.0802 22.7539 62.2806 23.4481 62.5239 24.1708C62.7672 23.8918 62.9819 23.6842 63.1537 23.4481C63.5186 22.9185 63.9695 22.4176 64.1913 21.8308C64.4346 21.1795 64.4919 20.4496 64.5921 19.7483C64.6779 19.1114 64.6135 18.4387 64.7996 17.8376C65.1001 16.8644 65.5653 15.9412 65.9303 14.9823C66.0877 14.5744 66.1879 14.1378 66.2594 13.7085C66.3167 13.3506 66.2809 12.9714 66.3167 12.6064C66.3883 11.8622 66.4813 11.1251 66.5743 10.3808C66.603 10.1447 66.6173 9.87273 66.7389 9.68667C67.2041 8.94957 67.1182 8.13377 67.2184 7.26071C66.4956 7.20346 65.8158 7.07465 65.1502 7.11043C63.7405 7.18199 62.3665 6.48068 60.9424 6.98877C60.8279 7.03171 60.6776 6.92437 60.5416 6.93152C60.2124 6.93868 59.8761 6.94583 59.5469 7.00308C58.9887 7.10327 58.4663 6.79555 58.6095 6.29462C58.8241 5.54322 58.495 4.93494 58.2946 4.30519C57.8008 2.75229 57.5718 2.61632 55.9688 2.63779C55.2246 2.6521 54.4589 2.79523 53.7361 2.69504C52.5696 2.5376 51.4461 2.48035 50.3011 2.83101C49.9361 2.94551 49.4996 2.84532 49.0988 2.80238C48.6981 2.75229 48.2401 2.48035 47.9109 2.60201C46.9377 2.95266 45.9573 2.8811 44.9769 2.86679C44.6119 2.86679 44.1682 2.66642 43.8891 2.80954C43.0161 3.26038 42.0786 2.95982 41.1912 3.16019C40.6044 3.28901 40.0033 3.54663 39.3879 3.21029C39.2877 3.15304 39.0873 3.30332 38.9227 3.3391C38.3287 3.46076 37.6918 3.77563 37.1551 3.65397C35.638 3.32479 34.264 3.91875 32.8328 4.12628C32.3318 4.19785 31.881 4.37675 31.3371 4.27656C30.9221 4.19785 30.4569 4.30519 30.0275 4.38391C29.226 4.54134 28.4317 4.88484 27.6374 4.87769C26.4852 4.87053 25.5406 5.4144 24.5029 5.70781C23.7945 5.90818 23.0788 6.1014 22.3561 6.23021C21.8909 6.31609 21.5045 6.08709 21.1753 5.73643C20.9105 5.45018 20.5813 5.22119 20.2736 4.95641C19.8156 5.78653 19.8371 5.77937 20.0518 6.45205C20.1663 6.80987 20.2736 7.18199 20.2736 7.55411C20.2736 8.26258 19.694 8.58461 19.0642 8.26973C18.828 8.15523 18.6062 8.00495 18.1697 7.75449C18.4201 8.44864 18.5561 8.89948 18.7422 9.33601C19.193 10.3593 19.651 11.3827 20.152 12.3846C20.3595 12.7996 20.4454 13.1789 20.1233 13.5224L20.1019 13.5152Z" fill="#EDAD0B"/>
<path d="M38.5005 56.6243C38.5005 56.6243 38.4575 56.5742 38.4289 56.5527C38.0568 56.2737 37.6632 56.016 37.3125 55.7083C36.4753 54.9855 35.3875 54.4846 35.137 53.2394C35.1227 53.175 34.9796 53.1321 34.7792 53.0176C33.942 53.5042 33.0761 54.0552 32.1744 54.5204C31.4516 54.8925 30.7074 55.2933 29.9273 55.4435C29.3334 55.558 28.9612 55.7942 28.5319 56.2737C29.6411 57.3041 30.7145 58.2774 31.7522 59.2793C32.7254 60.2167 33.7344 61.1399 34.6003 62.1704C35.1156 62.7858 35.6809 63.2796 36.3321 63.7018C36.8832 64.0525 37.427 64.3673 37.6918 65.04C37.7848 65.2762 38.1355 65.4193 38.3001 65.5553C39.073 65.4265 39.4093 64.9184 39.8172 64.4461C40.998 63.0935 42.4364 61.9557 43.2522 60.1738C42.7083 59.7444 42.1645 59.3294 41.642 58.9C40.6473 58.077 39.7313 57.1396 38.5076 56.6315L38.5005 56.6243Z" fill="#EDAD0B"/>
<path d="M57.7149 54.6635C57.3141 54.1769 56.8061 53.9908 56.2836 54.0194C55.4106 54.0624 54.6663 53.7618 53.9579 53.3539C53.2995 52.9746 52.6268 52.8673 51.9112 52.9961C51.5677 53.4183 51.1312 53.7904 50.9236 54.2627C50.7161 54.7207 50.5014 55.0929 50.0506 55.3362C49.8931 55.422 49.7429 55.6153 49.6856 55.787C49.5425 56.2164 49.2562 56.4597 48.8555 56.6314C48.6837 56.703 48.4762 56.8175 48.3903 56.9678C48.0397 57.5761 47.5817 58.0269 46.9376 58.3561C46.3079 58.671 46.3651 59.3794 46.9877 59.7158C47.2883 59.8732 47.6103 59.9949 47.8823 60.1881C48.648 60.732 49.0058 61.7195 49.9576 62.0773C50.0864 62.1274 50.1365 62.3564 50.2295 62.4995C50.3225 62.6427 50.3869 62.8144 50.5157 62.9146C51.2314 63.4728 51.9613 64.0095 52.8487 64.6822C53.4856 62.6928 55.611 61.8412 56.2836 59.8804C57.629 58.3919 58.9744 56.9105 60.3627 55.3791C59.7973 55.3075 59.2893 55.2932 58.8026 55.1716C58.4162 55.0785 57.9439 54.9569 57.7149 54.6778V54.6635Z" fill="#EDAD0B"/>
<path d="M47.7606 72.189C47.8465 72.0745 47.7535 71.8312 47.732 71.6452C47.6533 71.0512 47.4243 70.4358 47.5317 69.8847C47.6748 69.162 47.6247 68.4678 47.5674 67.7593C47.5388 67.423 47.503 67.0866 47.503 66.7503C47.4959 65.5337 47.503 64.3243 47.503 63.1579C46.6514 62.2848 45.7927 61.3975 44.8695 60.4457C44.8123 60.5172 44.6835 60.596 44.6906 60.6604C44.8051 61.3617 44.433 61.8984 44.1754 62.4924C43.9535 62.9933 43.8176 63.5801 43.8247 64.124C43.8319 64.9326 44.0179 65.7413 44.0967 66.5571C44.1539 67.1582 44.1682 67.7665 44.1825 68.3748C44.1825 68.6682 44.1396 68.9544 44.1396 69.2478C44.1396 70.4644 44.7479 71.6452 44.3185 72.8975C44.2326 73.1408 44.4473 73.4843 44.4831 73.7849C44.5475 74.386 44.798 75.0945 44.5761 75.5811C44.2183 76.3683 44.4831 76.9479 44.7407 77.6779C45.027 77.6349 45.3418 77.6778 45.5351 77.5419C46.0432 77.1984 46.5441 77.0481 47.1738 77.1626C47.6318 77.2485 47.9396 76.9121 47.9109 76.404C47.8608 75.488 47.8107 74.5577 47.639 73.6561C47.5388 73.1265 47.4172 72.6757 47.7678 72.2033L47.7606 72.189Z" fill="#EDAD0B"/>
<path d="M46.0217 42.5838C46.4296 42.1329 46.8518 41.6749 47.2024 41.1812C47.4744 40.7947 47.3384 40.0648 47.0164 39.7499C46.7158 39.4637 46.1863 39.4994 45.6996 39.8573C45.5637 39.9574 45.4706 40.1149 45.3347 40.2079C44.8266 40.5443 44.3328 40.9092 43.7889 41.1812C43.5599 41.2957 43.1807 41.2742 42.9445 41.1597C42.1502 40.7876 41.3844 40.3439 40.5973 39.9503C40.3253 39.8143 40.0319 39.7213 39.7385 39.6354C39.2376 39.4923 38.7867 39.5424 38.4719 40.0219C38.2071 40.4298 38.2286 40.8806 38.7366 41.2885C39.5238 41.9182 40.3826 42.4621 41.2342 43.006C41.4488 43.142 41.7709 43.1706 42.0285 43.1491C42.6511 43.0919 43.2737 42.7842 43.7746 43.1205C44.4616 43.0131 45.027 42.9416 45.5923 42.8342C45.7497 42.8056 45.9215 42.6983 46.0288 42.5766L46.0217 42.5838Z" fill="black"/>
<path d="M41.7279 37.5387C41.914 37.6031 42.1001 37.6961 42.2575 37.8178C42.8729 38.2686 43.5385 38.3044 44.1825 37.9537C44.4831 37.7891 44.9196 37.4242 44.8838 37.2095C44.8409 36.8803 44.4974 36.5153 44.1825 36.3078C43.8247 36.0716 43.3596 35.9929 42.8228 35.8069C42.9159 35.2988 42.923 34.805 43.1019 34.3828C43.4454 33.5527 43.8891 32.7583 44.2827 31.9497C44.34 31.828 44.3901 31.692 44.4115 31.5632C44.5403 30.8691 44.0322 30.3538 43.3238 30.4826C42.7083 30.59 42.3935 31.0194 42.2432 31.5847C42.1859 31.8137 42.2217 32.1214 42.0857 32.2645C41.3487 33.0374 41.1411 34.0679 40.6617 34.9696C40.0677 36.0931 40.5114 37.1379 41.7208 37.5387H41.7279Z" fill="black"/>
<path d="M50.3368 40.7446C50.4943 41.0666 50.6159 41.4173 50.6875 41.768C50.8664 42.5909 51.625 43.1276 52.4264 42.963C53.1492 42.8128 53.3925 42.2832 53.1492 41.3457C53.0991 41.1525 52.9775 40.9808 52.8988 40.7947C52.5553 39.9932 52.2547 39.1846 51.4675 38.6622C51.2815 38.5405 51.2385 38.1827 51.1383 37.9322C50.9523 37.4599 50.6088 37.2381 50.0363 37.2595C49.7715 37.3025 49.4137 37.3168 49.0988 37.4313C48.605 37.6102 48.4547 38.1684 48.8555 38.4904C49.6069 39.0915 49.9432 39.9288 50.3297 40.7446H50.3368Z" fill="black"/>
<path d="M36.3894 37.8535C35.6022 38.6407 34.815 39.4279 34.0779 40.258C33.7488 40.6301 33.5341 41.1024 33.2693 41.5318C33.4911 42.0542 33.6271 42.5265 33.8776 42.9201C34.2282 43.4783 34.858 43.3996 35.1728 42.7984C35.2802 42.5981 35.3303 42.3118 35.4949 42.2116C36.0316 41.8968 36.189 41.4245 36.2964 40.8591C36.3536 40.5514 36.5182 40.2294 36.7257 40.0004C37.0191 39.6855 37.427 39.4851 37.7491 39.1846C38.293 38.6836 38.3502 38.1827 37.9638 37.7676C37.5916 37.3597 36.8689 37.3883 36.4037 37.8607L36.3894 37.8535Z" fill="black"/>
<path d="M49.0988 30.4397C49.2921 30.5327 49.6427 30.4898 49.8288 30.361C50.2725 30.0676 50.6589 29.6883 51.1097 29.309C51.3817 29.5022 51.6393 29.7169 51.9256 29.8958C52.2977 30.1248 52.677 30.3896 53.0849 30.5327C53.8005 30.776 54.4374 30.2465 54.3658 29.538C54.2871 28.7365 52.863 27.2051 52.083 27.2838C51.031 27.3911 49.9075 27.5128 49.3994 28.7222C49.2706 29.0371 49.1132 29.3376 48.9557 29.6454C48.7911 29.9602 48.7768 30.2894 49.0988 30.4469V30.4397Z" fill="black"/>
<path d="M35.3518 30.59C35.6595 30.7331 35.9815 30.8691 36.3107 30.9263C36.6542 30.9907 36.9047 30.819 36.9476 30.4325C37.0907 29.2017 36.0245 28.0853 34.7793 28.164C34.5431 28.1783 34.2998 28.2284 34.0637 28.2213C33.0189 28.1712 32.3247 28.7079 31.8238 29.5523C31.5375 30.0318 31.6019 30.6759 31.9597 30.9621C32.3104 31.234 32.8328 31.1625 33.2407 30.726C33.4983 30.454 33.6844 30.1248 33.9277 29.7956C34.5861 30.1606 34.9582 30.3968 35.3589 30.59H35.3518Z" fill="black"/>
</g>
<defs>
<clipPath id="clip0_148_530">
<rect width="88" height="135.66" fill="white" transform="translate(0 0.6698)"/>
</clipPath>
</defs>
</svg>
