<svg width="103" height="156" viewBox="0 0 103 156" fill="none" xmlns="http://www.w3.org/2000/svg">
<g clip-path="url(#clip0_221_319)">
<path d="M80.4577 76.2381C81.4145 76.4621 82.3648 76.7782 83.3348 76.8836C84.1399 76.9692 84.8262 77.2854 85.5389 77.5752C86.0404 77.7793 86.542 78.0626 86.9379 78.4248C87.6902 79.1164 88.6537 79.1954 89.5577 79.4655C89.6963 79.505 89.9141 79.4852 89.9735 79.5709C90.4948 80.3744 91.5506 80.2097 92.1841 80.8025C92.4745 81.0726 92.778 81.3294 93.042 81.6324C94.0715 81.9024 95.0943 82.2252 95.8928 83.0156C95.9918 83.1144 96.1238 83.2329 96.2557 83.2527C97.2522 83.3646 98.0177 83.9838 98.6314 84.6292C99.5289 85.5777 100.69 86.3417 101.086 87.7315C101.278 88.4099 101.832 88.9763 102.083 89.6415C102.386 90.4517 102.538 91.3211 102.743 92.1641C102.776 92.3024 102.723 92.4737 102.789 92.5857C103.145 93.2048 103.033 93.7515 102.604 94.285C102.518 94.3903 102.459 94.5418 102.446 94.6801C102.34 95.8921 102.34 97.1237 102.122 98.3159C101.957 99.1984 101.825 100.16 101.06 100.871C101.522 101.491 101.555 102.096 101.159 102.814C100.882 103.322 100.895 103.98 100.723 104.56C100.525 105.225 100.228 105.857 100.466 106.582C100.512 106.72 100.44 106.97 100.334 107.076C99.8192 107.563 99.74 108.261 99.4167 108.834C99.2517 109.131 98.9679 109.355 98.6776 109.684C98.9745 110.389 98.7634 110.975 98.0837 111.495C97.2984 112.095 96.9552 112.925 97.1598 113.939C97.2786 114.532 96.8233 114.914 96.5791 115.362C96.3679 115.75 96.104 116.079 96.1568 116.56C96.17 116.712 96.0644 116.896 95.9786 117.041C95.4507 117.904 94.8633 118.74 94.4014 119.636C94.1309 120.163 94.0715 120.802 93.8867 121.375C93.8009 121.645 93.6953 121.928 93.5171 122.139C93.3324 122.356 93.2598 122.534 93.2928 122.837C93.3192 123.061 93.1938 123.338 93.0552 123.535C92.7714 123.944 92.4151 124.299 92.1181 124.695C91.7486 125.175 91.412 125.683 91.0557 126.17C90.8841 126.4 90.7059 126.638 90.5014 126.835C90.0592 127.263 89.6369 127.665 89.5379 128.337C89.4983 128.62 89.2344 128.87 89.0628 129.147C89.8547 129.252 90.5872 129.391 91.3263 129.43C91.7222 129.457 92.1379 129.364 92.5207 129.246C93.1938 129.035 93.8405 128.93 94.4278 129.424C94.7248 129.674 94.9953 129.634 95.3385 129.397C95.6024 129.792 95.8268 130.161 96.0842 130.497C96.2161 130.668 96.4273 130.78 96.5989 130.919C96.8035 131.077 97.1466 131.202 97.1928 131.393C97.4172 132.328 98.4268 132.704 98.7106 133.58C98.7436 133.678 98.8492 133.777 98.9415 133.83C99.8522 134.291 100.017 135.147 100.136 136.03C100.182 136.405 100.176 136.787 100.202 137.163C100.228 137.505 100.176 137.835 99.839 137.979C99.4431 138.151 98.9481 138.394 98.605 138.012C98.1563 137.512 97.5228 137.69 97.0938 137.321C97.0146 137.439 96.9816 137.472 96.9882 137.485C97.2984 138.348 97.5426 139.244 97.9451 140.061C98.4268 141.042 97.9385 142.313 96.876 142.577C96.5659 142.649 96.2689 142.768 95.9126 142.886C95.8664 143.071 95.7608 143.295 95.7542 143.512C95.7344 144.309 95.1471 144.592 94.5532 144.842C94.0517 145.053 93.2598 144.586 93.009 143.98C92.9364 143.808 92.8704 143.637 92.7714 143.393C92.2105 144.75 92.6329 145.942 93.009 147.121C93.1806 147.655 93.2598 148.103 92.9496 148.617C92.8308 148.814 92.8638 149.196 92.9694 149.427C93.2928 150.145 93.273 150.895 93.2664 151.633C93.2664 151.897 93.0288 152.246 92.7912 152.397C92.1907 152.792 91.544 153.115 90.9039 153.438C90.6796 153.55 90.409 153.596 90.1582 153.655C89.5907 153.787 89.0298 153.912 88.4623 154.024C87.8684 154.143 87.2679 154.241 86.6673 154.347C86.4694 154.38 86.245 154.366 86.0734 154.446C85.0374 154.933 83.9089 155.045 82.8003 155.216C82.6023 155.249 82.3912 155.236 82.1932 155.236C81.1176 155.249 80.0683 155.269 79.0323 155.684C78.4647 155.914 77.7652 155.829 77.1317 155.901C75.9175 156.039 74.7099 156.039 73.5089 155.809C73.3241 155.776 73.1129 155.842 72.915 155.881C71.9581 156.046 71.0276 156.072 70.084 155.697C69.655 155.526 69.1007 155.506 68.652 155.618C67.7677 155.835 67.0022 155.368 66.1773 155.335C65.986 155.335 65.7682 155.315 65.5966 155.387C65.0357 155.624 64.4814 155.552 63.9733 155.322C63.5245 155.117 63.1022 155.071 62.6271 155.058C61.9606 155.038 61.3007 154.92 60.6407 154.841C60.555 154.828 60.4626 154.821 60.3768 154.821C59.5651 154.775 58.7534 154.742 57.9483 154.676C56.8925 154.584 55.8301 154.511 54.7808 154.347C54.1011 154.241 53.4082 154.07 52.7681 153.807C51.9894 153.484 51.2041 153.392 50.3858 153.379C50.2737 153.379 50.1417 153.372 50.0427 153.319C49.4224 153.023 48.8285 152.674 48.195 152.417C47.7462 152.232 47.2513 152.12 46.7696 152.061C45.8523 151.956 45.5686 151.613 45.7731 150.744C46.0173 149.697 46.0833 148.643 45.8919 147.576C45.8457 147.306 45.8919 146.983 46.0107 146.739C46.2417 146.252 46.3538 145.784 46.2417 145.231C46.1295 144.698 46.1229 144.144 46.0965 143.598C46.0899 143.459 46.1889 143.321 46.2153 143.183C46.2746 142.88 46.3406 142.577 46.3604 142.274C46.4066 141.674 46.4264 141.075 46.4726 140.476C46.5188 139.936 46.5122 139.415 46.4264 138.855C46.334 138.276 46.6244 137.63 46.796 137.024C46.9082 136.629 47.0005 136.3 46.829 135.859C46.6904 135.516 46.7894 135.062 46.8554 134.673C46.9478 134.133 47.1655 133.619 46.9346 133.053C46.8686 132.895 46.9939 132.664 47.0467 132.381C46.7036 132.289 46.3538 132.17 45.9909 132.098C45.5092 131.999 45.0142 131.946 44.5259 131.854C43.1467 131.584 42.3878 130.583 41.7081 129.483C41.6751 129.437 41.6487 129.371 41.6487 129.318C41.7345 128.073 40.837 127.171 40.5071 126.071C40.4477 125.88 40.3421 125.669 40.3751 125.492C40.5071 124.826 40.2365 124.293 39.8604 123.792C39.5964 123.443 39.603 123.087 39.6096 122.653C39.6294 121.856 39.5304 121.039 39.3391 120.262C39.1873 119.616 38.9497 118.997 39.0553 118.312C39.0817 118.141 39.1345 117.891 39.0421 117.805C38.501 117.278 38.8309 116.508 38.4812 115.935C38.4152 115.823 38.4086 115.638 38.4482 115.506C38.567 115.111 38.4812 114.782 38.2568 114.446C38.1644 114.314 38.1116 114.097 38.1446 113.945C38.369 113.037 37.6431 112.279 37.7553 111.39C36.9568 110.092 37.3528 108.545 36.8842 107.181C37.2406 106.371 36.7456 105.752 36.4289 105.093C36.3695 104.962 36.3035 104.81 36.3167 104.672C36.4355 103.585 36.0725 102.558 35.9868 101.497C35.9604 101.155 36.1715 100.792 36.3035 100.344C35.9274 99.7319 36.0725 98.9811 36.1451 98.2236C36.1979 97.6836 36.1517 97.1303 36.1913 96.5836C36.2177 96.2411 36.2243 95.8525 36.3893 95.5759C36.7522 94.9831 36.8578 94.3772 36.871 93.6922C36.8842 93.106 36.9304 92.5066 37.2142 91.9204C37.4913 91.3606 37.5441 90.7019 37.7157 90.0894C37.8081 89.7601 37.8873 89.411 38.0655 89.1212C38.7056 88.0871 39.3853 87.0728 40.0584 86.0519C40.1375 85.9334 40.2365 85.7687 40.3487 85.7423C41.0218 85.5909 41.398 85.0442 41.9061 84.6622C42.1898 84.4514 42.4472 84.2736 42.6386 83.9574C42.7772 83.7269 43.0609 83.5622 43.3051 83.4239C44.4599 82.7521 45.6213 82.1 46.7828 81.4414C46.8818 81.3821 46.9741 81.2636 47.0731 81.257C47.8848 81.2175 48.3665 80.6379 48.8879 80.1439C49.3168 79.7289 49.8711 79.8014 50.3661 79.6894C50.7026 79.617 50.9666 79.5313 51.1711 79.2613C51.4549 78.8924 51.8046 78.7212 52.2996 78.708C52.5833 78.708 52.8935 78.4973 53.1442 78.326C53.9691 77.753 54.8072 77.2656 55.863 77.2985C55.9884 77.2985 56.1666 77.2327 56.2458 77.1404C56.8199 76.4357 57.5788 76.4884 58.3245 76.6596C59.024 76.8177 59.5651 76.4686 60.159 76.271C60.324 76.2183 60.4758 76.1393 60.6869 76.0537C60.39 74.2227 61.2347 72.5563 61.4128 70.8438C60.621 70.1391 59.8489 69.4409 59.0702 68.7493C58.9646 68.6505 58.8392 68.5517 58.7072 68.5056C58.1331 68.3014 57.7504 67.959 57.7174 67.3069C57.7174 67.2279 57.6712 67.1225 57.6052 67.0764C56.9849 66.6483 56.9321 65.9764 56.7803 65.3178C56.5493 64.343 56.226 63.388 55.9158 62.4329C55.7443 61.906 56.0148 61.5306 56.3184 61.0827C55.9026 60.4372 55.8828 59.7193 55.9092 58.9421C55.9356 58.0266 55.7047 57.1111 55.5925 56.189C55.5727 56.0177 55.5793 55.8465 55.5727 55.6752C55.5463 55.2471 55.5199 54.8256 55.4737 54.3975C55.4473 54.1406 55.2889 53.8442 55.3747 53.6466C55.7047 52.8892 55.4407 52.0988 55.6123 51.2689C54.4509 51.3414 53.6128 50.6498 52.6955 50.1624C52.5965 50.1097 52.4777 50.0899 52.3722 50.0438C51.7584 49.7738 51.3427 49.1481 51.4813 48.5092C51.6133 47.9032 51.7584 47.317 51.6133 46.6979C51.5935 46.6189 51.6067 46.5069 51.6463 46.441C52.128 45.7231 52.161 44.7747 52.8539 44.1687C53.1706 43.8921 53.0915 43.543 52.9661 43.2005C52.6559 42.3245 52.4843 41.4156 52.5371 40.4935C52.5701 39.9732 52.227 39.7031 51.9564 39.387C51.6925 39.0774 51.3691 38.8205 51.0985 38.5176C50.9732 38.3727 50.8016 38.129 50.8412 37.9906C50.9996 37.5098 50.6828 37.1673 50.597 36.759C50.4848 36.2057 50.4254 35.5998 50.531 35.0597C50.7158 34.0915 51.026 33.1496 51.3361 32.2077C51.4483 31.8653 51.6661 31.5293 51.9036 31.2527C52.2468 30.8575 52.6625 30.5282 53.0387 30.1594C53.5006 29.7115 53.9955 29.3756 54.7214 29.7049C54.8138 29.4612 54.8996 29.2504 54.9722 29.0463C54.992 28.9936 54.9722 28.9145 54.9986 28.875C55.5001 28.1571 56.1534 27.538 56.3778 26.6488C56.391 26.6027 56.4702 26.55 56.5164 26.55C57.1763 26.5632 57.4534 26.0033 57.8032 25.6213C58.3047 25.0812 58.9646 24.8507 59.5783 24.5675C60.2184 24.2711 60.8387 23.8034 61.624 23.9022C61.6966 23.9088 61.8022 23.8561 61.8484 23.7969C62.2509 23.2041 62.792 23.3226 63.353 23.5071C63.7885 23.0526 64.2636 22.8945 64.8575 23.1975C65.0291 23.2831 65.3063 23.1975 65.5306 23.158C66.1707 23.046 66.7515 23.0526 67.3718 23.4083C68.2956 23.9418 69.3053 24.3172 70.2885 24.7651C71.0804 24.3633 71.7931 23.6981 72.8094 23.8627C72.882 23.8759 72.9941 23.8364 73.0469 23.7837C73.7134 23.1843 74.3997 23.4544 75.0992 23.6915C75.5018 23.8298 75.9373 23.8759 76.3531 23.9879C76.5972 24.0537 76.98 24.1064 77.0459 24.2645C77.2571 24.7782 77.7916 24.9034 78.0886 25.2854C78.4515 25.7596 78.8343 26.2207 79.2566 26.7344C80.3191 26.4578 81.3551 26.9913 82.4308 27.2218C82.7937 27.3008 83.0841 27.6697 83.4404 27.8475C84.8196 28.5457 85.1166 29.9684 85.7765 31.1605C86.0998 31.7467 86.179 32.2341 86.1328 32.8664C86.0668 33.7424 86.1526 34.6316 86.1724 35.5207C86.1724 35.6393 86.1988 35.7776 86.1394 35.8632C85.6907 36.5943 85.6841 37.5296 85.0242 38.1817C84.5754 38.6295 84.1861 39.1499 84.3907 39.8744C84.4237 40.0061 84.3775 40.1708 84.3313 40.3025C84.0277 41.2048 84.1267 42.1862 83.6978 43.0688C83.4998 43.4837 83.6582 43.9909 83.9815 44.3795C84.2389 44.6891 84.3379 44.9986 84.2521 45.4267C84.1927 45.7429 84.3049 46.1183 84.4171 46.4476C84.9054 47.9098 84.2059 48.99 83.282 49.978C82.9719 50.3139 82.5561 50.5444 82.2064 50.854C81.9688 51.0581 81.7775 51.315 81.5795 51.5324C82.0282 51.8485 82.444 52.1449 82.8861 52.4611C83.1435 52.0988 83.414 51.7234 83.6846 51.3479C83.8891 51.0581 84.1597 50.9132 84.5161 51.0384C84.8658 51.1635 84.9582 51.4072 84.9516 51.7892C84.945 52.3162 85.3145 52.8694 84.6744 53.3041C84.879 53.6005 85.0506 53.8508 85.2617 54.1604C85.5587 53.8771 85.8755 53.673 86.0338 53.3897C86.2846 52.9353 86.7069 52.9748 87.0897 52.8958C87.1887 52.876 87.3668 52.9089 87.413 52.9748C87.6704 53.3897 87.9344 53.8113 88.1125 54.2592C88.1851 54.437 88.0531 54.6939 88.0003 54.9112C87.9608 55.0759 87.8486 55.2339 87.8354 55.4052C87.776 56.1824 87.7496 56.9596 87.6836 57.7368C87.6638 57.9871 87.578 58.2439 87.4922 58.4811C87.2349 59.1595 86.9511 59.8313 86.6871 60.5097C86.6475 60.6151 86.5882 60.7402 86.6014 60.8456C86.7465 61.8599 86.1856 62.7622 86.1394 63.7502C86.113 64.3825 85.8887 64.8633 85.2749 65.2585C84.7932 65.5681 84.4303 66.1477 84.1729 66.6812C83.5988 67.8931 82.9917 69.0984 82.1206 70.0995C81.3881 70.9492 80.9394 71.9108 80.4906 72.8988C80.4181 73.0503 80.2993 73.2018 80.1673 73.3071C79.8703 73.5508 79.8571 73.8736 79.9297 74.1897C80.0815 74.8945 80.2729 75.5861 80.4445 76.271L80.4577 76.2381Z" fill="black"/>
<path d="M37.8213 100.588C38.2304 100.134 38.2502 99.607 38.2172 99.0274C38.1776 98.3028 38.3492 97.5652 38.2634 96.8472C38.0984 95.5168 38.5538 94.2785 38.6924 93.0008C38.7254 92.6846 38.7584 92.3619 38.8507 92.0655C39.0223 91.532 38.9101 90.9129 39.4381 90.4782C39.6294 90.3201 39.735 89.9315 39.7086 89.6746C39.6492 89.1345 39.9264 88.8184 40.2629 88.4825C41.0218 87.725 41.8599 87.073 42.7046 86.4275C43.7208 85.6503 44.7173 84.8402 45.7533 84.0893C46.1163 83.8258 46.5782 83.6941 46.9939 83.4965C47.2051 83.3977 47.4031 83.2858 47.6143 83.1804C48.3138 82.8181 49.0199 82.4888 49.6996 82.0936C50.1483 81.8302 50.531 81.4679 50.9732 81.1913C51.2899 80.9937 51.6463 80.7566 51.996 80.7302C52.8209 80.6775 53.428 80.4207 53.5666 79.5908C54.5366 79.3405 55.4803 79.268 56.16 78.5172C56.325 78.3328 56.6087 78.234 56.8529 78.1549C57.6844 77.8717 57.7636 77.931 58.2651 78.6687C58.6742 79.2746 59.0966 79.8608 59.2616 80.5919C59.288 80.6973 59.3539 80.829 59.4397 80.8817C60.1524 81.3032 60.5286 82.0212 60.9443 82.6666C61.5778 83.648 62.3763 84.4779 63.0626 85.4C63.5971 86.1113 63.8941 86.9939 64.6134 87.5933C64.7124 87.6723 64.7256 87.8568 64.7783 87.9951C64.8179 88.107 64.8773 88.219 64.8773 88.331C64.8773 89.0094 65.8012 89.0028 65.8342 89.701C65.8606 90.4123 66.6063 90.5111 67.0484 90.8536C67.418 91.1368 67.7809 91.038 68.0515 90.6955C68.5794 90.0369 69.1007 89.3782 69.5758 88.6866C70.1962 87.7777 70.7769 86.8359 71.3642 85.9006C71.5028 85.6832 71.7139 85.4527 71.7271 85.2156C71.7733 84.2935 72.5718 83.8654 72.9809 83.187C73.0469 83.0816 73.2251 83.0421 73.3967 82.9433C73.4561 83.0618 73.5617 83.1804 73.5353 83.2528C73.2515 84.1222 73.4825 84.9455 73.6672 85.7952C73.8454 86.6383 73.8388 87.5208 73.9114 88.3837C73.9114 88.4364 73.9114 88.5088 73.885 88.5417C73.2317 89.2992 73.5617 90.2015 73.5221 91.0446C73.5155 91.2158 73.5023 91.3871 73.4957 91.5583C73.4891 92.1906 73.3241 92.8295 73.6211 93.4552C73.7002 93.6265 73.6474 93.8504 73.654 94.0546C73.6672 94.3312 73.6804 94.6144 73.7002 94.8911C73.7134 95.0557 73.7794 95.2336 73.7464 95.3916C73.6606 95.7868 73.7134 96.1293 73.9114 96.485C74.017 96.6694 74.0104 96.9263 74.0302 97.1502C74.0698 97.5191 74.0962 97.8879 74.116 98.2567C74.116 98.3885 74.1226 98.5597 74.05 98.6519C73.7002 99.0932 73.786 99.5411 74.0368 99.9626C74.3139 100.424 74.4129 100.858 74.1886 101.372C74.1094 101.543 74.149 101.774 74.1556 101.978C74.1556 102.874 74.1556 103.776 74.1886 104.672C74.1886 104.837 74.3272 104.995 74.3469 105.166C74.3997 105.653 74.4525 106.141 74.4591 106.628C74.4657 107.148 74.3931 107.669 74.4195 108.183C74.4855 109.427 74.5779 110.672 74.6769 111.917C74.7297 112.609 74.9211 113.3 74.8815 113.979C74.8221 115.177 75.317 116.244 75.5348 117.371C75.6931 118.194 75.8053 119.03 75.9703 119.854C76.1089 120.552 76.1089 121.303 76.6434 121.882C76.7622 122.014 76.8084 122.251 76.8084 122.436C76.8084 123.134 76.7952 123.819 77.1911 124.458C77.3825 124.767 77.3759 125.189 77.4881 125.551C77.5805 125.847 77.7059 126.131 77.8246 126.414C78.2206 127.382 78.6165 128.344 79.0191 129.325C78.2866 129.74 77.5871 129.588 76.8612 129.635C76.7952 129.042 77.0196 128.574 77.2109 128.1C77.5145 127.362 77.3363 127.25 76.6962 126.829C76.0495 126.407 75.3434 126.229 74.6637 125.959C74.314 125.821 73.9642 125.656 73.6013 125.604C72.9282 125.498 72.3672 125.123 71.7403 124.899C70.6515 124.51 69.556 124.148 68.454 123.799C68.2428 123.733 67.9921 123.773 67.7677 123.74C67.3718 123.674 66.8768 123.707 66.5997 123.483C65.9794 122.969 65.2073 122.818 64.5276 122.462C64.2306 122.304 63.8215 122.363 63.4717 122.284C63.0692 122.179 62.6667 122.08 62.2641 121.975C62.0661 121.928 61.8484 121.915 61.6702 121.836C60.6078 121.349 59.4793 121.138 58.3311 120.96C57.9615 120.908 57.4468 120.868 57.2027 120.4C57.1367 120.269 56.9321 120.17 56.7671 120.137C56.1138 119.999 55.4539 119.9 54.8072 119.761C54.6224 119.722 54.3981 119.643 54.2991 119.498C53.659 118.576 52.8143 118.24 51.831 118.556C51.2899 118.174 50.8214 117.845 50.3001 117.476C50.7356 116.712 50.6234 115.889 50.3265 115.026C50.1945 114.65 50.3067 114.17 50.3924 113.748C50.4914 113.247 50.5442 112.8 50.2539 112.319C50.1285 112.115 50.2077 111.779 50.2407 111.509C50.2671 111.285 50.4584 111.008 50.3858 110.85C49.9305 109.902 50.3661 108.821 49.9107 107.88C49.8447 107.748 49.9701 107.53 49.9371 107.366C49.8909 107.089 49.8315 106.786 49.693 106.549C49.5214 106.253 49.165 106.259 48.9869 106.556C48.8351 106.819 48.7493 107.135 48.7031 107.438C48.6371 107.866 48.6239 108.301 48.6107 108.736C48.5777 109.664 48.5381 110.593 48.5513 111.528C48.5513 111.759 48.7691 111.989 48.9011 112.24C48.6503 112.8 48.4787 113.379 48.6965 114.005C48.7427 114.137 48.7559 114.308 48.7031 114.433C48.4259 115.151 48.5579 115.875 48.6305 116.6C48.6701 117.002 48.6833 117.384 48.4853 117.786C48.261 118.247 48.4259 118.615 48.8483 118.918C49.33 119.261 49.8381 119.518 50.4584 119.472C51.0194 119.432 51.3691 119.682 51.8046 120.064C52.3986 120.591 53.2168 121.052 53.9889 121.158C55.0052 121.296 55.896 121.652 56.8067 122.034C56.9651 122.1 57.1367 122.264 57.2752 122.238C57.889 122.119 58.3311 122.429 58.7996 122.725C58.9844 122.844 59.2352 122.883 59.4595 122.93C60.6539 123.167 61.8484 123.391 63.0494 123.628C63.1616 123.647 63.2936 123.68 63.3728 123.753C64.0393 124.339 64.8707 124.596 65.6956 124.662C66.8306 124.754 67.7545 125.373 68.7906 125.696C69.8662 126.032 70.9155 126.42 72.0637 126.387C72.1429 126.387 72.2551 126.42 72.3012 126.48C73.0403 127.336 74.1556 127.204 75.0926 127.533C75.2774 127.599 75.4754 127.639 75.6602 127.685C75.284 129.029 74.9409 130.333 74.5515 131.617C74.3799 132.19 74.0698 132.73 74.1094 133.356C74.1094 133.382 74.0962 133.422 74.0764 133.435C73.5023 133.87 73.3835 134.541 73.2449 135.108C72.486 135.082 71.7865 135.114 71.1068 135.016C70.5393 134.93 69.9982 134.673 69.4439 134.502C69.2195 134.436 68.9489 134.285 68.7774 134.357C68.1768 134.601 67.7875 134.225 67.3322 133.995C67.0484 133.856 66.7317 133.777 66.4215 133.712C65.9926 133.626 65.5636 133.54 65.1281 133.521C64.7585 133.501 64.389 133.573 63.9271 133.613C63.8941 133.573 63.7885 133.481 63.7027 133.369C63.32 132.888 62.8316 132.783 62.2905 133.013C62.0002 133.139 61.7428 133.066 61.459 133.073C60.4956 133.092 59.7037 132.579 58.8194 132.368C57.7306 132.111 56.6351 131.9 55.5331 131.69C55.3087 131.65 55.0712 131.696 54.8402 131.716C54.1539 131.769 53.5204 131.861 52.8341 131.452C52.1544 131.051 51.2965 130.945 50.5112 130.721C50.399 130.688 50.2671 130.662 50.1681 130.695C49.4092 130.932 48.7559 130.537 48.0564 130.385C47.7264 130.313 47.3701 130.273 47.0401 130.32C46.4462 130.405 45.8721 130.418 45.3376 130.109C45.3112 130.096 45.2848 130.063 45.2584 130.069C44.3609 130.122 44.0178 129.457 43.6812 128.818C43.5493 128.568 43.4899 128.284 43.3843 128.021C43.1797 127.514 42.9619 127.013 42.7706 126.506C42.6188 126.111 42.3944 125.702 42.3746 125.294C42.335 124.635 42.2756 124.036 41.8005 123.509C41.6355 123.325 41.6025 122.962 41.6289 122.692C41.6751 122.212 41.5827 121.803 41.4244 121.342C41.1472 120.532 41.0416 119.663 40.8568 118.826C40.7051 118.148 40.5401 117.469 40.3817 116.791C40.3685 116.732 40.3289 116.666 40.3421 116.62C40.6655 115.75 40.2101 114.953 40.1376 114.117C40.131 114.031 40.1441 113.913 40.098 113.86C39.5436 113.261 39.8142 112.47 39.6096 111.792C39.4117 111.127 39.2995 110.428 39.2005 109.737C39.1345 109.256 39.0817 108.749 39.1543 108.275C39.2797 107.471 39.1741 106.78 38.633 106.154C38.5076 106.009 38.4746 105.732 38.4812 105.522C38.5274 104.086 38.2766 102.683 38.0655 101.273C38.0391 101.076 37.9269 100.891 37.8213 100.602V100.588Z" fill="white"/>
<path d="M80.6623 77.9375C81.0385 77.9375 81.3552 77.9375 81.6654 77.9375C81.7512 77.9375 81.8765 77.9046 81.9227 77.9441C82.3913 78.3722 83.104 78.3393 83.5395 78.7147C84.1004 79.1955 84.7405 79.3997 85.3872 79.6565C85.869 79.8476 86.3045 80.1703 86.8852 79.9398C87.004 79.8937 87.3142 80.0649 87.3867 80.2098C87.7497 80.9475 88.4492 81.2307 89.1421 81.402C89.8284 81.5732 90.3695 81.9552 90.9106 82.3241C91.4121 82.6666 91.8675 82.9827 92.4746 82.7983C93.1213 83.9114 94.0716 84.4251 95.2132 84.6952C95.464 84.7545 95.6553 85.1562 95.8995 85.1892C96.9091 85.3143 97.3381 86.243 98.0442 86.7567C98.6975 87.231 99.0604 88.1465 99.4696 88.9105C99.7929 89.523 99.9975 90.208 100.242 90.8601C100.539 91.6505 100.71 92.4606 100.545 93.3102C100.525 93.4222 100.486 93.5605 100.532 93.6527C100.869 94.3838 100.664 95.0425 100.334 95.7209C100.209 95.9712 100.123 96.3071 100.182 96.5705C100.347 97.3346 100.03 98.0064 99.8061 98.6716C99.6148 99.2446 99.5686 99.7386 99.9315 100.305C99.1528 101.201 99.0736 102.34 98.8493 103.453C98.6909 104.244 98.7569 105.153 98.0376 105.778C97.9122 105.884 97.9452 106.16 97.8792 106.351C97.7406 106.76 97.5756 107.162 97.4371 107.563C97.3051 107.945 97.1137 108.327 97.1005 108.716C97.0873 109.111 96.9685 109.368 96.6716 109.605C96.3416 109.875 96.1173 110.244 96.2096 110.679C96.3614 111.41 95.9853 111.943 95.6289 112.503C95.4772 112.74 95.3452 112.997 95.2198 113.254C95.0746 113.537 94.9492 113.827 94.8173 114.11C94.6919 114.374 94.5665 114.631 94.4543 114.894C94.3883 115.052 94.3949 115.269 94.2893 115.375C93.4315 116.198 93.3193 117.417 92.6924 118.352C92.7452 119.096 92.3822 119.669 91.9203 120.209C91.8807 120.249 91.8477 120.315 91.8477 120.367C91.8477 121.21 91.267 121.718 90.7852 122.297C90.6599 122.449 90.5543 122.659 90.5411 122.844C90.4949 123.628 90.0593 124.161 89.4918 124.649C89.2807 124.833 89.0629 125.103 89.0167 125.366C88.8649 126.302 88.0334 126.789 87.6441 127.56C87.4395 127.962 87.1162 128.304 86.8588 128.686C86.4959 129.213 86.2517 129.905 85.7634 130.24C84.9649 130.794 83.975 131.018 83.0248 130.504C82.5496 130.247 82.1405 129.872 81.705 129.549C80.7547 128.857 80.3918 127.803 80.0024 126.769C79.9298 126.578 79.8968 126.348 79.7649 126.216C79.4613 125.913 79.5075 125.551 79.4481 125.182C79.3425 124.569 79.1313 123.957 78.8806 123.384C78.5374 122.594 78.2471 121.79 78.0623 120.954C78.0227 120.789 77.9171 120.637 77.8775 120.466C77.7851 120.104 77.6004 119.715 77.6598 119.366C77.8115 118.503 77.3298 117.739 77.3892 116.87C77.4354 116.198 77.0329 115.493 76.8415 114.802C76.7887 114.617 76.7821 114.413 76.7755 114.222C76.7755 114.077 76.8547 113.913 76.8085 113.794C76.2674 112.404 76.6699 110.922 76.3268 109.5C76.0628 108.413 75.944 107.254 76.0034 106.141C76.0826 104.692 75.7526 103.269 75.8384 101.827C75.8516 101.603 75.7526 101.379 75.713 101.148C75.5613 100.272 75.2841 99.3961 75.3105 98.5201C75.3237 98.0196 75.4755 97.4992 75.3963 96.9855C75.2511 96.07 75.0531 95.1676 74.9212 94.2521C74.7826 93.3102 74.6836 92.3618 74.5846 91.4133C74.5516 91.0709 74.5846 90.7218 74.5846 90.3068C74.7364 90.241 74.9476 90.0763 75.1521 90.0829C76.3993 90.1224 77.5806 89.8458 78.7486 89.4572C78.9334 89.3979 79.1577 89.4045 79.3491 89.444C80.1806 89.6218 81.0055 89.7009 81.8435 89.5033C82.1207 89.4374 82.3913 89.3386 82.6552 89.2267C83.0512 89.0554 83.4339 88.8249 83.8233 88.9961C83.8761 90.0236 83.9222 90.9984 83.9816 91.9666C83.9948 92.1971 84.0806 92.4211 84.1268 92.645C84.2126 93.0402 84.3644 93.442 84.3512 93.8306C84.3314 94.4102 84.503 94.9832 84.503 95.5167C84.503 96.5837 84.9451 97.5585 84.9583 98.6123C84.9583 99.0141 85.2355 99.4093 85.4004 99.8045C85.44 99.9099 85.5918 100.009 85.572 100.088C85.3542 100.997 86.0801 101.82 85.7964 102.742C85.737 102.926 85.9152 103.177 85.9745 103.401C86.2979 104.514 86.6213 105.627 86.938 106.74C86.971 106.845 86.938 106.971 86.9314 107.082C86.9182 107.168 86.8588 107.254 86.8654 107.333C86.9908 108.347 86.9578 109.388 87.4395 110.343C87.5715 110.606 87.6045 110.942 87.6177 111.245C87.6309 111.535 87.5715 111.825 87.5319 112.115C87.3735 113.129 87.8025 113.932 88.4426 114.65C88.568 114.789 88.8979 114.874 89.0629 114.808C89.2675 114.729 89.505 114.486 89.5446 114.275C89.6898 113.485 89.8746 112.681 89.4984 111.891C89.4324 111.752 89.5182 111.548 89.4984 111.383C89.4654 111.08 89.4522 110.758 89.3467 110.475C89.0893 109.79 88.8979 109.144 89.0827 108.367C89.1949 107.879 88.9771 107.287 88.7857 106.78C88.5812 106.233 88.3172 105.752 88.4954 105.12C88.5614 104.896 88.4096 104.52 88.238 104.336C87.9147 103.987 87.8883 103.611 87.9345 103.203C88.0664 102.004 87.8025 100.891 87.1558 99.8835C86.9182 99.5147 86.8786 99.1656 86.872 98.7375C86.872 98.0459 86.6938 97.3609 86.6476 96.6693C86.5817 95.7275 86.0009 94.8646 86.2385 93.8767C86.2715 93.7515 86.1923 93.5935 86.1461 93.4551C85.9415 92.8294 85.6842 92.2103 85.5324 91.5714C85.4466 91.2158 85.5852 90.8074 85.4994 90.4583C85.2948 89.5889 85.0309 88.7261 84.7471 87.883C84.6943 87.7184 84.4172 87.5471 84.2324 87.5339C83.6847 87.4878 83.1304 87.5142 82.5826 87.5142C82.4177 87.1849 82.1933 86.7897 82.0217 86.3747C81.9227 86.1376 81.8831 85.8676 81.8699 85.6107C81.837 84.9718 81.8106 84.379 81.4806 83.7665C81.2298 83.2989 81.1704 82.6073 81.2958 82.0804C81.4212 81.5666 81.3882 81.1056 81.2958 80.6313C81.1177 79.7422 80.8999 78.853 80.6953 77.9243L80.6623 77.9375Z" fill="white"/>
<path d="M88.0004 138.045C88.5745 139.178 88.9375 140.272 89.1421 141.418C89.1883 141.668 89.3136 141.918 89.4588 142.129C89.7954 142.636 90.1583 143.117 90.5081 143.611C90.5741 143.703 90.673 143.802 90.673 143.901C90.673 144.718 91.1614 145.442 91.0294 146.305C90.937 146.911 91.0822 147.563 91.1812 148.182C91.2274 148.452 91.4253 148.696 91.5771 148.999C91.1152 149.512 91.0426 150.092 91.3725 150.744C91.4979 150.988 91.4715 151.311 91.5243 151.646C91.2076 151.686 90.9238 151.712 90.64 151.772C90.4421 151.811 90.1979 151.824 90.0593 151.949C89.439 152.529 88.7065 152.457 87.9344 152.483C86.7202 152.522 85.5192 152.799 84.3446 153.148C84.0476 153.234 83.7176 153.287 83.4075 153.26C82.543 153.181 81.7379 153.405 80.9197 153.603C80.1608 153.78 79.3953 153.978 78.5968 153.761C78.3526 153.695 78.0425 153.642 77.8379 153.734C76.8415 154.189 75.7988 154.169 74.7496 154.149C73.6805 154.13 72.6181 154.044 71.549 154.024C71.1201 154.011 70.6846 154.123 70.2556 154.103C69.6815 154.083 69.1008 154.044 68.5465 153.925C67.8272 153.767 67.1343 153.682 66.3886 153.761C65.8937 153.813 65.3657 153.603 64.851 153.524C64.5145 153.471 64.1383 153.339 63.8414 153.438C63.3992 153.583 62.9901 153.53 62.5611 153.484C62.1586 153.438 61.7561 153.445 61.3535 153.425C61.1819 153.418 60.9642 153.464 60.8454 153.379C60.3505 153.01 59.783 152.944 59.1956 152.918C58.6809 152.891 58.1662 152.812 57.6449 152.773C56.655 152.7 55.6652 152.681 54.6885 152.569C54.3321 152.529 54.0154 152.206 53.659 152.127C52.7484 151.936 51.8245 151.818 50.9073 151.66C50.6829 151.62 50.4585 151.554 50.2341 151.495C49.4819 151.291 48.7362 151.073 47.9839 150.896C47.8123 150.856 47.6011 150.935 47.324 150.975C47.6803 150.165 47.5021 149.348 47.8915 148.584C48.1291 148.116 47.9443 147.444 47.9641 146.858C47.9839 146.311 48.0301 145.771 48.0697 145.225C48.0829 145.08 48.1357 144.935 48.1159 144.79C47.9575 143.46 48.3798 142.182 48.4392 140.871C48.4524 140.588 48.3996 140.278 48.294 140.021C48.0961 139.527 48.0895 139.04 48.2676 138.572C48.426 138.157 48.3336 137.802 48.2676 137.393C48.1753 136.847 48.2478 136.254 48.3402 135.694C48.4062 135.286 48.4656 134.924 48.3666 134.502C48.2346 133.922 48.1159 133.297 48.4854 132.737C49.4159 132.908 50.3133 133.185 51.2306 133.218C52.4976 133.264 53.6195 133.962 54.8931 133.929C55.2428 133.922 55.5926 133.988 55.9423 134.015C56.5164 134.061 57.0773 134.206 57.6383 134.304C58.4697 134.449 59.2616 135.049 60.1657 134.693C60.2119 134.673 60.2845 134.693 60.3373 134.706C61.1424 134.937 61.9474 135.174 62.7525 135.411C62.9175 135.457 63.1089 135.569 63.254 135.529C64.3363 135.2 65.3129 135.688 66.3358 135.859C66.6262 135.905 66.9363 136.01 67.2003 135.944C67.8074 135.8 68.2825 136.056 68.751 136.346C69.5561 136.847 69.5495 136.86 70.4866 136.583C70.8759 137.058 71.3709 137.137 72.0176 137.071C72.7765 136.992 73.5683 137.189 74.3932 137.275C74.512 137.064 74.6374 136.84 74.776 136.596C74.9145 136.61 75.0861 136.682 75.1983 136.636C76.0496 136.267 76.7425 136.748 77.4552 137.058C78.1679 137.367 78.9202 137.538 79.613 137.94C80.0486 138.197 80.6821 138.19 81.2166 138.184C82.1669 138.164 83.1435 138.269 84.0344 137.762C84.1466 137.696 84.3182 137.696 84.4501 137.723C85.077 137.848 85.6974 137.999 86.3243 138.118C86.5486 138.157 86.7796 138.138 87.0106 138.125C87.3273 138.111 87.6441 138.078 87.9938 138.052L88.0004 138.045Z" fill="white"/>
<path d="M67.3454 88.7195C67.0023 88.3902 66.7581 88.2321 66.6195 88.0016C66.1246 87.1849 65.6759 86.3418 65.181 85.5251C65.0028 85.2287 64.752 84.9784 64.5277 84.7149C64.4551 84.6293 64.3033 84.5766 64.2769 84.4844C63.9931 83.503 63.1814 82.9432 62.5149 82.2648C62.4754 82.2253 62.3962 82.1923 62.3896 82.1528C62.284 81.4283 61.822 81.0661 61.1489 80.875C61.0302 80.8421 60.9642 80.5984 60.8982 80.4469C60.7332 80.0583 60.4692 79.7949 60.1327 79.5314C59.7434 79.2284 59.4926 78.7542 59.1494 78.3195C59.6114 77.8123 59.8621 77.2657 60.7134 77.3711C61.083 77.4172 61.5317 76.91 61.9276 76.6334C62.1388 76.4819 62.317 76.2777 62.5215 76.1262C62.8647 75.8693 63.0231 75.5203 62.8911 75.1251C62.6931 74.5389 62.7129 73.9856 62.9043 73.4126C62.9109 73.3863 62.9109 73.3533 62.9109 73.327C62.9769 72.1744 63.0561 71.0151 63.1089 69.8625C63.1419 69.1578 63.0495 68.9997 62.4226 68.868C62.0728 68.7955 61.9012 68.6045 61.6703 68.374C61.3799 68.0842 60.9576 67.8734 60.555 67.768C60.0865 67.6495 59.8621 67.4321 59.7565 66.9711C59.6972 66.701 59.5256 66.4507 59.3738 66.2136C58.8855 65.4562 58.5687 64.646 58.2718 63.7898C57.9616 62.8875 58.0606 61.8797 57.4535 61.0564C57.889 60.5361 57.955 60.0421 57.7372 59.3637C57.5855 58.8763 57.7372 58.244 57.6119 57.6776C57.5789 57.5393 57.6449 57.3483 57.5723 57.2495C57.1433 56.6896 57.1763 56.0046 56.9982 55.3789C56.8728 54.9376 56.7408 54.5161 56.8662 54.0221C56.9388 53.7257 56.7276 53.3635 56.622 52.9354C56.9718 52.606 57.0509 52.1582 56.8992 51.5851C56.7738 51.1043 56.8266 50.5642 56.853 50.0571C56.8662 49.7343 56.853 49.4643 56.5098 49.3457C56.1205 49.2074 55.9093 49.4511 55.7311 49.7409C55.7047 49.787 55.6388 49.8068 55.5662 49.8595C55.4804 49.8331 55.3616 49.82 55.256 49.7739C54.8733 49.5894 54.2991 49.8331 54.088 49.326C53.8834 48.8254 53.7382 48.2919 53.659 47.765C53.5996 47.3764 53.6788 46.968 53.6854 46.5663C53.692 46.1645 53.6854 45.7561 53.6854 45.3214C54.0022 45.1568 54.3255 44.9921 54.7545 44.7748C54.9129 45.0777 55.0778 45.3675 55.2296 45.6639C55.6322 46.4609 55.9885 46.5136 56.6286 45.9208C57.0311 45.5454 57.2357 45.1634 57.2159 44.5508C57.2027 44.0898 57.5525 43.609 57.7504 43.1413C57.7966 43.0359 57.9352 42.9569 57.9418 42.8581C57.988 42.0743 58.4301 41.3959 58.5555 40.6319C58.6347 40.1577 58.7733 39.69 58.8921 39.1829C59.1098 39.2487 59.2616 39.2619 59.3804 39.3278C60.3835 39.914 61.3799 39.7032 62.3962 39.3673C62.8647 39.2158 63.3464 39.0972 63.8282 39.005C64.5408 38.8733 65.2535 38.7613 65.7749 38.1751C65.8739 38.0632 66.085 38.0434 66.2236 37.9907C66.2962 38.0698 66.3754 38.1159 66.3688 38.1488C66.1972 39.4727 66.8043 40.4606 67.6424 41.4091C68.0251 41.8438 68.4211 42.2324 68.8896 42.5617C69.0744 42.6934 69.2856 42.7725 69.4967 42.8713C69.6287 42.9306 69.8069 42.9306 69.8927 43.0228C70.513 43.7012 71.3774 43.5629 72.1561 43.7012C72.3541 43.7341 72.5653 43.7143 72.7698 43.7341C73.2648 43.7868 73.7399 43.8527 74.1556 43.4245C74.3206 43.2599 74.6374 43.2401 74.9673 43.1281C75.1785 43.3982 75.3963 43.7078 75.6404 43.9844C75.9836 44.373 76.3069 44.7945 76.7227 45.0909C76.9734 45.2753 77.376 45.2622 77.7587 45.3478C77.9567 45.6969 78.1811 46.1118 78.4186 46.507C78.9333 47.3501 79.5009 47.3632 80.1278 46.6321C80.4973 46.204 80.7613 45.7957 80.4511 45.1897C81.045 44.9921 81.2298 44.2742 81.9689 44.261C82.2593 44.834 82.8466 45.1831 82.939 45.9801C83.1105 47.4752 82.5628 48.6805 81.2628 49.4775C80.8009 49.7607 80.4973 50.3205 80.1872 50.7948C80.0222 51.045 80.0024 51.3941 79.91 51.7366C79.7252 51.6971 79.5405 51.6312 79.3491 51.6115C78.3262 51.5193 78.2338 51.5851 77.9963 52.6192C77.7785 53.5808 77.5145 54.5293 77.3562 55.5041C77.1252 56.9333 76.9668 58.3758 76.7755 59.8116C76.7293 60.187 76.7029 60.5625 76.6171 60.9247C76.5775 61.1025 76.4455 61.2738 76.3135 61.4187C76.0628 61.6953 75.7394 61.9193 75.5414 62.2222C74.9805 63.0587 74.479 63.9347 73.9379 64.7844C73.7993 65.0083 73.6541 65.2322 73.4627 65.4101C72.7698 66.0424 72.3673 66.8262 72.1561 67.7219C72.1231 67.8734 71.9978 68.0117 71.879 68.1237C71.3379 68.6572 70.8297 69.1841 70.6714 69.9877C70.5856 70.4289 70.2622 70.8175 70.1236 71.2523C70.0378 71.5091 70.0642 71.8253 70.117 72.0953C70.1962 72.5168 70.4008 72.9252 70.4536 73.3467C70.5328 74.0515 70.8957 74.5323 71.483 74.8814C71.9318 75.1448 72.3871 75.4149 72.8556 75.6915C72.9942 76.0669 73.0404 76.4424 72.7368 76.8178C72.6313 76.9561 72.5587 77.213 72.6115 77.3711C73.0008 78.5105 73.2054 79.6763 73.0536 80.7762C72.8226 81.1714 72.6313 81.5073 72.4333 81.8432C72.3475 81.9947 72.2683 82.1528 72.1627 82.2911C71.3774 83.3186 70.579 84.3329 69.7937 85.3604C69.6947 85.4921 69.6749 85.6831 69.5891 85.8346C69.4637 86.052 69.3317 86.2627 69.18 86.4603C68.9688 86.7304 68.7312 86.9741 68.5135 87.2375C68.1571 87.6854 67.8074 88.1399 67.352 88.7261L67.3454 88.7195Z" fill="white"/>
<path d="M69.8399 26.5369C70.0576 26.2866 70.183 26.122 70.3282 25.9837C70.8495 25.4567 71.4105 25.0484 72.2221 25.0352C72.816 25.022 73.41 24.8508 74.0039 24.752C74.9871 24.5807 75.7922 25.0484 76.5115 25.5819C77.3694 26.2208 78.1481 26.965 78.3658 28.1111C78.412 28.368 78.6562 28.5853 78.874 28.9146C79.0653 28.6643 79.2039 28.4997 79.3359 28.3218C79.7714 27.7422 80.0156 27.683 80.6755 27.8674C82.0283 28.2362 82.9654 29.1847 83.7045 30.2517C84.107 30.8379 84.4369 31.5821 84.4039 32.4186C84.3842 32.9719 84.6481 33.5317 84.7867 34.1179C84.7009 34.4538 84.5161 34.8424 84.5095 35.2376C84.4897 36.3441 83.7572 37.1674 83.4405 38.1488C83.2689 38.6823 83.0841 39.2158 82.972 39.7625C82.8004 40.6451 82.6948 41.5408 82.5364 42.4234C82.51 42.5683 82.3517 42.6869 82.2593 42.8186C82.1405 42.7264 81.9689 42.6605 81.9095 42.5354C81.7775 42.2653 81.5796 42.0546 81.309 42.1534C81.1044 42.2258 80.9593 42.4761 80.8075 42.6671C80.7349 42.7527 80.7415 42.9042 80.6689 42.9833C80.108 43.5695 79.5999 44.1886 79.5009 45.0448C78.709 44.8933 79.0059 44.1095 78.5902 43.7341C78.3328 43.7341 78.0689 43.7802 77.8247 43.7275C77.2902 43.609 76.7821 43.5234 76.5973 42.812C76.4917 42.4102 76.0364 42.0941 75.7064 41.7714C75.6074 41.6791 75.3765 41.6726 75.2247 41.7121C74.9145 41.7845 74.5648 41.8372 74.3338 42.0216C73.3836 42.7923 72.3541 42.3576 71.4434 42.1139C70.5724 41.8767 69.6815 41.3762 69.0348 40.7505C68.2231 39.9601 67.3982 39.0314 67.6424 37.7141C67.7018 37.3848 67.88 37.0686 68.0515 36.7788C68.2165 36.5022 68.3221 36.2387 68.0515 35.9951C67.781 35.7514 67.4708 35.7514 67.1673 35.9555C66.6196 36.3244 66.0784 36.6998 65.5241 37.0555C65.3591 37.1609 65.1546 37.2728 64.9698 37.2596C64.5211 37.2267 64.1251 37.3716 63.848 37.6614C63.452 38.0698 62.9373 38.1818 62.449 38.2805C61.987 38.3728 61.4723 38.3069 61.0038 38.2015C59.9611 37.9644 58.8657 37.8985 57.8824 37.2267C57.8098 37.4309 57.7109 37.5758 57.7109 37.7207C57.7043 38.0303 57.7175 38.353 57.7636 38.6626C57.8956 39.5386 57.3875 40.2762 57.2423 41.093C57.2093 41.2708 57.0378 41.4223 56.9322 41.5935C56.8266 41.7648 56.6286 41.9558 56.6484 42.1139C56.7408 42.8911 55.9291 43.2797 56.0215 43.991C55.3154 43.8197 54.7413 43.6814 54.121 43.5299C54.3453 42.4761 54.0682 41.5013 53.7976 40.5265C53.7118 40.2235 53.5667 39.9337 53.4149 39.6571C52.9991 38.8997 52.491 38.1883 52.1611 37.398C51.9499 36.8842 51.9763 36.2717 51.9103 35.6987C51.9037 35.6196 51.9697 35.5274 51.9631 35.4418C51.9433 34.9544 51.8047 34.4407 51.9169 33.9862C52.0225 33.5712 52.3854 33.2156 52.6494 32.8336C52.8738 32.5042 53.1113 32.1749 53.3489 31.8522C53.4149 31.76 53.5271 31.7007 53.5997 31.6085C53.8174 31.3516 53.9758 30.9498 54.2464 30.851C54.7743 30.6534 55.3616 30.6139 56.0149 30.4954C56.0149 30.469 56.0611 30.3373 56.0545 30.2056C56.0281 29.7116 56.1865 29.3625 56.5758 29.0003C57.0114 28.5919 57.2489 27.9859 57.8164 27.6764C58.087 27.5315 58.3378 27.3405 58.6017 27.1692C59.0043 26.8992 59.4332 26.7082 59.8028 26.3327C60.1855 25.9441 60.8586 25.8585 61.3337 25.5358C62.3896 24.8244 63.6368 24.7981 64.8048 24.6334C65.7023 24.5083 66.6921 24.6466 67.5368 25.1669C67.5896 25.1999 67.6292 25.246 67.682 25.2592C68.1043 25.3909 68.5663 25.4436 68.9358 25.6609C69.2856 25.8651 69.5297 26.2339 69.8597 26.5633L69.8399 26.5369Z" fill="#EDAD0B"/>
<path d="M79.0191 55.8729C79.0983 56.4723 79.1841 57.0717 79.2435 57.671C79.2567 57.8357 79.2435 58.0333 79.1577 58.1782C78.7816 58.8105 78.9202 59.4691 78.9993 60.1344C79.0389 60.4505 79.0587 60.7667 79.0587 61.0828C79.0587 61.6097 79.2237 61.8732 79.6197 61.9193C80.0024 61.9654 80.273 61.7019 80.3389 61.2277C80.3587 61.0828 80.306 60.8984 80.3851 60.8062C80.8273 60.2859 80.5963 59.8314 80.2532 59.3835C80.4841 58.8368 80.6557 58.3033 80.0684 57.9016C80.3851 57.2495 80.5699 56.6897 80.3455 55.9915C80.2334 55.6424 80.306 55.0892 80.6755 54.7071C80.9395 54.4305 81.111 54.0617 81.3816 53.6467C81.4806 53.8509 81.5532 53.9234 81.54 53.9826C81.441 54.5754 81.1902 55.1616 81.5598 55.7544C81.6126 55.84 81.5136 56.0244 81.4806 56.1627C81.441 56.334 81.3618 56.5052 81.3684 56.6699C81.3816 57.4998 81.4344 58.3297 81.4476 59.1596C81.4674 59.9961 81.441 60.8391 81.474 61.6756C81.4938 62.1235 81.8303 62.3935 82.2197 62.3804C82.5958 62.3672 82.8862 62.0642 82.9258 61.6229C82.9456 61.4187 82.9324 61.2146 82.9258 61.0104C82.8664 60.0751 82.8598 59.1662 83.0775 58.2243C83.2227 57.6052 83.0643 56.8873 82.9126 56.2418C82.8202 55.8664 82.8466 55.57 82.9852 55.2406C83.1105 54.9311 83.2227 54.6215 83.3547 54.2922C83.7177 54.4503 83.7045 54.7137 83.7111 54.9706C83.7243 56.3208 83.7836 57.6776 83.4801 59.0147C83.4207 59.2847 83.4999 59.5943 83.5131 59.8841C83.5197 60.0817 83.5725 60.2859 83.5263 60.4703C83.2425 61.6163 83.5395 62.0444 84.7669 62.084C84.6613 62.6833 84.5953 63.2893 84.4369 63.8689C84.3446 64.185 84.1268 64.488 83.9024 64.7449C83.4207 65.2916 82.8334 65.7526 82.774 66.5562C82.7674 66.6615 82.6816 66.7999 82.5958 66.846C82.0415 67.1094 81.8303 67.6034 81.6456 68.1369C81.5862 68.3147 81.3882 68.4399 81.2694 68.598C81.045 68.8878 80.8273 69.1841 80.6029 69.4805C80.3587 69.7967 80.0948 70.1062 79.877 70.4356C79.5075 70.9954 79.1445 71.5553 78.8278 72.1415C78.4912 72.7606 78.6628 73.3995 78.9136 73.9857C79.0257 74.2491 79.0389 74.4401 78.9795 74.7102C78.8542 75.3556 78.8014 76.0143 78.7288 76.6663C78.7288 76.719 78.7288 76.7915 78.7552 76.8376C79.2303 77.5226 79.0059 78.3261 79.1313 79.0704C79.2303 79.6368 79.3557 80.1967 79.4613 80.7565C79.5801 81.3756 79.6856 81.9948 79.811 82.6139C79.8572 82.8378 79.8968 83.0749 80.009 83.266C80.1806 83.5755 80.174 83.8456 80.0816 84.1815C79.9958 84.4976 79.9892 84.8796 80.0816 85.1892C80.2004 85.6041 80.5435 85.9598 80.6293 86.3748C80.7151 86.7765 80.6095 87.2178 80.5831 87.7118C78.9795 88.1004 77.2902 88.1399 75.5414 88.3046C75.4887 86.961 75.4425 85.5976 75.3699 84.2342C75.3567 83.9839 75.2841 83.6809 75.1257 83.5162C74.7892 83.1672 74.8617 82.851 74.9211 82.4163C75.0201 81.6852 75.1653 80.9212 74.8881 80.1703C74.8024 79.9398 74.8485 79.65 74.8288 79.3931C74.8156 79.1626 74.8617 78.8991 74.7694 78.7081C74.3998 77.9309 74.4658 77.134 74.5648 76.3238C74.5978 76.0736 74.6176 75.7903 74.5252 75.5664C74.446 75.3754 74.479 75.2832 74.5582 75.1119C74.7826 74.618 74.6902 74.3084 74.1359 74.2162C73.0866 74.0449 72.6973 73.2414 72.1825 72.5037C71.9846 72.2139 71.9912 71.99 72.1034 71.7002C72.2551 71.2984 72.3607 70.8769 72.4993 70.4751C72.5521 70.317 72.6379 70.1655 72.7171 70.014C72.9018 69.6584 73.0866 69.3093 73.2714 68.9602C73.3242 68.8614 73.3374 68.7033 73.4166 68.6572C74.3734 68.0908 74.5846 66.925 75.3831 66.2334C75.4953 66.1346 75.5283 65.9173 75.548 65.746C75.647 65.0347 75.9242 64.4024 76.4917 63.9545C77.2704 63.3354 77.5871 62.4067 78.1283 61.6295C78.2207 61.5044 78.2471 61.2936 78.2273 61.1289C78.1019 60.0422 78.2998 58.9883 78.5242 57.9345C78.6694 57.2429 78.7816 56.5382 78.907 55.84C78.9531 55.8466 78.9927 55.8598 79.0389 55.8664L79.0191 55.8729Z" fill="white"/>
<path d="M75.2774 134.765C75.0728 134.08 75.185 133.606 75.6074 133.198C75.7459 133.066 75.8977 132.849 75.8911 132.671C75.8779 131.992 76.3333 131.498 76.4916 130.853C77.9632 130.906 79.3952 131.307 80.8338 130.952C80.9922 131.136 81.1044 131.261 81.2165 131.393C81.5003 131.736 81.8369 131.9 82.2988 131.795C82.4506 131.762 82.6881 131.762 82.7805 131.848C83.315 132.374 83.8364 132.223 84.3181 131.887C84.6744 132.058 85.0044 132.355 85.3145 132.335C85.6445 132.315 85.9678 132.006 86.2714 131.801C86.6344 131.558 86.9511 131.228 87.3338 131.044C87.6572 130.892 88.0993 130.748 88.4095 130.853C89.0298 131.064 89.4917 130.866 89.9801 130.491C90.3892 130.695 90.7917 130.925 91.2735 130.596C91.445 130.478 91.7816 130.537 92.0192 130.596C92.7055 130.761 93.4907 130.484 94.0847 131.057C95.0481 131.051 95.5101 131.663 95.84 132.447C95.8598 132.5 95.906 132.559 95.9522 132.579C96.5989 132.796 96.7837 133.428 97.0806 133.916C97.5558 134.713 97.9979 135.516 98.836 136.142C97.7537 136.076 96.4339 135.45 96.2953 134.377C96.2227 133.804 95.774 133.494 95.3451 133.198C95.0877 133.02 94.8568 133.178 94.8106 133.428C94.7512 133.738 94.672 134.14 94.8106 134.364C95.2329 135.022 95.0811 135.766 95.2791 136.451C95.3187 136.59 95.2923 136.781 95.3847 136.866C95.8994 137.347 95.7872 137.98 95.8664 138.572C95.9258 138.994 96.1106 139.389 96.2162 139.804C96.3349 140.265 96.4207 140.733 96.4405 141.227C95.9522 141.016 95.774 140.64 95.6684 140.193C95.543 139.685 95.4111 139.178 95.2131 138.704C95.0217 138.25 94.8699 137.835 94.8172 137.314C94.7644 136.715 94.3552 136.142 94.0979 135.556C94.0253 135.398 93.8537 135.246 93.8669 135.101C93.9329 134.383 93.3786 134.186 92.9232 133.823C92.5735 134.258 92.4481 134.653 92.4877 135.2C92.5603 136.116 93.2136 136.741 93.4973 137.545C93.6029 137.841 93.7943 138.184 93.7217 138.454C93.5105 139.238 93.8801 139.876 94.1045 140.555C94.276 141.069 94.5136 141.569 94.6324 142.103C94.6918 142.373 94.5532 142.689 94.5004 142.985C94.4278 142.985 94.3552 142.992 94.2826 142.998C93.9263 142.096 93.5567 141.194 93.207 140.285C92.844 139.336 92.4943 138.388 92.1511 137.433C92.0654 137.189 92.0126 136.926 91.973 136.669C91.8806 136.129 91.478 135.813 91.0887 135.516C90.7587 135.266 90.3496 135.463 90.343 135.885C90.3298 136.366 90.2176 136.88 90.6268 137.295C90.7521 137.426 90.7851 137.65 90.8379 137.841C90.9369 138.203 90.9897 138.585 91.1151 138.941C91.4186 139.811 91.7882 140.66 92.0522 141.536C92.1511 141.859 92.0324 142.254 91.9202 142.623C91.4318 141.885 90.8643 141.227 90.7719 140.318C90.739 139.988 90.4816 139.692 90.3562 139.369C90.0329 138.533 89.7293 137.696 89.4323 136.899C88.9176 136.741 88.3633 136.623 87.8486 136.405C86.1526 135.707 84.4567 135.431 82.7145 136.247C82.345 136.419 81.9622 136.438 81.5267 136.326C80.913 136.168 80.2531 136.188 79.6196 136.109C79.4018 136.083 79.1378 136.05 78.9927 135.911C78.1744 135.128 77.1251 135.062 76.1023 134.89C75.8251 134.844 75.5414 134.805 75.2708 134.765H75.2774Z" fill="white"/>
<path d="M86.8588 54.6281C86.7928 54.9574 86.7334 55.2867 86.6608 55.6161C86.6014 55.8729 86.5354 56.1232 86.4562 56.3735C86.3506 56.7292 86.2714 57.0914 86.1197 57.4273C85.8557 58.0069 85.5126 58.5536 85.5522 59.232C85.5654 59.423 85.4334 59.614 85.341 59.9038C85.176 59.7326 85.077 59.6733 85.077 59.614C85.077 58.771 85.077 57.9345 85.077 57.0914C85.077 57.0651 85.077 57.0256 85.0836 57.0058C85.572 56.1693 85.9679 55.2736 86.6212 54.5425C86.7004 54.5688 86.773 54.6018 86.8522 54.6281H86.8588Z" fill="white"/>
<path d="M67.3784 56.031C67.8601 56.0968 68.1901 56.1363 68.52 56.189C69.3581 56.3142 69.5363 56.4986 69.5495 57.2626C68.7708 57.7632 67.9261 57.5985 67.0947 57.4997C66.7185 57.4536 66.349 57.3614 65.9794 57.2758C65.3789 57.1375 65.1611 56.7686 65.3525 56.1759C65.4251 55.9585 65.5769 55.7741 65.6825 55.5699C66.2962 54.3382 67.0947 53.2054 67.5236 51.8815C67.5896 51.6707 67.715 51.4534 67.8667 51.2953C68.2165 50.9331 68.6124 50.854 68.8698 51.0714C69.2261 51.3678 69.1602 51.7498 69.0018 52.112C68.7444 52.718 68.4409 53.3108 68.1835 53.9233C67.9195 54.5556 67.6886 55.2077 67.3718 56.031H67.3784Z" fill="black"/>
<path d="M71.0673 63.3682C70.9419 63.5395 70.8033 63.8819 70.5658 63.9873C70.315 64.0993 69.9125 64.0598 69.6683 63.9281C69.4175 63.7897 69.2592 63.4604 69.0876 63.197C68.7378 62.6569 67.9988 61.8994 67.1673 62.1761C66.8043 62.2946 66.4678 62.5581 66.1708 62.8149C65.8871 63.0586 65.7023 63.4077 65.4251 63.6646C65.2799 63.8029 65.0028 63.9478 64.8576 63.8951C64.686 63.8358 64.5936 63.5658 64.4683 63.3814C64.4551 63.3616 64.4683 63.3221 64.4683 63.2958C64.4683 62.591 65.5835 61.1749 66.2632 60.8917C66.8109 60.6612 67.3454 60.5163 67.946 60.5558C68.3815 60.5887 68.8236 60.4833 69.1998 60.7995C69.8927 61.3791 70.6648 61.8797 70.9551 62.8018C71.0013 62.9401 71.0145 63.085 71.0739 63.3748L71.0673 63.3682Z" fill="black"/>
<path d="M59.1428 44.0306C59.5057 43.9844 59.8687 43.9581 60.225 43.8922C61.0697 43.7342 61.4855 43.1348 61.7494 42.3839C61.9474 41.8175 62.2641 41.6133 62.6997 41.7319C63.1088 41.8373 63.2738 42.1468 63.2474 42.6869C63.221 43.2731 63.0098 43.7605 62.5545 44.1359C62.2179 44.4126 61.8814 44.6892 61.5448 44.9658C61.4327 45.058 61.3007 45.1898 61.1819 45.1832C60.4164 45.17 59.6839 45.6113 58.892 45.2754C58.4037 45.0712 58.1595 44.8802 58.2057 44.5245C58.2585 44.1293 58.5885 43.9318 59.156 44.0437L59.1428 44.0306Z" fill="black"/>
<path d="M75.2181 51.0912C75.1917 51.9541 74.6373 52.4349 73.5419 52.4612C73.0074 52.4744 72.1297 51.6708 72.1165 51.2164C72.0901 50.5511 73.0338 49.4644 73.6079 49.4973C74.5845 49.5566 75.2379 50.1955 75.2181 51.0846V51.0912Z" fill="black"/>
<path d="M63.6235 50.5708C63.5839 50.775 63.5509 51.1833 63.4388 51.5653C63.2474 52.2437 62.2905 52.5467 61.7164 52.112C61.2941 51.7959 60.9641 51.4007 60.8585 50.854C60.7595 50.3666 61.0961 49.6487 61.5646 49.5104C61.8946 49.4116 62.2443 49.3589 62.5875 49.3457C63.3728 49.3194 63.6301 49.5894 63.6301 50.5708H63.6235Z" fill="black"/>
</g>
<g clip-path="url(#clip1_221_319)">
<path d="M18.9381 22.0882C17.5316 22.8328 16.1081 23.5464 14.6429 24.1658L14.9196 24.0484C13.1901 24.7759 11.391 25.3845 9.52391 25.6347L9.83148 25.593C8.89485 25.7151 7.9474 25.7398 7.00922 25.6162L7.3168 25.6579C6.64292 25.5637 5.9845 25.3922 5.35544 25.1312L5.6321 25.2486C5.25188 25.0864 4.88712 24.8918 4.54555 24.6601C4.46208 24.6045 4.38171 24.5442 4.30134 24.4855C4.19006 24.4037 4.52854 24.6678 4.38635 24.5504C4.34462 24.5164 4.30289 24.4824 4.26116 24.4469C4.11123 24.3202 3.96749 24.1859 3.82994 24.0453C3.69238 23.9047 3.56564 23.758 3.44199 23.6082C3.32607 23.4661 3.59037 23.8059 3.51 23.6962C3.48372 23.6607 3.45745 23.6252 3.43117 23.5896C3.36935 23.5047 3.30907 23.4166 3.25188 23.3286C3.04014 23.0042 2.86085 22.6598 2.70783 22.3029L2.8253 22.5794C2.578 21.9878 2.41263 21.3684 2.32607 20.7336L2.3678 21.041C2.28125 20.3644 2.28743 19.6848 2.37399 19.0082L2.33225 19.3156C2.46208 18.3518 2.73875 17.4188 3.11433 16.5229L2.99686 16.7994C3.53936 15.5204 4.26734 14.328 5.09732 13.2143C5.15297 13.1401 5.20861 13.0675 5.26425 12.9934C5.38635 12.8328 5.10041 13.2019 5.27352 12.981C5.3879 12.8358 5.50382 12.6907 5.62128 12.5485C5.84694 12.2736 6.07878 12.0048 6.31525 11.7392C6.74957 11.2526 7.19779 10.7815 7.66301 10.3243C8.12824 9.86705 8.61664 9.41601 9.11433 8.98506C9.36471 8.76726 9.61819 8.5541 9.8763 8.34558C10.0015 8.24363 10.1267 8.14323 10.2534 8.04283C10.3214 7.98877 10.3879 7.93625 10.4559 7.88373C10.4853 7.86056 10.5795 7.78796 10.4404 7.89454C10.2843 8.01503 10.4404 7.89454 10.4775 7.86674C11.5455 7.05271 12.6646 6.30202 13.8222 5.61929C15.1406 4.84233 16.5115 4.15497 17.9227 3.55874L17.646 3.67613C19.0463 3.08762 20.493 2.54854 22.0061 2.34465L21.6986 2.38636C22.3261 2.30604 22.9613 2.28595 23.5904 2.36937L23.2828 2.32766C23.6955 2.3879 24.0973 2.49603 24.4806 2.65821L24.204 2.54082C24.3863 2.6196 24.5641 2.70919 24.7341 2.81422C24.816 2.8652 24.8964 2.9208 24.9752 2.97641C25.0865 3.05364 24.7465 2.78796 24.884 2.9069C24.9227 2.94088 24.9629 2.97332 25.0015 3.0073C25.0649 3.06291 25.1251 3.12315 25.1823 3.18339C25.2163 3.22046 25.2488 3.25753 25.2812 3.29461C25.4064 3.43362 25.1112 3.0521 25.2225 3.21583C25.3245 3.36411 25.4142 3.51394 25.4868 3.67922L25.3693 3.40273C25.4435 3.58345 25.4961 3.77035 25.5239 3.96343L25.4822 3.65605C25.5084 3.8723 25.5038 4.08546 25.4744 4.30171L25.5162 3.99433C25.4667 4.31407 25.3693 4.61836 25.2457 4.91493L25.3632 4.63844C25.0123 5.44938 24.5038 6.19235 24.0247 6.93223C23.5455 7.67212 23.0973 8.33477 22.6151 9.02213C22.1329 9.7095 21.6182 10.4185 21.1004 11.1028C20.9829 11.2588 20.8639 11.4148 20.7449 11.5692C20.7094 11.6156 20.6754 11.6604 20.6398 11.7067C20.6522 11.6913 20.8129 11.4843 20.6939 11.6357C20.6228 11.7268 20.5517 11.8179 20.4822 11.9075C20.2117 12.252 19.9381 12.5949 19.6615 12.9362C17.4791 15.6224 15.1097 18.1587 12.5842 20.5251C12.2534 20.8355 11.918 21.1414 11.5765 21.4379C11.4034 21.5878 11.2287 21.7345 11.051 21.8782C10.9582 21.9539 10.867 22.0326 10.7697 22.1021C10.782 22.0929 11 21.9276 10.8485 22.0404C10.7959 22.0805 10.7449 22.1191 10.6924 22.1578C9.95667 22.7046 9.17151 23.1834 8.32762 23.5417L8.60428 23.4244C8.01541 23.67 7.40799 23.846 6.77584 23.9341L7.08341 23.8924C6.53164 23.9634 5.97522 23.9712 5.42344 23.897L5.73102 23.9387C5.33844 23.8816 4.95668 23.7858 4.59037 23.6313L4.86703 23.7487C4.71865 23.6839 4.57491 23.6113 4.43735 23.5278C4.37089 23.4861 4.30598 23.4413 4.24106 23.3966C4.08032 23.2869 4.47136 23.5927 4.32916 23.463C4.30134 23.4367 4.27043 23.412 4.24261 23.3873C4.18542 23.3348 4.13133 23.2807 4.08032 23.2236C4.05405 23.1958 4.03086 23.1664 4.00459 23.1371C3.89176 23.0073 4.15606 23.3564 4.08805 23.2436C3.99841 23.0953 3.90722 22.9548 3.83612 22.7941L3.95358 23.0706C3.86548 22.859 3.80675 22.6428 3.77584 22.4157L3.81757 22.7231C3.78975 22.479 3.79439 22.2365 3.82684 21.9925L3.78511 22.2999C3.83612 21.9539 3.93967 21.6202 4.07414 21.2989L3.95667 21.5754C4.10042 21.2418 4.27507 20.9236 4.47136 20.6177C4.57028 20.4648 4.67383 20.315 4.78048 20.1683C4.80521 20.1358 4.82994 20.1018 4.85467 20.0694C4.9644 19.9211 4.79284 20.1466 4.78666 20.1559C4.85312 20.0632 4.9304 19.9752 5.00459 19.8871C5.51154 19.2785 6.07569 18.7194 6.67074 18.1973C7.2998 17.6443 7.96131 17.1253 8.61973 16.6109C8.69238 16.5553 8.76347 16.4982 8.83612 16.4426C8.98759 16.3252 8.77893 16.4858 8.76502 16.4982C8.80984 16.4627 8.85621 16.4287 8.90103 16.3932C9.07414 16.2603 9.24725 16.129 9.42035 15.9977C9.76811 15.7351 10.119 15.4772 10.4714 15.2208C13.238 13.2112 16.1406 11.3916 19.1483 9.76819C20.8686 8.83986 22.6244 7.94706 24.4234 7.17937L24.1468 7.29677C24.6089 7.10369 25.0803 6.93687 25.5795 6.86581L25.272 6.90752C25.5285 6.87663 25.782 6.87508 26.0386 6.90752L25.731 6.86581C25.9505 6.8998 26.1622 6.96004 26.3678 7.04499L26.0911 6.9276C26.221 6.98475 26.3477 7.05117 26.4667 7.12686C26.527 7.16393 26.5811 7.20872 26.6414 7.24734C26.3446 7.06044 26.4992 7.13612 26.5718 7.19791C26.68 7.28904 26.7805 7.3879 26.8763 7.49294C26.9242 7.54545 26.9706 7.59797 27.017 7.65358C27.0401 7.68138 27.0618 7.70919 27.0834 7.73699C26.9629 7.57944 26.9289 7.53619 26.9829 7.60878C27.3122 8.06909 27.5656 8.56646 27.7882 9.08701L27.6707 8.81052C28.0865 9.79908 28.3632 10.8371 28.5054 11.8998L28.4636 11.5924C28.6151 12.7632 28.6043 13.9464 28.4482 15.1157L28.4899 14.8084C28.3091 16.112 27.952 17.3833 27.4404 18.5974L27.5579 18.3209C27.153 19.2724 26.6568 20.1837 26.0788 21.0425C25.9489 21.2341 25.816 21.424 25.68 21.6109C25.6228 21.6897 25.5641 21.767 25.5069 21.8442C25.4574 21.9091 25.3153 22.079 25.5455 21.7948C25.4961 21.855 25.4497 21.9168 25.4003 21.9786C25.105 22.3477 24.7975 22.7046 24.476 23.049C23.8346 23.7379 23.1437 24.382 22.4142 24.9783C22.3199 25.0555 22.2256 25.1312 22.1298 25.2069C22.0819 25.2439 22.034 25.281 21.986 25.3196C22.2673 25.0941 22.0896 25.2393 22.0262 25.2872C21.8315 25.4355 21.6336 25.5791 21.4343 25.7212C21.0324 26.0055 20.6213 26.2758 20.2009 26.5322C19.2503 27.1145 18.255 27.6242 17.2287 28.0598L17.5054 27.9424C16.136 28.5186 14.6846 29.0144 13.2086 29.2245L13.5162 29.1828C12.9845 29.2538 12.4497 29.2755 11.918 29.2059L12.2256 29.2477C11.8748 29.1967 11.5378 29.104 11.2102 28.9681L11.4868 29.0855C11.1962 28.9603 10.9304 28.8028 10.6707 28.6236C10.5069 28.5109 10.9088 28.8198 10.6785 28.6282C10.6352 28.5912 10.5904 28.5541 10.5486 28.5155C10.4358 28.4135 10.3292 28.307 10.2272 28.1957C10.1761 28.1401 10.1282 28.083 10.0803 28.0258C9.89176 27.7972 10.204 28.2004 10.0911 28.0397C10.0216 27.9424 9.95358 27.8436 9.89021 27.7416C9.74802 27.513 9.62592 27.2736 9.52082 27.0265L9.63828 27.3029C9.46672 26.8859 9.35235 26.4519 9.28898 26.0054L9.33071 26.3128C9.25343 25.732 9.2627 25.1482 9.33998 24.5689L9.29825 24.8763C9.4049 24.1133 9.62437 23.3734 9.92267 22.6644L9.80521 22.9409C10.1499 22.133 10.5935 21.3684 11.1128 20.6595C11.1684 20.5838 11.3972 20.3057 11.1483 20.6069C11.2117 20.5297 11.2735 20.4494 11.3369 20.3706C11.4899 20.1837 11.6491 19.9999 11.8129 19.8207C12.1205 19.4855 12.4482 19.1689 12.7867 18.8646C12.9598 18.7086 13.1375 18.5572 13.3168 18.4089C13.3987 18.3409 13.4806 18.2745 13.5641 18.2081C13.6136 18.1679 13.6646 18.1293 13.714 18.0892C13.901 17.9409 13.4914 18.2575 13.6816 18.1139C14.0664 17.825 14.4574 17.5455 14.8593 17.2798C15.6646 16.7484 16.5038 16.268 17.3616 15.8263C18.34 15.3212 19.3415 14.8655 20.3554 14.4376L20.0788 14.555C21.1452 14.1055 22.2225 13.6869 23.306 13.2807C24.5084 12.8297 25.731 12.4064 27.0092 12.2319L26.7016 12.2736C27.3987 12.184 28.0989 12.1778 28.7975 12.2705L28.4899 12.2288C29.1499 12.3215 29.7913 12.496 30.4049 12.754L30.1282 12.6366C30.5378 12.8127 30.9319 13.0212 31.3029 13.2668C31.391 13.3255 31.4775 13.3842 31.5625 13.446C31.6043 13.4769 31.646 13.5093 31.6893 13.5402C31.5316 13.4166 31.4868 13.3827 31.5579 13.4398C31.578 13.4552 31.5981 13.4722 31.6197 13.4892C31.7882 13.6252 31.9489 13.7688 32.1035 13.9202C32.2581 14.0716 32.4018 14.226 32.5409 14.3882C32.6089 14.4685 32.8222 14.7713 32.5826 14.4315C32.6414 14.5149 32.7032 14.5936 32.7604 14.6786C32.9984 15.0246 33.1993 15.3922 33.3632 15.7784L33.2457 15.5019C33.4559 16.0054 33.5919 16.5306 33.6676 17.0713L33.6259 16.7639C33.7171 17.4497 33.7078 18.1401 33.6182 18.826L33.6599 18.5186C33.5363 19.4176 33.2797 20.2887 32.9304 21.1259L33.0479 20.8494C32.6259 21.8426 32.0772 22.7787 31.4374 23.6468C31.3987 23.6993 31.3585 23.7518 31.3199 23.8043C31.2998 23.8306 31.2812 23.8584 31.2596 23.8831C31.2519 23.8924 31.4188 23.6808 31.34 23.7781C31.2503 23.8893 31.1622 24.0021 31.071 24.1117C30.8964 24.3218 30.7171 24.5272 30.5332 24.728C30.17 25.1235 29.7913 25.505 29.3972 25.8695C29.003 26.2341 28.5857 26.5924 28.1622 26.9322C28.051 27.0218 27.9412 27.113 27.8268 27.1964C27.816 27.2041 28.0309 27.0404 27.9304 27.116C27.9041 27.1361 27.8778 27.1562 27.8516 27.1763C27.7897 27.2226 27.7295 27.269 27.6676 27.3153C27.4466 27.4806 27.2225 27.6412 26.9969 27.8003C26.085 28.4398 25.136 29.0268 24.1653 29.5751C23.0386 30.2115 21.8856 30.8294 20.6924 31.3345L20.969 31.2171C20.3245 31.4858 19.6599 31.7113 18.9675 31.8118L19.2751 31.77C18.8778 31.8226 18.4822 31.8318 18.085 31.7793L18.3925 31.821C18.0973 31.7762 17.8145 31.6974 17.5394 31.5831L17.816 31.7005C17.5347 31.5785 17.2905 31.4179 17.0386 31.2464C17.3539 31.4611 17.1298 31.3144 17.0587 31.2526C17.003 31.2047 16.9489 31.1537 16.8964 31.1028C16.7975 31.007 16.7032 30.9066 16.6136 30.8016C16.5718 30.7537 16.5332 30.7012 16.4914 30.6533C16.7449 30.9406 16.5641 30.7475 16.51 30.6703C16.4265 30.5529 16.3493 30.4324 16.2751 30.3088C16.136 30.074 16.0123 29.83 15.9057 29.5797L16.0231 29.8562C15.7975 29.3202 15.6476 28.7595 15.5687 28.1849L15.6105 28.4923C15.5239 27.8328 15.5301 27.167 15.6182 26.5075L15.5765 26.8148C15.6816 26.0533 15.8918 25.315 16.1916 24.6075L16.0741 24.884C16.2766 24.4129 16.5162 23.9573 16.7913 23.5232C16.9319 23.3008 17.085 23.0876 17.2411 22.876C17.3044 22.788 17.1483 22.9934 17.1499 22.9934C17.1545 22.9934 17.1993 22.9301 17.2055 22.9239C17.2488 22.8698 17.2921 22.8158 17.3369 22.7632C17.4265 22.6567 17.5177 22.5501 17.6105 22.4466C17.9582 22.062 18.3353 21.7052 18.7357 21.3793C18.782 21.3406 18.8531 21.302 18.8902 21.2557C18.9026 21.2402 18.6723 21.4225 18.7681 21.3499C18.7913 21.3329 18.8129 21.3159 18.8361 21.2989C18.9428 21.2186 19.051 21.1414 19.1591 21.0657C19.3709 20.919 19.5873 20.7784 19.8083 20.6455C20.3122 20.3428 20.8361 20.0787 21.3771 19.8485L21.1004 19.9659C22.1483 19.5257 23.2488 19.2214 24.3755 19.0654L24.068 19.1071C25.0664 18.9727 26.0772 18.9573 27.0772 19.0886L26.7697 19.0468C27.4698 19.1426 28.1684 19.3033 28.8253 19.572L28.5486 19.4546C28.8377 19.5767 29.0911 19.7327 29.3539 19.8995C29.0463 19.7033 29.2503 19.8207 29.3276 19.8933C29.3786 19.9412 29.4204 20.0014 29.4729 20.0478C29.3477 19.8794 29.3183 19.8423 29.3863 19.9366C29.4064 19.9644 29.425 19.9937 29.442 20.0231C29.4775 20.0818 29.5069 20.142 29.5347 20.2053L29.4173 19.9288C29.4621 20.0416 29.493 20.1544 29.51 20.2748L29.4683 19.9675C29.4822 20.091 29.4822 20.213 29.4683 20.3382L29.51 20.0308C29.4884 20.1868 29.4466 20.3335 29.3879 20.4787L29.5054 20.2022C29.4497 20.3304 29.3848 20.454 29.3106 20.5714C29.2735 20.6301 29.2349 20.6857 29.1947 20.7413C29.1406 20.817 29.0401 20.8973 29.2627 20.6548C29.2318 20.6873 29.2055 20.7243 29.1761 20.7599C28.9598 21.0147 28.7171 21.2495 28.4683 21.4735C27.9675 21.9261 27.4281 22.3369 26.9381 22.8034C25.8593 23.8291 25.0293 25.1605 24.6306 26.597C24.2658 27.9115 24.2457 29.399 24.7635 30.6764C25.3168 32.0404 26.3013 33.1401 27.5734 33.8847C29.0139 34.7265 30.7418 35.1003 32.4033 34.9875C32.7125 34.9659 32.9984 34.8732 33.2225 34.6477C33.4234 34.4469 33.5749 34.1164 33.5625 33.8291C33.5363 33.2359 33.051 32.6273 32.4033 32.6706C31.8809 32.7061 31.3585 32.6907 30.8392 32.6258L31.1468 32.6675C30.4976 32.5794 29.8639 32.4142 29.2596 32.1624L29.5363 32.2798C29.1978 32.1361 28.8686 31.9678 28.5579 31.7716C28.4142 31.6805 28.2751 31.5816 28.1375 31.4812C28.0278 31.3993 28.3663 31.665 28.2256 31.5476C28.1916 31.5198 28.1576 31.492 28.1236 31.4627C28.0571 31.4055 27.9907 31.3468 27.9258 31.2881C27.8052 31.1754 27.6877 31.058 27.578 30.9344C27.5208 30.8695 27.4652 30.8031 27.4095 30.7367C27.2936 30.5977 27.5564 30.9406 27.4791 30.8294C27.4544 30.7938 27.4281 30.7599 27.4033 30.7259C27.2055 30.4478 27.0386 30.1482 26.9041 29.8346L27.0216 30.1111C26.8562 29.7126 26.7465 29.2986 26.6893 28.8708L26.731 29.1781C26.6723 28.7055 26.6769 28.2313 26.7372 27.7586L26.6955 28.066C26.7727 27.5007 26.9258 26.9523 27.1452 26.4256L27.0278 26.7021C27.2302 26.2232 27.4822 25.7676 27.782 25.3428C27.816 25.2949 27.85 25.247 27.8856 25.1991C27.9026 25.176 27.9211 25.1513 27.9397 25.1281C28.0231 25.0153 27.7774 25.3304 27.8686 25.2223C27.9598 25.1142 28.0463 25.0061 28.1391 24.901C28.3152 24.7033 28.5007 24.5164 28.6955 24.3388C29.5347 23.5711 30.4435 22.9115 31.1375 21.9987C31.51 21.509 31.7264 20.9498 31.7913 20.3413C31.8686 19.6261 31.5703 18.948 31.1143 18.4135C30.6584 17.8791 30.0556 17.5933 29.4435 17.3416C28.9891 17.1547 28.51 17.0218 28.0293 16.9245C25.8948 16.4905 23.6445 16.6696 21.5749 17.3338C19.4621 18.0119 17.4451 19.1781 15.9536 20.8386C14.4621 22.4991 13.442 24.6554 13.2581 26.9384C13.0911 29.0098 13.748 31.2773 15.2642 32.7494C16.2132 33.6715 17.4868 34.1967 18.8176 34.1395C20.2318 34.0793 21.5517 33.5263 22.8067 32.9146C24.9613 31.8658 27.0618 30.6703 28.9768 29.2245C30.9675 27.7215 32.7789 25.9838 34.105 23.8538C35.3137 21.9106 36.1591 19.5689 36.0015 17.2535C35.9258 16.1275 35.6445 15.0478 35.0989 14.0546C34.6244 13.1896 33.9582 12.4049 33.1839 11.7948C32.2982 11.0966 31.3199 10.5652 30.2333 10.2439C29.1468 9.92266 28.003 9.81916 26.8918 9.94428C25.4868 10.1018 24.1591 10.5143 22.8392 11.0054C21.7187 11.4225 20.6043 11.855 19.5023 12.3184C17.2704 13.2575 15.0695 14.3048 13.088 15.7089C11.1066 17.113 9.42035 18.7317 8.27661 20.8247C7.23643 22.7277 6.65065 24.9721 7.15142 27.1253C7.39717 28.1772 7.94276 29.172 8.69392 29.9474C9.62901 30.9128 10.867 31.458 12.1993 31.5646C12.9103 31.6202 13.6352 31.5214 14.3323 31.3885C14.9273 31.2742 15.5146 31.1136 16.0927 30.9344C17.2241 30.5838 18.3307 30.1389 19.3972 29.6245C21.4451 28.6391 23.3508 27.3354 25.0216 25.7954C26.6924 24.2554 28.0788 22.5099 29.0896 20.5312C30.2148 18.3317 30.8794 15.8927 30.9026 13.4151C30.9134 12.2365 30.7727 11.041 30.4837 9.8964C30.3523 9.37894 30.187 8.87076 29.986 8.37647C29.765 7.83121 29.5332 7.28287 29.2194 6.7824C28.5935 5.78611 27.6398 4.87632 26.442 4.66161C25.68 4.52414 24.9211 4.5921 24.1854 4.83307C23.5038 5.0555 22.8516 5.37215 22.2009 5.67335C19.9459 6.71907 17.7403 7.87137 15.5966 9.12871C13.4574 10.3814 11.3771 11.7376 9.36935 13.1942C8.3168 13.9573 7.2828 14.7466 6.26889 15.5606C5.35235 16.2958 4.45436 17.0496 3.66919 17.927C2.85621 18.8352 2.13596 19.8392 1.73565 21.0008C1.36162 22.0852 1.40644 23.3471 2.03705 24.3311C3.3168 26.3298 6.08187 26.5723 8.19006 26.0302C10.6027 25.4108 12.5873 23.7317 14.3585 22.062C16.1962 20.3304 17.9505 18.5109 19.612 16.6079C21.2843 14.6925 22.8624 12.6922 24.3369 10.6208C25.0479 9.62145 25.7326 8.60508 26.391 7.57017C26.731 7.03418 27.0788 6.49819 27.3384 5.9174C27.6429 5.23776 27.8948 4.49942 27.8253 3.74101C27.7094 2.47286 26.9567 1.44258 25.8732 0.798466C24.7897 0.154351 23.4868 -0.0649874 22.2503 0.0168785C20.8948 0.106468 19.5811 0.464824 18.3122 0.934395C17.1205 1.37616 15.9489 1.88589 14.8098 2.45123C12.6537 3.52167 10.6336 4.8238 8.73875 6.30665C6.84385 7.78951 5.23179 9.34959 3.78511 11.1537C2.2117 13.1154 0.823754 15.3335 0.258066 17.8127C-0.23807 19.986 -0.046416 22.3045 1.09887 24.2507C2.24725 26.2016 4.24879 27.4929 6.4729 27.859C8.86239 28.2514 11.2843 27.8111 13.5564 27.0419C15.8284 26.2727 17.9953 25.2115 20.1112 24.0901C20.6476 23.8059 20.8562 23.0166 20.527 22.5053C20.1746 21.96 19.5146 21.7855 18.9412 22.0898L18.9381 22.0882Z" fill="#231815"/>
</g>
<defs>
<clipPath id="clip0_221_319">
<rect width="67" height="133" fill="white" transform="translate(36 23)"/>
</clipPath>
<clipPath id="clip1_221_319">
<rect width="36" height="35" fill="white"/>
</clipPath>
</defs>
</svg>
