<svg width="89" height="157" viewBox="0 0 89 157" fill="none" xmlns="http://www.w3.org/2000/svg">
<g clip-path="url(#clip0_221_299)">
<path d="M33.0687 48.0584C33.1266 48.1041 33.1846 48.1889 33.2554 48.2019C33.732 48.2867 34.2085 48.3519 34.5563 48.7563C34.5756 48.7824 34.64 48.7759 34.6786 48.7694C35.606 48.5215 36.4045 48.9259 37.2159 49.2782C37.4606 49.3825 37.7247 49.4347 37.9758 49.526C38.1368 49.5847 38.2849 49.663 38.4395 49.7413C38.7164 49.8782 38.9933 50.0152 39.2574 50.1652C40.204 50.7001 41.228 51.1241 41.8591 52.109C42.0587 52.4156 42.3227 52.6895 42.5803 52.9504C42.6512 53.0222 42.8186 53.0156 42.941 53.0287C43.3724 53.0744 43.5978 53.3222 43.791 53.7136C44.0035 54.1506 44.3255 54.5354 44.6089 54.9333C44.654 54.9985 44.7828 55.0312 44.8021 55.1029C45.0146 55.9313 45.8775 56.2835 46.1738 57.0467C46.1931 57.0988 46.2446 57.151 46.2446 57.2032C46.2897 57.6728 46.5988 57.9794 46.85 58.3447C47.0882 58.6904 47.1333 59.173 47.2621 59.597C47.3329 59.8318 47.4038 60.0601 47.4682 60.2949C47.5261 60.5037 47.6099 60.7124 47.6099 60.9211C47.6099 61.6256 47.6678 62.3039 48.022 62.9497C48.2345 63.3345 48.286 63.7715 48.0413 64.1955C47.9898 64.2868 48.0091 64.4368 48.022 64.5608C48.0413 64.763 48.1186 64.9587 48.1186 65.1543C48.1057 65.9501 48.1057 66.7524 48.022 67.5482C47.9769 67.9591 47.7515 68.357 47.6227 68.7614C47.5261 69.0614 47.436 69.3615 47.3651 69.668C47.3523 69.7267 47.4295 69.8246 47.4811 69.8767C48.1315 70.4899 48.0091 71.2596 47.8868 72.0162C47.861 72.1858 47.6871 72.4141 47.5326 72.4728C47.1269 72.6293 47.114 72.9424 47.1269 73.2816C47.1397 73.7251 47.0496 74.1491 46.6181 74.3513C46.0707 74.6057 45.4976 74.8014 44.9566 75.0101C44.7699 75.6558 44.6024 76.3472 44.3706 77.0125C44.2805 77.2669 44.0422 77.4626 43.8619 77.6974C44.0937 78.2519 44.3642 78.9041 44.6475 79.5564C44.7119 79.6999 44.8214 79.8434 44.9502 79.9347C45.401 80.2478 45.5749 80.7435 45.3817 81.2523C45.343 81.3566 45.2722 81.4871 45.3044 81.5719C45.562 82.2242 45.1885 82.6742 44.8472 83.1373C44.3448 83.8287 43.8168 84.5006 43.3338 85.2115C43.0182 85.6747 42.8186 86.2291 42.4773 86.6661C42.0523 87.2205 41.5371 87.6967 41.0541 88.2054C40.8287 88.4403 40.5904 88.6686 40.3521 88.8968C39.9271 89.3013 39.4892 89.66 38.9611 89.9405C38.6327 90.1101 38.491 90.6449 38.2721 91.0232C38.0724 91.3689 37.8792 91.7146 37.6925 92.0669C37.6088 92.2234 37.4928 92.406 37.5057 92.5691C37.5315 93.0909 37.6281 93.6127 37.6667 94.1411C37.6925 94.5846 37.6667 95.0282 37.6667 95.2695C38.0596 95.6217 38.3107 95.8957 38.6069 96.0979C38.974 96.3523 39.3797 96.5545 39.7726 96.7762C39.7983 96.7893 39.8305 96.7762 39.8563 96.7958C40.365 97.135 40.8802 97.4742 41.3825 97.8264C41.917 98.2047 42.4322 98.6091 42.9603 98.9939C43.0376 99.0526 43.1599 99.0592 43.2308 99.1179C43.7202 99.5484 44.1967 99.9854 44.6797 100.416C44.815 100.54 44.976 100.638 45.1112 100.762C45.2464 100.886 45.4396 101.003 45.4847 101.159C45.6199 101.61 45.9033 101.766 46.3412 101.76C46.792 101.76 47.1269 101.988 47.4553 102.314C47.8288 102.679 48.3054 102.927 48.7368 103.227C48.8399 103.299 48.9622 103.351 49.0653 103.436C49.6577 103.919 50.2631 104.382 50.8298 104.897C51.0165 105.067 51.1003 105.354 51.2355 105.588C51.3514 105.791 51.4351 106.019 51.5897 106.188C51.8666 106.495 52.1757 106.762 52.4784 107.049C52.4977 107.069 52.5235 107.095 52.5299 107.115C52.6716 107.676 52.8583 108.23 52.9292 108.804C53.0065 109.443 52.9807 110.089 53 110.735C53 110.878 53.0193 111.028 52.9807 111.165C52.7746 111.948 52.5492 112.724 52.3367 113.507C52.3045 113.631 52.253 113.774 52.2852 113.885C52.4526 114.414 52.1886 114.824 52.0083 115.288C51.7507 115.953 51.5832 116.651 51.3643 117.329C50.9779 118.542 50.8105 119.847 49.9797 120.884C49.9411 120.936 49.9153 121.028 49.9346 121.086C50.16 121.758 49.7736 122.117 49.2907 122.436C49.2327 122.476 49.1812 122.528 49.1039 122.586C49.1425 122.652 49.1683 122.717 49.2069 122.769C49.6449 123.382 49.5998 123.963 48.9815 124.374C48.5436 124.667 48.4084 125.006 48.3182 125.509C48.1894 126.193 48.0542 126.898 47.6099 127.511C47.3329 127.896 47.2492 128.437 47.1269 128.92C47.0367 129.285 46.8886 129.579 46.5344 129.709C46.2832 129.8 46.2575 129.937 46.3219 130.172C46.3927 130.42 46.4571 130.681 46.4571 130.942C46.4571 131.19 46.4571 131.516 46.309 131.679C45.6779 132.41 45.4589 133.29 45.2657 134.242C45.6521 134.392 46.045 134.542 46.4314 134.712C47.1848 135.038 47.4875 135.593 47.3394 136.408C47.2814 136.747 47.1333 137.067 47.056 137.406C46.9337 137.947 46.8564 138.495 46.7276 139.03C46.6696 139.271 46.6117 139.552 46.4571 139.728C46.045 140.217 46.1351 140.765 46.1738 141.32C46.2253 141.998 46.2961 142.676 46.367 143.361C46.3992 143.642 46.4378 143.922 46.4893 144.203C46.5086 144.313 46.6374 144.418 46.6246 144.516C46.5602 145.161 46.7662 145.755 46.9079 146.368C47.1075 147.223 47.0109 148.155 47.6099 148.892C47.6807 148.977 47.7451 149.114 47.7322 149.212C47.6421 149.727 47.8417 150.047 48.2474 150.38C48.6789 150.732 48.6209 151.893 48.2023 152.278C47.7966 152.649 47.3394 152.963 46.895 153.289C46.8435 153.328 46.7598 153.354 46.6954 153.347C46.367 153.308 46.1222 153.504 45.8389 153.608C45.4074 153.765 45.0404 153.941 44.7248 154.28C44.654 154.358 44.4801 154.404 44.3642 154.384C43.5205 154.234 42.9023 154.782 42.2068 155.082C42.1167 155.122 42.0329 155.2 41.9428 155.219C41.2344 155.337 40.5196 155.435 39.8112 155.565C39.515 155.624 39.238 155.767 38.9418 155.852C38.6907 155.924 38.4009 156.08 38.1755 156.009C37.4735 155.8 36.9197 156.211 36.3015 156.348C36.0696 156.4 35.8378 156.472 35.606 156.485C35.1681 156.511 34.7301 156.524 34.2987 156.485C33.6418 156.439 32.9978 156.517 32.3603 156.654C32.1027 156.707 31.8387 156.739 31.5939 156.83C31.0466 157.026 30.5249 157.157 30.0226 156.713C29.9389 156.635 29.7457 156.667 29.604 156.674C29.2756 156.674 28.9472 156.687 28.6187 156.713C28.3933 156.733 28.1679 156.759 27.9425 156.804C27.6141 156.876 27.2921 157.026 26.9701 157.033C26.5193 157.039 26.0621 156.974 25.6242 156.883C25.3151 156.817 25.0189 156.674 24.7226 156.55C24.3813 156.406 24.0593 156.224 23.6987 156.537C23.338 156.857 22.913 156.837 22.4815 156.687C22.0372 156.53 21.6122 156.465 21.1163 156.556C20.7428 156.622 20.292 156.406 19.9185 156.224C19.3518 155.943 18.7851 155.969 18.2248 156.139C17.6903 156.302 16.763 156.191 16.441 155.735C16.119 155.272 15.7197 155.356 15.3591 155.5C14.9405 155.663 14.5798 155.676 14.1677 155.5C13.8972 155.382 13.5881 155.369 13.2983 155.291C12.152 154.978 11.0057 154.658 9.85943 154.345C9.82079 154.332 9.7564 154.332 9.73708 154.306C9.32493 153.576 8.31387 153.908 7.87596 153.217C7.84376 153.165 7.72784 153.152 7.65056 153.152C7.35433 153.145 7.0581 153.178 6.7683 153.145C6.04704 153.06 5.79589 152.571 6.15652 151.919C6.32395 151.619 6.44631 151.364 6.36259 151.006C6.32395 150.836 6.39479 150.575 6.51071 150.438C7.0581 149.779 7.15469 148.997 7.19333 148.188C7.19977 148.005 7.29637 147.829 7.32857 147.647C7.41229 147.183 7.48313 146.72 7.55397 146.251C7.57328 146.12 7.54109 145.944 7.61192 145.872C7.95968 145.52 7.818 145.103 7.818 144.698C7.818 144.157 7.92748 143.635 8.28167 143.198C8.4813 142.95 8.53926 142.696 8.33319 142.409C8.01763 141.965 7.98544 141.509 8.27523 141.033C8.47486 140.706 8.5135 140.4 8.41691 139.982C8.31387 139.539 8.45555 139.017 8.58434 138.56C8.66162 138.286 8.71314 138.084 8.6101 137.791C8.46198 137.367 8.44911 136.897 8.37827 136.486C7.86952 136.434 7.34789 136.408 6.84558 136.317C6.29819 136.212 5.75725 136.049 5.2163 135.886C4.70755 135.736 4.1988 135.573 3.70293 135.377C3.36162 135.24 3.04607 135.038 2.7112 134.888C2.50512 134.797 2.27329 134.686 2.06077 134.712C1.39103 134.797 0.76636 134.406 0.547404 133.76C0.495886 133.603 0.29625 133.505 0.193213 133.362C0.109494 133.251 0.00645674 133.101 0.0193364 132.984C0.103055 132.344 0.206092 131.718 0.0322162 131.079C0.00645674 130.968 -0.0128628 130.838 0.0128966 130.733C0.167453 130.198 0.341329 129.67 0.508765 129.135C0.540965 129.031 0.618243 128.887 0.579604 128.816C0.28337 128.255 0.405728 127.713 0.656882 127.191C0.940235 126.604 0.586044 125.985 0.772799 125.411C1.03683 124.589 0.972435 123.741 1.01751 122.906C1.02395 122.789 1.04971 122.658 1.00463 122.56C0.75348 122.025 0.927356 121.523 1.04971 121.001C1.12055 120.701 1.04971 120.356 1.13343 120.062C1.26223 119.625 1.40391 119.195 1.36527 118.725C1.34595 118.503 1.33951 118.275 1.36527 118.053C1.39103 117.786 1.42322 117.512 1.50694 117.264C1.64218 116.853 1.85469 116.462 1.59066 116.025C1.54558 115.946 1.5327 115.822 1.55202 115.731C1.73234 114.759 1.87401 113.781 2.12517 112.835C2.24109 112.378 2.13805 111.987 2.07365 111.57C2.03501 111.315 2.00925 111.061 1.99637 110.806C1.98993 110.519 1.99637 110.232 2.01569 109.945C2.01569 109.828 2.02857 109.711 2.06721 109.606C2.3248 108.817 2.5824 108.028 2.86575 107.252C3.12979 106.508 3.5677 105.875 4.06356 105.262C4.65603 104.525 5.3773 103.964 6.1372 103.436C6.35615 103.286 6.51071 103.038 6.7039 102.849C7.25773 102.294 7.83732 101.799 8.6423 101.668C8.65518 101.668 8.6745 101.668 8.68094 101.655C9.25409 101.231 9.81435 100.781 10.4068 100.39C10.8769 100.077 11.1925 99.4766 11.8751 99.5549C11.9137 99.5549 11.9717 99.5418 11.991 99.5158C12.4032 98.9809 13.0278 98.8765 13.601 98.6482C14.1613 98.4199 14.67 98.0612 15.1981 97.7481C15.2818 97.7024 15.3526 97.6177 15.4041 97.5329C15.8936 96.7241 16.5955 96.2479 17.5293 96.1109C17.6581 96.0914 17.7676 95.9413 17.8835 95.8435C18.0767 95.6804 18.2506 95.4195 18.4695 95.3673C19.0491 95.2304 19.3647 94.7868 19.7639 94.4215C19.9893 94.2128 20.2791 94.0824 20.5303 93.9063C20.9939 93.5932 21.4512 93.2801 21.9084 92.9605C21.9406 92.9409 21.9599 92.8887 21.9599 92.8496C22.0501 92.0864 22.1209 91.3233 22.2304 90.5667C22.2884 90.1688 22.4236 89.7905 22.4815 89.3926C22.5459 88.9686 22.488 88.5381 22.7585 88.1467C22.9066 87.938 22.8873 87.6575 22.5202 87.5532C22.2819 87.4814 22.0694 87.3053 21.8504 87.1814C20.9875 86.6987 20.1052 86.2356 19.2616 85.7203C18.8559 85.4659 18.5146 85.1137 17.993 85.1007C17.9157 85.1007 17.8127 85.0354 17.774 84.9702C17.452 84.4027 16.9046 84.0896 16.4474 83.6722C16.2027 83.4504 16.1447 83.0264 15.9644 82.609C15.3848 82.5959 15.1788 82.1524 15.0435 81.5001C14.934 80.9718 14.567 80.5022 14.3351 79.9934C14.1613 79.6216 14.0131 79.2433 13.8779 78.8585C13.8199 78.7019 13.8908 78.4736 13.8006 78.3497C13.4722 77.9062 13.3241 77.4365 13.3305 76.8821C13.3305 76.4451 13.2404 76.0146 13.1888 75.5776C13.1695 75.4341 13.1631 75.2971 13.1502 75.1536C13.118 74.7231 12.9506 74.5078 12.4869 74.6905C12.3839 74.7296 12.2357 74.6774 12.1134 74.6579C11.8944 74.6252 11.6755 74.6057 11.463 74.5535C11.1989 74.4883 10.8512 74.4687 10.6966 74.2926C10.2523 73.7773 9.85943 73.2033 9.50524 72.6163C9.38932 72.4271 9.4344 72.1336 9.41508 71.8857C9.4022 71.7227 9.42152 71.5466 9.38288 71.39C9.27341 70.9986 9.33137 70.666 9.60184 70.3399C9.89807 69.9811 10.1621 69.5832 10.3875 69.1723C10.4648 69.0353 10.3617 68.807 10.3746 68.6244C10.4261 67.9852 10.5227 67.346 10.5421 66.7067C10.5549 66.3871 10.3939 66.061 10.3939 65.7349C10.3939 65.4218 10.4841 65.1087 10.5292 64.7891C10.5871 64.4303 10.6129 64.0585 10.7031 63.7063C10.8705 63.054 10.9156 62.3692 11.3342 61.7821C11.4823 61.5734 11.4823 61.2538 11.5209 60.9733C11.5402 60.8363 11.4758 60.6733 11.5209 60.5493C11.7141 60.0275 11.9395 59.5188 12.1391 58.9969C12.4161 58.2729 12.6736 57.5489 12.9441 56.8249C12.9956 56.6944 13.0729 56.5705 13.1502 56.4531C13.4014 56.0683 13.6332 55.6508 13.9294 55.3051C14.3416 54.8159 14.7859 54.3593 15.2496 53.9223C16.1769 53.0613 17.2459 52.3699 18.1024 51.4045C18.5275 50.9284 19.1908 50.6479 19.7768 50.3414C20.6913 49.8587 21.6315 49.4217 22.5653 48.9781C22.7005 48.9129 22.8937 48.8477 23.0161 48.8998C23.4346 49.0825 23.7438 48.9064 24.0786 48.6846C24.4779 48.4237 24.9029 48.2084 25.4181 47.9149C25.167 47.5627 24.9416 47.1713 24.6389 46.8452C24.4006 46.5843 24.2525 46.3364 24.2396 45.9777C24.2396 45.8146 24.098 45.6059 23.9563 45.5146C23.6407 45.2993 23.5119 45.0384 23.4797 44.6536C23.454 44.2753 23.2736 43.9035 23.2543 43.5252C23.2286 43.0164 23.293 42.5011 23.3252 41.9923C23.3252 41.9336 23.3638 41.8554 23.338 41.8227C22.8293 41.2096 23.1899 40.5704 23.3767 40.0029C23.5441 39.5007 23.4604 38.868 23.9885 38.5027C24.0786 38.444 24.0851 38.2679 24.1559 38.1635C24.2718 37.9874 24.3942 37.8178 24.5294 37.6613C24.6582 37.5113 24.8063 37.3873 24.9545 37.2504C25.0446 37.1656 25.1348 37.0547 25.2442 36.996C25.5984 36.8003 25.9719 36.6372 26.3261 36.435C26.5451 36.3111 26.7254 36.1219 26.9379 35.9915C27.1054 35.8936 27.3179 35.7501 27.4724 35.7828C27.8073 35.8545 28.0134 35.698 28.2388 35.5153C28.5093 35.3001 28.799 35.1631 29.1468 35.3196C29.1854 35.3392 29.2434 35.3718 29.2692 35.3588C29.765 35.0522 30.2609 35.1305 30.7632 35.3196C30.8212 35.3392 30.9049 35.3131 30.9693 35.2805C32.0447 34.7652 32.9399 35.2088 33.8028 35.8219C33.893 35.8871 34.0153 35.8936 34.1119 35.9458C34.3438 36.0632 34.5692 36.1937 34.7945 36.3241C34.8911 36.3828 34.962 36.4937 35.0586 36.5198C35.5223 36.6307 35.6446 36.9634 35.7026 37.3873C35.7219 37.5504 35.8056 37.733 35.9086 37.8635C36.3208 38.3657 36.5848 38.868 36.514 39.592C36.4689 40.029 36.3208 40.4986 36.5526 41.0009C36.675 41.2618 36.456 41.764 36.2564 42.0706C35.7541 42.8272 35.6575 43.7274 35.3033 44.5101C34.9233 45.358 34.801 46.4278 33.8608 46.9757C33.732 47.0474 33.6418 47.1974 33.5517 47.3279C33.3842 47.5757 33.2361 47.8301 33.0429 48.1302L33.0687 48.0584Z" fill="black"/>
<path d="M30.3447 99.2614C30.6409 99.3201 30.9049 99.3593 31.1625 99.418C31.3815 99.4636 31.4716 99.581 31.4845 99.8419C31.5231 100.586 31.6262 101.323 31.6648 102.066C31.6841 102.464 31.6004 102.868 31.6069 103.273C31.6069 103.827 31.4781 104.362 31.4201 104.91C31.3879 105.217 31.5489 105.536 31.6004 105.856C31.6262 105.999 31.6133 106.162 31.5875 106.306C31.4781 106.867 31.3235 107.395 31.5103 108.002C31.6262 108.38 31.4587 108.85 31.4072 109.274C31.3879 109.417 31.3042 109.554 31.3171 109.691C31.375 110.611 31.4265 111.531 31.5296 112.444C31.6391 113.481 31.7936 114.518 31.9353 115.555C31.9417 115.614 31.9675 115.679 31.9482 115.725C31.5038 116.723 32.1414 117.688 32.0319 118.699C31.9611 119.364 32.2637 120.062 32.3474 120.754C32.3925 121.132 32.3024 121.53 32.3217 121.915C32.341 122.28 32.3024 122.723 32.4956 122.978C32.882 123.487 32.7532 124.021 32.721 124.537C32.6952 124.961 32.7016 125.339 32.8369 125.757C33.146 126.709 33.3456 127.7 33.6354 128.659C33.7964 129.187 33.79 129.755 34.1699 130.238C34.4018 130.531 34.434 130.981 34.6014 131.51C34.1248 131.366 33.7513 131.236 33.3714 131.151C33.1074 131.092 32.8111 131.014 32.5664 131.086C32.2058 131.183 32.1092 131.046 32.1221 130.74C32.1349 130.485 32.1671 130.185 31.8773 130.127C31.6777 130.088 31.4201 130.211 31.2398 130.329C30.9371 130.525 30.0999 130.616 29.7715 130.433C29.6878 130.381 29.5976 130.309 29.5075 130.296C28.6188 130.146 27.7301 130.009 26.8349 129.859C26.7126 129.84 26.5902 129.801 26.4679 129.761C26.4035 129.735 26.3519 129.664 26.2811 129.657C25.6178 129.533 24.9545 129.416 24.2912 129.298C24.1817 129.279 24.0722 129.266 23.9692 129.227C23.5184 129.057 23.0741 128.881 22.6233 128.705C22.4816 128.646 22.3399 128.581 22.1918 128.535C21.9471 128.47 21.7024 128.366 21.4577 128.379C20.9425 128.398 20.4595 128.392 19.9894 128.092C19.7382 127.929 19.3969 127.922 19.1007 127.824C18.4116 127.596 17.7354 127.328 17.0399 127.133C16.821 127.068 16.5505 127.185 16.3058 127.205C16.1512 127.218 15.9967 127.224 15.8421 127.198C15.5137 127.133 15.1788 127.061 14.8632 126.944C14.7022 126.885 14.5413 126.754 14.4511 126.611C14.2386 126.259 13.9552 126.187 13.5753 126.233C13.3434 126.259 13.1052 126.194 12.8669 126.174C12.5771 126.148 12.2873 126.135 11.9975 126.096C11.8558 126.076 11.6498 126.063 11.5982 125.978C11.4759 125.757 11.2827 125.424 11.3664 125.267C11.7142 124.589 11.7013 123.865 11.6884 123.154C11.682 122.613 11.6369 122.091 11.9524 121.615C11.9911 121.556 12.0361 121.471 12.0233 121.412C11.8687 120.591 11.9782 119.775 12.0361 118.953C12.0426 118.829 11.9975 118.692 12.0233 118.569C12.1649 117.884 12.3195 117.199 12.4676 116.507C12.4998 116.351 12.5127 116.194 12.5191 116.031C12.5578 115.085 12.6157 114.146 12.6029 113.2C12.6029 112.874 12.4612 112.535 12.3259 112.228C12.21 111.974 11.888 112 11.7399 112.242C11.405 112.802 11.1861 113.383 11.4566 114.042C11.4888 114.114 11.4952 114.211 11.4759 114.29C11.302 115.079 11.1088 115.862 10.9478 116.651C10.8641 117.068 10.8512 117.505 10.7868 117.929C10.7353 118.282 10.6516 118.634 10.5936 118.986C10.497 119.573 10.336 120.154 10.3231 120.741C10.3103 121.223 10.2008 121.66 10.0913 122.117C9.94963 122.717 10.0398 123.376 10.0269 124.008C10.0012 125.065 10.1299 126.141 9.65984 127.152C9.60832 127.27 9.62764 127.439 9.6534 127.576C9.7178 127.916 9.80796 128.242 9.89167 128.574C10.014 129.07 10.5485 129.2 10.9349 128.835C11.302 128.49 11.2569 128.026 11.3213 127.589C11.3471 127.433 11.3857 127.276 11.4179 127.12C11.5532 127.178 11.682 127.27 11.8236 127.289C12.5578 127.407 13.1953 128.007 14.0325 127.694C14.3803 127.563 14.7731 127.681 15.1466 127.929C15.5845 128.222 16.1126 128.392 16.6084 128.6C16.8854 128.718 17.1816 128.777 17.4521 128.9C17.8256 129.077 18.1991 129.187 18.6112 129.064C18.7014 129.037 18.8173 129.044 18.901 129.083C19.925 129.54 21.0455 129.533 22.1081 129.801C22.4365 129.885 22.7521 130.035 23.0741 130.12C24.0787 130.394 25.0897 130.655 26.1008 130.903C27.0088 131.125 27.9297 131.32 28.8377 131.529C28.8506 131.529 28.8699 131.542 28.8764 131.536C29.4366 131.255 29.881 131.705 30.3769 131.803C30.5185 131.829 30.7182 131.953 30.7568 132.077C30.7954 132.201 30.7053 132.416 30.5958 132.521C30.2609 132.853 30.1772 133.245 30.1837 133.701C30.1965 134.269 30.2609 134.862 29.881 135.371C29.823 135.443 29.8101 135.56 29.8037 135.658C29.7651 136.356 29.7329 137.054 29.6942 137.863C29.134 137.608 28.593 138.052 28.0585 137.569C27.8202 137.354 27.2728 137.478 26.8736 137.439C26.6868 137.419 26.5001 137.38 26.3133 137.341C26.1909 137.315 26.0364 137.217 25.9462 137.256C25.5341 137.452 25.225 137.217 24.8708 137.093C24.6003 136.995 24.2783 137.08 24.0014 137.002C23.4604 136.845 22.9195 137.054 22.3528 136.865C21.8054 136.682 21.1485 136.825 20.5368 136.819C20.2598 136.819 19.9829 136.786 19.7125 136.754C19.2745 136.695 18.8431 136.623 18.4116 136.558C18.1411 136.519 17.8642 136.473 17.5937 136.447C17.0464 136.408 16.5054 136.388 15.958 136.349C15.8163 136.343 15.6489 136.349 15.5459 136.278C15.0564 135.906 14.4704 135.964 13.923 135.854C13.498 135.769 13.0858 135.56 12.6351 135.782C12.5964 135.801 12.4676 135.691 12.4097 135.625C12.1456 135.299 11.8301 135.201 11.4179 135.299C11.2505 135.338 11.0315 135.286 10.8705 135.201C10.5228 135.019 10.2008 134.967 9.86592 135.201C9.79508 135.254 9.67272 135.293 9.59544 135.273C8.84842 135.051 8.1014 134.81 7.35437 134.582C7.24489 134.549 7.12254 134.51 7.0195 134.529C6.69107 134.588 6.45923 134.445 6.20164 134.262C5.99556 134.119 5.70577 134.086 5.44818 134.021C5.38378 134.001 5.3065 134.047 5.23566 134.034C4.40492 133.884 3.56774 133.727 2.737 133.577C2.43432 133.518 2.12521 133.479 1.82898 133.382C1.70662 133.342 1.5263 133.186 1.53274 133.088C1.55206 132.247 1.42327 131.412 1.70662 130.57C1.87406 130.075 1.80966 129.494 1.85474 128.953C1.86762 128.822 1.85474 128.666 1.93202 128.581C2.38925 128.026 2.31841 127.374 2.18961 126.768C2.06081 126.154 2.28621 125.639 2.40856 125.085C2.42144 125.013 2.48584 124.922 2.46008 124.882C2.11877 124.315 2.6082 123.845 2.62752 123.317C2.65972 122.13 2.71124 120.943 2.76276 119.762C2.79496 119.012 2.82716 118.262 3.05255 117.531C3.10407 117.368 3.11051 117.192 3.11051 117.023C3.11051 116.423 3.05899 115.822 3.08475 115.222C3.10407 114.74 3.18779 114.251 3.25219 113.768C3.38742 112.763 3.50978 111.759 3.67722 110.761C3.78025 110.161 3.96057 109.58 4.09581 108.987C4.12801 108.863 4.10869 108.726 4.14733 108.602C4.23104 108.302 4.32764 108.008 4.43068 107.715C4.4822 107.565 4.64319 107.421 4.63031 107.291C4.52728 106.449 5.15838 105.921 5.64137 105.569C6.15012 105.197 6.58159 104.721 7.10966 104.401C7.9082 103.912 8.67454 103.41 9.22193 102.614C9.29921 102.503 9.47952 102.438 9.62764 102.418C10.0012 102.353 10.2974 102.21 10.497 101.857C10.555 101.753 10.6838 101.642 10.7868 101.623C11.2569 101.557 11.5725 101.251 11.9202 100.97C12.21 100.736 12.5771 100.592 12.9055 100.403C13.0021 100.344 13.1052 100.285 13.1953 100.22C13.6976 99.855 14.1806 99.4571 14.7087 99.1244C14.9148 98.994 15.211 99.0331 15.4622 98.9744C15.7841 98.8962 16.1834 98.8831 16.4024 98.6874C17.1365 98.0221 18.0123 97.5916 18.8431 97.0959C18.9139 97.0502 19.0556 97.0241 19.1071 97.0633C19.4162 97.2916 19.7253 97.5264 20.0087 97.7808C20.3564 98.0939 20.6849 98.42 21.2065 98.3352C21.2709 98.3222 21.3739 98.3287 21.4126 98.3678C21.9857 98.9875 22.7778 98.8831 23.4926 99.0005C24.2783 99.131 25.0704 99.2288 25.8561 99.3397C26.2618 99.3984 26.6997 100.155 26.558 100.605C26.4421 100.977 26.4679 101.303 26.6353 101.649C26.7255 101.831 26.7383 102.066 26.7448 102.275C26.7512 102.803 26.7641 103.312 27.1376 103.742C27.2728 103.899 27.363 104.114 27.4403 104.31C27.6592 104.858 28.1551 105.047 28.6252 105.217C29.0245 105.354 29.4238 104.975 29.4882 104.525C29.5332 104.238 29.6556 103.958 29.7071 103.671C29.8037 103.155 29.8681 102.627 29.9518 102.112C29.9776 101.962 29.984 101.799 30.0484 101.662C30.3575 100.977 30.6795 100.299 30.3382 99.5223C30.306 99.4441 30.3253 99.3332 30.3189 99.2223L30.3447 99.2614Z" fill="#EDAD0B"/>
<path d="M38.6648 67.3523C38.9611 68.1155 39.3024 68.2133 39.9979 67.6263C40.3392 67.3328 40.6676 67.0849 40.4744 66.4392C40.3392 65.9891 40.146 65.3499 40.6612 64.8346C40.8737 64.6193 40.8544 64.1628 40.9703 63.6996C41.0605 63.8758 41.1378 63.954 41.1442 64.0453C41.215 64.7172 41.3181 65.3825 41.3309 66.0543C41.3374 66.5761 41.4984 66.9218 42.0265 67.0849C41.8397 67.7046 42.1102 68.2068 42.3935 68.7091C42.4644 68.833 42.5545 68.996 42.5288 69.1135C42.4064 69.6353 42.7606 69.8636 43.0955 70.0658C43.2629 70.1701 43.5205 70.1767 43.7266 70.1571C44.2096 70.1114 44.6926 69.9679 45.1755 69.9549C45.6972 69.9418 46.1802 70.4767 46.2124 70.9985C46.2124 71.0442 46.1995 71.0833 46.1995 71.129C46.1866 71.4421 46.2961 71.8856 46.1415 72.0356C45.607 72.5313 45.1755 73.1771 44.4221 73.4119C43.7073 73.6271 43.6815 73.7446 44.113 74.3968C43.5656 74.8599 43.4046 75.46 43.5012 76.1579C43.5205 76.2884 43.411 76.4254 43.3853 76.5689C43.3273 76.8559 43.2887 77.1494 43.2436 77.482C43.0955 77.606 42.9023 77.8017 42.6769 77.9256C42.503 78.0169 42.2776 78.0495 42.078 78.043C42.02 78.043 41.9492 77.8212 41.917 77.6908C41.8397 77.3581 41.7173 77.2016 41.3052 77.2081C40.4938 77.2081 39.9979 77.606 39.5857 78.2517C39.4248 78.5061 39.1285 78.6757 38.858 78.9235C38.858 78.8061 38.8452 78.7214 38.858 78.6366C38.9418 78.0039 38.858 77.8408 38.2978 77.5147C37.8856 77.2798 37.5314 77.4233 37.2738 77.7495C37.0549 78.0299 36.9196 78.3822 36.7522 78.7018C36.7136 78.7735 36.7329 78.8975 36.6814 78.9431C35.8764 79.6019 35.7283 80.6651 35.1809 81.4935C34.7494 82.1458 34.5884 82.9872 34.2986 83.7438C34.2535 83.8612 34.1698 83.9656 34.0861 84.0569C33.4292 84.794 32.7144 85.4854 32.1284 86.2746C31.8257 86.6855 31.6454 87.1617 31.2461 87.5596C30.6343 88.1662 30.5764 89.0337 30.7116 89.8882C30.7181 89.9469 30.7374 90.0121 30.7116 90.0578C30.3381 91.0035 30.9628 91.6819 31.259 92.4777C31.4715 93.0451 31.8708 93.6061 31.639 94.304C31.4844 94.7541 31.4329 95.2433 31.3427 95.7194C31.3299 95.8042 31.3105 95.9151 31.3492 95.9738C31.7806 96.6196 31.5617 97.3044 31.4715 97.9763C31.4522 98.1198 31.3749 98.3285 31.2719 98.3676C31.0916 98.4329 30.8275 98.4589 30.6859 98.3676C30.1127 97.9958 29.8744 98.0611 29.6877 98.7264C29.6619 98.8046 29.6426 98.9025 29.5847 98.9547C29.0179 99.47 29.0179 100.253 28.6895 100.879C28.6187 101.016 28.6638 101.218 28.6444 101.394C28.6122 101.72 28.5736 102.046 28.535 102.373L28.3224 102.392C28.258 102.177 28.1421 101.968 28.1357 101.753C28.1164 101.251 27.9554 100.846 27.6463 100.448C27.4466 100.187 27.3178 99.7896 27.3243 99.4569C27.3371 98.896 27.0602 98.4785 26.7704 98.0872C26.6352 97.898 26.2746 97.8458 26.0041 97.8002C25.2764 97.6632 24.5422 97.5588 23.8081 97.4284C23.4861 97.3697 23.1706 97.2457 22.8486 97.2262C21.9727 97.187 21.245 96.8022 20.5302 96.3391C20.395 96.2478 20.2147 96.2217 19.97 96.1369C20.1052 96.0064 20.1825 95.9021 20.2855 95.8303C20.3628 95.7716 20.5109 95.7847 20.556 95.7129C20.9874 95.0606 21.8504 94.9563 22.2819 94.2779C22.4944 93.9387 22.8421 93.6909 23.1255 93.3974C23.1448 93.3778 23.1834 93.3582 23.1834 93.3387C23.3058 92.6342 23.9498 92.145 23.8596 91.3036C23.7823 90.573 24.0013 89.8034 24.0721 89.0533C24.0915 88.8315 24.0335 88.6032 24.0206 88.3814C24.0013 88.1075 23.9884 87.8335 23.982 87.6574C24.5938 87.6117 25.109 87.5922 25.6177 87.54C25.8882 87.5139 26.1973 87.3769 26.1136 87.0704C26.0492 86.8225 25.8109 86.529 25.5855 86.4311C25.3021 86.3137 24.9351 86.3985 24.6131 86.3529C24.4457 86.3268 24.2847 86.2029 24.1365 86.1115C23.9627 86.0006 23.8017 85.7789 23.6213 85.7658C22.8743 85.7267 22.269 85.2766 21.567 85.107C21.4962 85.094 21.4254 85.0614 21.3738 85.0157C20.7041 84.4026 19.9056 83.9982 19.0941 83.6264C18.9331 83.5546 18.7271 83.4177 18.6884 83.2677C18.5017 82.5828 17.9221 82.4132 17.3876 82.1914C17.1557 82.1001 16.969 82.0283 16.9947 81.7283C17.0012 81.637 16.9561 81.5261 16.8981 81.4478C16.6405 81.0434 16.3572 80.6521 16.106 80.2411C15.842 79.8041 15.4685 79.4128 15.4878 78.8518C15.4878 78.8388 15.4878 78.8257 15.4749 78.8127C15.1723 78.1213 14.8631 77.4364 14.5798 76.7385C14.4832 76.5036 14.4317 76.2493 14.393 75.9949C14.3351 75.6166 14.3351 75.2252 14.2578 74.8534C14.2127 74.6251 14.0775 74.4099 13.9744 74.1881C13.8843 74.0055 13.7941 73.8228 13.6718 73.6663C13.6074 73.588 13.4335 73.4902 13.3755 73.5228C12.8088 73.8489 12.519 73.3662 12.1648 73.1119C11.9137 72.9357 11.669 72.7531 11.4371 72.5509C11.3148 72.44 11.1538 72.29 11.1473 72.1465C11.1216 71.716 11.1731 71.2855 11.1731 70.855C11.1731 70.5289 11.3277 70.3071 11.6175 70.2484C11.9845 70.1701 12.1584 69.9679 12.1777 69.6353C12.6156 69.57 13.0278 69.5179 13.4335 69.4396C13.8006 69.3613 14.2964 68.6373 14.3286 68.259C14.348 67.9981 14.4574 67.7437 14.5347 67.4893C14.6184 67.2023 14.6957 66.9088 14.7987 66.6283C15.037 65.9761 15.3011 65.3368 15.52 64.6846C15.6552 64.2802 15.7132 63.8497 15.8098 63.4387C15.8484 63.2626 15.9 63.093 15.945 62.9169C15.9966 62.9169 16.0416 62.9169 16.0932 62.9104C16.164 63.23 16.2284 63.5496 16.2992 63.8692C16.4023 64.3128 16.4795 64.7563 16.6148 65.1868C16.7693 65.6825 16.9497 66.1783 17.1815 66.6414C17.2845 66.8501 17.5228 67.0849 17.7289 67.1175C18.2891 67.1958 18.8881 67.3328 19.3775 66.8436C19.4805 66.7392 19.6866 66.7066 19.8476 66.7131C20.2533 66.7327 20.6397 66.7783 20.9746 66.4522C21.0325 66.4 21.2193 66.4653 21.3481 66.5044C21.5864 66.5761 21.8761 66.7914 22.0565 66.7196C22.7455 66.4457 23.3895 66.7001 24.0528 66.7653C24.6839 66.824 25.315 66.8892 25.9461 66.9023C26.2166 66.9023 26.4935 66.7849 26.7704 66.7457C27.0731 66.7066 27.3822 66.6609 27.6849 66.687C28.374 66.7457 29.0888 66.9936 29.7456 66.8892C30.351 66.7914 30.8662 66.8305 31.4458 66.9675C31.8257 67.0588 32.2765 66.8631 32.7015 66.811C33.6289 66.7066 34.5433 66.6935 35.4771 66.8892C36.0631 67.0132 36.6492 67.2806 37.3189 67.1306C37.7182 67.0392 38.1883 67.2741 38.6648 67.3719V67.3523Z" fill="white"/>
<path d="M9.08016 145.461C9.88515 144.803 9.89159 144.052 9.51163 143.237C9.41504 143.028 9.46655 142.898 9.66619 142.781C10.0719 142.539 10.2007 142.167 10.117 141.704C10.0333 141.235 10.1492 140.758 9.93666 140.269C9.81431 139.989 10.0783 139.552 10.0977 139.18C10.117 138.815 10.0397 138.443 10.0011 138.078C9.99462 137.993 9.95598 137.908 9.96242 137.83C9.99462 137.458 10.0397 137.086 10.0848 136.675C10.3681 137.099 10.6772 137.145 11.1023 136.825C11.2311 136.727 11.5402 136.917 11.7527 136.884C12.1262 136.832 12.4031 136.884 12.68 137.197C12.8282 137.36 13.1695 137.373 13.4271 137.386C13.9873 137.412 14.6442 137.21 15.095 137.445C15.6681 137.745 16.2992 137.628 16.8337 137.941C16.9046 137.98 17.0076 138.032 17.0785 138.012C17.6259 137.836 18.141 138.039 18.6755 138.097C19.1585 138.156 19.6608 138.312 20.1374 138.039C20.7621 138.593 21.5606 138.039 22.2175 138.384C22.6876 138.626 23.1448 138.776 23.6858 138.547C23.8467 138.476 24.1172 138.645 24.3297 138.717C24.6839 138.841 24.993 138.789 25.3537 138.645C25.6241 138.541 26.0363 138.606 26.3068 138.749C26.9314 139.082 27.5432 139.121 28.2001 138.906C28.3031 138.873 28.4963 138.926 28.5736 139.004C28.9471 139.402 29.3335 139.532 29.8358 139.239C29.9839 139.154 30.2351 139.245 30.3703 139.154C30.6537 138.958 30.892 138.691 31.2461 138.365C31.6068 138.436 32.1542 138.502 32.6758 138.658C33.4615 138.893 34.2214 139.167 35.0779 139.102C35.4642 139.076 35.8893 139.317 36.2628 139.5C36.5655 139.643 36.8424 139.858 37.1064 140.074C37.3189 140.243 37.5572 140.432 37.3962 140.758C37.3447 140.856 37.203 140.974 37.1064 140.974C36.6878 140.974 36.4302 141.196 36.2048 141.535C35.915 141.965 35.6768 142.448 35.1229 142.644C34.7623 142.767 34.5112 143.452 34.6077 143.844C34.7172 144.307 35.0972 144.339 35.4771 144.47C36.1147 144.692 36.7393 144.457 37.364 144.568C37.4413 144.581 37.5379 144.568 37.6152 144.535C38.3751 144.242 39.1736 144.183 39.9721 144.079C40.5517 144.007 41.0991 143.824 41.7173 143.85C42.1875 143.87 42.664 143.596 43.1792 143.772C43.3338 143.824 43.5527 143.7 43.7395 143.628C43.8683 143.576 43.9777 143.452 44.1065 143.42C44.3255 143.374 44.699 143.283 44.757 143.374C44.9308 143.648 45.0854 144.007 45.0532 144.313C45.0146 144.653 45.0146 144.926 45.182 145.22C45.2399 145.324 45.2786 145.468 45.2593 145.585C45.1755 146.198 45.2593 146.759 45.6779 147.242C45.7423 147.32 45.7873 147.451 45.7809 147.555C45.7487 147.953 45.6907 148.351 45.6392 148.742C45.5748 149.251 45.8711 149.629 46.1415 149.995C46.6116 150.634 46.6052 150.973 46.0578 151.501C45.8453 151.71 45.6392 151.925 45.4267 152.134C45.0339 152.519 44.5702 152.617 44.0293 152.63C43.6235 152.643 43.2178 152.865 42.8121 152.995C42.3935 153.125 41.9878 153.289 41.5628 153.386C41.0669 153.504 40.5582 153.576 40.0559 153.654C38.6777 153.869 37.3125 154.156 35.9279 154.267C35.226 154.319 34.5433 154.365 33.88 154.6C33.7577 154.639 33.6224 154.665 33.5259 154.743C33.2811 154.939 33.0622 154.958 32.7917 154.776C32.6758 154.697 32.4826 154.671 32.3409 154.697C31.581 154.815 30.8276 155.004 30.0676 155.076C29.385 155.141 28.6702 155.187 28.0069 155.056C27.5239 154.965 27.0989 154.802 26.603 154.984C26.442 155.043 26.1909 154.913 25.9977 154.828C25.5662 154.652 25.1734 154.678 24.7805 154.945C24.4006 155.206 23.9884 155.089 23.5763 154.906C23.1384 154.717 22.6232 154.697 22.1337 154.619C21.8246 154.567 21.522 154.502 21.2128 154.502C20.878 154.502 20.5431 154.593 20.2018 154.593C19.9957 154.593 19.7768 154.547 19.5964 154.45C19.3711 154.332 19.1907 154.136 18.9847 153.98C18.6433 153.719 18.2827 153.745 17.8834 153.876C17.4906 153.999 17.0849 154.065 16.6792 154.156C16.6277 154.169 16.5633 154.176 16.5118 154.156C15.7647 153.915 15.0241 153.654 14.2771 153.432C13.8006 153.295 13.3111 153.21 12.8282 153.099C12.6929 153.067 12.5577 153.028 12.4224 152.975C12.2743 152.923 12.1391 152.819 11.991 152.806C11.289 152.741 10.5871 152.708 9.88515 152.636C9.69195 152.617 9.50519 152.506 9.31844 152.421C9.0222 152.284 8.72597 152.134 8.42974 151.977C8.2623 151.886 8.06911 151.808 7.95319 151.671C7.91455 151.625 8.06267 151.384 8.15926 151.267C8.3911 150.986 8.46838 150.693 8.37178 150.34C8.33314 150.21 8.2945 150.014 8.3589 149.936C8.87409 149.29 8.99001 148.514 9.0866 147.731C9.10592 147.562 9.13812 147.366 9.24116 147.242C9.73703 146.622 9.76279 146.042 9.09948 145.461H9.08016Z" fill="#EDAD0B"/>
<path d="M37.9565 97.0566C38.124 97.2654 38.33 97.4545 38.4395 97.6893C38.5812 98.0024 38.7937 98.1655 39.1028 98.3155C39.6953 98.6025 40.2749 98.9286 40.8351 99.2874C41.4534 99.6853 42.0394 100.135 42.6319 100.579C42.7478 100.664 42.8379 100.807 42.8959 100.944C43.0633 101.329 43.3402 101.518 43.7331 101.675C44.0615 101.805 44.332 102.125 44.5767 102.405C44.7956 102.66 45.0082 102.842 45.3624 102.842C45.4718 102.842 45.5877 102.999 45.7037 103.09C45.9291 103.273 46.148 103.468 46.3798 103.651C46.4249 103.684 46.4958 103.677 46.5408 103.71C47.2685 104.31 47.9898 104.91 48.7175 105.51C48.9107 105.673 49.1361 105.804 49.3035 105.986C49.8509 106.612 50.9199 106.678 51.1067 107.676C51.1711 108.047 51.1453 108.432 51.1518 108.817C51.1582 109.632 51.1518 110.448 51.1582 111.27C51.1582 111.38 51.2033 111.504 51.1647 111.602C51.0037 112.059 50.8234 112.509 50.6559 112.965C50.6302 113.031 50.5851 113.115 50.598 113.174C50.7461 113.735 50.3017 114.146 50.2309 114.642C50.1794 114.987 50.1665 115.34 50.115 115.685C50.0956 115.822 50.0441 115.959 49.9668 116.077C49.4388 116.879 49.1941 117.792 48.9944 118.718C48.8656 119.319 48.8914 120.029 48.5694 120.493C48.1701 121.06 48.1122 121.595 48.0671 122.234C48.0349 122.652 47.6292 123.023 47.4489 123.447C47.3458 123.695 47.3845 124.002 47.3329 124.276C47.3072 124.413 47.2686 124.582 47.1784 124.667C46.8564 124.98 46.5473 125.287 46.5215 125.789C46.5151 125.946 46.3605 126.089 46.2961 126.252C46.1802 126.539 46.0836 126.839 45.9677 127.126C45.8196 127.478 45.6715 127.837 45.4912 128.176C45.2529 128.613 45.1756 129.044 45.4912 129.474C44.7892 129.957 44.3964 130.564 44.4157 131.405C44.4157 131.47 44.3835 131.549 44.3513 131.607C44.1259 132.07 43.9134 132.501 43.8297 133.042C43.7331 133.655 43.3467 134.229 43.0826 134.816C43.0504 134.895 42.9796 134.96 42.9538 135.038C42.8057 135.416 42.619 135.521 42.1553 135.462C41.4276 135.371 40.7707 135.156 40.1332 134.823C39.9336 134.719 39.7726 134.555 39.5922 134.425C39.4763 134.34 39.3733 134.216 39.2445 134.184C38.6391 134.053 38.2592 133.577 37.9179 133.16C37.4285 132.573 37.0743 131.862 36.6943 131.183C36.4625 130.772 36.3015 130.348 36.2178 129.846C36.1018 129.135 35.6897 128.476 35.4192 127.785C35.3097 127.511 35.1681 127.217 35.1745 126.93C35.1809 126.37 35.0715 125.88 34.7559 125.417C34.6464 125.261 34.6722 125.013 34.6207 124.811C34.537 124.484 34.4275 124.165 34.3566 123.839C34.2858 123.526 34.1828 123.199 34.215 122.893C34.2922 122.136 34.3695 121.393 33.9831 120.695C33.9509 120.63 33.9059 120.564 33.9059 120.493C33.893 119.834 33.9059 119.175 33.8801 118.516C33.8672 118.157 33.8865 117.766 33.7513 117.453C33.3198 116.429 33.6676 115.34 33.4422 114.303C33.41 114.166 33.513 114.003 33.5323 113.846C33.5581 113.637 33.5967 113.415 33.571 113.207C33.4744 112.457 33.3585 111.707 33.249 110.956C33.2168 110.728 33.2039 110.5 33.1782 110.265C33.1653 110.122 33.1009 109.958 33.146 109.835C33.5259 108.726 33.0944 107.643 33.03 106.554C32.9978 106.051 33.0751 105.601 33.1073 105.125C33.1395 104.59 33.0107 104.049 32.9592 103.508C32.9463 103.364 32.9528 103.221 32.9399 103.077C32.9141 102.803 32.9012 102.523 32.8562 102.249C32.8175 102.007 32.7467 101.779 32.6887 101.538C33.4873 101.303 34.2472 101.192 35.0521 101.283C35.5223 101.336 36.0181 101.172 36.4882 101.218C37.2546 101.296 37.686 101.57 37.5701 102.438C37.5122 102.888 37.7504 103.377 37.8728 103.847C38.0338 104.466 38.2334 105.086 38.3816 105.712C38.4266 105.901 38.3365 106.117 38.3622 106.312C38.4524 106.906 38.5619 107.499 38.6713 108.086C38.7229 108.367 38.7615 108.647 38.8323 108.915C38.871 109.078 38.9161 109.274 39.032 109.378C39.354 109.665 39.3411 109.998 39.354 110.389C39.3797 111.054 39.4828 111.739 39.6631 112.378C39.8305 112.978 40.1525 113.526 40.3779 114.113C40.423 114.237 40.3779 114.42 40.3199 114.557C40.159 114.935 40.1912 115.274 40.4165 115.62C40.5131 115.764 40.5518 115.998 40.5196 116.168C40.4423 116.546 40.4745 116.866 40.687 117.199C40.9189 117.564 41.0863 117.949 41.0155 118.418C40.9833 118.634 40.9897 118.94 41.1185 119.084C41.6208 119.664 41.3503 120.499 41.8204 121.086C41.8913 121.171 41.8333 121.393 41.7882 121.543C41.6659 121.993 41.7882 122.358 42.1038 122.691C42.2197 122.815 42.2583 123.03 42.3034 123.213C42.3743 123.513 42.4129 123.826 42.4837 124.126C42.5868 124.569 42.7091 125.013 42.8186 125.463C42.941 125.972 43.3274 126.265 43.7137 126.526C44.0744 126.767 44.4801 126.526 44.6346 126.069C44.86 125.417 44.7055 124.824 44.4415 124.224C44.3449 124.008 44.3577 123.747 44.274 123.526C44.0615 122.952 43.9713 122.391 44.1001 121.778C44.1388 121.595 43.8619 121.354 43.7395 121.132C43.6365 120.943 43.5334 120.753 43.4626 120.551C43.3145 120.108 43.1792 119.664 43.0504 119.214C43.0054 119.058 42.9796 118.881 43.0054 118.725C43.0826 118.223 42.9796 117.818 42.6254 117.414C42.3936 117.146 42.3356 116.716 42.2261 116.351C42.0909 115.92 41.872 115.496 42.0008 115.014C42.0265 114.916 41.9943 114.772 41.9364 114.681C41.2344 113.598 41.3374 112.32 41.0863 111.126C41.0155 110.78 40.8931 110.389 40.6613 110.154C40.2942 109.776 40.365 109.365 40.4037 108.954C40.4681 108.328 40.1912 107.793 40.0302 107.225C39.9915 107.089 39.8627 106.965 39.8627 106.834C39.8627 106.254 39.7275 105.725 39.515 105.171C39.2381 104.44 39.2767 103.592 38.9869 102.868C38.7035 102.157 38.8323 101.368 38.33 100.683C38.0596 100.318 37.8535 99.7244 37.9436 99.1178C38.0145 98.6351 37.8406 98.1198 37.7891 97.6176C37.7762 97.4676 37.802 97.3175 37.8084 97.1675C37.8664 97.1349 37.9243 97.1088 37.9823 97.0762L37.9565 97.0566Z" fill="#EDAD0B"/>
<path d="M46.3927 68.7157C45.8839 68.3896 45.5168 68.3309 45.1433 68.5657C45.0854 68.5983 45.0081 68.5983 44.9373 68.6048C44.5895 68.6374 44.2418 68.6635 43.8876 68.6896C43.8618 68.7418 43.836 68.7875 43.8103 68.8396C43.7394 68.6374 43.6364 68.4418 43.6042 68.233C43.5334 67.7112 43.4497 67.2155 43.0182 66.8437C42.9151 66.7524 42.8958 66.5176 42.8958 66.3545C42.8958 65.3631 42.928 64.3781 42.2647 63.5237C42.0586 63.2562 42.0071 62.8714 41.8848 62.5387C41.7689 62.2257 41.6658 61.9126 41.5499 61.606C41.4082 61.2212 40.9639 60.9407 40.6354 61.0711C40.2684 61.2146 40.2748 61.5473 40.2684 61.8995C40.2619 62.2257 40.1975 62.5974 40.0301 62.8649C39.5922 63.5302 39.3539 64.2412 39.2573 65.0239C39.2122 65.3761 39.0641 65.7088 38.9933 65.9501C37.9307 65.8066 36.9261 65.6631 35.9215 65.5392C35.6832 65.5066 35.432 65.5718 35.2002 65.5261C34.846 65.4609 34.4532 65.4218 34.1569 65.2326C33.7706 64.9978 34.0217 64.5542 34.0217 64.202C34.0217 63.9085 34.0603 63.6215 34.0797 63.328C34.0797 63.2301 34.0797 63.1258 34.0797 63.0279C34.0861 62.3365 34.1247 61.6451 34.0925 60.9603C34.0732 60.6472 33.938 60.321 33.7963 60.0275C33.6611 59.747 33.3004 59.747 33.191 60.0406C33.0235 60.4906 32.9334 60.9733 32.8175 61.4429C32.7853 61.5669 32.7788 61.6973 32.7659 61.8212C32.7402 62.1017 32.708 62.3757 32.6951 62.6562C32.6822 62.9236 32.6693 63.2041 32.7015 63.4715C32.7531 63.8955 32.8046 64.326 32.9398 64.7304C33.0815 65.1609 32.9076 65.5 32.4568 65.4674C31.3234 65.3957 30.19 65.3239 29.0566 65.2326C28.9407 65.2261 28.8376 65.1022 28.7346 65.0304C28.7024 65.0043 28.6959 64.9521 28.6637 64.926C27.7428 64.1303 28.1614 63.1714 28.3224 62.2387C28.3482 62.1148 28.4062 61.9843 28.3933 61.8604C28.3353 61.1886 28.2774 60.5102 28.1743 59.8449C28.155 59.6949 27.9747 59.4861 27.8459 59.4666C27.6849 59.4405 27.4466 59.5383 27.3371 59.6622C27.189 59.8384 27.0667 60.0862 27.0409 60.321C26.9829 60.8755 26.9829 61.4364 26.9572 61.9974C26.9572 62.0691 26.9701 62.1474 26.9572 62.2126C26.6159 63.3997 27.028 64.3651 27.8072 65.2261C27.8266 65.2457 27.8266 65.2783 27.8588 65.3565C27.7428 65.3696 27.6398 65.3957 27.5368 65.3892C27.4273 65.3826 27.2792 65.2783 27.2083 65.3239C26.6996 65.6566 26.281 65.2717 25.8173 65.1869C25.5082 65.1282 25.154 65.2652 24.8642 65.1674C24.1945 64.9521 23.441 65.2652 22.8228 64.8086C22.7906 64.7825 22.7391 64.763 22.7326 64.7304C22.6425 63.9868 22.2368 63.3215 22.4106 62.5061C22.5266 61.9387 22.3591 61.3125 22.3205 60.7124C22.3141 60.5689 22.2819 60.4254 22.3012 60.2884C22.3527 59.9427 22.1788 59.7992 21.8826 59.7666C21.5863 59.734 21.3996 59.871 21.3288 60.1841C21.2901 60.3602 21.1806 60.5167 21.1484 60.6928C21.1098 60.9081 21.084 61.1429 21.1162 61.3581C21.2 61.88 21.4511 62.3692 21.0583 62.9171C20.8071 63.2562 20.878 63.6867 21.1742 64.0781C21.3867 64.3651 21.4897 64.7499 21.5606 65.1087C21.5799 65.213 21.361 65.4087 21.2193 65.5C21.1291 65.5587 20.9424 65.5522 20.8393 65.5C20.2726 65.1869 19.9764 65.2065 19.4483 65.6435C19.3839 65.6957 19.3066 65.7609 19.2294 65.7675C18.8043 65.8001 18.3857 65.8131 17.9543 65.8392C17.774 65.0565 17.5936 64.2738 17.4069 63.5041C17.3811 63.3932 17.3296 63.2889 17.2781 63.1845C17.0785 62.8192 16.9561 62.4735 16.9561 62.0235C16.9561 61.5603 16.7436 61.0842 16.5568 60.6406C16.4538 60.3993 16.1962 60.3797 15.9772 60.5624C15.7776 60.732 15.5264 60.8755 15.4041 61.0972C15.198 61.4625 14.9533 61.8734 14.9404 62.2648C14.9275 62.8518 14.6571 63.3084 14.4574 63.8041C14.2642 64.2868 13.9487 64.7304 14.0324 65.2978C14.0388 65.3565 13.9938 65.4283 13.968 65.487C13.7748 65.8784 13.543 66.2567 13.3884 66.6611C13.2145 67.1372 13.1115 67.6395 12.9634 68.1221C12.9376 68.2069 12.8668 68.3113 12.7895 68.3504C12.416 68.5331 11.8364 68.2787 11.6175 67.9134C11.2955 67.3655 11.4822 66.8437 11.7205 66.3741C11.9266 65.9762 12.0682 65.5914 12.0425 65.1413C12.036 64.9913 12.1069 64.8412 12.1326 64.6847C12.2228 64.1238 12.3516 63.5628 12.3838 63.0019C12.4031 62.6562 12.2228 62.3039 12.2164 61.9517C12.2164 61.8017 12.3838 61.5864 12.5319 61.5082C12.9827 61.2668 13.1823 60.9276 13.1244 60.4124C13.1115 60.3015 13.1437 60.1841 13.1759 60.0797C13.3691 59.4209 13.6589 58.7752 13.7426 58.1033C13.8006 57.5946 14.1161 57.3141 14.3544 56.9553C14.6249 56.5575 14.8889 56.1661 15.1916 55.7878C15.7003 55.1486 16.2219 54.5224 16.7565 53.9027C16.9497 53.681 17.175 53.4853 17.3811 53.27C17.9285 52.7156 18.6433 52.4873 19.3324 52.1938C20.0215 51.9003 20.7298 51.5807 21.303 51.1175C21.8633 50.6675 22.4815 50.5501 23.1255 50.4131C23.2865 50.3805 23.4603 50.2892 23.5698 50.1718C23.9305 49.7674 24.4006 49.7413 24.89 49.6891C25.4245 49.6369 25.9461 49.4804 26.4806 49.4217C26.8091 49.3825 27.1439 49.4347 27.4788 49.4543C27.9682 49.4804 28.4577 49.513 28.9471 49.5521C29.0695 49.5586 29.2176 49.5521 29.3013 49.6173C29.7843 49.9957 30.5764 50.087 31.1109 49.7674C31.3556 49.6173 31.5746 49.5195 31.8644 49.663C31.9932 49.7282 32.1992 49.7478 32.3216 49.6891C32.7209 49.4804 33.0622 49.6826 33.4357 49.7739C33.7126 49.8391 34.0153 49.8195 34.3051 49.8456C34.4081 49.8587 34.5176 49.8782 34.6142 49.9174C35.4127 50.25 36.2435 50.5175 37.0034 50.9349C37.5185 51.2219 38.1625 51.2937 38.5296 51.8742C38.6584 52.0829 38.974 52.1938 39.2187 52.3112C39.882 52.6243 40.5904 52.8721 40.9124 53.6353C40.9639 53.7592 41.0669 53.8832 41.1764 53.968C41.8075 54.4898 42.4708 54.9659 43.0633 55.5269C43.2822 55.7291 43.3337 56.1074 43.469 56.4074C43.5913 56.6749 43.7008 56.9619 43.8682 57.2032C44.113 57.5359 44.4221 57.8229 44.6797 58.1425C44.7698 58.2534 44.802 58.4229 44.8535 58.5664C44.9695 58.9187 45.0081 59.3165 45.2013 59.6101C45.5877 60.1906 45.7422 60.8037 45.7294 61.4886C45.7294 61.5995 45.768 61.7169 45.7873 61.8278C45.9032 62.4409 46.2188 63.0345 45.9032 63.6802C45.8775 63.7389 45.8904 63.8237 45.9032 63.8955C46.0836 64.5412 46.2639 65.1869 46.4442 65.8327C46.4764 65.9566 46.5601 66.1066 46.515 66.198C46.3025 66.6676 46.3991 67.1046 46.515 67.5873C46.5923 67.8939 46.4377 68.2591 46.3734 68.7027L46.3927 68.7157Z" fill="white"/>
<path d="M24.6453 39.8333C24.9673 39.592 25.2571 39.4094 25.5018 39.1811C25.6886 39.0049 25.8753 38.7767 25.9462 38.5353C26.0557 38.1505 26.2424 37.9287 26.6159 37.7787C27.1826 37.5373 27.7043 37.1786 28.2774 36.9503C28.754 36.7611 29.282 36.6829 29.7843 36.572C29.9067 36.5459 30.0677 36.6176 30.1643 36.5655C30.8984 36.1154 31.5811 36.5133 32.2766 36.6764C32.4247 36.709 32.5921 36.6698 32.7402 36.7024C33.0687 36.7807 33.4679 36.7155 33.6547 37.1329C33.6805 37.1916 33.7642 37.2569 33.8221 37.2569C34.3695 37.2764 34.4597 37.883 34.8589 38.0852C34.8976 38.1048 34.9427 38.1896 34.9362 38.2287C34.8396 38.7506 35.2453 39.2528 34.9942 39.7877C34.9427 39.8986 34.9684 40.1008 35.0328 40.2051C35.2647 40.5443 35.1037 40.8052 34.9877 41.1313C34.801 41.6597 34.7301 42.2337 34.582 42.775C34.4854 43.1403 34.3438 43.4925 34.2085 43.8448C34.0153 44.3209 33.7449 44.7384 33.3134 45.0384C33.2232 45.1036 33.1524 45.2145 33.1137 45.3189C32.8239 46.1081 32.1928 46.6104 31.6068 47.1452C31.5875 47.1648 31.5553 47.1778 31.5424 47.2039C31.0659 48.228 30.1321 47.8888 29.34 47.9345C28.8377 47.9606 28.3225 47.8497 27.8202 47.8693C26.9379 47.9084 26.6675 47.2105 26.2811 46.6495C26.0235 46.2777 25.7723 45.8994 25.534 45.5146C25.3924 45.2928 25.212 45.071 25.167 44.8232C25.0575 44.2883 25.0253 43.7339 24.9609 43.1925C24.948 43.0816 24.9544 42.9446 24.8965 42.8533C24.5294 42.2728 24.5938 41.6858 24.8257 41.0792C24.9802 40.6747 25.0639 40.2638 24.6453 39.8398V39.8333Z" fill="white"/>
<path d="M43.0633 78.9041C43.2565 79.2303 43.3595 79.5564 43.1019 79.9282C42.9603 80.1435 42.8572 80.3848 42.7413 80.6196C42.7091 80.6848 42.7027 80.7827 42.6576 80.8153C41.8526 81.3045 41.7689 82.322 41.1249 82.9482C40.7385 83.3265 40.5453 83.9266 40.307 84.4419C40.1203 84.8528 40.4165 85.4725 40.8609 85.5377C41.0476 85.5638 41.2923 85.4007 41.4598 85.2638C41.6401 85.1137 41.756 84.8789 41.9041 84.6898C41.9235 84.6637 41.9814 84.6767 42.1231 84.6571C41.9106 85.0942 41.7303 85.479 41.5371 85.8573C41.3503 86.2226 41.0476 86.4313 40.6741 86.6205C40.3972 86.7574 40.2362 87.1031 39.9915 87.3184C39.6051 87.6576 39.1543 87.9315 38.8066 88.2968C38.5296 88.5838 38.3622 88.9817 38.1304 89.3209C38.0402 89.4513 37.9179 89.5557 37.7955 89.6535C37.261 90.0905 36.617 90.4362 36.6235 91.2842C36.6235 91.4016 36.4947 91.5581 36.3852 91.6364C36.0181 91.9038 35.6768 92.7322 35.8056 93.1627C35.8378 93.2801 35.9151 93.4432 36.0117 93.4758C36.3916 93.6062 36.3594 93.8737 36.3465 94.1933C36.3208 95.1391 36.2693 96.0914 36.3401 97.0372C36.3981 97.8721 36.6106 98.6939 36.7329 99.5288C36.7458 99.6071 36.6363 99.7571 36.5655 99.7767C36.4367 99.8093 36.2821 99.7832 36.1469 99.7441C35.1423 99.4571 34.1441 99.8419 33.1459 99.731C33.03 99.718 32.8497 99.5875 32.8433 99.5027C32.8046 99.0462 32.7982 98.5896 32.8111 98.1265C32.8304 97.3698 32.8883 96.6132 32.8883 95.8566C32.8883 95.3282 32.8239 94.7999 32.766 94.2716C32.7531 94.1346 32.6501 94.0172 32.6114 93.8802C32.5792 93.7563 32.5728 93.6258 32.5599 93.4954C32.5341 93.1888 32.5341 92.8822 32.4891 92.5757C32.4504 92.3278 32.3474 92.0865 32.2894 91.8386C32.1735 91.3037 32.0705 90.7689 31.9739 90.234C31.9546 90.1166 31.9546 89.9796 31.9868 89.8622C32.1864 89.1382 32.3989 88.4142 32.6179 87.6902C32.6372 87.6184 32.7209 87.5597 32.7724 87.501C33.2425 86.9662 33.7126 86.4313 34.1892 85.903C34.2729 85.8117 34.3695 85.6682 34.4725 85.6551C35.3033 85.5573 35.3806 84.8398 35.5738 84.2527C35.7412 83.7375 35.6897 83.0917 35.9859 82.7003C36.3143 82.2698 36.4689 81.7546 36.7651 81.3632C37.1451 80.8675 37.0742 80.3 37.2868 79.7978C37.4156 79.4847 37.4735 79.139 37.5572 78.8063L37.7053 78.8389C37.6216 79.2629 37.6023 79.713 37.4284 80.0978C37.2352 80.5348 37.3125 80.9066 37.4606 81.3045C37.4993 81.4219 37.5444 81.5719 37.5057 81.6698C37.3125 82.1394 37.0936 82.596 36.8746 83.0591C36.6685 83.4961 36.7651 84.0049 37.0936 84.1745C37.3447 84.3049 37.8663 83.9788 38.0467 83.594C38.2978 83.0591 38.549 82.5308 38.813 82.0024C39.1479 81.3371 39.5149 80.6848 39.8434 80.013C39.9851 79.7195 40.1267 79.3934 40.1525 79.0737C40.1911 78.5845 40.5646 78.5324 40.8738 78.3889C40.9253 78.3628 41.0734 78.415 41.0863 78.4541C41.112 78.5585 41.112 78.6824 41.0734 78.7802C40.9317 79.1781 40.8029 79.5956 40.6033 79.9608C40.3972 80.3457 40.1203 80.6914 39.8627 81.0501C39.7017 81.2784 39.4892 81.4871 39.3668 81.7415C39.0835 82.3286 38.8452 82.9352 38.594 83.5418C38.4266 83.9527 38.5812 84.481 38.8967 84.605C39.2316 84.7354 39.6953 84.4158 39.8885 84.031C40.101 83.5939 40.4036 83.1961 40.6484 82.7721C40.7707 82.5634 40.8544 82.3351 40.9446 82.1068C41.1442 81.6045 41.273 81.0632 41.5564 80.6131C41.9428 79.9869 42.4451 79.426 42.8959 78.8389C42.9538 78.865 43.0182 78.8911 43.0762 78.9172L43.0633 78.9041Z" fill="white"/>
<path d="M31.7743 132.521C32.18 132.521 32.5084 132.488 32.824 132.527C33.1138 132.566 33.3842 132.69 33.6676 132.755C34.1055 132.86 34.5499 132.977 34.9942 133.023C35.3742 133.062 35.6446 133.179 35.7799 133.558C35.9473 134.021 36.3659 134.184 36.778 134.295C37.1709 134.399 37.3383 134.68 37.5379 134.98C37.7183 135.247 38.0145 135.443 38.2656 135.664C38.3816 135.762 38.5748 135.821 38.6263 135.938C38.9612 136.675 39.6438 136.773 40.2942 136.891C40.8094 136.982 41.3375 137.041 41.8591 137.047C42.0974 137.047 42.3356 136.904 42.5739 136.832C42.7542 136.773 42.9474 136.656 43.1149 136.682C44.0422 136.832 44.6218 136.545 45.0146 135.697C45.0339 135.658 45.0661 135.632 45.0919 135.606C45.7166 135.834 45.9033 136.193 45.7359 136.858C45.504 137.784 45.2722 138.717 45.0275 139.643C45.0017 139.748 44.9051 139.832 44.8536 139.937C44.7763 140.087 44.6347 140.25 44.6475 140.393C44.6733 140.752 44.5703 141.039 44.4028 141.359C44.0744 141.978 43.2565 142.37 42.619 142.07C42.2133 141.881 41.6917 142.005 41.389 141.561C41.2344 141.339 41.0863 141.091 40.8802 140.928C40.2942 140.452 39.676 140.015 39.0706 139.552C38.8968 139.422 38.7358 139.265 38.5683 139.121C38.4717 139.037 38.3816 138.939 38.2721 138.88C37.6796 138.547 37.0807 138.228 36.4818 137.908C36.3723 137.85 36.2307 137.758 36.1276 137.778C35.1745 138.019 34.3889 137.308 33.4808 137.295C33.1266 137.295 32.7789 137.165 32.4247 137.139C31.7034 137.086 31.4072 136.78 31.5102 136.069C31.6133 135.345 31.7807 134.634 31.8773 133.91C31.916 133.603 31.858 133.277 31.8322 132.964C31.8194 132.827 31.7807 132.69 31.7485 132.527L31.7743 132.521Z" fill="white"/>
<path d="M44.319 80.8413C44.3319 81.1088 44.435 81.4153 44.3384 81.6306C44.1645 82.0154 43.8683 82.3416 43.6235 82.6938C43.4239 82.9808 43.2243 83.2743 43.0118 83.5483C42.8508 83.757 42.6576 83.9461 42.4772 84.1418C42.4322 84.1092 42.3807 84.0701 42.3356 84.0375C42.5932 83.4765 42.8186 82.9025 43.1212 82.3611C43.4239 81.8263 43.7974 81.3371 44.1323 80.8218C44.1967 80.8218 44.2546 80.8348 44.319 80.8413Z" fill="white"/>
<path d="M37.5894 142.474C37.7698 141.737 38.0918 141.359 38.5619 141.333C38.8323 141.313 39.2574 141.691 39.3733 142.063C38.8066 142.291 38.3494 142.931 37.583 142.474H37.5894Z" fill="white"/>
<path d="M25.6628 81.4219C25.9913 80.8414 26.1652 80.2218 26.5709 79.8891C27.2728 79.3021 28.1808 79.0607 29.1017 79.002C29.5525 78.9694 30.2802 79.5565 30.4605 80.0065C30.5443 80.2153 30.6924 80.4175 30.8598 80.561C31.1625 80.8153 31.3364 81.1089 31.2333 81.5002C31.1303 81.8916 30.8534 82.1134 30.4477 82.1134C30.0419 82.1134 29.8037 81.8851 29.6491 81.5067C29.5847 81.3502 29.398 81.2328 29.2627 81.1089C29.2241 81.0697 29.1404 81.0828 29.1082 81.0436C28.6896 80.5544 28.2903 80.861 27.9297 81.1023C27.6141 81.3111 27.3694 81.6307 27.0539 81.8264C26.8349 81.9633 26.5129 82.0873 26.2875 82.022C26.0557 81.9503 25.8882 81.6502 25.6628 81.4219Z" fill="black"/>
<path d="M29.4108 73.125C29.4108 73.4903 29.4173 73.8621 29.4108 74.2273C29.4108 74.3252 29.3658 74.4295 29.3142 74.5078C29.076 74.8861 28.8184 75.2579 28.593 75.6427C28.5479 75.7145 28.5608 75.8776 28.6123 75.9428C28.8119 76.2037 29.0309 76.4516 29.2563 76.6929C29.4688 76.9147 29.5718 77.1495 29.4237 77.4365C29.2756 77.717 29.0245 77.7235 28.754 77.6387C28.6381 77.6061 28.5028 77.6387 28.374 77.6126C28.168 77.5735 27.9361 77.5604 27.7687 77.456C27.4338 77.2473 27.1247 76.9929 26.822 76.732C26.4292 76.3994 26.558 75.6493 27.0088 75.1927C27.6077 74.5926 28.1937 73.9795 28.3676 73.0924C28.3805 73.0206 28.3869 72.9228 28.432 72.8902C28.6831 72.7271 28.9407 72.5836 29.1983 72.4336C29.3207 72.6423 29.4366 72.851 29.559 73.0598C29.5139 73.0793 29.4624 73.0989 29.4173 73.125H29.4108Z" fill="black"/>
<path d="M18.4245 69.433C18.8366 69.433 19.2488 69.42 19.6545 69.433C20.0538 69.4461 20.3371 69.3156 20.4788 68.9047C20.6205 68.4938 20.9231 68.2785 21.361 68.2981C22.0888 68.3307 22.4236 68.8264 22.0694 69.4591C21.6058 70.2745 20.9296 70.9659 20.0216 71.1746C19.2488 71.3507 18.4245 71.1746 17.8706 70.4767C17.7419 70.3136 17.7097 69.9614 17.7934 69.7657C17.8835 69.557 18.1669 69.4396 18.3665 69.283C18.3923 69.3352 18.4116 69.3809 18.4374 69.433H18.4245Z" fill="black"/>
<path d="M22.6876 71.9248C23.1126 71.9835 23.4475 72.0292 23.7824 72.0748C23.8081 72.0748 23.8532 72.0879 23.8596 72.1074C24.0528 72.4923 24.3491 72.8706 24.407 73.275C24.4585 73.6337 24.1881 73.9729 23.7566 74.0773C23.6471 74.1034 23.5505 74.1751 23.4475 74.2273C23.0418 74.4491 22.6361 74.5861 22.2046 74.273C21.7602 73.9468 21.5735 73.5294 21.6701 72.9619C21.7989 72.1727 22.0307 71.9379 22.6811 71.9248H22.6876Z" fill="black"/>
<path d="M33.6031 73.5033C33.6611 72.564 34.2021 72.1792 34.9684 72.4335C35.1036 72.4792 35.2389 72.5183 35.3805 72.5509C35.6832 72.6357 35.8249 72.8379 35.8313 73.151C35.8313 73.2815 35.8313 73.4119 35.8507 73.5359C35.9666 74.2077 35.7476 74.5795 35.1358 74.7556C34.64 74.8991 33.9316 74.5208 33.7577 74.012C33.6933 73.8098 33.6353 73.6011 33.6096 73.5033H33.6031Z" fill="black"/>
</g>
<g clip-path="url(#clip1_221_299)">
<path d="M70.0619 22.0882C71.4684 22.8328 72.8919 23.5464 74.3571 24.1658L74.0804 24.0484C75.8099 24.7759 77.609 25.3845 79.4761 25.6347L79.1685 25.593C80.1051 25.7151 81.0526 25.7398 81.9908 25.6162L81.6832 25.6579C82.3571 25.5637 83.0155 25.3922 83.6446 25.1312L83.3679 25.2486C83.7481 25.0864 84.1129 24.8918 84.4545 24.6601C84.5379 24.6045 84.6183 24.5442 84.6987 24.4855C84.8099 24.4037 84.4715 24.6678 84.6136 24.5504C84.6554 24.5164 84.6971 24.4824 84.7388 24.4469C84.8888 24.3202 85.0325 24.1859 85.1701 24.0453C85.3076 23.9047 85.4344 23.758 85.558 23.6082C85.6739 23.4661 85.4096 23.8059 85.49 23.6962C85.5163 23.6607 85.5426 23.6252 85.5688 23.5896C85.6307 23.5047 85.6909 23.4166 85.7481 23.3286C85.9599 23.0042 86.1392 22.6598 86.2922 22.3029L86.1747 22.5794C86.422 21.9878 86.5874 21.3684 86.6739 20.7336L86.6322 21.041C86.7188 20.3644 86.7126 19.6848 86.626 19.0082L86.6677 19.3156C86.5379 18.3518 86.2613 17.4188 85.8857 16.5229L86.0031 16.7994C85.4606 15.5204 84.7327 14.328 83.9027 13.2143C83.847 13.1401 83.7914 13.0675 83.7358 12.9934C83.6136 12.8328 83.8996 13.2019 83.7265 12.981C83.6121 12.8358 83.4962 12.6907 83.3787 12.5485C83.1531 12.2736 82.9212 12.0048 82.6847 11.7392C82.2504 11.2526 81.8022 10.7815 81.337 10.3243C80.8718 9.86705 80.3834 9.41601 79.8857 8.98506C79.6353 8.76726 79.3818 8.5541 79.1237 8.34558C78.9985 8.24363 78.8733 8.14323 78.7466 8.04283C78.6786 7.98877 78.6121 7.93625 78.5441 7.88373C78.5147 7.86056 78.4205 7.78796 78.5596 7.89454C78.7157 8.01503 78.5596 7.89454 78.5225 7.86674C77.4545 7.05271 76.3354 6.30202 75.1778 5.61929C73.8594 4.84233 72.4885 4.15497 71.0773 3.55874L71.354 3.67613C69.9537 3.08762 68.507 2.54854 66.9939 2.34465L67.3014 2.38636C66.6739 2.30604 66.0387 2.28595 65.4096 2.36937L65.7172 2.32766C65.3045 2.3879 64.9027 2.49603 64.5194 2.65821L64.796 2.54082C64.6137 2.6196 64.4359 2.70919 64.2659 2.81422C64.184 2.8652 64.1036 2.9208 64.0248 2.97641C63.9135 3.05364 64.2535 2.78796 64.116 2.9069C64.0773 2.94088 64.0371 2.97332 63.9985 3.0073C63.9351 3.06291 63.8749 3.12315 63.8177 3.18339C63.7837 3.22046 63.7512 3.25753 63.7188 3.29461C63.5936 3.43362 63.8888 3.0521 63.7775 3.21583C63.6755 3.36411 63.5858 3.51394 63.5132 3.67922L63.6307 3.40273C63.5565 3.58345 63.5039 3.77035 63.4761 3.96343L63.5178 3.65605C63.4916 3.8723 63.4962 4.08546 63.5256 4.30171L63.4838 3.99433C63.5333 4.31407 63.6307 4.61836 63.7543 4.91493L63.6368 4.63844C63.9877 5.44938 64.4962 6.19235 64.9753 6.93223C65.4545 7.67212 65.9027 8.33477 66.3849 9.02213C66.8671 9.7095 67.3818 10.4185 67.8996 11.1028C68.0171 11.2588 68.1361 11.4148 68.2551 11.5692C68.2906 11.6156 68.3246 11.6604 68.3602 11.7067C68.3478 11.6913 68.1871 11.4843 68.3061 11.6357C68.3772 11.7268 68.4483 11.8179 68.5178 11.9075C68.7883 12.252 69.0619 12.5949 69.3385 12.9362C71.5209 15.6224 73.8903 18.1587 76.4158 20.5251C76.7466 20.8355 77.082 21.1414 77.4235 21.4379C77.5966 21.5878 77.7713 21.7345 77.949 21.8782C78.0418 21.9539 78.133 22.0326 78.2303 22.1021C78.218 22.0929 78 21.9276 78.1515 22.0404C78.2041 22.0805 78.2551 22.1191 78.3076 22.1578C79.0433 22.7046 79.8285 23.1834 80.6724 23.5417L80.3957 23.4244C80.9846 23.67 81.592 23.846 82.2242 23.9341L81.9166 23.8924C82.4684 23.9634 83.0248 23.9712 83.5766 23.897L83.269 23.9387C83.6616 23.8816 84.0433 23.7858 84.4096 23.6313L84.133 23.7487C84.2813 23.6839 84.4251 23.6113 84.5626 23.5278C84.6291 23.4861 84.694 23.4413 84.7589 23.3966C84.9197 23.2869 84.5286 23.5927 84.6708 23.463C84.6987 23.4367 84.7296 23.412 84.7574 23.3873C84.8146 23.3348 84.8687 23.2807 84.9197 23.2236C84.946 23.1958 84.9691 23.1664 84.9954 23.1371C85.1082 23.0073 84.8439 23.3564 84.9119 23.2436C85.0016 23.0953 85.0928 22.9548 85.1639 22.7941L85.0464 23.0706C85.1345 22.859 85.1932 22.6428 85.2242 22.4157L85.1824 22.7231C85.2102 22.479 85.2056 22.2365 85.1732 21.9925L85.2149 22.2999C85.1639 21.9539 85.0603 21.6202 84.9259 21.2989L85.0433 21.5754C84.8996 21.2418 84.7249 20.9236 84.5286 20.6177C84.4297 20.4648 84.3262 20.315 84.2195 20.1683C84.1948 20.1358 84.1701 20.1018 84.1453 20.0694C84.0356 19.9211 84.2072 20.1466 84.2133 20.1559C84.1469 20.0632 84.0696 19.9752 83.9954 19.8871C83.4885 19.2785 82.9243 18.7194 82.3293 18.1973C81.7002 17.6443 81.0387 17.1253 80.3803 16.6109C80.3076 16.5553 80.2365 16.4982 80.1639 16.4426C80.0124 16.3252 80.2211 16.4858 80.235 16.4982C80.1902 16.4627 80.1438 16.4287 80.099 16.3932C79.9259 16.2603 79.7528 16.129 79.5796 15.9977C79.2319 15.7351 78.881 15.4772 78.5286 15.2208C75.762 13.2112 72.8594 11.3916 69.8517 9.76819C68.1314 8.83986 66.3756 7.94706 64.5766 7.17937L64.8532 7.29677C64.3911 7.10369 63.9197 6.93687 63.4205 6.86581L63.728 6.90752C63.4715 6.87663 63.218 6.87508 62.9614 6.90752L63.269 6.86581C63.0495 6.8998 62.8378 6.96004 62.6322 7.04499L62.9089 6.9276C62.779 6.98475 62.6523 7.05117 62.5333 7.12686C62.473 7.16393 62.4189 7.20872 62.3586 7.24734C62.6554 7.06044 62.5008 7.13612 62.4282 7.19791C62.32 7.28904 62.2195 7.3879 62.1237 7.49294C62.0758 7.54545 62.0294 7.59797 61.983 7.65358C61.9599 7.68138 61.9382 7.70919 61.9166 7.73699C62.0371 7.57944 62.0711 7.53619 62.0171 7.60878C61.6878 8.06909 61.4344 8.56646 61.2118 9.08701L61.3293 8.81052C60.9135 9.79908 60.6368 10.8371 60.4946 11.8998L60.5364 11.5924C60.3849 12.7632 60.3957 13.9464 60.5518 15.1157L60.5101 14.8084C60.6909 16.112 61.048 17.3833 61.5596 18.5974L61.4421 18.3209C61.847 19.2724 62.3432 20.1837 62.9212 21.0425C63.0511 21.2341 63.184 21.424 63.32 21.6109C63.3772 21.6897 63.4359 21.767 63.4931 21.8442C63.5426 21.9091 63.6847 22.079 63.4545 21.7948C63.5039 21.855 63.5503 21.9168 63.5997 21.9786C63.895 22.3477 64.2025 22.7046 64.524 23.049C65.1654 23.7379 65.8563 24.382 66.5858 24.9783C66.6801 25.0555 66.7744 25.1312 66.8702 25.2069C66.9181 25.2439 66.966 25.281 67.014 25.3196C66.7327 25.0941 66.9104 25.2393 66.9738 25.2872C67.1685 25.4355 67.3664 25.5791 67.5657 25.7212C67.9676 26.0055 68.3787 26.2758 68.7991 26.5322C69.7497 27.1145 70.745 27.6242 71.7713 28.0598L71.4946 27.9424C72.864 28.5186 74.3154 29.0144 75.7914 29.2245L75.4838 29.1828C76.0155 29.2538 76.5503 29.2755 77.082 29.2059L76.7744 29.2477C77.1252 29.1967 77.4622 29.104 77.7898 28.9681L77.5132 29.0855C77.8038 28.9603 78.0696 28.8028 78.3293 28.6236C78.4931 28.5109 78.0912 28.8198 78.3215 28.6282C78.3648 28.5912 78.4096 28.5541 78.4514 28.5155C78.5642 28.4135 78.6708 28.307 78.7728 28.1957C78.8239 28.1401 78.8718 28.083 78.9197 28.0258C79.1082 27.7972 78.796 28.2004 78.9089 28.0397C78.9784 27.9424 79.0464 27.8436 79.1098 27.7416C79.252 27.513 79.3741 27.2736 79.4792 27.0265L79.3617 27.3029C79.5333 26.8859 79.6477 26.4519 79.711 26.0054L79.6693 26.3128C79.7466 25.732 79.7373 25.1482 79.66 24.5689L79.7017 24.8763C79.5951 24.1133 79.3756 23.3734 79.0773 22.6644L79.1948 22.9409C78.8501 22.133 78.4065 21.3684 77.8872 20.6595C77.8316 20.5838 77.6028 20.3057 77.8517 20.6069C77.7883 20.5297 77.7265 20.4494 77.6631 20.3706C77.5101 20.1837 77.3509 19.9999 77.1871 19.8207C76.8795 19.4855 76.5518 19.1689 76.2133 18.8646C76.0402 18.7086 75.8625 18.5572 75.6832 18.4089C75.6013 18.3409 75.5194 18.2745 75.4359 18.2081C75.3864 18.1679 75.3354 18.1293 75.286 18.0892C75.099 17.9409 75.5086 18.2575 75.3184 18.1139C74.9336 17.825 74.5426 17.5455 74.1407 17.2798C73.3354 16.7484 72.4962 16.268 71.6384 15.8263C70.66 15.3212 69.6585 14.8655 68.6446 14.4376L68.9212 14.555C67.8548 14.1055 66.7775 13.6869 65.694 13.2807C64.4916 12.8297 63.269 12.4064 61.9908 12.2319L62.2984 12.2736C61.6013 12.184 60.9011 12.1778 60.2025 12.2705L60.5101 12.2288C59.8501 12.3215 59.2087 12.496 58.5951 12.754L58.8718 12.6366C58.4622 12.8127 58.0681 13.0212 57.6971 13.2668C57.609 13.3255 57.5225 13.3842 57.4375 13.446C57.3957 13.4769 57.354 13.5093 57.3107 13.5402C57.4684 13.4166 57.5132 13.3827 57.4421 13.4398C57.422 13.4552 57.4019 13.4722 57.3803 13.4892C57.2118 13.6252 57.0511 13.7688 56.8965 13.9202C56.7419 14.0716 56.5982 14.226 56.4591 14.3882C56.3911 14.4685 56.1778 14.7713 56.4174 14.4315C56.3586 14.5149 56.2968 14.5936 56.2396 14.6786C56.0016 15.0246 55.8007 15.3922 55.6368 15.7784L55.7543 15.5019C55.5441 16.0054 55.4081 16.5306 55.3324 17.0713L55.3741 16.7639C55.2829 17.4497 55.2922 18.1401 55.3818 18.826L55.3401 18.5186C55.4637 19.4176 55.7203 20.2887 56.0696 21.1259L55.9521 20.8494C56.3741 21.8426 56.9228 22.7787 57.5626 23.6468C57.6013 23.6993 57.6415 23.7518 57.6801 23.8043C57.7002 23.8306 57.7188 23.8584 57.7404 23.8831C57.7481 23.8924 57.5812 23.6808 57.66 23.7781C57.7497 23.8893 57.8378 24.0021 57.929 24.1117C58.1036 24.3218 58.2829 24.5272 58.4668 24.728C58.83 25.1235 59.2087 25.505 59.6028 25.8695C59.997 26.2341 60.4143 26.5924 60.8378 26.9322C60.949 27.0218 61.0588 27.113 61.1732 27.1964C61.184 27.2041 60.9691 27.0404 61.0696 27.116C61.0959 27.1361 61.1222 27.1562 61.1484 27.1763C61.2103 27.2226 61.2705 27.269 61.3324 27.3153C61.5534 27.4806 61.7775 27.6412 62.0031 27.8003C62.915 28.4398 63.864 29.0268 64.8347 29.5751C65.9614 30.2115 67.1144 30.8294 68.3076 31.3345L68.031 31.2171C68.6755 31.4858 69.3401 31.7113 70.0325 31.8118L69.7249 31.77C70.1222 31.8226 70.5178 31.8318 70.915 31.7793L70.6075 31.821C70.9027 31.7762 71.1855 31.6974 71.4606 31.5831L71.184 31.7005C71.4653 31.5785 71.7095 31.4179 71.9614 31.2464C71.6461 31.4611 71.8702 31.3144 71.9413 31.2526C71.997 31.2047 72.0511 31.1537 72.1036 31.1028C72.2025 31.007 72.2968 30.9066 72.3864 30.8016C72.4282 30.7537 72.4668 30.7012 72.5086 30.6533C72.2551 30.9406 72.4359 30.7475 72.49 30.6703C72.5735 30.5529 72.6507 30.4324 72.7249 30.3088C72.864 30.074 72.9877 29.83 73.0943 29.5797L72.9769 29.8562C73.2025 29.3202 73.3524 28.7595 73.4313 28.1849L73.3895 28.4923C73.4761 27.8328 73.4699 27.167 73.3818 26.5075L73.4235 26.8148C73.3184 26.0533 73.1082 25.315 72.8084 24.6075L72.9259 24.884C72.7234 24.4129 72.4838 23.9573 72.2087 23.5232C72.0681 23.3008 71.915 23.0876 71.7589 22.876C71.6956 22.788 71.8517 22.9934 71.8501 22.9934C71.8455 22.9934 71.8007 22.9301 71.7945 22.9239C71.7512 22.8698 71.7079 22.8158 71.6631 22.7632C71.5735 22.6567 71.4823 22.5501 71.3895 22.4466C71.0418 22.062 70.6647 21.7052 70.2643 21.3793C70.218 21.3406 70.1469 21.302 70.1098 21.2557C70.0974 21.2402 70.3277 21.4225 70.2319 21.3499C70.2087 21.3329 70.1871 21.3159 70.1639 21.2989C70.0572 21.2186 69.949 21.1414 69.8409 21.0657C69.6291 20.919 69.4127 20.7784 69.1917 20.6455C68.6878 20.3428 68.1639 20.0787 67.6229 19.8485L67.8996 19.9659C66.8517 19.5257 65.7512 19.2214 64.6245 19.0654L64.932 19.1071C63.9336 18.9727 62.9228 18.9573 61.9228 19.0886L62.2303 19.0468C61.5302 19.1426 60.8316 19.3033 60.1747 19.572L60.4514 19.4546C60.1623 19.5767 59.9089 19.7327 59.6461 19.8995C59.9537 19.7033 59.7497 19.8207 59.6724 19.8933C59.6214 19.9412 59.5796 20.0014 59.5271 20.0478C59.6523 19.8794 59.6817 19.8423 59.6137 19.9366C59.5936 19.9644 59.575 19.9937 59.558 20.0231C59.5225 20.0818 59.4931 20.142 59.4653 20.2053L59.5827 19.9288C59.5379 20.0416 59.507 20.1544 59.49 20.2748L59.5317 19.9675C59.5178 20.091 59.5178 20.213 59.5317 20.3382L59.49 20.0308C59.5116 20.1868 59.5534 20.3335 59.6121 20.4787L59.4946 20.2022C59.5503 20.3304 59.6152 20.454 59.6894 20.5714C59.7265 20.6301 59.7651 20.6857 59.8053 20.7413C59.8594 20.817 59.9599 20.8973 59.7373 20.6548C59.7682 20.6873 59.7945 20.7243 59.8239 20.7599C60.0402 21.0147 60.2829 21.2495 60.5317 21.4735C61.0325 21.9261 61.5719 22.3369 62.0619 22.8034C63.1407 23.8291 63.9707 25.1605 64.3694 26.597C64.7342 27.9115 64.7543 29.399 64.2365 30.6764C63.6832 32.0404 62.6987 33.1401 61.4266 33.8847C59.9861 34.7265 58.2582 35.1003 56.5967 34.9875C56.2875 34.9659 56.0016 34.8732 55.7775 34.6477C55.5766 34.4469 55.4251 34.1164 55.4375 33.8291C55.4637 33.2359 55.949 32.6273 56.5967 32.6706C57.1191 32.7061 57.6415 32.6907 58.1608 32.6258L57.8532 32.6675C58.5024 32.5794 59.1361 32.4142 59.7404 32.1624L59.4637 32.2798C59.8022 32.1361 60.1314 31.9678 60.4421 31.7716C60.5858 31.6805 60.7249 31.5816 60.8625 31.4812C60.9722 31.3993 60.6337 31.665 60.7744 31.5476C60.8084 31.5198 60.8424 31.492 60.8764 31.4627C60.9429 31.4055 61.0093 31.3468 61.0742 31.2881C61.1948 31.1754 61.3123 31.058 61.422 30.9344C61.4792 30.8695 61.5348 30.8031 61.5905 30.7367C61.7064 30.5977 61.4436 30.9406 61.5209 30.8294C61.5456 30.7938 61.5719 30.7599 61.5967 30.7259C61.7945 30.4478 61.9614 30.1482 62.0959 29.8346L61.9784 30.1111C62.1438 29.7126 62.2535 29.2986 62.3107 28.8708L62.269 29.1781C62.3277 28.7055 62.3231 28.2313 62.2628 27.7586L62.3045 28.066C62.2273 27.5007 62.0742 26.9523 61.8548 26.4256L61.9722 26.7021C61.7698 26.2232 61.5178 25.7676 61.218 25.3428C61.184 25.2949 61.15 25.247 61.1144 25.1991C61.0974 25.176 61.0789 25.1513 61.0603 25.1281C60.9769 25.0153 61.2226 25.3304 61.1314 25.2223C61.0402 25.1142 60.9537 25.0061 60.8609 24.901C60.6848 24.7033 60.4993 24.5164 60.3045 24.3388C59.4653 23.5711 58.5565 22.9115 57.8625 21.9987C57.49 21.509 57.2736 20.9498 57.2087 20.3413C57.1314 19.6261 57.4297 18.948 57.8857 18.4135C58.3416 17.8791 58.9444 17.5933 59.5565 17.3416C60.0109 17.1547 60.49 17.0218 60.9707 16.9245C63.1052 16.4905 65.3555 16.6696 67.4251 17.3338C69.5379 18.0119 71.5549 19.1781 73.0464 20.8386C74.5379 22.4991 75.558 24.6554 75.7419 26.9384C75.9089 29.0098 75.252 31.2773 73.7358 32.7494C72.7868 33.6715 71.5132 34.1967 70.1824 34.1395C68.7682 34.0793 67.4483 33.5263 66.1933 32.9146C64.0387 31.8658 61.9382 30.6703 60.0232 29.2245C58.0325 27.7215 56.2211 25.9838 54.895 23.8538C53.6863 21.9106 52.8409 19.5689 52.9985 17.2535C53.0742 16.1275 53.3555 15.0478 53.9011 14.0546C54.3756 13.1896 55.0418 12.4049 55.8161 11.7948C56.7018 11.0966 57.6801 10.5652 58.7667 10.2439C59.8532 9.92266 60.997 9.81916 62.1082 9.94428C63.5132 10.1018 64.8409 10.5143 66.1608 11.0054C67.2813 11.4225 68.3957 11.855 69.4977 12.3184C71.7296 13.2575 73.9305 14.3048 75.912 15.7089C77.8934 17.113 79.5796 18.7317 80.7234 20.8247C81.7636 22.7277 82.3494 24.9721 81.8486 27.1253C81.6028 28.1772 81.0572 29.172 80.3061 29.9474C79.371 30.9128 78.133 31.458 76.8007 31.5646C76.0897 31.6202 75.3648 31.5214 74.6677 31.3885C74.0727 31.2742 73.4854 31.1136 72.9073 30.9344C71.7759 30.5838 70.6693 30.1389 69.6028 29.6245C67.5549 28.6391 65.6492 27.3354 63.9784 25.7954C62.3076 24.2554 60.9212 22.5099 59.9104 20.5312C58.7852 18.3317 58.1206 15.8927 58.0974 13.4151C58.0866 12.2365 58.2273 11.041 58.5163 9.8964C58.6477 9.37894 58.813 8.87076 59.014 8.37647C59.235 7.83121 59.4668 7.28287 59.7806 6.7824C60.4065 5.78611 61.3602 4.87632 62.558 4.66161C63.32 4.52414 64.0789 4.5921 64.8146 4.83307C65.4962 5.0555 66.1484 5.37215 66.7991 5.67335C69.0541 6.71907 71.2597 7.87137 73.4034 9.12871C75.5426 10.3814 77.6229 11.7376 79.6307 13.1942C80.6832 13.9573 81.7172 14.7466 82.7311 15.5606C83.6477 16.2958 84.5456 17.0496 85.3308 17.927C86.1438 18.8352 86.864 19.8392 87.2643 21.0008C87.6384 22.0852 87.5936 23.3471 86.963 24.3311C85.6832 26.3298 82.9181 26.5723 80.8099 26.0302C78.3973 25.4108 76.4127 23.7317 74.6415 22.062C72.8038 20.3304 71.0495 18.5109 69.388 16.6079C67.7157 14.6925 66.1376 12.6922 64.6631 10.6208C63.9521 9.62145 63.2674 8.60508 62.609 7.57017C62.269 7.03418 61.9212 6.49819 61.6616 5.9174C61.3571 5.23776 61.1052 4.49942 61.1747 3.74101C61.2906 2.47286 62.0433 1.44258 63.1268 0.798466C64.2103 0.154351 65.5132 -0.0649874 66.7497 0.0168785C68.1052 0.106468 69.4189 0.464824 70.6878 0.934395C71.8795 1.37616 73.0511 1.88589 74.1902 2.45123C76.3463 3.52167 78.3664 4.8238 80.2613 6.30665C82.1562 7.78951 83.7682 9.34959 85.2149 11.1537C86.7883 13.1154 88.1762 15.3335 88.7419 17.8127C89.2381 19.986 89.0464 22.3045 87.9011 24.2507C86.7528 26.2016 84.7512 27.4929 82.5271 27.859C80.1376 28.2514 77.7157 27.8111 75.4436 27.0419C73.1716 26.2727 71.0047 25.2115 68.8888 24.0901C68.3524 23.8059 68.1438 23.0166 68.473 22.5053C68.8254 21.96 69.4854 21.7855 70.0588 22.0898L70.0619 22.0882Z" fill="#231815"/>
</g>
<defs>
<clipPath id="clip0_221_299">
<rect width="53" height="122" fill="white" transform="translate(0 35)"/>
</clipPath>
<clipPath id="clip1_221_299">
<rect width="36" height="35" fill="white" transform="matrix(-1 0 0 1 89 0)"/>
</clipPath>
</defs>
</svg>
